<?xml version="1.0" standalone="no"?>
<!DOCTYPE svg PUBLIC "-//W3C//DTD SVG 1.1//EN"
"http://www.w3.org/Graphics/SVG/1.1/DTD/svg11.dtd">
<svg width="579.219" height="579.219" viewBox="0 0 12067.1 12067.1" version="1.1"
xmlns="http://www.w3.org/2000/svg"
xmlns:xlink="http://www.w3.org/1999/xlink">
<circle cx="915.416" cy="11151.6" r="31.5" style=""/>
<circle cx="4328.02" cy="10228" r="31.5" style=""/>
<circle cx="4328.02" cy="10428" r="31.5" style=""/>
<circle cx="4328.02" cy="10628" r="31.5" style=""/>
<circle cx="5328.02" cy="10428" r="31.5" style=""/>
<circle cx="5328.02" cy="10628" r="31.5" style=""/>
<circle cx="5328.02" cy="10828" r="31.5" style=""/>
<circle cx="6103.62" cy="10840.6" r="31.5" style=""/>
<circle cx="6103.62" cy="10640.6" r="31.5" style=""/>
<circle cx="6103.62" cy="10440.6" r="31.5" style=""/>
<circle cx="6103.62" cy="10240.6" r="31.5" style=""/>
<circle cx="6103.62" cy="10040.6" r="31.5" style=""/>
<circle cx="6103.62" cy="9840.62" r="31.5" style=""/>
<circle cx="6103.62" cy="9640.62" r="31.5" style=""/>
<circle cx="7428.02" cy="10728" r="31.5" style=""/>
<circle cx="7428.02" cy="10528" r="31.5" style=""/>
<circle cx="7428.02" cy="10328" r="31.5" style=""/>
<circle cx="7428.02" cy="10128" r="31.5" style=""/>
<circle cx="7428.02" cy="9928.02" r="31.5" style=""/>
<circle cx="7428.02" cy="9728.02" r="31.5" style=""/>
<circle cx="7428.02" cy="9528.02" r="31.5" style=""/>
<circle cx="7428.02" cy="9328.02" r="31.5" style=""/>
<circle cx="7428.02" cy="9128.02" r="31.5" style=""/>
<circle cx="7428.02" cy="8928.02" r="31.5" style=""/>
<circle cx="7428.02" cy="8728.02" r="31.5" style=""/>
<circle cx="7428.02" cy="8528.02" r="31.5" style=""/>
<circle cx="7428.02" cy="8328.02" r="31.5" style=""/>
<circle cx="7428.02" cy="8128.02" r="31.5" style=""/>
<circle cx="8028.02" cy="8128.02" r="31.5" style=""/>
<circle cx="8028.02" cy="8328.02" r="31.5" style=""/>
<circle cx="8028.02" cy="8528.02" r="31.5" style=""/>
<circle cx="8028.02" cy="8728.02" r="31.5" style=""/>
<circle cx="8028.02" cy="8928.02" r="31.5" style=""/>
<circle cx="8028.02" cy="9128.02" r="31.5" style=""/>
<circle cx="8028.02" cy="9328.02" r="31.5" style=""/>
<circle cx="8028.02" cy="9528.02" r="31.5" style=""/>
<circle cx="8028.02" cy="9728.02" r="31.5" style=""/>
<circle cx="8028.02" cy="9928.02" r="31.5" style=""/>
<circle cx="8028.02" cy="10128" r="31.5" style=""/>
<circle cx="8028.02" cy="10328" r="31.5" style=""/>
<circle cx="8028.02" cy="10528" r="31.5" style=""/>
<circle cx="8028.02" cy="10728" r="31.5" style=""/>
<circle cx="11151.6" cy="11151.6" r="31.5" style=""/>
<circle cx="11128" cy="10578" r="31.5" style=""/>
<circle cx="11328" cy="10378" r="31.5" style=""/>
<circle cx="11328" cy="10178" r="31.5" style=""/>
<circle cx="11328" cy="10578" r="31.5" style=""/>
<circle cx="11128" cy="10378" r="31.5" style=""/>
<circle cx="11128" cy="10178" r="31.5" style=""/>
<circle cx="10938" cy="9528.02" r="31.5" style=""/>
<circle cx="10938" cy="9128.02" r="31.5" style=""/>
<circle cx="11428" cy="8528.02" r="31.5" style=""/>
<circle cx="11428" cy="8328.02" r="31.5" style=""/>
<circle cx="11428" cy="8128.02" r="31.5" style=""/>
<circle cx="11428" cy="7928.02" r="31.5" style=""/>
<circle cx="10828" cy="8528.02" r="31.5" style=""/>
<circle cx="10828" cy="8328.02" r="31.5" style=""/>
<circle cx="10828" cy="8128.02" r="31.5" style=""/>
<circle cx="10828" cy="7928.02" r="31.5" style=""/>
<circle cx="8985.42" cy="5609.62" r="31.5" style=""/>
<circle cx="8785.42" cy="5609.62" r="31.5" style=""/>
<circle cx="8585.42" cy="5609.62" r="31.5" style=""/>
<circle cx="8385.42" cy="5609.62" r="31.5" style=""/>
<circle cx="8185.42" cy="5609.62" r="31.5" style=""/>
<circle cx="7985.42" cy="5609.62" r="31.5" style=""/>
<circle cx="7985.42" cy="4586.02" r="31.5" style=""/>
<circle cx="8185.42" cy="4586.02" r="31.5" style=""/>
<circle cx="8385.42" cy="4586.02" r="31.5" style=""/>
<circle cx="8585.42" cy="4586.02" r="31.5" style=""/>
<circle cx="8785.42" cy="4586.02" r="31.5" style=""/>
<circle cx="8985.42" cy="4586.02" r="31.5" style=""/>
<circle cx="9945.22" cy="3630.22" r="31.5" style=""/>
<circle cx="9944.02" cy="3428.82" r="31.5" style=""/>
<circle cx="10144" cy="3428.82" r="31.5" style=""/>
<circle cx="10344" cy="3428.82" r="31.5" style=""/>
<circle cx="10145.2" cy="3630.22" r="31.5" style=""/>
<circle cx="10345.2" cy="3630.22" r="31.5" style=""/>
<circle cx="10545.2" cy="3630.22" r="31.5" style=""/>
<circle cx="10745.2" cy="3630.22" r="31.5" style=""/>
<circle cx="11127.4" cy="3328.82" r="31.5" style=""/>
<circle cx="10745.2" cy="3030.22" r="31.5" style=""/>
<circle cx="10744" cy="3228.82" r="31.5" style=""/>
<circle cx="10744" cy="3428.82" r="31.5" style=""/>
<circle cx="10544" cy="3428.82" r="31.5" style=""/>
<circle cx="10544" cy="3228.82" r="31.5" style=""/>
<circle cx="10545.2" cy="3030.22" r="31.5" style=""/>
<circle cx="10345.2" cy="3030.22" r="31.5" style=""/>
<circle cx="10344" cy="3228.82" r="31.5" style=""/>
<circle cx="10145.2" cy="3030.22" r="31.5" style=""/>
<circle cx="10144" cy="3228.82" r="31.5" style=""/>
<circle cx="9944.02" cy="3228.82" r="31.5" style=""/>
<circle cx="9945.22" cy="3030.22" r="31.5" style=""/>
<circle cx="11151.6" cy="915.416" r="31.5" style=""/>
<circle cx="11127.4" cy="1517.82" r="31.5" style=""/>
<circle cx="9745.22" cy="3030.22" r="31.5" style=""/>
<circle cx="9744.02" cy="3228.82" r="31.5" style=""/>
<circle cx="9545.22" cy="3030.22" r="31.5" style=""/>
<circle cx="9544.02" cy="3228.82" r="31.5" style=""/>
<circle cx="9345.22" cy="3030.22" r="31.5" style=""/>
<circle cx="9344.02" cy="3228.82" r="31.5" style=""/>
<circle cx="9145.22" cy="3030.22" r="31.5" style=""/>
<circle cx="9144.02" cy="3228.82" r="31.5" style=""/>
<circle cx="8945.22" cy="3030.22" r="31.5" style=""/>
<circle cx="8944.02" cy="3228.82" r="31.5" style=""/>
<circle cx="8745.22" cy="3030.22" r="31.5" style=""/>
<circle cx="8744.02" cy="3228.82" r="31.5" style=""/>
<circle cx="8545.22" cy="3030.22" r="31.5" style=""/>
<circle cx="8544.02" cy="3228.82" r="31.5" style=""/>
<circle cx="8345.22" cy="3030.22" r="31.5" style=""/>
<circle cx="8344.02" cy="3228.82" r="31.5" style=""/>
<circle cx="8145.22" cy="3030.22" r="31.5" style=""/>
<circle cx="8144.02" cy="3228.82" r="31.5" style=""/>
<circle cx="7945.22" cy="3030.22" r="31.5" style=""/>
<circle cx="7944.02" cy="3228.82" r="31.5" style=""/>
<circle cx="7745.22" cy="3030.22" r="31.5" style=""/>
<circle cx="7744.02" cy="3228.82" r="31.5" style=""/>
<circle cx="7545.22" cy="3030.22" r="31.5" style=""/>
<circle cx="7544.02" cy="3228.82" r="31.5" style=""/>
<circle cx="7345.22" cy="3030.22" r="31.5" style=""/>
<circle cx="7344.02" cy="3228.82" r="31.5" style=""/>
<circle cx="7145.22" cy="3030.22" r="31.5" style=""/>
<circle cx="7144.02" cy="3228.82" r="31.5" style=""/>
<circle cx="6945.22" cy="3030.22" r="31.5" style=""/>
<circle cx="6944.02" cy="3228.82" r="31.5" style=""/>
<circle cx="6944.02" cy="3428.82" r="31.5" style=""/>
<circle cx="7144.02" cy="3428.82" r="31.5" style=""/>
<circle cx="7344.02" cy="3428.82" r="31.5" style=""/>
<circle cx="7544.02" cy="3428.82" r="31.5" style=""/>
<circle cx="7744.02" cy="3428.82" r="31.5" style=""/>
<circle cx="7944.02" cy="3428.82" r="31.5" style=""/>
<circle cx="8144.02" cy="3428.82" r="31.5" style=""/>
<circle cx="8344.02" cy="3428.82" r="31.5" style=""/>
<circle cx="8544.02" cy="3428.82" r="31.5" style=""/>
<circle cx="8744.02" cy="3428.82" r="31.5" style=""/>
<circle cx="8944.02" cy="3428.82" r="31.5" style=""/>
<circle cx="9144.02" cy="3428.82" r="31.5" style=""/>
<circle cx="9344.02" cy="3428.82" r="31.5" style=""/>
<circle cx="9544.02" cy="3428.82" r="31.5" style=""/>
<circle cx="9744.02" cy="3428.82" r="31.5" style=""/>
<circle cx="9745.22" cy="3630.22" r="31.5" style=""/>
<circle cx="9545.22" cy="3630.22" r="31.5" style=""/>
<circle cx="9345.22" cy="3630.22" r="31.5" style=""/>
<circle cx="9145.22" cy="3630.22" r="31.5" style=""/>
<circle cx="8945.22" cy="3630.22" r="31.5" style=""/>
<circle cx="8745.22" cy="3630.22" r="31.5" style=""/>
<circle cx="8545.22" cy="3630.22" r="31.5" style=""/>
<circle cx="8345.22" cy="3630.22" r="31.5" style=""/>
<circle cx="8145.22" cy="3630.22" r="31.5" style=""/>
<circle cx="7945.22" cy="3630.22" r="31.5" style=""/>
<circle cx="7745.22" cy="3630.22" r="31.5" style=""/>
<circle cx="7545.22" cy="3630.22" r="31.5" style=""/>
<circle cx="7345.22" cy="3630.22" r="31.5" style=""/>
<circle cx="7145.22" cy="3630.22" r="31.5" style=""/>
<circle cx="6945.22" cy="3630.22" r="31.5" style=""/>
<circle cx="6560.42" cy="3328.82" r="31.5" style=""/>
<circle cx="5924.82" cy="2584.02" r="31.5" style=""/>
<circle cx="5924.82" cy="2384.02" r="31.5" style=""/>
<circle cx="5924.82" cy="2184.02" r="31.5" style=""/>
<circle cx="5927.22" cy="1591.82" r="31.5" style=""/>
<circle cx="6560.42" cy="1517.82" r="31.5" style=""/>
<circle cx="6128.02" cy="878.016" r="31.5" style=""/>
<circle cx="5728.02" cy="878.016" r="31.5" style=""/>
<circle cx="4728.02" cy="878.016" r="31.5" style=""/>
<circle cx="4328.02" cy="878.016" r="31.5" style=""/>
<circle cx="4327.22" cy="1591.82" r="31.5" style=""/>
<circle cx="5924.82" cy="2784.02" r="31.5" style=""/>
<circle cx="5146.62" cy="3782.62" r="31.5" style=""/>
<circle cx="4046.62" cy="3782.62" r="31.5" style=""/>
<circle cx="3846.62" cy="3782.62" r="31.5" style=""/>
<circle cx="3646.62" cy="3782.62" r="31.5" style=""/>
<circle cx="3446.62" cy="3782.62" r="31.5" style=""/>
<circle cx="3246.62" cy="3782.62" r="31.5" style=""/>
<circle cx="3046.62" cy="3782.62" r="31.5" style=""/>
<circle cx="2846.62" cy="3782.62" r="31.5" style=""/>
<circle cx="2646.62" cy="3782.62" r="31.5" style=""/>
<circle cx="915.416" cy="915.416" r="31.5" style=""/>
<circle cx="990.016" cy="1728.02" r="31.5" style=""/>
<circle cx="990.016" cy="2128.02" r="31.5" style=""/>
<circle cx="2246.62" cy="3782.62" r="31.5" style=""/>
<circle cx="2046.62" cy="3782.62" r="31.5" style=""/>
<circle cx="1846.62" cy="3782.62" r="31.5" style=""/>
<circle cx="1646.62" cy="3782.62" r="31.5" style=""/>
<circle cx="1446.62" cy="3782.62" r="31.5" style=""/>
<circle cx="1246.62" cy="3782.62" r="31.5" style=""/>
<circle cx="1046.62" cy="4182.62" r="31.5" style=""/>
<circle cx="1046.62" cy="6382.62" r="31.5" style=""/>
<circle cx="1246.62" cy="7582.62" r="31.5" style=""/>
<circle cx="1446.62" cy="7582.62" r="31.5" style=""/>
<circle cx="1646.62" cy="7582.62" r="31.5" style=""/>
<circle cx="1846.62" cy="7582.62" r="31.5" style=""/>
<circle cx="2046.62" cy="7582.62" r="31.5" style=""/>
<circle cx="2246.62" cy="7582.62" r="31.5" style=""/>
<circle cx="2446.62" cy="7582.62" r="31.5" style=""/>
<circle cx="2646.62" cy="7582.62" r="31.5" style=""/>
<circle cx="2966.22" cy="7582.62" r="31.5" style=""/>
<circle cx="3166.22" cy="7582.62" r="31.5" style=""/>
<circle cx="3366.22" cy="7582.62" r="31.5" style=""/>
<circle cx="3566.22" cy="7582.62" r="31.5" style=""/>
<circle cx="3766.22" cy="7582.62" r="31.5" style=""/>
<circle cx="3966.22" cy="7582.62" r="31.5" style=""/>
<circle cx="4166.22" cy="7582.62" r="31.5" style=""/>
<circle cx="4366.22" cy="7582.62" r="31.5" style=""/>
<circle cx="4566.22" cy="7582.62" r="31.5" style=""/>
<circle cx="4766.22" cy="7582.62" r="31.5" style=""/>
<circle cx="5046.62" cy="7582.62" r="31.5" style=""/>
<circle cx="5578.02" cy="8578.02" r="31.5" style=""/>
<circle cx="6103.62" cy="7840.62" r="31.5" style=""/>
<circle cx="6103.62" cy="8040.62" r="31.5" style=""/>
<circle cx="6103.62" cy="8240.62" r="31.5" style=""/>
<circle cx="6103.62" cy="8440.62" r="31.5" style=""/>
<circle cx="6103.62" cy="8640.62" r="31.5" style=""/>
<circle cx="6103.62" cy="8840.62" r="31.5" style=""/>
<circle cx="6103.62" cy="9040.62" r="31.5" style=""/>
<circle cx="6103.62" cy="9240.62" r="31.5" style=""/>
<circle cx="6103.62" cy="9440.62" r="31.5" style=""/>
<circle cx="5378.02" cy="8928.02" r="31.5" style=""/>
<circle cx="4778.02" cy="8578.02" r="31.5" style=""/>
<circle cx="4578.02" cy="8928.02" r="31.5" style=""/>
</svg>
