M48
;DRILL file {KiCad 5.0.2-bee76a0~70~ubuntu18.04.1} date Tue 08 Jan 2019 12:20:42 PM CST
;FORMAT={-:-/ absolute / inch / decimal}
FMAT,2
INCH,TZ
T1C0.0315
T2C0.0394
T3C0.0400
T4C0.0470
T5C0.1083
T6C0.1102
T7C0.1260
%
G90
G05
T1
X2.9878Y-3.8563
X2.9878Y-3.9563
X2.9878Y-4.0563
X2.9878Y-4.1563
X2.9878Y-4.2563
X2.9878Y-4.3563
X2.9878Y-4.4563
X2.9878Y-4.5563
X2.9878Y-4.6563
X2.9878Y-4.7563
X2.9878Y-4.8563
X2.9878Y-4.9563
X2.9878Y-5.0563
X2.9878Y-5.1563
X2.9878Y-5.2563
X2.9878Y-5.3563
X2.225Y-4.4
X2.625Y-4.4
X2.8984Y-1.028
X2.8984Y-1.128
X2.8984Y-1.228
X2.8984Y-1.328
X3.4086Y-1.4511
X3.4086Y-1.7511
X3.5086Y-1.4511
X3.5086Y-1.7511
X3.6086Y-1.4511
X3.6086Y-1.7511
X3.7086Y-1.4511
X3.7086Y-1.7511
X3.8086Y-1.4511
X3.8086Y-1.7511
X3.9086Y-1.4511
X3.9086Y-1.7511
X4.0086Y-1.4511
X4.0086Y-1.7511
X4.1086Y-1.4511
X4.1086Y-1.7511
X4.2086Y-1.4511
X4.2086Y-1.7511
X4.3086Y-1.4511
X4.3086Y-1.7511
X4.4086Y-1.4511
X4.4086Y-1.7511
X4.5086Y-1.4511
X4.5086Y-1.7511
X4.6086Y-1.4511
X4.6086Y-1.7511
X4.7086Y-1.4511
X4.7086Y-1.7511
X4.8086Y-1.4511
X4.8086Y-1.7511
X4.9086Y-1.4511
X4.9086Y-1.7511
X5.0086Y-1.4511
X5.0086Y-1.7511
X5.1086Y-1.4511
X5.1086Y-1.7511
X5.2086Y-1.4511
X5.2086Y-1.7511
X5.3086Y-1.4511
X5.3086Y-1.7511
X3.65Y-4.
X3.65Y-4.1
X3.65Y-4.2
X3.65Y-4.3
X3.65Y-4.4
X3.65Y-4.5
X3.65Y-4.6
X3.65Y-4.7
X3.65Y-4.8
X3.65Y-4.9
X3.65Y-5.
X3.65Y-5.1
X3.65Y-5.2
X3.65Y-5.3
X3.95Y-4.
X3.95Y-4.1
X3.95Y-4.2
X3.95Y-4.3
X3.95Y-4.4
X3.95Y-4.5
X3.95Y-4.6
X3.95Y-4.7
X3.95Y-4.8
X3.95Y-4.9
X3.95Y-5.
X3.95Y-5.1
X3.95Y-5.2
X3.95Y-5.3
X2.325Y-4.225
X2.725Y-4.225
X2.6Y-5.15
X2.6Y-5.25
X2.6Y-5.35
X0.5593Y-1.8273
X0.5593Y-3.7273
X0.6593Y-1.8273
X0.6593Y-3.7273
X0.7593Y-1.8273
X0.7593Y-3.7273
X0.8593Y-1.8273
X0.8593Y-3.7273
X0.9593Y-1.8273
X0.9593Y-3.7273
X1.0593Y-1.8273
X1.0593Y-3.7273
X1.1593Y-3.7273
X1.2593Y-1.8273
X1.2593Y-3.7273
X1.3593Y-1.8273
X1.4191Y-3.7273
X1.4593Y-1.8273
X1.5191Y-3.7273
X1.5593Y-1.8273
X1.6191Y-3.7273
X1.6593Y-1.8273
X1.7191Y-3.7273
X1.7593Y-1.8273
X1.8191Y-3.7273
X1.8593Y-1.8273
X1.9191Y-3.7273
X1.9593Y-1.8273
X2.0191Y-3.7273
X2.1191Y-3.7273
X2.2191Y-3.7273
X2.3191Y-3.7273
X5.35Y-3.9
X5.35Y-4.
X5.35Y-4.1
X5.35Y-4.2
X5.65Y-3.9
X5.65Y-4.
X5.65Y-4.1
X5.65Y-4.2
T2
X2.1Y-5.05
X2.1Y-5.15
X2.1Y-5.25
X5.5Y-5.025
X5.5Y-5.125
X5.5Y-5.225
X5.6Y-5.025
X5.6Y-5.125
X5.6Y-5.225
X3.408Y-1.5504
X3.408Y-1.6504
X3.508Y-1.5504
X3.508Y-1.6504
X3.608Y-1.5504
X3.608Y-1.6504
X3.708Y-1.5504
X3.708Y-1.6504
X3.808Y-1.5504
X3.808Y-1.6504
X3.908Y-1.5504
X3.908Y-1.6504
X4.008Y-1.5504
X4.008Y-1.6504
X4.108Y-1.5504
X4.108Y-1.6504
X4.208Y-1.5504
X4.208Y-1.6504
X4.308Y-1.5504
X4.308Y-1.6504
X4.408Y-1.5504
X4.408Y-1.6504
X4.508Y-1.5504
X4.508Y-1.6504
X4.608Y-1.5504
X4.608Y-1.6504
X4.708Y-1.5504
X4.708Y-1.6504
X4.808Y-1.5504
X4.808Y-1.6504
X4.908Y-1.5504
X4.908Y-1.6504
X5.008Y-1.5504
X5.008Y-1.6504
X5.108Y-1.5504
X5.108Y-1.6504
X5.208Y-1.5504
X5.208Y-1.6504
X5.308Y-1.5504
X5.308Y-1.6504
T3
X3.9287Y-2.229
X3.9287Y-2.7408
X4.0287Y-2.229
X4.0287Y-2.7408
X4.1287Y-2.229
X4.1287Y-2.7408
X4.2287Y-2.229
X4.2287Y-2.7408
X4.3287Y-2.229
X4.3287Y-2.7408
X4.4287Y-2.229
X4.4287Y-2.7408
T4
X2.8Y-0.375
X3.Y-0.375
X2.1Y-0.375
X2.3Y-0.375
X5.405Y-4.5
X5.405Y-4.7
X0.431Y-0.8
X0.431Y-1.
T5
X3.2162Y-0.6949
X3.2162Y-1.6004
X5.4997Y-0.6949
X5.4997Y-1.6004
T6
X2.0996Y-0.7319
X2.8996Y-0.7319
T7
X0.4593Y-2.0273
X0.4593Y-3.1273
X2.4593Y-3.7273
X2.5093Y-1.8273
X5.5118Y-0.3937
X0.3937Y-0.3937
X5.5118Y-5.5118
X0.3937Y-5.5118
T0
M30
