G04 #@! TF.GenerationSoftware,KiCad,Pcbnew,5.0.2-bee76a0~70~ubuntu18.04.1*
G04 #@! TF.CreationDate,2019-01-08T12:20:38-06:00*
G04 #@! TF.ProjectId,MPPT_LCD_Pi,4d505054-5f4c-4434-945f-50692e6b6963,rev?*
G04 #@! TF.SameCoordinates,Original*
G04 #@! TF.FileFunction,Copper,L1,Top*
G04 #@! TF.FilePolarity,Positive*
%FSLAX46Y46*%
G04 Gerber Fmt 4.6, Leading zero omitted, Abs format (unit mm)*
G04 Created by KiCad (PCBNEW 5.0.2-bee76a0~70~ubuntu18.04.1) date Tue 08 Jan 2019 12:20:38 PM CST*
%MOMM*%
%LPD*%
G01*
G04 APERTURE LIST*
G04 #@! TA.AperFunction,ComponentPad*
%ADD10O,1.930400X3.860800*%
G04 #@! TD*
G04 #@! TA.AperFunction,ComponentPad*
%ADD11C,1.778000*%
G04 #@! TD*
G04 #@! TA.AperFunction,ComponentPad*
%ADD12R,1.778000X1.778000*%
G04 #@! TD*
G04 #@! TA.AperFunction,ComponentPad*
%ADD13O,1.500000X2.500000*%
G04 #@! TD*
G04 #@! TA.AperFunction,ComponentPad*
%ADD14R,2.400000X1.600000*%
G04 #@! TD*
G04 #@! TA.AperFunction,ComponentPad*
%ADD15O,2.400000X1.600000*%
G04 #@! TD*
G04 #@! TA.AperFunction,ComponentPad*
%ADD16C,2.000000*%
G04 #@! TD*
G04 #@! TA.AperFunction,ComponentPad*
%ADD17C,2.300000*%
G04 #@! TD*
G04 #@! TA.AperFunction,ComponentPad*
%ADD18O,2.616000X1.308000*%
G04 #@! TD*
G04 #@! TA.AperFunction,ComponentPad*
%ADD19O,3.581400X1.790700*%
G04 #@! TD*
G04 #@! TA.AperFunction,ComponentPad*
%ADD20O,1.790700X3.581400*%
G04 #@! TD*
G04 #@! TA.AperFunction,ComponentPad*
%ADD21O,1.879600X3.759200*%
G04 #@! TD*
G04 #@! TA.AperFunction,ComponentPad*
%ADD22R,1.700000X1.700000*%
G04 #@! TD*
G04 #@! TA.AperFunction,ComponentPad*
%ADD23O,1.700000X1.700000*%
G04 #@! TD*
G04 APERTURE END LIST*
D10*
G04 #@! TO.P,U$1,40_LONG*
G04 #@! TO.N,Net-(U$1-Pad40)*
X86578082Y-44478328D03*
G04 #@! TO.P,U$1,38_LONG*
G04 #@! TO.N,Net-(U$1-Pad38)*
X89118082Y-44478328D03*
G04 #@! TO.P,U$1,36_LONG*
G04 #@! TO.N,Net-(U$1-Pad36)*
X91658082Y-44478328D03*
G04 #@! TO.P,U$1,34_LONG*
G04 #@! TO.N,Net-(U$1-Pad34)*
X94198082Y-44478328D03*
G04 #@! TO.P,U$1,32_LONG*
G04 #@! TO.N,Net-(U$1-Pad32)*
X96738082Y-44478328D03*
G04 #@! TO.P,U$1,30_LONG*
G04 #@! TO.N,Net-(U$1-Pad30)*
X99278082Y-44478328D03*
G04 #@! TO.P,U$1,28_LONG*
G04 #@! TO.N,Net-(U$1-Pad28)*
X101818082Y-44478328D03*
G04 #@! TO.P,U$1,26_LONG*
G04 #@! TO.N,Net-(U$1-Pad26)*
X104358082Y-44478328D03*
G04 #@! TO.P,U$1,24_LONG*
G04 #@! TO.N,Net-(U$1-Pad24)*
X106898082Y-44478328D03*
G04 #@! TO.P,U$1,22_LONG*
G04 #@! TO.N,Net-(U$1-Pad22)*
X109438082Y-44478328D03*
G04 #@! TO.P,U$1,20_LONG*
G04 #@! TO.N,Net-(U$1-Pad20)*
X111978082Y-44478328D03*
G04 #@! TO.P,U$1,18_LONG*
G04 #@! TO.N,Net-(U$1-Pad18)*
X114518082Y-44478328D03*
G04 #@! TO.P,U$1,16_LONG*
G04 #@! TO.N,Net-(U$1-Pad16)*
X117058082Y-44478328D03*
G04 #@! TO.P,U$1,14_LONG*
G04 #@! TO.N,Net-(U$1-Pad14)*
X119598082Y-44478328D03*
G04 #@! TO.P,U$1,12_LONG*
G04 #@! TO.N,Net-(U$1-Pad12)*
X122138082Y-44478328D03*
G04 #@! TO.P,U$1,10_LONG*
G04 #@! TO.N,Net-(U$1-Pad10)*
X124678082Y-44478328D03*
G04 #@! TO.P,U$1,8_LONG*
G04 #@! TO.N,Net-(U$1-Pad8)*
X127218082Y-44478328D03*
G04 #@! TO.P,U$1,6_LONG*
G04 #@! TO.N,Net-(U$1-Pad6)*
X129758082Y-44478328D03*
G04 #@! TO.P,U$1,4_LONG*
G04 #@! TO.N,Net-(U$1-Pad4)*
X132298082Y-44478328D03*
G04 #@! TO.P,U$1,2_LONG*
G04 #@! TO.N,/5V_Pi*
X134838082Y-44478328D03*
G04 #@! TO.P,U$1,39_LONG*
G04 #@! TO.N,Net-(U$1-Pad39)*
X86578082Y-36858329D03*
G04 #@! TO.P,U$1,37_LONG*
G04 #@! TO.N,Net-(U$1-Pad37)*
X89118082Y-36858329D03*
G04 #@! TO.P,U$1,35_LONG*
G04 #@! TO.N,Net-(U$1-Pad35)*
X91658082Y-36858329D03*
G04 #@! TO.P,U$1,33_LONG*
G04 #@! TO.N,Net-(U$1-Pad33)*
X94198082Y-36858329D03*
G04 #@! TO.P,U$1,31_LONG*
G04 #@! TO.N,Net-(U$1-Pad31)*
X96738082Y-36858329D03*
G04 #@! TO.P,U$1,29_LONG*
G04 #@! TO.N,Net-(U$1-Pad29)*
X99278082Y-36858329D03*
G04 #@! TO.P,U$1,27_LONG*
G04 #@! TO.N,Net-(U$1-Pad27)*
X101818082Y-36858329D03*
G04 #@! TO.P,U$1,25_LONG*
G04 #@! TO.N,Net-(U$1-Pad25)*
X104358082Y-36858329D03*
G04 #@! TO.P,U$1,23_LONG*
G04 #@! TO.N,Net-(U$1-Pad23)*
X106898082Y-36858329D03*
G04 #@! TO.P,U$1,21_LONG*
G04 #@! TO.N,Net-(U$1-Pad21)*
X109438082Y-36858329D03*
G04 #@! TO.P,U$1,19_LONG*
G04 #@! TO.N,Net-(U$1-Pad19)*
X111978082Y-36858329D03*
G04 #@! TO.P,U$1,17_LONG*
G04 #@! TO.N,+3V3*
X114518082Y-36858329D03*
G04 #@! TO.P,U$1,15_LONG*
G04 #@! TO.N,Net-(U$1-Pad15)*
X117058082Y-36858329D03*
G04 #@! TO.P,U$1,13_LONG*
G04 #@! TO.N,Net-(U$1-Pad13)*
X119598082Y-36858329D03*
G04 #@! TO.P,U$1,11_LONG*
G04 #@! TO.N,Net-(U$1-Pad11)*
X122138082Y-36858329D03*
G04 #@! TO.P,U$1,9_LONG*
G04 #@! TO.N,Net-(U$1-Pad9)*
X124678082Y-36858329D03*
G04 #@! TO.P,U$1,7_LONG*
G04 #@! TO.N,Net-(U$1-Pad7)*
X127218082Y-36858329D03*
G04 #@! TO.P,U$1,5_LONG*
G04 #@! TO.N,Net-(U$1-Pad5)*
X129758082Y-36858329D03*
G04 #@! TO.P,U$1,3_LONG*
G04 #@! TO.N,Net-(U$1-Pad3)*
X132298082Y-36858329D03*
G04 #@! TO.P,U$1,1_LONG*
G04 #@! TO.N,Net-(U$1-Pad1)*
X134838082Y-36858329D03*
D11*
G04 #@! TO.P,U$1,40*
G04 #@! TO.N,Net-(U$1-Pad40)*
X86562650Y-41920218D03*
G04 #@! TO.P,U$1,39*
G04 #@! TO.N,Net-(U$1-Pad39)*
X86562650Y-39380219D03*
G04 #@! TO.P,U$1,38*
G04 #@! TO.N,Net-(U$1-Pad38)*
X89102650Y-41920218D03*
G04 #@! TO.P,U$1,37*
G04 #@! TO.N,Net-(U$1-Pad37)*
X89102650Y-39380219D03*
G04 #@! TO.P,U$1,36*
G04 #@! TO.N,Net-(U$1-Pad36)*
X91642650Y-41920218D03*
G04 #@! TO.P,U$1,35*
G04 #@! TO.N,Net-(U$1-Pad35)*
X91642650Y-39380219D03*
G04 #@! TO.P,U$1,34*
G04 #@! TO.N,Net-(U$1-Pad34)*
X94182650Y-41920218D03*
G04 #@! TO.P,U$1,33*
G04 #@! TO.N,Net-(U$1-Pad33)*
X94182650Y-39380219D03*
G04 #@! TO.P,U$1,32*
G04 #@! TO.N,Net-(U$1-Pad32)*
X96722650Y-41920218D03*
G04 #@! TO.P,U$1,31*
G04 #@! TO.N,Net-(U$1-Pad31)*
X96722650Y-39380219D03*
G04 #@! TO.P,U$1,30*
G04 #@! TO.N,Net-(U$1-Pad30)*
X99262650Y-41920218D03*
G04 #@! TO.P,U$1,29*
G04 #@! TO.N,Net-(U$1-Pad29)*
X99262650Y-39380219D03*
G04 #@! TO.P,U$1,28*
G04 #@! TO.N,Net-(U$1-Pad28)*
X101802650Y-41920218D03*
G04 #@! TO.P,U$1,27*
G04 #@! TO.N,Net-(U$1-Pad27)*
X101802650Y-39380219D03*
G04 #@! TO.P,U$1,26*
G04 #@! TO.N,Net-(U$1-Pad26)*
X104342650Y-41920218D03*
G04 #@! TO.P,U$1,25*
G04 #@! TO.N,Net-(U$1-Pad25)*
X104342650Y-39380219D03*
G04 #@! TO.P,U$1,24*
G04 #@! TO.N,Net-(U$1-Pad24)*
X106882650Y-41920218D03*
G04 #@! TO.P,U$1,23*
G04 #@! TO.N,Net-(U$1-Pad23)*
X106882650Y-39380219D03*
G04 #@! TO.P,U$1,22*
G04 #@! TO.N,Net-(U$1-Pad22)*
X109422650Y-41920218D03*
G04 #@! TO.P,U$1,21*
G04 #@! TO.N,Net-(U$1-Pad21)*
X109422650Y-39380219D03*
G04 #@! TO.P,U$1,20*
G04 #@! TO.N,Net-(U$1-Pad20)*
X111962650Y-41920218D03*
G04 #@! TO.P,U$1,19*
G04 #@! TO.N,Net-(U$1-Pad19)*
X111962650Y-39380219D03*
G04 #@! TO.P,U$1,18*
G04 #@! TO.N,Net-(U$1-Pad18)*
X114502650Y-41920218D03*
G04 #@! TO.P,U$1,17*
G04 #@! TO.N,+3V3*
X114502650Y-39380219D03*
G04 #@! TO.P,U$1,16*
G04 #@! TO.N,Net-(U$1-Pad16)*
X117042650Y-41920218D03*
G04 #@! TO.P,U$1,15*
G04 #@! TO.N,Net-(U$1-Pad15)*
X117042650Y-39380219D03*
G04 #@! TO.P,U$1,14*
G04 #@! TO.N,Net-(U$1-Pad14)*
X119582650Y-41920218D03*
G04 #@! TO.P,U$1,13*
G04 #@! TO.N,Net-(U$1-Pad13)*
X119582650Y-39380219D03*
G04 #@! TO.P,U$1,12*
G04 #@! TO.N,Net-(U$1-Pad12)*
X122122650Y-41920218D03*
G04 #@! TO.P,U$1,11*
G04 #@! TO.N,Net-(U$1-Pad11)*
X122122650Y-39380219D03*
G04 #@! TO.P,U$1,10*
G04 #@! TO.N,Net-(U$1-Pad10)*
X124662650Y-41920218D03*
G04 #@! TO.P,U$1,9*
G04 #@! TO.N,Net-(U$1-Pad9)*
X124662650Y-39380219D03*
G04 #@! TO.P,U$1,8*
G04 #@! TO.N,Net-(U$1-Pad8)*
X127202650Y-41920218D03*
G04 #@! TO.P,U$1,7*
G04 #@! TO.N,Net-(U$1-Pad7)*
X127202650Y-39380219D03*
G04 #@! TO.P,U$1,6*
G04 #@! TO.N,Net-(U$1-Pad6)*
X129742650Y-41920218D03*
G04 #@! TO.P,U$1,5*
G04 #@! TO.N,Net-(U$1-Pad5)*
X129742650Y-39380219D03*
G04 #@! TO.P,U$1,4*
G04 #@! TO.N,Net-(U$1-Pad4)*
X132282650Y-41920218D03*
G04 #@! TO.P,U$1,3*
G04 #@! TO.N,Net-(U$1-Pad3)*
X132282650Y-39380219D03*
G04 #@! TO.P,U$1,2*
G04 #@! TO.N,/5V_Pi*
X134822650Y-41920218D03*
D12*
G04 #@! TO.P,U$1,1*
G04 #@! TO.N,Net-(U$1-Pad1)*
X134822650Y-39380219D03*
G04 #@! TD*
D13*
G04 #@! TO.P,A1,16*
G04 #@! TO.N,Net-(A1-Pad16)*
X16745999Y-94672669D03*
G04 #@! TO.P,A1,15*
G04 #@! TO.N,Net-(A1-Pad15)*
X14205999Y-94672669D03*
G04 #@! TO.P,A1,30*
G04 #@! TO.N,Net-(A1-Pad30)*
X53825999Y-94672669D03*
G04 #@! TO.P,A1,14*
G04 #@! TO.N,Net-(A1-Pad14)*
X14205999Y-46412669D03*
G04 #@! TO.P,A1,29*
G04 #@! TO.N,Net-(A1-Pad29)*
X51285999Y-94672669D03*
G04 #@! TO.P,A1,13*
G04 #@! TO.N,Net-(A1-Pad13)*
X16745999Y-46412669D03*
G04 #@! TO.P,A1,28*
G04 #@! TO.N,Net-(A1-Pad28)*
X48745999Y-94672669D03*
G04 #@! TO.P,A1,12*
G04 #@! TO.N,Net-(A1-Pad12)*
X19285999Y-46412669D03*
G04 #@! TO.P,A1,27*
G04 #@! TO.N,Net-(A1-Pad27)*
X46205999Y-94672669D03*
G04 #@! TO.P,A1,11*
G04 #@! TO.N,Net-(A1-Pad11)*
X21825999Y-46412669D03*
G04 #@! TO.P,A1,26*
G04 #@! TO.N,Net-(A1-Pad26)*
X43665999Y-94672669D03*
G04 #@! TO.P,A1,10*
G04 #@! TO.N,Net-(A1-Pad10)*
X24365999Y-46412669D03*
G04 #@! TO.P,A1,25*
G04 #@! TO.N,Net-(A1-Pad25)*
X41125999Y-94672669D03*
G04 #@! TO.P,A1,9*
G04 #@! TO.N,Net-(A1-Pad9)*
X26905999Y-46412669D03*
G04 #@! TO.P,A1,24*
G04 #@! TO.N,Net-(A1-Pad24)*
X38585999Y-94672669D03*
G04 #@! TO.P,A1,8*
G04 #@! TO.N,Net-(A1-Pad8)*
X31985999Y-46412669D03*
G04 #@! TO.P,A1,23*
G04 #@! TO.N,Net-(A1-Pad23)*
X36045999Y-94672669D03*
G04 #@! TO.P,A1,7*
G04 #@! TO.N,GND*
X34525999Y-46412669D03*
G04 #@! TO.P,A1,22*
G04 #@! TO.N,Net-(A1-Pad22)*
X31985999Y-94672669D03*
G04 #@! TO.P,A1,6*
G04 #@! TO.N,Net-(A1-Pad6)*
X37065999Y-46412669D03*
G04 #@! TO.P,A1,21*
G04 #@! TO.N,Net-(A1-Pad21)*
X29445999Y-94672669D03*
G04 #@! TO.P,A1,5*
G04 #@! TO.N,Net-(A1-Pad5)*
X39605999Y-46412669D03*
G04 #@! TO.P,A1,20*
G04 #@! TO.N,Net-(A1-Pad20)*
X26905999Y-94672669D03*
G04 #@! TO.P,A1,4*
G04 #@! TO.N,Net-(A1-Pad4)*
X42145999Y-46412669D03*
G04 #@! TO.P,A1,19*
G04 #@! TO.N,Net-(A1-Pad19)*
X24365999Y-94672669D03*
G04 #@! TO.P,A1,3*
G04 #@! TO.N,Net-(A1-Pad3)*
X44685999Y-46412669D03*
G04 #@! TO.P,A1,18*
G04 #@! TO.N,Net-(A1-Pad18)*
X21825999Y-94672669D03*
G04 #@! TO.P,A1,2*
G04 #@! TO.N,Net-(A1-Pad2)*
X47225999Y-46412669D03*
G04 #@! TO.P,A1,17*
G04 #@! TO.N,Net-(A1-Pad17)*
X19285999Y-94672669D03*
G04 #@! TO.P,A1,1*
G04 #@! TO.N,Net-(A1-Pad1)*
X49765999Y-46412669D03*
G04 #@! TO.P,A1,31*
G04 #@! TO.N,Net-(A1-Pad31)*
X56365999Y-94672669D03*
G04 #@! TO.P,A1,32*
G04 #@! TO.N,Net-(A1-Pad32)*
X58905999Y-94672669D03*
G04 #@! TD*
D14*
G04 #@! TO.P,IC1,1*
G04 #@! TO.N,Net-(IC1-Pad1)*
X92710000Y-101600000D03*
D15*
G04 #@! TO.P,IC1,15*
G04 #@! TO.N,Net-(IC1-Pad15)*
X100330000Y-134620000D03*
G04 #@! TO.P,IC1,2*
G04 #@! TO.N,Net-(IC1-Pad2)*
X92710000Y-104140000D03*
G04 #@! TO.P,IC1,16*
G04 #@! TO.N,Net-(IC1-Pad16)*
X100330000Y-132080000D03*
G04 #@! TO.P,IC1,3*
G04 #@! TO.N,Net-(IC1-Pad3)*
X92710000Y-106680000D03*
G04 #@! TO.P,IC1,17*
G04 #@! TO.N,Net-(IC1-Pad17)*
X100330000Y-129540000D03*
G04 #@! TO.P,IC1,4*
G04 #@! TO.N,Net-(IC1-Pad4)*
X92710000Y-109220000D03*
G04 #@! TO.P,IC1,18*
G04 #@! TO.N,+5V*
X100330000Y-127000000D03*
G04 #@! TO.P,IC1,5*
G04 #@! TO.N,Net-(IC1-Pad5)*
X92710000Y-111760000D03*
G04 #@! TO.P,IC1,19*
G04 #@! TO.N,Net-(IC1-Pad19)*
X100330000Y-124460000D03*
G04 #@! TO.P,IC1,6*
G04 #@! TO.N,Net-(IC1-Pad6)*
X92710000Y-114300000D03*
G04 #@! TO.P,IC1,20*
G04 #@! TO.N,Net-(IC1-Pad20)*
X100330000Y-121920000D03*
G04 #@! TO.P,IC1,7*
G04 #@! TO.N,Net-(IC1-Pad7)*
X92710000Y-116840000D03*
G04 #@! TO.P,IC1,21*
G04 #@! TO.N,Net-(IC1-Pad21)*
X100330000Y-119380000D03*
G04 #@! TO.P,IC1,8*
G04 #@! TO.N,Net-(IC1-Pad8)*
X92710000Y-119380000D03*
G04 #@! TO.P,IC1,22*
G04 #@! TO.N,Net-(IC1-Pad22)*
X100330000Y-116840000D03*
G04 #@! TO.P,IC1,9*
G04 #@! TO.N,+5V*
X92710000Y-121920000D03*
G04 #@! TO.P,IC1,23*
G04 #@! TO.N,Net-(IC1-Pad23)*
X100330000Y-114300000D03*
G04 #@! TO.P,IC1,10*
G04 #@! TO.N,GND*
X92710000Y-124460000D03*
G04 #@! TO.P,IC1,24*
G04 #@! TO.N,Net-(IC1-Pad24)*
X100330000Y-111760000D03*
G04 #@! TO.P,IC1,11*
G04 #@! TO.N,N/C*
X92710000Y-127000000D03*
G04 #@! TO.P,IC1,25*
G04 #@! TO.N,Net-(IC1-Pad25)*
X100330000Y-109220000D03*
G04 #@! TO.P,IC1,12*
G04 #@! TO.N,Net-(A1-Pad32)*
X92710000Y-129540000D03*
G04 #@! TO.P,IC1,26*
G04 #@! TO.N,Net-(IC1-Pad26)*
X100330000Y-106680000D03*
G04 #@! TO.P,IC1,13*
G04 #@! TO.N,Net-(IC1-Pad13)*
X92710000Y-132080000D03*
G04 #@! TO.P,IC1,27*
G04 #@! TO.N,Net-(IC1-Pad27)*
X100330000Y-104140000D03*
G04 #@! TO.P,IC1,14*
G04 #@! TO.N,N/C*
X92710000Y-134620000D03*
G04 #@! TO.P,IC1,28*
G04 #@! TO.N,Net-(IC1-Pad28)*
X100330000Y-101600000D03*
G04 #@! TD*
D14*
G04 #@! TO.P,SW1,1*
G04 #@! TO.N,Net-(IC1-Pad24)*
X135890000Y-99060000D03*
D15*
G04 #@! TO.P,SW1,5*
G04 #@! TO.N,GND*
X143510000Y-106680000D03*
G04 #@! TO.P,SW1,2*
G04 #@! TO.N,Net-(IC1-Pad23)*
X135890000Y-101600000D03*
G04 #@! TO.P,SW1,6*
G04 #@! TO.N,GND*
X143510000Y-104140000D03*
G04 #@! TO.P,SW1,3*
G04 #@! TO.N,Net-(IC1-Pad22)*
X135890000Y-104140000D03*
G04 #@! TO.P,SW1,7*
G04 #@! TO.N,GND*
X143510000Y-101600000D03*
G04 #@! TO.P,SW1,4*
G04 #@! TO.N,Net-(IC1-Pad21)*
X135890000Y-106680000D03*
G04 #@! TO.P,SW1,8*
G04 #@! TO.N,GND*
X143510000Y-99060000D03*
G04 #@! TD*
D16*
G04 #@! TO.P,TM1,1*
G04 #@! TO.N,GND*
X66040000Y-135890000D03*
G04 #@! TO.P,TM1,2*
G04 #@! TO.N,Net-(TM1-Pad2)*
X66040000Y-133350000D03*
G04 #@! TO.P,TM1,3*
G04 #@! TO.N,+5V*
X66040000Y-130810000D03*
G04 #@! TD*
D17*
G04 #@! TO.P,SW2,3*
G04 #@! TO.N,Net-(SW2-Pad3)*
X53340000Y-128270000D03*
G04 #@! TO.P,SW2,2*
G04 #@! TO.N,Net-(A1-Pad5)*
X53340000Y-130810000D03*
G04 #@! TO.P,SW2,1*
G04 #@! TO.N,+5V*
X53340000Y-133350000D03*
G04 #@! TD*
D18*
G04 #@! TO.P,X1,VCC*
G04 #@! TO.N,/5V_Pi*
X73620000Y-28650000D03*
G04 #@! TO.P,X1,GND*
G04 #@! TO.N,GND*
X73620000Y-26110000D03*
G04 #@! TO.P,X1,SCL*
G04 #@! TO.N,Net-(U$1-Pad5)*
X73620000Y-33730000D03*
G04 #@! TO.P,X1,SDA*
G04 #@! TO.N,Net-(U$1-Pad3)*
X73620000Y-31190000D03*
G04 #@! TD*
G04 #@! TO.P,X2,16*
G04 #@! TO.N,GND*
X75890000Y-97950000D03*
G04 #@! TO.P,X2,15*
G04 #@! TO.N,+5V*
X75890000Y-100490000D03*
G04 #@! TO.P,X2,14*
G04 #@! TO.N,Net-(IC1-Pad2)*
X75890000Y-103030000D03*
G04 #@! TO.P,X2,13*
G04 #@! TO.N,Net-(IC1-Pad3)*
X75890000Y-105570000D03*
G04 #@! TO.P,X2,12*
G04 #@! TO.N,Net-(IC1-Pad4)*
X75890000Y-108110000D03*
G04 #@! TO.P,X2,11*
G04 #@! TO.N,Net-(IC1-Pad5)*
X75890000Y-110650000D03*
G04 #@! TO.P,X2,10*
G04 #@! TO.N,Net-(X2-Pad10)*
X75890000Y-113190000D03*
G04 #@! TO.P,X2,9*
G04 #@! TO.N,Net-(X2-Pad9)*
X75890000Y-115730000D03*
G04 #@! TO.P,X2,8*
G04 #@! TO.N,Net-(X2-Pad8)*
X75890000Y-118270000D03*
G04 #@! TO.P,X2,7*
G04 #@! TO.N,Net-(X2-Pad7)*
X75890000Y-120810000D03*
G04 #@! TO.P,X2,6*
G04 #@! TO.N,Net-(IC1-Pad6)*
X75890000Y-123350000D03*
G04 #@! TO.P,X2,5*
G04 #@! TO.N,Net-(IC1-Pad7)*
X75890000Y-125890000D03*
G04 #@! TO.P,X2,4*
G04 #@! TO.N,Net-(IC1-Pad8)*
X75890000Y-128430000D03*
G04 #@! TO.P,X2,3*
G04 #@! TO.N,Net-(TM1-Pad2)*
X75890000Y-130970000D03*
G04 #@! TO.P,X2,2*
G04 #@! TO.N,+5V*
X75890000Y-133510000D03*
G04 #@! TO.P,X2,1*
G04 #@! TO.N,GND*
X75890000Y-136050000D03*
G04 #@! TD*
D19*
G04 #@! TO.P,U1,1*
G04 #@! TO.N,Net-(U1-Pad1)*
X10947400Y-25400000D03*
G04 #@! TO.P,U1,2*
G04 #@! TO.N,Net-(U1-Pad2)*
X10947400Y-20320000D03*
G04 #@! TD*
D20*
G04 #@! TO.P,U2,2*
G04 #@! TO.N,Net-(U2-Pad2)*
X58420000Y-9525000D03*
G04 #@! TO.P,U2,1*
G04 #@! TO.N,Net-(U2-Pad1)*
X53340000Y-9525000D03*
G04 #@! TD*
D19*
G04 #@! TO.P,U4,2*
G04 #@! TO.N,Net-(U4-Pad2)*
X137287000Y-119380000D03*
G04 #@! TO.P,U4,1*
G04 #@! TO.N,Net-(U4-Pad1)*
X137287000Y-114300000D03*
G04 #@! TD*
D20*
G04 #@! TO.P,U5,2*
G04 #@! TO.N,/5V_Pi*
X76200000Y-9525000D03*
G04 #@! TO.P,U5,1*
G04 #@! TO.N,GND*
X71120000Y-9525000D03*
G04 #@! TD*
D21*
G04 #@! TO.P,U$2,3*
G04 #@! TO.N,Net-(U$1-Pad8)*
X107407809Y-56616756D03*
G04 #@! TO.P,U$2,4*
G04 #@! TO.N,Net-(U$1-Pad10)*
X104867809Y-56616756D03*
G04 #@! TO.P,U$2,5*
G04 #@! TO.N,LV3*
X102327809Y-56616756D03*
G04 #@! TO.P,U$2,6*
G04 #@! TO.N,LV4*
X99787809Y-56616756D03*
G04 #@! TO.P,U$2,2*
G04 #@! TO.N,Net-(U$1-Pad6)*
X109947809Y-56616756D03*
G04 #@! TO.P,U$2,1*
G04 #@! TO.N,+3V3*
X112487809Y-56616756D03*
G04 #@! TO.P,U$2,10*
G04 #@! TO.N,Net-(A1-Pad15)*
X107407809Y-69616756D03*
G04 #@! TO.P,U$2,9*
G04 #@! TO.N,Net-(A1-Pad16)*
X104867809Y-69616756D03*
G04 #@! TO.P,U$2,8*
G04 #@! TO.N,Net-(U$2-Pad8)*
X102327809Y-69616756D03*
G04 #@! TO.P,U$2,7*
G04 #@! TO.N,Net-(U$2-Pad7)*
X99787809Y-69616756D03*
G04 #@! TO.P,U$2,11*
G04 #@! TO.N,GND*
X109947809Y-69616756D03*
G04 #@! TO.P,U$2,12*
G04 #@! TO.N,/5V_Pi*
X112487809Y-69616756D03*
G04 #@! TD*
D16*
G04 #@! TO.P,R1,2*
G04 #@! TO.N,Net-(A1-Pad31)*
X56515000Y-111760000D03*
G04 #@! TO.P,R1,1*
G04 #@! TO.N,+5V*
X66675000Y-111760000D03*
G04 #@! TD*
G04 #@! TO.P,R2,1*
G04 #@! TO.N,+5V*
X69215000Y-107315000D03*
G04 #@! TO.P,R2,2*
G04 #@! TO.N,Net-(A1-Pad32)*
X59055000Y-107315000D03*
G04 #@! TD*
D22*
G04 #@! TO.P,J1,1*
G04 #@! TO.N,Net-(IC1-Pad17)*
X139700000Y-127635000D03*
D23*
G04 #@! TO.P,J1,2*
G04 #@! TO.N,GND*
X142240000Y-127635000D03*
G04 #@! TO.P,J1,3*
G04 #@! TO.N,Net-(IC1-Pad16)*
X139700000Y-130175000D03*
G04 #@! TO.P,J1,4*
G04 #@! TO.N,GND*
X142240000Y-130175000D03*
G04 #@! TO.P,J1,5*
G04 #@! TO.N,Net-(IC1-Pad15)*
X139700000Y-132715000D03*
G04 #@! TO.P,J1,6*
G04 #@! TO.N,GND*
X142240000Y-132715000D03*
G04 #@! TD*
M02*
