<?xml version="1.0" standalone="no"?>
<!DOCTYPE svg PUBLIC "-//W3C//DTD SVG 1.1//EN"
"http://www.w3.org/Graphics/SVG/1.1/DTD/svg11.dtd">
<svg width="578.835" height="578.835" viewBox="0 0 12059.1 12059.1" version="1.1"
xmlns="http://www.w3.org/2000/svg"
xmlns:xlink="http://www.w3.org/1999/xlink">
<g fill-rule="evenodd"><path d="M 0.00023622,11935 L 0.00023622,124.016 L 2.26969,100.974 L 2.71922,98.7137 L 9.44035,76.5571 L 20.3549,56.1374 L 21.635,54.2215 L 36.3235,36.3235 L 54.2215,21.635 L 56.1374,20.3549 L 76.5571,9.44035 L 98.7137,2.71922 L 100.974,2.26969 L 124.016,0.00023622 L 11935,0.00023622 L 11958.1,2.26969 L 11960.3,2.71922 L 11982.5,9.44035 L 12002.9,20.3549 L 12004.8,21.635 L 12022.7,36.3235 L 12037.4,54.2215 L 12038.7,56.1374 L 12049.6,76.5571 L 12056.3,98.7137 L 12056.8,100.974 L 12059.1,124.016 L 12059.1,11935 L 12056.8,11958.1 L 12056.3,11960.3 L 12049.6,11982.5 L 12038.7,12002.9 L 12037.4,12004.8 L 12022.7,12022.7 L 12004.8,12037.4 L 12002.9,12038.7 L 11982.5,12049.6 L 11960.3,12056.3 L 11958.1,12056.8 L 11935,12059.1 L 123.711,12059 L 110.502,12058.3 L 97.4589,12056.1 L 95.3613,12055.6 L 72.7821,12048 L 52.1904,12036 L 50.2038,12034.5 L 37.581,12024 L 26.5551,12011.7 L 17.3408,11998 L 16.113,11995.9 L 7.06389,11976.3 L 1.7434,11955.3 L 1.45437,11953.5 L 0.00023622,11935 z " style="fill-opacity:1.000000;fill:rgb(103,198,105);stroke:rgb(0,0,0);stroke-width:2"/></g>
</svg>
