<?xml version="1.0" standalone="no"?>
<!DOCTYPE svg PUBLIC "-//W3C//DTD SVG 1.1//EN"
"http://www.w3.org/Graphics/SVG/1.1/DTD/svg11.dtd">
<svg width="579.219" height="579.219" viewBox="0 0 12067.1 12067.1" version="1.1"
xmlns="http://www.w3.org/2000/svg"
xmlns:xlink="http://www.w3.org/1999/xlink">
<circle cx="915.416" cy="11151.6" r="31.5" style=""/>
<circle cx="828.016" cy="10328" r="31.5" style=""/>
<circle cx="828.016" cy="10128" r="31.5" style=""/>
<circle cx="828.016" cy="9928.02" r="31.5" style=""/>
<circle cx="1428.02" cy="10328" r="31.5" style=""/>
<circle cx="1428.02" cy="10128" r="31.5" style=""/>
<circle cx="1428.02" cy="9928.02" r="31.5" style=""/>
<circle cx="1528.02" cy="8628.02" r="31.5" style=""/>
<circle cx="2528.02" cy="8628.02" r="31.5" style=""/>
<circle cx="2986.82" cy="8632.02" r="31.5" style=""/>
<circle cx="3400.82" cy="8300.02" r="31.5" style=""/>
<circle cx="3387.82" cy="8703.62" r="31.5" style=""/>
<circle cx="3387.82" cy="8903.62" r="31.5" style=""/>
<circle cx="3387.82" cy="9103.62" r="31.5" style=""/>
<circle cx="3387.82" cy="9303.62" r="31.5" style=""/>
<circle cx="2986.82" cy="9419.42" r="31.5" style=""/>
<circle cx="3318.02" cy="10290" r="31.5" style=""/>
<circle cx="3118.02" cy="10290" r="31.5" style=""/>
<circle cx="2918.02" cy="10290" r="31.5" style=""/>
<circle cx="2220.22" cy="11326.2" r="31.5" style=""/>
<circle cx="4140.22" cy="11326.2" r="31.5" style=""/>
<circle cx="4582.42" cy="11326.2" r="31.5" style=""/>
<circle cx="5318.02" cy="10290" r="31.5" style=""/>
<circle cx="3987.82" cy="9303.62" r="31.5" style=""/>
<circle cx="3987.82" cy="9103.62" r="31.5" style=""/>
<circle cx="3987.82" cy="8903.62" r="31.5" style=""/>
<circle cx="3987.82" cy="8703.62" r="31.5" style=""/>
<circle cx="4000.82" cy="8300.02" r="31.5" style=""/>
<circle cx="2728.02" cy="7028.02" r="31.5" style=""/>
<circle cx="1928.02" cy="7028.02" r="31.5" style=""/>
<circle cx="1046.62" cy="6382.62" r="31.5" style=""/>
<circle cx="630.016" cy="7034.02" r="31.5" style=""/>
<circle cx="830.016" cy="7034.02" r="31.5" style=""/>
<circle cx="1246.62" cy="7582.62" r="31.5" style=""/>
<circle cx="1446.62" cy="7582.62" r="31.5" style=""/>
<circle cx="1646.62" cy="7582.62" r="31.5" style=""/>
<circle cx="1846.62" cy="7582.62" r="31.5" style=""/>
<circle cx="2046.62" cy="7582.62" r="31.5" style=""/>
<circle cx="2246.62" cy="7582.62" r="31.5" style=""/>
<circle cx="2446.62" cy="7582.62" r="31.5" style=""/>
<circle cx="2646.62" cy="7582.62" r="31.5" style=""/>
<circle cx="2966.22" cy="7582.62" r="31.5" style=""/>
<circle cx="3166.22" cy="7582.62" r="31.5" style=""/>
<circle cx="3366.22" cy="7582.62" r="31.5" style=""/>
<circle cx="3566.22" cy="7582.62" r="31.5" style=""/>
<circle cx="3766.22" cy="7582.62" r="31.5" style=""/>
<circle cx="3966.22" cy="7582.62" r="31.5" style=""/>
<circle cx="4166.22" cy="7582.62" r="31.5" style=""/>
<circle cx="4366.22" cy="7582.62" r="31.5" style=""/>
<circle cx="4566.22" cy="7582.62" r="31.5" style=""/>
<circle cx="4766.22" cy="7582.62" r="31.5" style=""/>
<circle cx="5046.62" cy="7582.62" r="31.5" style=""/>
<circle cx="4428.02" cy="8340.62" r="31.5" style=""/>
<circle cx="4428.02" cy="9128.02" r="31.5" style=""/>
<circle cx="5518.02" cy="10290" r="31.5" style=""/>
<circle cx="6502.42" cy="11326.2" r="31.5" style=""/>
<circle cx="6944.62" cy="11326.2" r="31.5" style=""/>
<circle cx="5718.02" cy="10290" r="31.5" style=""/>
<circle cx="6128.02" cy="9828.02" r="31.5" style=""/>
<circle cx="6728.02" cy="9828.02" r="31.5" style=""/>
<circle cx="7128.02" cy="9028.02" r="31.5" style=""/>
<circle cx="7528.02" cy="9728.02" r="31.5" style=""/>
<circle cx="8328.02" cy="9728.02" r="31.5" style=""/>
<circle cx="7711.02" cy="10290" r="31.5" style=""/>
<circle cx="7911.02" cy="10290" r="31.5" style=""/>
<circle cx="8111.02" cy="10290" r="31.5" style=""/>
<circle cx="8864.62" cy="11326.2" r="31.5" style=""/>
<circle cx="11151.6" cy="11151.6" r="31.5" style=""/>
<circle cx="10938" cy="9528.02" r="31.5" style=""/>
<circle cx="10938" cy="9128.02" r="31.5" style=""/>
<circle cx="9828.02" cy="7918.62" r="31.5" style=""/>
<circle cx="8428.82" cy="8326.02" r="31.5" style=""/>
<circle cx="7767.22" cy="8326.02" r="31.5" style=""/>
<circle cx="7128.02" cy="8428.02" r="31.5" style=""/>
<circle cx="7128.02" cy="8128.02" r="31.5" style=""/>
<circle cx="7128.02" cy="7537.42" r="31.5" style=""/>
<circle cx="7432.82" cy="7138.02" r="31.5" style=""/>
<circle cx="7828.02" cy="6428.02" r="31.5" style=""/>
<circle cx="8232.82" cy="7138.02" r="31.5" style=""/>
<circle cx="9028.02" cy="6428.02" r="31.5" style=""/>
<circle cx="9828.02" cy="7328.02" r="31.5" style=""/>
<circle cx="10028" cy="6328.02" r="31.5" style=""/>
<circle cx="10628" cy="6328.02" r="31.5" style=""/>
<circle cx="10028" cy="5128.02" r="31.5" style=""/>
<circle cx="10028" cy="4828.02" r="31.5" style=""/>
<circle cx="10628" cy="5128.02" r="31.5" style=""/>
<circle cx="10628" cy="4728.02" r="31.5" style=""/>
<circle cx="10028" cy="3628.02" r="31.5" style=""/>
<circle cx="10628" cy="3528.02" r="31.5" style=""/>
<circle cx="10470.6" cy="2941.42" r="31.5" style=""/>
<circle cx="9244.02" cy="3404.02" r="31.5" style=""/>
<circle cx="8444.02" cy="3404.02" r="31.5" style=""/>
<circle cx="9374.42" cy="4314.42" r="31.5" style=""/>
<circle cx="9374.42" cy="4514.42" r="31.5" style=""/>
<circle cx="9374.42" cy="4714.42" r="31.5" style=""/>
<circle cx="9374.42" cy="4914.42" r="31.5" style=""/>
<circle cx="9374.42" cy="5114.42" r="31.5" style=""/>
<circle cx="9374.42" cy="5314.42" r="31.5" style=""/>
<circle cx="6777.62" cy="2949.22" r="31.5" style=""/>
<circle cx="6705.02" cy="4114.42" r="31.5" style=""/>
<circle cx="6705.02" cy="4314.42" r="31.5" style=""/>
<circle cx="6705.02" cy="4514.42" r="31.5" style=""/>
<circle cx="6705.02" cy="4714.42" r="31.5" style=""/>
<circle cx="6705.02" cy="4914.42" r="31.5" style=""/>
<circle cx="6705.02" cy="5114.42" r="31.5" style=""/>
<circle cx="6705.02" cy="5314.42" r="31.5" style=""/>
<circle cx="6705.02" cy="5514.42" r="31.5" style=""/>
<circle cx="6028.02" cy="4928.02" r="31.5" style=""/>
<circle cx="5428.02" cy="5128.02" r="31.5" style=""/>
<circle cx="6028.02" cy="4128.02" r="31.5" style=""/>
<circle cx="5428.02" cy="4328.02" r="31.5" style=""/>
<circle cx="5146.62" cy="3782.62" r="31.5" style=""/>
<circle cx="4046.62" cy="3782.62" r="31.5" style=""/>
<circle cx="3846.62" cy="3782.62" r="31.5" style=""/>
<circle cx="3646.62" cy="3782.62" r="31.5" style=""/>
<circle cx="3446.62" cy="3782.62" r="31.5" style=""/>
<circle cx="3246.62" cy="3782.62" r="31.5" style=""/>
<circle cx="3046.62" cy="3782.62" r="31.5" style=""/>
<circle cx="2846.62" cy="3782.62" r="31.5" style=""/>
<circle cx="2728.02" cy="4128.02" r="31.5" style=""/>
<circle cx="2246.62" cy="3782.62" r="31.5" style=""/>
<circle cx="2046.62" cy="3782.62" r="31.5" style=""/>
<circle cx="2128.02" cy="4128.02" r="31.5" style=""/>
<circle cx="1846.62" cy="3782.62" r="31.5" style=""/>
<circle cx="1646.62" cy="3782.62" r="31.5" style=""/>
<circle cx="1446.62" cy="3782.62" r="31.5" style=""/>
<circle cx="1046.62" cy="4182.62" r="31.5" style=""/>
<circle cx="1246.62" cy="3782.62" r="31.5" style=""/>
<circle cx="1028.02" cy="3128.02" r="31.5" style=""/>
<circle cx="628.016" cy="2728.02" r="31.5" style=""/>
<circle cx="990.016" cy="2128.02" r="31.5" style=""/>
<circle cx="990.016" cy="1728.02" r="31.5" style=""/>
<circle cx="915.416" cy="915.416" r="31.5" style=""/>
<circle cx="1950.02" cy="772.016" r="31.5" style=""/>
<circle cx="2306.02" cy="772.016" r="31.5" style=""/>
<circle cx="1950.02" cy="1284.02" r="31.5" style=""/>
<circle cx="2306.02" cy="1284.02" r="31.5" style=""/>
<circle cx="2228.02" cy="1728.02" r="31.5" style=""/>
<circle cx="2228.02" cy="1928.02" r="31.5" style=""/>
<circle cx="2228.02" cy="2128.02" r="31.5" style=""/>
<circle cx="2828.02" cy="1728.02" r="31.5" style=""/>
<circle cx="2828.02" cy="1928.02" r="31.5" style=""/>
<circle cx="2828.02" cy="2128.02" r="31.5" style=""/>
<circle cx="1828.02" cy="3128.02" r="31.5" style=""/>
<circle cx="1428.02" cy="2728.02" r="31.5" style=""/>
<circle cx="2646.62" cy="3782.62" r="31.5" style=""/>
<circle cx="4228.02" cy="2328.02" r="31.5" style=""/>
<circle cx="4428.02" cy="2328.02" r="31.5" style=""/>
<circle cx="4628.02" cy="2328.02" r="31.5" style=""/>
<circle cx="4628.02" cy="1728.02" r="31.5" style=""/>
<circle cx="4428.02" cy="1728.02" r="31.5" style=""/>
<circle cx="4228.02" cy="1728.02" r="31.5" style=""/>
<circle cx="2958.02" cy="828.016" r="31.5" style=""/>
<circle cx="3328.02" cy="828.016" r="31.5" style=""/>
<circle cx="3698.02" cy="828.016" r="31.5" style=""/>
<circle cx="4328.02" cy="878.016" r="31.5" style=""/>
<circle cx="4728.02" cy="878.016" r="31.5" style=""/>
<circle cx="5728.02" cy="878.016" r="31.5" style=""/>
<circle cx="6128.02" cy="878.016" r="31.5" style=""/>
<circle cx="6769.82" cy="1177.62" r="31.5" style=""/>
<circle cx="10470.6" cy="1185.42" r="31.5" style=""/>
<circle cx="11151.6" cy="915.416" r="31.5" style=""/>
</svg>
