<?xml version="1.0" standalone="no"?>
<!DOCTYPE svg PUBLIC "-//W3C//DTD SVG 1.1//EN"
"http://www.w3.org/Graphics/SVG/1.1/DTD/svg11.dtd">
<svg width="505.409" height="519.557" viewBox="0 0 10529.4 10824.1" version="1.1"
xmlns="http://www.w3.org/2000/svg"
xmlns:xlink="http://www.w3.org/1999/xlink">
<g fill-rule="evenodd"><path d="M 4157.95,6969.58 L 4157.95,6890.84 L 4159.24,6878.56 L 4163.06,6866.82 L 4169.23,6856.13 L 4177.49,6846.96 L 4187.48,6839.7 L 4198.76,6834.68 L 4210.83,6832.11 L 4223.18,6832.11 L 4235.26,6834.68 L 4246.54,6839.7 L 4256.52,6846.96 L 4264.78,6856.13 L 4270.96,6866.82 L 4274.77,6878.56 L 4276.06,6890.84 L 4276.06,6969.58 L 4274.77,6981.86 L 4270.96,6993.6 L 4264.78,7004.29 L 4256.52,7013.47 L 4246.54,7020.73 L 4235.26,7025.75 L 4223.18,7028.31 L 4210.83,7028.31 L 4198.76,7025.75 L 4187.48,7020.73 L 4177.49,7013.47 L 4169.23,7004.29 L 4163.06,6993.6 L 4159.24,6981.86 L 4157.95,6969.58 z " style="fill-opacity:1.000000;fill:rgb(103,198,105);stroke:rgb(0,0,0);stroke-width:2"/></g>
<g fill-rule="evenodd"><path d="M 3957.95,6969.58 L 3957.95,6890.84 L 3959.24,6878.56 L 3963.06,6866.82 L 3969.23,6856.13 L 3977.49,6846.96 L 3987.48,6839.7 L 3998.76,6834.68 L 4010.83,6832.11 L 4023.18,6832.11 L 4035.26,6834.68 L 4046.54,6839.7 L 4056.52,6846.96 L 4064.78,6856.13 L 4070.96,6866.82 L 4074.77,6878.56 L 4076.06,6890.84 L 4076.06,6969.58 L 4074.77,6981.86 L 4070.96,6993.6 L 4064.78,7004.29 L 4056.52,7013.47 L 4046.54,7020.73 L 4035.26,7025.75 L 4023.18,7028.31 L 4010.83,7028.31 L 3998.76,7025.75 L 3987.48,7020.73 L 3977.49,7013.47 L 3969.23,7004.29 L 3963.06,6993.6 L 3959.24,6981.86 L 3957.95,6969.58 z " style="fill-opacity:1.000000;fill:rgb(115,81,255);stroke:rgb(0,0,0);stroke-width:2"/></g>
<g fill-rule="evenodd"><path d="M 3438.27,3169.58 L 3438.27,3090.84 L 3439.56,3078.56 L 3443.37,3066.82 L 3449.55,3056.13 L 3457.81,3046.96 L 3467.8,3039.7 L 3479.07,3034.68 L 3491.15,3032.11 L 3503.5,3032.11 L 3515.57,3034.68 L 3526.85,3039.7 L 3536.84,3046.96 L 3545.1,3056.13 L 3551.27,3066.82 L 3555.09,3078.56 L 3556.38,3090.84 L 3556.38,3169.58 L 3555.09,3181.86 L 3551.27,3193.6 L 3545.1,3204.29 L 3536.84,3213.47 L 3526.85,3220.73 L 3515.57,3225.75 L 3503.5,3228.31 L 3491.15,3228.31 L 3479.07,3225.75 L 3467.8,3220.73 L 3457.81,3213.47 L 3449.55,3204.29 L 3443.37,3193.6 L 3439.56,3181.86 L 3438.27,3169.58 z " style="fill-opacity:1.000000;fill:rgb(74,236,41);stroke:rgb(0,0,0);stroke-width:2"/></g>
<g fill-rule="evenodd"><path d="M 1038.27,6969.58 L 1038.27,6890.84 L 1039.56,6878.56 L 1043.37,6866.82 L 1049.55,6856.13 L 1057.81,6846.96 L 1067.8,6839.7 L 1079.07,6834.68 L 1091.15,6832.11 L 1103.5,6832.11 L 1115.57,6834.68 L 1126.85,6839.7 L 1136.84,6846.96 L 1145.1,6856.13 L 1151.27,6866.82 L 1155.09,6878.56 L 1156.38,6890.84 L 1156.38,6969.58 L 1155.09,6981.86 L 1151.27,6993.6 L 1145.1,7004.29 L 1136.84,7013.47 L 1126.85,7020.73 L 1115.57,7025.75 L 1103.5,7028.31 L 1091.15,7028.31 L 1079.07,7025.75 L 1067.8,7020.73 L 1057.81,7013.47 L 1049.55,7004.29 L 1043.37,6993.6 L 1039.56,6981.86 L 1038.27,6969.58 z " style="fill-opacity:1.000000;fill:rgb(205,186,171);stroke:rgb(0,0,0);stroke-width:2"/></g>
<g fill-rule="evenodd"><path d="M 3238.27,3169.58 L 3238.27,3090.84 L 3239.56,3078.56 L 3243.37,3066.82 L 3249.55,3056.13 L 3257.81,3046.96 L 3267.8,3039.7 L 3279.07,3034.68 L 3291.15,3032.11 L 3303.5,3032.11 L 3315.57,3034.68 L 3326.85,3039.7 L 3336.84,3046.96 L 3345.1,3056.13 L 3351.27,3066.82 L 3355.09,3078.56 L 3356.38,3090.84 L 3356.38,3169.58 L 3355.09,3181.86 L 3351.27,3193.6 L 3345.1,3204.29 L 3336.84,3213.47 L 3326.85,3220.73 L 3315.57,3225.75 L 3303.5,3228.31 L 3291.15,3228.31 L 3279.07,3225.75 L 3267.8,3220.73 L 3257.81,3213.47 L 3249.55,3204.29 L 3243.37,3193.6 L 3239.56,3181.86 L 3238.27,3169.58 z " style="fill-opacity:1.000000;fill:rgb(242,251,227);stroke:rgb(0,0,0);stroke-width:2"/></g>
<g fill-rule="evenodd"><path d="M 1238.27,6969.58 L 1238.27,6890.84 L 1239.56,6878.56 L 1243.37,6866.82 L 1249.55,6856.13 L 1257.81,6846.96 L 1267.8,6839.7 L 1279.07,6834.68 L 1291.15,6832.11 L 1303.5,6832.11 L 1315.57,6834.68 L 1326.85,6839.7 L 1336.84,6846.96 L 1345.1,6856.13 L 1351.27,6866.82 L 1355.09,6878.56 L 1356.38,6890.84 L 1356.38,6969.58 L 1355.09,6981.86 L 1351.27,6993.6 L 1345.1,7004.29 L 1336.84,7013.47 L 1326.85,7020.73 L 1315.57,7025.75 L 1303.5,7028.31 L 1291.15,7028.31 L 1279.07,7025.75 L 1267.8,7020.73 L 1257.81,7013.47 L 1249.55,7004.29 L 1243.37,6993.6 L 1239.56,6981.86 L 1238.27,6969.58 z " style="fill-opacity:1.000000;fill:rgb(70,124,194);stroke:rgb(0,0,0);stroke-width:2"/></g>
<g fill-rule="evenodd"><path d="M 3038.27,3169.58 L 3038.27,3090.84 L 3039.56,3078.56 L 3043.37,3066.82 L 3049.55,3056.13 L 3057.81,3046.96 L 3067.8,3039.7 L 3079.07,3034.68 L 3091.15,3032.11 L 3103.5,3032.11 L 3115.57,3034.68 L 3126.85,3039.7 L 3136.84,3046.96 L 3145.1,3056.13 L 3151.27,3066.82 L 3155.09,3078.56 L 3156.38,3090.84 L 3156.38,3169.58 L 3155.09,3181.86 L 3151.27,3193.6 L 3145.1,3204.29 L 3136.84,3213.47 L 3126.85,3220.73 L 3115.57,3225.75 L 3103.5,3228.31 L 3091.15,3228.31 L 3079.07,3225.75 L 3067.8,3220.73 L 3057.81,3213.47 L 3049.55,3204.29 L 3043.37,3193.6 L 3039.56,3181.86 L 3038.27,3169.58 z " style="fill-opacity:1.000000;fill:rgb(84,248,27);stroke:rgb(0,0,0);stroke-width:2"/></g>
<g fill-rule="evenodd"><path d="M 1438.27,6969.58 L 1438.27,6890.84 L 1439.56,6878.56 L 1443.37,6866.82 L 1449.55,6856.13 L 1457.81,6846.96 L 1467.8,6839.7 L 1479.07,6834.68 L 1491.15,6832.11 L 1503.5,6832.11 L 1515.57,6834.68 L 1526.85,6839.7 L 1536.84,6846.96 L 1545.1,6856.13 L 1551.27,6866.82 L 1555.09,6878.56 L 1556.38,6890.84 L 1556.38,6969.58 L 1555.09,6981.86 L 1551.27,6993.6 L 1545.1,7004.29 L 1536.84,7013.47 L 1526.85,7020.73 L 1515.57,7025.75 L 1503.5,7028.31 L 1491.15,7028.31 L 1479.07,7025.75 L 1467.8,7020.73 L 1457.81,7013.47 L 1449.55,7004.29 L 1443.37,6993.6 L 1439.56,6981.86 L 1438.27,6969.58 z " style="fill-opacity:1.000000;fill:rgb(232,231,141);stroke:rgb(0,0,0);stroke-width:2"/></g>
<g fill-rule="evenodd"><path d="M 2838.27,3169.58 L 2838.27,3090.84 L 2839.56,3078.56 L 2843.37,3066.82 L 2849.55,3056.13 L 2857.81,3046.96 L 2867.8,3039.7 L 2879.07,3034.68 L 2891.15,3032.11 L 2903.5,3032.11 L 2915.57,3034.68 L 2926.85,3039.7 L 2936.84,3046.96 L 2945.1,3056.13 L 2951.27,3066.82 L 2955.09,3078.56 L 2956.38,3090.84 L 2956.38,3169.58 L 2955.09,3181.86 L 2951.27,3193.6 L 2945.1,3204.29 L 2936.84,3213.47 L 2926.85,3220.73 L 2915.57,3225.75 L 2903.5,3228.31 L 2891.15,3228.31 L 2879.07,3225.75 L 2867.8,3220.73 L 2857.81,3213.47 L 2849.55,3204.29 L 2843.37,3193.6 L 2839.56,3181.86 L 2838.27,3169.58 z " style="fill-opacity:1.000000;fill:rgb(118,90,46);stroke:rgb(0,0,0);stroke-width:2"/></g>
<g fill-rule="evenodd"><path d="M 1638.27,6969.58 L 1638.27,6890.84 L 1639.56,6878.56 L 1643.37,6866.82 L 1649.55,6856.13 L 1657.81,6846.96 L 1667.8,6839.7 L 1679.07,6834.68 L 1691.15,6832.11 L 1703.5,6832.11 L 1715.57,6834.68 L 1726.85,6839.7 L 1736.84,6846.96 L 1745.1,6856.13 L 1751.27,6866.82 L 1755.09,6878.56 L 1756.38,6890.84 L 1756.38,6969.58 L 1755.09,6981.86 L 1751.27,6993.6 L 1745.1,7004.29 L 1736.84,7013.47 L 1726.85,7020.73 L 1715.57,7025.75 L 1703.5,7028.31 L 1691.15,7028.31 L 1679.07,7025.75 L 1667.8,7020.73 L 1657.81,7013.47 L 1649.55,7004.29 L 1643.37,6993.6 L 1639.56,6981.86 L 1638.27,6969.58 z " style="fill-opacity:1.000000;fill:rgb(99,51,159);stroke:rgb(0,0,0);stroke-width:2"/></g>
<g fill-rule="evenodd"><path d="M 2638.27,3169.58 L 2638.27,3090.84 L 2639.56,3078.56 L 2643.37,3066.82 L 2649.55,3056.13 L 2657.81,3046.96 L 2667.8,3039.7 L 2679.07,3034.68 L 2691.15,3032.11 L 2703.5,3032.11 L 2715.57,3034.68 L 2726.85,3039.7 L 2736.84,3046.96 L 2745.1,3056.13 L 2751.27,3066.82 L 2755.09,3078.56 L 2756.38,3090.84 L 2756.38,3169.58 L 2755.09,3181.86 L 2751.27,3193.6 L 2745.1,3204.29 L 2736.84,3213.47 L 2726.85,3220.73 L 2715.57,3225.75 L 2703.5,3228.31 L 2691.15,3228.31 L 2679.07,3225.75 L 2667.8,3220.73 L 2657.81,3213.47 L 2649.55,3204.29 L 2643.37,3193.6 L 2639.56,3181.86 L 2638.27,3169.58 z " style="fill-opacity:1.000000;fill:rgb(201,154,102);stroke:rgb(0,0,0);stroke-width:2"/></g>
<g fill-rule="evenodd"><path d="M 1838.27,6969.58 L 1838.27,6890.84 L 1839.56,6878.56 L 1843.37,6866.82 L 1849.55,6856.13 L 1857.81,6846.96 L 1867.8,6839.7 L 1879.07,6834.68 L 1891.15,6832.11 L 1903.5,6832.11 L 1915.57,6834.68 L 1926.85,6839.7 L 1936.84,6846.96 L 1945.1,6856.13 L 1951.27,6866.82 L 1955.09,6878.56 L 1956.38,6890.84 L 1956.38,6969.58 L 1955.09,6981.86 L 1951.27,6993.6 L 1945.1,7004.29 L 1936.84,7013.47 L 1926.85,7020.73 L 1915.57,7025.75 L 1903.5,7028.31 L 1891.15,7028.31 L 1879.07,7025.75 L 1867.8,7020.73 L 1857.81,7013.47 L 1849.55,7004.29 L 1843.37,6993.6 L 1839.56,6981.86 L 1838.27,6969.58 z " style="fill-opacity:1.000000;fill:rgb(50,13,183);stroke:rgb(0,0,0);stroke-width:2"/></g>
<g fill-rule="evenodd"><path d="M 2438.27,3169.58 L 2438.27,3090.84 L 2439.56,3078.56 L 2443.37,3066.82 L 2449.55,3056.13 L 2457.81,3046.96 L 2467.8,3039.7 L 2479.07,3034.68 L 2491.15,3032.11 L 2503.5,3032.11 L 2515.57,3034.68 L 2526.85,3039.7 L 2536.84,3046.96 L 2545.1,3056.13 L 2551.27,3066.82 L 2555.09,3078.56 L 2556.38,3090.84 L 2556.38,3169.58 L 2555.09,3181.86 L 2551.27,3193.6 L 2545.1,3204.29 L 2536.84,3213.47 L 2526.85,3220.73 L 2515.57,3225.75 L 2503.5,3228.31 L 2491.15,3228.31 L 2479.07,3225.75 L 2467.8,3220.73 L 2457.81,3213.47 L 2449.55,3204.29 L 2443.37,3193.6 L 2439.56,3181.86 L 2438.27,3169.58 z " style="fill-opacity:1.000000;fill:rgb(49,88,163);stroke:rgb(0,0,0);stroke-width:2"/></g>
<g fill-rule="evenodd"><path d="M 2038.27,6969.58 L 2038.27,6890.84 L 2039.56,6878.56 L 2043.37,6866.82 L 2049.55,6856.13 L 2057.81,6846.96 L 2067.8,6839.7 L 2079.07,6834.68 L 2091.15,6832.11 L 2103.5,6832.11 L 2115.57,6834.68 L 2126.85,6839.7 L 2136.84,6846.96 L 2145.1,6856.13 L 2151.27,6866.82 L 2155.09,6878.56 L 2156.38,6890.84 L 2156.38,6969.58 L 2155.09,6981.86 L 2151.27,6993.6 L 2145.1,7004.29 L 2136.84,7013.47 L 2126.85,7020.73 L 2115.57,7025.75 L 2103.5,7028.31 L 2091.15,7028.31 L 2079.07,7025.75 L 2067.8,7020.73 L 2057.81,7013.47 L 2049.55,7004.29 L 2043.37,6993.6 L 2039.56,6981.86 L 2038.27,6969.58 z " style="fill-opacity:1.000000;fill:rgb(90,37,93);stroke:rgb(0,0,0);stroke-width:2"/></g>
<g fill-rule="evenodd"><path d="M 2238.27,3169.58 L 2238.27,3090.84 L 2239.56,3078.56 L 2243.37,3066.82 L 2249.55,3056.13 L 2257.81,3046.96 L 2267.8,3039.7 L 2279.07,3034.68 L 2291.15,3032.11 L 2303.5,3032.11 L 2315.57,3034.68 L 2326.85,3039.7 L 2336.84,3046.96 L 2345.1,3056.13 L 2351.27,3066.82 L 2355.09,3078.56 L 2356.38,3090.84 L 2356.38,3169.58 L 2355.09,3181.86 L 2351.27,3193.6 L 2345.1,3204.29 L 2336.84,3213.47 L 2326.85,3220.73 L 2315.57,3225.75 L 2303.5,3228.31 L 2291.15,3228.31 L 2279.07,3225.75 L 2267.8,3220.73 L 2257.81,3213.47 L 2249.55,3204.29 L 2243.37,3193.6 L 2239.56,3181.86 L 2238.27,3169.58 z " style="fill-opacity:1.000000;fill:rgb(5,23,88);stroke:rgb(0,0,0);stroke-width:2"/></g>
<g fill-rule="evenodd"><path d="M 2357.95,6969.58 L 2357.95,6890.84 L 2359.24,6878.56 L 2363.06,6866.82 L 2369.23,6856.13 L 2377.49,6846.96 L 2387.48,6839.7 L 2398.76,6834.68 L 2410.83,6832.11 L 2423.18,6832.11 L 2435.26,6834.68 L 2446.54,6839.7 L 2456.52,6846.96 L 2464.78,6856.13 L 2470.96,6866.82 L 2474.77,6878.56 L 2476.06,6890.84 L 2476.06,6969.58 L 2474.77,6981.86 L 2470.96,6993.6 L 2464.78,7004.29 L 2456.52,7013.47 L 2446.54,7020.73 L 2435.26,7025.75 L 2423.18,7028.31 L 2410.83,7028.31 L 2398.76,7025.75 L 2387.48,7020.73 L 2377.49,7013.47 L 2369.23,7004.29 L 2363.06,6993.6 L 2359.24,6981.86 L 2357.95,6969.58 z " style="fill-opacity:1.000000;fill:rgb(233,94,212);stroke:rgb(0,0,0);stroke-width:2"/></g>
<g fill-rule="evenodd"><path d="M 2038.27,3169.58 L 2038.27,3090.84 L 2039.56,3078.56 L 2043.37,3066.82 L 2049.55,3056.13 L 2057.81,3046.96 L 2067.8,3039.7 L 2079.07,3034.68 L 2091.15,3032.11 L 2103.5,3032.11 L 2115.57,3034.68 L 2126.85,3039.7 L 2136.84,3046.96 L 2145.1,3056.13 L 2151.27,3066.82 L 2155.09,3078.56 L 2156.38,3090.84 L 2156.38,3169.58 L 2155.09,3181.86 L 2151.27,3193.6 L 2145.1,3204.29 L 2136.84,3213.47 L 2126.85,3220.73 L 2115.57,3225.75 L 2103.5,3228.31 L 2091.15,3228.31 L 2079.07,3225.75 L 2067.8,3220.73 L 2057.81,3213.47 L 2049.55,3204.29 L 2043.37,3193.6 L 2039.56,3181.86 L 2038.27,3169.58 z " style="fill-opacity:1.000000;fill:rgb(171,178,205);stroke:rgb(0,0,0);stroke-width:2"/></g>
<g fill-rule="evenodd"><path d="M 2557.95,6969.58 L 2557.95,6890.84 L 2559.24,6878.56 L 2563.06,6866.82 L 2569.23,6856.13 L 2577.49,6846.96 L 2587.48,6839.7 L 2598.76,6834.68 L 2610.83,6832.11 L 2623.18,6832.11 L 2635.26,6834.68 L 2646.54,6839.7 L 2656.52,6846.96 L 2664.78,6856.13 L 2670.96,6866.82 L 2674.77,6878.56 L 2676.06,6890.84 L 2676.06,6969.58 L 2674.77,6981.86 L 2670.96,6993.6 L 2664.78,7004.29 L 2656.52,7013.47 L 2646.54,7020.73 L 2635.26,7025.75 L 2623.18,7028.31 L 2610.83,7028.31 L 2598.76,7025.75 L 2587.48,7020.73 L 2577.49,7013.47 L 2569.23,7004.29 L 2563.06,6993.6 L 2559.24,6981.86 L 2557.95,6969.58 z " style="fill-opacity:1.000000;fill:rgb(198,155,180);stroke:rgb(0,0,0);stroke-width:2"/></g>
<g fill-rule="evenodd"><path d="M 1638.27,3169.58 L 1638.27,3090.84 L 1639.56,3078.56 L 1643.37,3066.82 L 1649.55,3056.13 L 1657.81,3046.96 L 1667.8,3039.7 L 1679.07,3034.68 L 1691.15,3032.11 L 1703.5,3032.11 L 1715.57,3034.68 L 1726.85,3039.7 L 1736.84,3046.96 L 1745.1,3056.13 L 1751.27,3066.82 L 1755.09,3078.56 L 1756.38,3090.84 L 1756.38,3169.58 L 1755.09,3181.86 L 1751.27,3193.6 L 1745.1,3204.29 L 1736.84,3213.47 L 1726.85,3220.73 L 1715.57,3225.75 L 1703.5,3228.31 L 1691.15,3228.31 L 1679.07,3225.75 L 1667.8,3220.73 L 1657.81,3213.47 L 1649.55,3204.29 L 1643.37,3193.6 L 1639.56,3181.86 L 1638.27,3169.58 z " style="fill-opacity:1.000000;fill:rgb(84,17,14);stroke:rgb(0,0,0);stroke-width:2"/></g>
<g fill-rule="evenodd"><path d="M 2757.95,6969.58 L 2757.95,6890.84 L 2759.24,6878.56 L 2763.06,6866.82 L 2769.23,6856.13 L 2777.49,6846.96 L 2787.48,6839.7 L 2798.76,6834.68 L 2810.83,6832.11 L 2823.18,6832.11 L 2835.26,6834.68 L 2846.54,6839.7 L 2856.52,6846.96 L 2864.78,6856.13 L 2870.96,6866.82 L 2874.77,6878.56 L 2876.06,6890.84 L 2876.06,6969.58 L 2874.77,6981.86 L 2870.96,6993.6 L 2864.78,7004.29 L 2856.52,7013.47 L 2846.54,7020.73 L 2835.26,7025.75 L 2823.18,7028.31 L 2810.83,7028.31 L 2798.76,7025.75 L 2787.48,7020.73 L 2777.49,7013.47 L 2769.23,7004.29 L 2763.06,6993.6 L 2759.24,6981.86 L 2757.95,6969.58 z " style="fill-opacity:1.000000;fill:rgb(130,116,65);stroke:rgb(0,0,0);stroke-width:2"/></g>
<g fill-rule="evenodd"><path d="M 1438.27,3169.58 L 1438.27,3090.84 L 1439.56,3078.56 L 1443.37,3066.82 L 1449.55,3056.13 L 1457.81,3046.96 L 1467.8,3039.7 L 1479.07,3034.68 L 1491.15,3032.11 L 1503.5,3032.11 L 1515.57,3034.68 L 1526.85,3039.7 L 1536.84,3046.96 L 1545.1,3056.13 L 1551.27,3066.82 L 1555.09,3078.56 L 1556.38,3090.84 L 1556.38,3169.58 L 1555.09,3181.86 L 1551.27,3193.6 L 1545.1,3204.29 L 1536.84,3213.47 L 1526.85,3220.73 L 1515.57,3225.75 L 1503.5,3228.31 L 1491.15,3228.31 L 1479.07,3225.75 L 1467.8,3220.73 L 1457.81,3213.47 L 1449.55,3204.29 L 1443.37,3193.6 L 1439.56,3181.86 L 1438.27,3169.58 z " style="fill-opacity:1.000000;fill:rgb(33,61,220);stroke:rgb(0,0,0);stroke-width:2"/></g>
<g fill-rule="evenodd"><path d="M 2957.95,6969.58 L 2957.95,6890.84 L 2959.24,6878.56 L 2963.06,6866.82 L 2969.23,6856.13 L 2977.49,6846.96 L 2987.48,6839.7 L 2998.76,6834.68 L 3010.83,6832.11 L 3023.18,6832.11 L 3035.26,6834.68 L 3046.54,6839.7 L 3056.52,6846.96 L 3064.78,6856.13 L 3070.96,6866.82 L 3074.77,6878.56 L 3076.06,6890.84 L 3076.06,6969.58 L 3074.77,6981.86 L 3070.96,6993.6 L 3064.78,7004.29 L 3056.52,7013.47 L 3046.54,7020.73 L 3035.26,7025.75 L 3023.18,7028.31 L 3010.83,7028.31 L 2998.76,7025.75 L 2987.48,7020.73 L 2977.49,7013.47 L 2969.23,7004.29 L 2963.06,6993.6 L 2959.24,6981.86 L 2957.95,6969.58 z " style="fill-opacity:1.000000;fill:rgb(135,112,233);stroke:rgb(0,0,0);stroke-width:2"/></g>
<g fill-rule="evenodd"><path d="M 1238.27,3169.58 L 1238.27,3090.84 L 1239.56,3078.56 L 1243.37,3066.82 L 1249.55,3056.13 L 1257.81,3046.96 L 1267.8,3039.7 L 1279.07,3034.68 L 1291.15,3032.11 L 1303.5,3032.11 L 1315.57,3034.68 L 1326.85,3039.7 L 1336.84,3046.96 L 1345.1,3056.13 L 1351.27,3066.82 L 1355.09,3078.56 L 1356.38,3090.84 L 1356.38,3169.58 L 1355.09,3181.86 L 1351.27,3193.6 L 1345.1,3204.29 L 1336.84,3213.47 L 1326.85,3220.73 L 1315.57,3225.75 L 1303.5,3228.31 L 1291.15,3228.31 L 1279.07,3225.75 L 1267.8,3220.73 L 1257.81,3213.47 L 1249.55,3204.29 L 1243.37,3193.6 L 1239.56,3181.86 L 1238.27,3169.58 z " style="fill-opacity:1.000000;fill:rgb(62,161,65);stroke:rgb(0,0,0);stroke-width:2"/></g>
<g fill-rule="evenodd"><path d="M 3157.95,6969.58 L 3157.95,6890.84 L 3159.24,6878.56 L 3163.06,6866.82 L 3169.23,6856.13 L 3177.49,6846.96 L 3187.48,6839.7 L 3198.76,6834.68 L 3210.83,6832.11 L 3223.18,6832.11 L 3235.26,6834.68 L 3246.54,6839.7 L 3256.52,6846.96 L 3264.78,6856.13 L 3270.96,6866.82 L 3274.77,6878.56 L 3276.06,6890.84 L 3276.06,6969.58 L 3274.77,6981.86 L 3270.96,6993.6 L 3264.78,7004.29 L 3256.52,7013.47 L 3246.54,7020.73 L 3235.26,7025.75 L 3223.18,7028.31 L 3210.83,7028.31 L 3198.76,7025.75 L 3187.48,7020.73 L 3177.49,7013.47 L 3169.23,7004.29 L 3163.06,6993.6 L 3159.24,6981.86 L 3157.95,6969.58 z " style="fill-opacity:1.000000;fill:rgb(225,252,103);stroke:rgb(0,0,0);stroke-width:2"/></g>
<g fill-rule="evenodd"><path d="M 1038.27,3169.58 L 1038.27,3090.84 L 1039.56,3078.56 L 1043.37,3066.82 L 1049.55,3056.13 L 1057.81,3046.96 L 1067.8,3039.7 L 1079.07,3034.68 L 1091.15,3032.11 L 1103.5,3032.11 L 1115.57,3034.68 L 1126.85,3039.7 L 1136.84,3046.96 L 1145.1,3056.13 L 1151.27,3066.82 L 1155.09,3078.56 L 1156.38,3090.84 L 1156.38,3169.58 L 1155.09,3181.86 L 1151.27,3193.6 L 1145.1,3204.29 L 1136.84,3213.47 L 1126.85,3220.73 L 1115.57,3225.75 L 1103.5,3228.31 L 1091.15,3228.31 L 1079.07,3225.75 L 1067.8,3220.73 L 1057.81,3213.47 L 1049.55,3204.29 L 1043.37,3193.6 L 1039.56,3181.86 L 1038.27,3169.58 z " style="fill-opacity:1.000000;fill:rgb(62,1,126);stroke:rgb(0,0,0);stroke-width:2"/></g>
<g fill-rule="evenodd"><path d="M 3357.95,6969.58 L 3357.95,6890.84 L 3359.24,6878.56 L 3363.06,6866.82 L 3369.23,6856.13 L 3377.49,6846.96 L 3387.48,6839.7 L 3398.76,6834.68 L 3410.83,6832.11 L 3423.18,6832.11 L 3435.26,6834.68 L 3446.54,6839.7 L 3456.52,6846.96 L 3464.78,6856.13 L 3470.96,6866.82 L 3474.77,6878.56 L 3476.06,6890.84 L 3476.06,6969.58 L 3474.77,6981.86 L 3470.96,6993.6 L 3464.78,7004.29 L 3456.52,7013.47 L 3446.54,7020.73 L 3435.26,7025.75 L 3423.18,7028.31 L 3410.83,7028.31 L 3398.76,7025.75 L 3387.48,7020.73 L 3377.49,7013.47 L 3369.23,7004.29 L 3363.06,6993.6 L 3359.24,6981.86 L 3357.95,6969.58 z " style="fill-opacity:1.000000;fill:rgb(151,234,220);stroke:rgb(0,0,0);stroke-width:2"/></g>
<g fill-rule="evenodd"><path d="M 838.268,3169.58 L 838.268,3090.84 L 839.558,3078.56 L 843.373,3066.82 L 849.546,3056.13 L 857.807,3046.96 L 867.795,3039.7 L 879.074,3034.68 L 891.15,3032.11 L 903.496,3032.11 L 915.572,3034.68 L 926.85,3039.7 L 936.838,3046.96 L 945.099,3056.13 L 951.272,3066.82 L 955.087,3078.56 L 956.378,3090.84 L 956.378,3169.58 L 955.087,3181.86 L 951.272,3193.6 L 945.099,3204.29 L 936.838,3213.47 L 926.85,3220.73 L 915.572,3225.75 L 903.496,3228.31 L 891.15,3228.31 L 879.074,3225.75 L 867.795,3220.73 L 857.807,3213.47 L 849.546,3204.29 L 843.373,3193.6 L 839.558,3181.86 L 838.268,3169.58 z " style="fill-opacity:1.000000;fill:rgb(107,150,143);stroke:rgb(0,0,0);stroke-width:2"/></g>
<g fill-rule="evenodd"><path d="M 3557.95,6969.58 L 3557.95,6890.84 L 3559.24,6878.56 L 3563.06,6866.82 L 3569.23,6856.13 L 3577.49,6846.96 L 3587.48,6839.7 L 3598.76,6834.68 L 3610.83,6832.11 L 3623.18,6832.11 L 3635.26,6834.68 L 3646.54,6839.7 L 3656.52,6846.96 L 3664.78,6856.13 L 3670.96,6866.82 L 3674.77,6878.56 L 3676.06,6890.84 L 3676.06,6969.58 L 3674.77,6981.86 L 3670.96,6993.6 L 3664.78,7004.29 L 3656.52,7013.47 L 3646.54,7020.73 L 3635.26,7025.75 L 3623.18,7028.31 L 3610.83,7028.31 L 3598.76,7025.75 L 3587.48,7020.73 L 3577.49,7013.47 L 3569.23,7004.29 L 3563.06,6993.6 L 3559.24,6981.86 L 3557.95,6969.58 z " style="fill-opacity:1.000000;fill:rgb(56,92,42);stroke:rgb(0,0,0);stroke-width:2"/></g>
<g fill-rule="evenodd"><path d="M 638.268,3169.58 L 638.268,3090.84 L 639.558,3078.56 L 643.373,3066.82 L 649.546,3056.13 L 657.807,3046.96 L 667.795,3039.7 L 679.074,3034.68 L 691.15,3032.11 L 703.496,3032.11 L 715.572,3034.68 L 726.85,3039.7 L 736.838,3046.96 L 745.099,3056.13 L 751.272,3066.82 L 755.087,3078.56 L 756.378,3090.84 L 756.378,3169.58 L 755.087,3181.86 L 751.272,3193.6 L 745.099,3204.29 L 736.838,3213.47 L 726.85,3220.73 L 715.572,3225.75 L 703.496,3228.31 L 691.15,3228.31 L 679.074,3225.75 L 667.795,3220.73 L 657.807,3213.47 L 649.546,3204.29 L 643.373,3193.6 L 639.558,3181.86 L 638.268,3169.58 z " style="fill-opacity:1.000000;fill:rgb(236,176,59);stroke:rgb(0,0,0);stroke-width:2"/></g>
<g fill-rule="evenodd"><path d="M 3757.95,6969.58 L 3757.95,6890.84 L 3759.24,6878.56 L 3763.06,6866.82 L 3769.23,6856.13 L 3777.49,6846.96 L 3787.48,6839.7 L 3798.76,6834.68 L 3810.83,6832.11 L 3823.18,6832.11 L 3835.26,6834.68 L 3846.54,6839.7 L 3856.52,6846.96 L 3864.78,6856.13 L 3870.96,6866.82 L 3874.77,6878.56 L 3876.06,6890.84 L 3876.06,6969.58 L 3874.77,6981.86 L 3870.96,6993.6 L 3864.78,7004.29 L 3856.52,7013.47 L 3846.54,7020.73 L 3835.26,7025.75 L 3823.18,7028.31 L 3810.83,7028.31 L 3798.76,7025.75 L 3787.48,7020.73 L 3777.49,7013.47 L 3769.23,7004.29 L 3763.06,6993.6 L 3759.24,6981.86 L 3757.95,6969.58 z " style="fill-opacity:1.000000;fill:rgb(251,50,175);stroke:rgb(0,0,0);stroke-width:2"/></g>
<g fill-rule="evenodd"><path d="M 638.268,6969.58 L 638.268,6890.84 L 639.558,6878.56 L 643.373,6866.82 L 649.546,6856.13 L 657.807,6846.96 L 667.795,6839.7 L 679.074,6834.68 L 691.15,6832.11 L 703.496,6832.11 L 715.572,6834.68 L 726.85,6839.7 L 736.838,6846.96 L 745.099,6856.13 L 751.272,6866.82 L 755.087,6878.56 L 756.378,6890.84 L 756.378,6969.58 L 755.087,6981.86 L 751.272,6993.6 L 745.099,7004.29 L 736.838,7013.47 L 726.85,7020.73 L 715.572,7025.75 L 703.496,7028.31 L 691.15,7028.31 L 679.074,7025.75 L 667.795,7020.73 L 657.807,7013.47 L 649.546,7004.29 L 643.373,6993.6 L 639.558,6981.86 L 638.268,6969.58 z " style="fill-opacity:1.000000;fill:rgb(60,84,236);stroke:rgb(0,0,0);stroke-width:2"/></g>
<g fill-rule="evenodd"><path d="M 838.268,6969.58 L 838.268,6890.84 L 839.558,6878.56 L 843.373,6866.82 L 849.546,6856.13 L 857.807,6846.96 L 867.795,6839.7 L 879.074,6834.68 L 891.15,6832.11 L 903.496,6832.11 L 915.572,6834.68 L 926.85,6839.7 L 936.838,6846.96 L 945.099,6856.13 L 951.272,6866.82 L 955.087,6878.56 L 956.378,6890.84 L 956.378,6969.58 L 955.087,6981.86 L 951.272,6993.6 L 945.099,7004.29 L 936.838,7013.47 L 926.85,7020.73 L 915.572,7025.75 L 903.496,7028.31 L 891.15,7028.31 L 879.074,7025.75 L 867.795,7020.73 L 857.807,7013.47 L 849.546,7004.29 L 843.373,6993.6 L 839.558,6981.86 L 838.268,6969.58 z " style="fill-opacity:1.000000;fill:rgb(24,219,92);stroke:rgb(0,0,0);stroke-width:2"/></g>
<g fill-rule="evenodd"><path d="M 9396.85,7266.22 L 9394.27,7290.78 L 9386.64,7314.26 L 9374.29,7335.65 L 9357.77,7354 L 9337.8,7368.51 L 9315.24,7378.55 L 9291.09,7383.69 L 9266.39,7383.69 L 9242.24,7378.55 L 9219.69,7368.51 L 9199.71,7354 L 9183.19,7335.65 L 9170.84,7314.26 L 9163.21,7290.78 L 9160.63,7266.22 L 9163.21,7241.67 L 9170.84,7218.18 L 9183.19,7196.8 L 9199.71,7178.45 L 9219.69,7163.94 L 9242.24,7153.89 L 9266.39,7148.76 L 9291.09,7148.76 L 9315.24,7153.89 L 9337.8,7163.94 L 9357.77,7178.45 L 9374.29,7196.8 L 9386.64,7218.18 L 9394.27,7241.67 L 9396.85,7266.22 z " style="fill-opacity:1.000000;fill:rgb(2,26,254);stroke:rgb(0,0,0);stroke-width:2"/></g>
<g fill-rule="evenodd"><path d="M 9396.85,6675.67 L 9394.27,6700.23 L 9386.64,6723.71 L 9374.29,6745.09 L 9357.77,6763.44 L 9337.8,6777.96 L 9315.24,6788 L 9291.09,6793.13 L 9266.39,6793.13 L 9242.24,6788 L 9219.69,6777.96 L 9199.71,6763.44 L 9183.19,6745.09 L 9170.84,6723.71 L 9163.21,6700.23 L 9160.63,6675.67 L 9163.21,6651.11 L 9170.84,6627.63 L 9183.19,6606.25 L 9199.71,6587.9 L 9219.69,6573.38 L 9242.24,6563.34 L 9266.39,6558.21 L 9291.09,6558.21 L 9315.24,6563.34 L 9337.8,6573.38 L 9357.77,6587.9 L 9374.29,6606.25 L 9386.64,6627.63 L 9394.27,6651.11 L 9396.85,6675.67 z " style="fill-opacity:1.000000;fill:rgb(67,251,250);stroke:rgb(0,0,0);stroke-width:2"/></g>
<g fill-rule="evenodd"><path d="M 8352.76,5901.66 L 8352.76,5649.69 L 8604.72,5649.69 L 8604.72,5901.66 L 8352.76,5901.66 z " style="fill-opacity:1.000000;fill:rgb(170,58,251);stroke:rgb(0,0,0);stroke-width:2"/></g>
<g fill-rule="evenodd"><path d="M 7404.72,5775.67 L 7401.97,5801.86 L 7393.83,5826.91 L 7380.66,5849.72 L 7363.04,5869.3 L 7341.73,5884.78 L 7317.67,5895.49 L 7291.91,5900.97 L 7265.57,5900.97 L 7239.81,5895.49 L 7215.75,5884.78 L 7194.44,5869.3 L 7176.82,5849.72 L 7163.65,5826.91 L 7155.51,5801.86 L 7152.76,5775.67 L 7155.51,5749.48 L 7163.65,5724.43 L 7176.82,5701.62 L 7194.44,5682.05 L 7215.75,5666.57 L 7239.81,5655.85 L 7265.57,5650.38 L 7291.91,5650.38 L 7317.67,5655.85 L 7341.73,5666.57 L 7363.04,5682.05 L 7380.66,5701.62 L 7393.83,5724.43 L 7401.97,5749.48 L 7404.72,5775.67 z " style="fill-opacity:1.000000;fill:rgb(41,209,230);stroke:rgb(0,0,0);stroke-width:2"/></g>
<g fill-rule="evenodd"><path d="M 4183.39,10824.1 L 3882.91,10824.1 L 3882.91,10523.6 L 4183.39,10523.6 L 4183.39,10824.1 z " style="fill-opacity:1.000000;fill:rgb(5,60,124);stroke:rgb(0,0,0);stroke-width:2"/></g>
<g fill-rule="evenodd"><path d="M 6103.39,10824.1 L 5802.91,10824.1 L 5802.91,10523.6 L 6103.39,10523.6 L 6103.39,10824.1 z " style="fill-opacity:1.000000;fill:rgb(148,117,216);stroke:rgb(0,0,0);stroke-width:2"/></g>
<g fill-rule="evenodd"><path d="M 3741.18,10824.1 L 3440.71,10824.1 L 3440.71,10523.6 L 3741.18,10523.6 L 3741.18,10824.1 z " style="fill-opacity:1.000000;fill:rgb(190,97,137);stroke:rgb(0,0,0);stroke-width:2"/></g>
<g fill-rule="evenodd"><path d="M 1821.18,10824.1 L 1520.71,10824.1 L 1520.71,10523.6 L 1821.18,10523.6 L 1821.18,10824.1 z " style="fill-opacity:1.000000;fill:rgb(249,92,187);stroke:rgb(0,0,0);stroke-width:2"/></g>
<g fill-rule="evenodd"><path d="M 8465.59,10824.1 L 8165.12,10824.1 L 8165.12,10523.6 L 8465.59,10523.6 L 8465.59,10824.1 z " style="fill-opacity:1.000000;fill:rgb(168,153,15);stroke:rgb(0,0,0);stroke-width:2"/></g>
<g fill-rule="evenodd"><path d="M 6545.59,10824.1 L 6245.12,10824.1 L 6245.12,10523.6 L 6545.59,10523.6 L 6545.59,10824.1 z " style="fill-opacity:1.000000;fill:rgb(149,177,235);stroke:rgb(0,0,0);stroke-width:2"/></g>
<g fill-rule="evenodd"><path d="M 7857.48,9075.67 L 7855.76,9092.04 L 7850.67,9107.7 L 7842.44,9121.95 L 7831.43,9134.19 L 7818.11,9143.86 L 7803.07,9150.56 L 7786.97,9153.98 L 7770.51,9153.98 L 7754.41,9150.56 L 7739.37,9143.86 L 7726.05,9134.19 L 7715.04,9121.95 L 7706.81,9107.7 L 7701.72,9092.04 L 7700,9075.67 L 7701.72,9059.3 L 7706.81,9043.64 L 7715.04,9029.39 L 7726.05,9017.16 L 7739.37,9007.48 L 7754.41,9000.78 L 7770.51,8997.36 L 7786.97,8997.36 L 7803.07,9000.78 L 7818.11,9007.48 L 7831.43,9017.16 L 7842.44,9029.39 L 7850.67,9043.64 L 7855.76,9059.3 L 7857.48,9075.67 z " style="fill-opacity:1.000000;fill:rgb(241,179,5);stroke:rgb(0,0,0);stroke-width:2"/></g>
<g fill-rule="evenodd"><path d="M 7057.48,9075.67 L 7055.76,9092.04 L 7050.67,9107.7 L 7042.44,9121.95 L 7031.43,9134.19 L 7018.11,9143.86 L 7003.07,9150.56 L 6986.97,9153.98 L 6970.51,9153.98 L 6954.41,9150.56 L 6939.37,9143.86 L 6926.05,9134.19 L 6915.04,9121.95 L 6906.81,9107.7 L 6901.72,9092.04 L 6900,9075.67 L 6901.72,9059.3 L 6906.81,9043.64 L 6915.04,9029.39 L 6926.05,9017.16 L 6939.37,9007.48 L 6954.41,9000.78 L 6970.51,8997.36 L 6986.97,8997.36 L 7003.07,9000.78 L 7018.11,9007.48 L 7031.43,9017.16 L 7042.44,9029.39 L 7050.67,9043.64 L 7055.76,9059.3 L 7057.48,9075.67 z " style="fill-opacity:1.000000;fill:rgb(239,247,0);stroke:rgb(0,0,0);stroke-width:2"/></g>
<g fill-rule="evenodd"><path d="M 4957.48,4475.67 L 4955.76,4492.04 L 4950.67,4507.7 L 4942.44,4521.95 L 4931.43,4534.19 L 4918.11,4543.86 L 4903.07,4550.56 L 4886.97,4553.98 L 4870.51,4553.98 L 4854.41,4550.56 L 4839.37,4543.86 L 4826.05,4534.19 L 4815.04,4521.95 L 4806.81,4507.7 L 4801.72,4492.04 L 4800,4475.67 L 4801.72,4459.3 L 4806.81,4443.64 L 4815.04,4429.39 L 4826.05,4417.16 L 4839.37,4407.48 L 4854.41,4400.78 L 4870.51,4397.36 L 4886.97,4397.36 L 4903.07,4400.78 L 4918.11,4407.48 L 4931.43,4417.16 L 4942.44,4429.39 L 4950.67,4443.64 L 4955.76,4459.3 L 4957.48,4475.67 z " style="fill-opacity:1.000000;fill:rgb(233,161,58);stroke:rgb(0,0,0);stroke-width:2"/></g>
<g fill-rule="evenodd"><path d="M 4957.48,3675.67 L 4955.76,3692.04 L 4950.67,3707.7 L 4942.44,3721.95 L 4931.43,3734.19 L 4918.11,3743.86 L 4903.07,3750.56 L 4886.97,3753.98 L 4870.51,3753.98 L 4854.41,3750.56 L 4839.37,3743.86 L 4826.05,3734.19 L 4815.04,3721.95 L 4806.81,3707.7 L 4801.72,3692.04 L 4800,3675.67 L 4801.72,3659.3 L 4806.81,3643.64 L 4815.04,3629.39 L 4826.05,3617.16 L 4839.37,3607.48 L 4854.41,3600.78 L 4870.51,3597.36 L 4886.97,3597.36 L 4903.07,3600.78 L 4918.11,3607.48 L 4931.43,3617.16 L 4942.44,3629.39 L 4950.67,3643.64 L 4955.76,3659.3 L 4957.48,3675.67 z " style="fill-opacity:1.000000;fill:rgb(229,202,11);stroke:rgb(0,0,0);stroke-width:2"/></g>
<g fill-rule="evenodd"><path d="M 5557.48,3475.67 L 5555.76,3492.04 L 5550.67,3507.7 L 5542.44,3521.95 L 5531.43,3534.19 L 5518.11,3543.86 L 5503.07,3550.56 L 5486.97,3553.98 L 5470.51,3553.98 L 5454.41,3550.56 L 5439.37,3543.86 L 5426.05,3534.19 L 5415.04,3521.95 L 5406.81,3507.7 L 5401.72,3492.04 L 5400,3475.67 L 5401.72,3459.3 L 5406.81,3443.64 L 5415.04,3429.39 L 5426.05,3417.16 L 5439.37,3407.48 L 5454.41,3400.78 L 5470.51,3397.36 L 5486.97,3397.36 L 5503.07,3400.78 L 5518.11,3407.48 L 5531.43,3417.16 L 5542.44,3429.39 L 5550.67,3443.64 L 5555.76,3459.3 L 5557.48,3475.67 z " style="fill-opacity:1.000000;fill:rgb(203,208,72);stroke:rgb(0,0,0);stroke-width:2"/></g>
<g fill-rule="evenodd"><path d="M 5557.48,4275.67 L 5555.76,4292.04 L 5550.67,4307.7 L 5542.44,4321.95 L 5531.43,4334.19 L 5518.11,4343.86 L 5503.07,4350.56 L 5486.97,4353.98 L 5470.51,4353.98 L 5454.41,4350.56 L 5439.37,4343.86 L 5426.05,4334.19 L 5415.04,4321.95 L 5406.81,4307.7 L 5401.72,4292.04 L 5400,4275.67 L 5401.72,4259.3 L 5406.81,4243.64 L 5415.04,4229.39 L 5426.05,4217.16 L 5439.37,4207.48 L 5454.41,4200.78 L 5470.51,4197.36 L 5486.97,4197.36 L 5503.07,4200.78 L 5518.11,4207.48 L 5531.43,4217.16 L 5542.44,4229.39 L 5550.67,4243.64 L 5555.76,4259.3 L 5557.48,4275.67 z " style="fill-opacity:1.000000;fill:rgb(71,100,189);stroke:rgb(0,0,0);stroke-width:2"/></g>
<g fill-rule="evenodd"><path d="M 7762.28,6485.67 L 7760.56,6502.04 L 7755.48,6517.7 L 7747.25,6531.95 L 7736.23,6544.19 L 7722.91,6553.86 L 7707.88,6560.56 L 7691.77,6563.98 L 7675.31,6563.98 L 7659.21,6560.56 L 7644.17,6553.86 L 7630.86,6544.19 L 7619.84,6531.95 L 7611.61,6517.7 L 7606.52,6502.04 L 7604.8,6485.67 L 7606.52,6469.3 L 7611.61,6453.64 L 7619.84,6439.39 L 7630.86,6427.16 L 7644.17,6417.48 L 7659.21,6410.78 L 7675.31,6407.36 L 7691.77,6407.36 L 7707.88,6410.78 L 7722.91,6417.48 L 7736.23,6427.16 L 7747.25,6439.39 L 7755.48,6453.64 L 7760.56,6469.3 L 7762.28,6485.67 z " style="fill-opacity:1.000000;fill:rgb(31,35,30);stroke:rgb(0,0,0);stroke-width:2"/></g>
<g fill-rule="evenodd"><path d="M 6962.28,6485.67 L 6960.56,6502.04 L 6955.48,6517.7 L 6947.25,6531.95 L 6936.23,6544.19 L 6922.91,6553.86 L 6907.88,6560.56 L 6891.77,6563.98 L 6875.31,6563.98 L 6859.21,6560.56 L 6844.17,6553.86 L 6830.86,6544.19 L 6819.84,6531.95 L 6811.61,6517.7 L 6806.52,6502.04 L 6804.8,6485.67 L 6806.52,6469.3 L 6811.61,6453.64 L 6819.84,6439.39 L 6830.86,6427.16 L 6844.17,6417.48 L 6859.21,6410.78 L 6875.31,6407.36 L 6891.77,6407.36 L 6907.88,6410.78 L 6922.91,6417.48 L 6936.23,6427.16 L 6947.25,6439.39 L 6955.48,6453.64 L 6960.56,6469.3 L 6962.28,6485.67 z " style="fill-opacity:1.000000;fill:rgb(168,28,123);stroke:rgb(0,0,0);stroke-width:2"/></g>
<g fill-rule="evenodd"><path d="M 2744.13,8114.25 L 2744.13,7988.27 L 2933.1,7988.27 L 2933.1,8114.25 L 2744.13,8114.25 z " style="fill-opacity:1.000000;fill:rgb(100,197,20);stroke:rgb(0,0,0);stroke-width:2"/></g>
<g fill-rule="evenodd"><path d="M 3407.12,8588.27 L 3470.11,8588.27 L 3483.21,8589.65 L 3495.73,8593.72 L 3507.14,8600.3 L 3516.92,8609.11 L 3524.66,8619.77 L 3530.02,8631.8 L 3532.76,8644.68 L 3532.76,8657.85 L 3530.02,8670.73 L 3524.66,8682.76 L 3516.92,8693.41 L 3507.14,8702.22 L 3495.73,8708.81 L 3483.21,8712.88 L 3470.11,8714.25 L 3407.12,8714.25 L 3394.02,8712.88 L 3381.5,8708.81 L 3370.09,8702.22 L 3360.31,8693.41 L 3352.57,8682.76 L 3347.21,8670.73 L 3344.47,8657.85 L 3344.47,8644.68 L 3347.21,8631.8 L 3352.57,8619.77 L 3360.31,8609.11 L 3370.09,8600.3 L 3381.5,8593.72 L 3394.02,8589.65 L 3407.12,8588.27 z " style="fill-opacity:1.000000;fill:rgb(115,90,197);stroke:rgb(0,0,0);stroke-width:2"/></g>
<g fill-rule="evenodd"><path d="M 2807.12,8188.27 L 2870.11,8188.27 L 2883.21,8189.65 L 2895.73,8193.72 L 2907.14,8200.3 L 2916.92,8209.11 L 2924.66,8219.77 L 2930.02,8231.8 L 2932.76,8244.68 L 2932.76,8257.85 L 2930.02,8270.73 L 2924.66,8282.76 L 2916.92,8293.41 L 2907.14,8302.22 L 2895.73,8308.81 L 2883.21,8312.88 L 2870.11,8314.25 L 2807.12,8314.25 L 2794.02,8312.88 L 2781.5,8308.81 L 2770.09,8302.22 L 2760.31,8293.41 L 2752.57,8282.76 L 2747.21,8270.73 L 2744.47,8257.85 L 2744.47,8244.68 L 2747.21,8231.8 L 2752.57,8219.77 L 2760.31,8209.11 L 2770.09,8200.3 L 2781.5,8193.72 L 2794.02,8189.65 L 2807.12,8188.27 z " style="fill-opacity:1.000000;fill:rgb(94,75,121);stroke:rgb(0,0,0);stroke-width:2"/></g>
<g fill-rule="evenodd"><path d="M 3407.12,8388.27 L 3470.11,8388.27 L 3483.21,8389.65 L 3495.73,8393.72 L 3507.14,8400.3 L 3516.92,8409.11 L 3524.66,8419.77 L 3530.02,8431.8 L 3532.76,8444.68 L 3532.76,8457.85 L 3530.02,8470.73 L 3524.66,8482.76 L 3516.92,8493.41 L 3507.14,8502.22 L 3495.73,8508.81 L 3483.21,8512.88 L 3470.11,8514.25 L 3407.12,8514.25 L 3394.02,8512.88 L 3381.5,8508.81 L 3370.09,8502.22 L 3360.31,8493.41 L 3352.57,8482.76 L 3347.21,8470.73 L 3344.47,8457.85 L 3344.47,8444.68 L 3347.21,8431.8 L 3352.57,8419.77 L 3360.31,8409.11 L 3370.09,8400.3 L 3381.5,8393.72 L 3394.02,8389.65 L 3407.12,8388.27 z " style="fill-opacity:1.000000;fill:rgb(99,59,112);stroke:rgb(0,0,0);stroke-width:2"/></g>
<g fill-rule="evenodd"><path d="M 2807.12,8388.27 L 2870.11,8388.27 L 2883.21,8389.65 L 2895.73,8393.72 L 2907.14,8400.3 L 2916.92,8409.11 L 2924.66,8419.77 L 2930.02,8431.8 L 2932.76,8444.68 L 2932.76,8457.85 L 2930.02,8470.73 L 2924.66,8482.76 L 2916.92,8493.41 L 2907.14,8502.22 L 2895.73,8508.81 L 2883.21,8512.88 L 2870.11,8514.25 L 2807.12,8514.25 L 2794.02,8512.88 L 2781.5,8508.81 L 2770.09,8502.22 L 2760.31,8493.41 L 2752.57,8482.76 L 2747.21,8470.73 L 2744.47,8457.85 L 2744.47,8444.68 L 2747.21,8431.8 L 2752.57,8419.77 L 2760.31,8409.11 L 2770.09,8400.3 L 2781.5,8393.72 L 2794.02,8389.65 L 2807.12,8388.27 z " style="fill-opacity:1.000000;fill:rgb(100,36,17);stroke:rgb(0,0,0);stroke-width:2"/></g>
<g fill-rule="evenodd"><path d="M 3407.12,8188.27 L 3470.11,8188.27 L 3483.21,8189.65 L 3495.73,8193.72 L 3507.14,8200.3 L 3516.92,8209.11 L 3524.66,8219.77 L 3530.02,8231.8 L 3532.76,8244.68 L 3532.76,8257.85 L 3530.02,8270.73 L 3524.66,8282.76 L 3516.92,8293.41 L 3507.14,8302.22 L 3495.73,8308.81 L 3483.21,8312.88 L 3470.11,8314.25 L 3407.12,8314.25 L 3394.02,8312.88 L 3381.5,8308.81 L 3370.09,8302.22 L 3360.31,8293.41 L 3352.57,8282.76 L 3347.21,8270.73 L 3344.47,8257.85 L 3344.47,8244.68 L 3347.21,8231.8 L 3352.57,8219.77 L 3360.31,8209.11 L 3370.09,8200.3 L 3381.5,8193.72 L 3394.02,8189.65 L 3407.12,8188.27 z " style="fill-opacity:1.000000;fill:rgb(158,9,220);stroke:rgb(0,0,0);stroke-width:2"/></g>
<g fill-rule="evenodd"><path d="M 2807.12,8588.27 L 2870.11,8588.27 L 2883.21,8589.65 L 2895.73,8593.72 L 2907.14,8600.3 L 2916.92,8609.11 L 2924.66,8619.77 L 2930.02,8631.8 L 2932.76,8644.68 L 2932.76,8657.85 L 2930.02,8670.73 L 2924.66,8682.76 L 2916.92,8693.41 L 2907.14,8702.22 L 2895.73,8708.81 L 2883.21,8712.88 L 2870.11,8714.25 L 2807.12,8714.25 L 2794.02,8712.88 L 2781.5,8708.81 L 2770.09,8702.22 L 2760.31,8693.41 L 2752.57,8682.76 L 2747.21,8670.73 L 2744.47,8657.85 L 2744.47,8644.68 L 2747.21,8631.8 L 2752.57,8619.77 L 2760.31,8609.11 L 2770.09,8600.3 L 2781.5,8593.72 L 2794.02,8589.65 L 2807.12,8588.27 z " style="fill-opacity:1.000000;fill:rgb(170,212,172);stroke:rgb(0,0,0);stroke-width:2"/></g>
<g fill-rule="evenodd"><path d="M 3407.12,7988.27 L 3470.11,7988.27 L 3483.21,7989.65 L 3495.73,7993.72 L 3507.14,8000.3 L 3516.92,8009.11 L 3524.66,8019.77 L 3530.02,8031.8 L 3532.76,8044.68 L 3532.76,8057.85 L 3530.02,8070.73 L 3524.66,8082.76 L 3516.92,8093.41 L 3507.14,8102.22 L 3495.73,8108.81 L 3483.21,8112.88 L 3470.11,8114.25 L 3407.12,8114.25 L 3394.02,8112.88 L 3381.5,8108.81 L 3370.09,8102.22 L 3360.31,8093.41 L 3352.57,8082.76 L 3347.21,8070.73 L 3344.47,8057.85 L 3344.47,8044.68 L 3347.21,8031.8 L 3352.57,8019.77 L 3360.31,8009.11 L 3370.09,8000.3 L 3381.5,7993.72 L 3394.02,7989.65 L 3407.12,7988.27 z " style="fill-opacity:1.000000;fill:rgb(242,27,16);stroke:rgb(0,0,0);stroke-width:2"/></g>
<g fill-rule="evenodd"><path d="M 9557.48,5675.67 L 9555.76,5692.04 L 9550.67,5707.7 L 9542.44,5721.95 L 9531.43,5734.19 L 9518.11,5743.86 L 9503.07,5750.56 L 9486.97,5753.98 L 9470.51,5753.98 L 9454.41,5750.56 L 9439.37,5743.86 L 9426.05,5734.19 L 9415.04,5721.95 L 9406.81,5707.7 L 9401.72,5692.04 L 9400,5675.67 L 9401.72,5659.3 L 9406.81,5643.64 L 9415.04,5629.39 L 9426.05,5617.16 L 9439.37,5607.48 L 9454.41,5600.78 L 9470.51,5597.36 L 9486.97,5597.36 L 9503.07,5600.78 L 9518.11,5607.48 L 9531.43,5617.16 L 9542.44,5629.39 L 9550.67,5643.64 L 9555.76,5659.3 L 9557.48,5675.67 z " style="fill-opacity:1.000000;fill:rgb(175,59,51);stroke:rgb(0,0,0);stroke-width:2"/></g>
<g fill-rule="evenodd"><path d="M 9557.48,4475.67 L 9555.76,4492.04 L 9550.67,4507.7 L 9542.44,4521.95 L 9531.43,4534.19 L 9518.11,4543.86 L 9503.07,4550.56 L 9486.97,4553.98 L 9470.51,4553.98 L 9454.41,4550.56 L 9439.37,4543.86 L 9426.05,4534.19 L 9415.04,4521.95 L 9406.81,4507.7 L 9401.72,4492.04 L 9400,4475.67 L 9401.72,4459.3 L 9406.81,4443.64 L 9415.04,4429.39 L 9426.05,4417.16 L 9439.37,4407.48 L 9454.41,4400.78 L 9470.51,4397.36 L 9486.97,4397.36 L 9503.07,4400.78 L 9518.11,4407.48 L 9531.43,4417.16 L 9542.44,4429.39 L 9550.67,4443.64 L 9555.76,4459.3 L 9557.48,4475.67 z " style="fill-opacity:1.000000;fill:rgb(205,227,80);stroke:rgb(0,0,0);stroke-width:2"/></g>
<g fill-rule="evenodd"><path d="M 9557.48,2975.67 L 9555.76,2992.04 L 9550.67,3007.7 L 9542.44,3021.95 L 9531.43,3034.19 L 9518.11,3043.86 L 9503.07,3050.56 L 9486.97,3053.98 L 9470.51,3053.98 L 9454.41,3050.56 L 9439.37,3043.86 L 9426.05,3034.19 L 9415.04,3021.95 L 9406.81,3007.7 L 9401.72,2992.04 L 9400,2975.67 L 9401.72,2959.3 L 9406.81,2943.64 L 9415.04,2929.39 L 9426.05,2917.16 L 9439.37,2907.48 L 9454.41,2900.78 L 9470.51,2897.36 L 9486.97,2897.36 L 9503.07,2900.78 L 9518.11,2907.48 L 9531.43,2917.16 L 9542.44,2929.39 L 9550.67,2943.64 L 9555.76,2959.3 L 9557.48,2975.67 z " style="fill-opacity:1.000000;fill:rgb(72,71,21);stroke:rgb(0,0,0);stroke-width:2"/></g>
<g fill-rule="evenodd"><path d="M 9557.48,4175.67 L 9555.76,4192.04 L 9550.67,4207.7 L 9542.44,4221.95 L 9531.43,4234.19 L 9518.11,4243.86 L 9503.07,4250.56 L 9486.97,4253.98 L 9470.51,4253.98 L 9454.41,4250.56 L 9439.37,4243.86 L 9426.05,4234.19 L 9415.04,4221.95 L 9406.81,4207.7 L 9401.72,4192.04 L 9400,4175.67 L 9401.72,4159.3 L 9406.81,4143.64 L 9415.04,4129.39 L 9426.05,4117.16 L 9439.37,4107.48 L 9454.41,4100.78 L 9470.51,4097.36 L 9486.97,4097.36 L 9503.07,4100.78 L 9518.11,4107.48 L 9531.43,4117.16 L 9542.44,4129.39 L 9550.67,4143.64 L 9555.76,4159.3 L 9557.48,4175.67 z " style="fill-opacity:1.000000;fill:rgb(92,187,111);stroke:rgb(0,0,0);stroke-width:2"/></g>
<g fill-rule="evenodd"><path d="M 1457.48,6375.67 L 1455.76,6392.04 L 1450.67,6407.7 L 1442.44,6421.95 L 1431.43,6434.19 L 1418.11,6443.86 L 1403.07,6450.56 L 1386.97,6453.98 L 1370.51,6453.98 L 1354.41,6450.56 L 1339.37,6443.86 L 1326.05,6434.19 L 1315.04,6421.95 L 1306.81,6407.7 L 1301.72,6392.04 L 1300,6375.67 L 1301.72,6359.3 L 1306.81,6343.64 L 1315.04,6329.39 L 1326.05,6317.16 L 1339.37,6307.48 L 1354.41,6300.78 L 1370.51,6297.36 L 1386.97,6297.36 L 1403.07,6300.78 L 1418.11,6307.48 L 1431.43,6317.16 L 1442.44,6329.39 L 1450.67,6343.64 L 1455.76,6359.3 L 1457.48,6375.67 z " style="fill-opacity:1.000000;fill:rgb(34,25,186);stroke:rgb(0,0,0);stroke-width:2"/></g>
<g fill-rule="evenodd"><path d="M 2257.48,6375.67 L 2255.76,6392.04 L 2250.67,6407.7 L 2242.44,6421.95 L 2231.43,6434.19 L 2218.11,6443.86 L 2203.07,6450.56 L 2186.97,6453.98 L 2170.51,6453.98 L 2154.41,6450.56 L 2139.37,6443.86 L 2126.05,6434.19 L 2115.04,6421.95 L 2106.81,6407.7 L 2101.72,6392.04 L 2100,6375.67 L 2101.72,6359.3 L 2106.81,6343.64 L 2115.04,6329.39 L 2126.05,6317.16 L 2139.37,6307.48 L 2154.41,6300.78 L 2170.51,6297.36 L 2186.97,6297.36 L 2203.07,6300.78 L 2218.11,6307.48 L 2231.43,6317.16 L 2242.44,6329.39 L 2250.67,6343.64 L 2255.76,6359.3 L 2257.48,6375.67 z " style="fill-opacity:1.000000;fill:rgb(155,125,245);stroke:rgb(0,0,0);stroke-width:2"/></g>
<g fill-rule="evenodd"><path d="M 7973.46,2751.67 L 7971.74,2768.04 L 7966.66,2783.7 L 7958.43,2797.95 L 7947.41,2810.19 L 7934.09,2819.86 L 7919.06,2826.56 L 7902.95,2829.98 L 7886.49,2829.98 L 7870.39,2826.56 L 7855.35,2819.86 L 7842.04,2810.19 L 7831.02,2797.95 L 7822.79,2783.7 L 7817.7,2768.04 L 7815.98,2751.67 L 7817.7,2735.3 L 7822.79,2719.64 L 7831.02,2705.39 L 7842.04,2693.16 L 7855.35,2683.48 L 7870.39,2676.78 L 7886.49,2673.36 L 7902.95,2673.36 L 7919.06,2676.78 L 7934.09,2683.48 L 7947.41,2693.16 L 7958.43,2705.39 L 7966.66,2719.64 L 7971.74,2735.3 L 7973.46,2751.67 z " style="fill-opacity:1.000000;fill:rgb(11,225,26);stroke:rgb(0,0,0);stroke-width:2"/></g>
<g fill-rule="evenodd"><path d="M 8773.46,2751.67 L 8771.74,2768.04 L 8766.66,2783.7 L 8758.43,2797.95 L 8747.41,2810.19 L 8734.09,2819.86 L 8719.06,2826.56 L 8702.95,2829.98 L 8686.49,2829.98 L 8670.39,2826.56 L 8655.35,2819.86 L 8642.04,2810.19 L 8631.02,2797.95 L 8622.79,2783.7 L 8617.7,2768.04 L 8615.98,2751.67 L 8617.7,2735.3 L 8622.79,2719.64 L 8631.02,2705.39 L 8642.04,2693.16 L 8655.35,2683.48 L 8670.39,2676.78 L 8686.49,2673.36 L 8702.95,2673.36 L 8719.06,2676.78 L 8734.09,2683.48 L 8747.41,2693.16 L 8758.43,2705.39 L 8766.66,2719.64 L 8771.74,2735.3 L 8773.46,2751.67 z " style="fill-opacity:1.000000;fill:rgb(28,127,35);stroke:rgb(0,0,0);stroke-width:2"/></g>
<g fill-rule="evenodd"><path d="M 1357.48,2475.67 L 1355.76,2492.04 L 1350.67,2507.7 L 1342.44,2521.95 L 1331.43,2534.19 L 1318.11,2543.86 L 1303.07,2550.56 L 1286.97,2553.98 L 1270.51,2553.98 L 1254.41,2550.56 L 1239.37,2543.86 L 1226.05,2534.19 L 1215.04,2521.95 L 1206.81,2507.7 L 1201.72,2492.04 L 1200,2475.67 L 1201.72,2459.3 L 1206.81,2443.64 L 1215.04,2429.39 L 1226.05,2417.16 L 1239.37,2407.48 L 1254.41,2400.78 L 1270.51,2397.36 L 1286.97,2397.36 L 1303.07,2400.78 L 1318.11,2407.48 L 1331.43,2417.16 L 1342.44,2429.39 L 1350.67,2443.64 L 1355.76,2459.3 L 1357.48,2475.67 z " style="fill-opacity:1.000000;fill:rgb(248,41,248);stroke:rgb(0,0,0);stroke-width:2"/></g>
<g fill-rule="evenodd"><path d="M 557.48,2475.67 L 555.76,2492.04 L 550.673,2507.7 L 542.442,2521.95 L 531.428,2534.19 L 518.11,2543.86 L 503.072,2550.56 L 486.971,2553.98 L 470.51,2553.98 L 454.408,2550.56 L 439.37,2543.86 L 426.053,2534.19 L 415.038,2521.95 L 406.807,2507.7 L 401.721,2492.04 L 400,2475.67 L 401.721,2459.3 L 406.807,2443.64 L 415.038,2429.39 L 426.053,2417.16 L 439.37,2407.48 L 454.408,2400.78 L 470.51,2397.36 L 486.971,2397.36 L 503.072,2400.78 L 518.11,2407.48 L 531.428,2417.16 L 542.442,2429.39 L 550.673,2443.64 L 555.76,2459.3 L 557.48,2475.67 z " style="fill-opacity:1.000000;fill:rgb(164,27,19);stroke:rgb(0,0,0);stroke-width:2"/></g>
<g fill-rule="evenodd"><path d="M 1647.24,1412.68 L 1710.24,1412.68 L 1723.33,1414.06 L 1735.86,1418.13 L 1747.26,1424.71 L 1757.05,1433.52 L 1764.79,1444.18 L 1770.15,1456.21 L 1772.88,1469.09 L 1772.88,1482.26 L 1770.15,1495.14 L 1764.79,1507.17 L 1757.05,1517.82 L 1747.26,1526.63 L 1735.86,1533.22 L 1723.33,1537.29 L 1710.24,1538.66 L 1647.24,1538.66 L 1634.15,1537.29 L 1621.62,1533.22 L 1610.22,1526.63 L 1600.43,1517.82 L 1592.69,1507.17 L 1587.34,1495.14 L 1584.6,1482.26 L 1584.6,1469.09 L 1587.34,1456.21 L 1592.69,1444.18 L 1600.43,1433.52 L 1610.22,1424.71 L 1621.62,1418.13 L 1634.15,1414.06 L 1647.24,1412.68 z " style="fill-opacity:1.000000;fill:rgb(181,202,78);stroke:rgb(0,0,0);stroke-width:2"/></g>
<g fill-rule="evenodd"><path d="M 2247.24,1012.68 L 2310.24,1012.68 L 2323.33,1014.06 L 2335.86,1018.13 L 2347.26,1024.71 L 2357.05,1033.52 L 2364.79,1044.18 L 2370.15,1056.21 L 2372.88,1069.09 L 2372.88,1082.26 L 2370.15,1095.14 L 2364.79,1107.17 L 2357.05,1117.82 L 2347.26,1126.63 L 2335.86,1133.22 L 2323.33,1137.29 L 2310.24,1138.66 L 2247.24,1138.66 L 2234.15,1137.29 L 2221.62,1133.22 L 2210.22,1126.63 L 2200.43,1117.82 L 2192.69,1107.17 L 2187.34,1095.14 L 2184.6,1082.26 L 2184.6,1069.09 L 2187.34,1056.21 L 2192.69,1044.18 L 2200.43,1033.52 L 2210.22,1024.71 L 2221.62,1018.13 L 2234.15,1014.06 L 2247.24,1012.68 z " style="fill-opacity:1.000000;fill:rgb(232,152,50);stroke:rgb(0,0,0);stroke-width:2"/></g>
<g fill-rule="evenodd"><path d="M 1647.24,1212.68 L 1710.24,1212.68 L 1723.33,1214.06 L 1735.86,1218.13 L 1747.26,1224.71 L 1757.05,1233.52 L 1764.79,1244.18 L 1770.15,1256.21 L 1772.88,1269.09 L 1772.88,1282.26 L 1770.15,1295.14 L 1764.79,1307.17 L 1757.05,1317.82 L 1747.26,1326.63 L 1735.86,1333.22 L 1723.33,1337.29 L 1710.24,1338.66 L 1647.24,1338.66 L 1634.15,1337.29 L 1621.62,1333.22 L 1610.22,1326.63 L 1600.43,1317.82 L 1592.69,1307.17 L 1587.34,1295.14 L 1584.6,1282.26 L 1584.6,1269.09 L 1587.34,1256.21 L 1592.69,1244.18 L 1600.43,1233.52 L 1610.22,1224.71 L 1621.62,1218.13 L 1634.15,1214.06 L 1647.24,1212.68 z " style="fill-opacity:1.000000;fill:rgb(56,224,121);stroke:rgb(0,0,0);stroke-width:2"/></g>
<g fill-rule="evenodd"><path d="M 2247.24,1212.68 L 2310.24,1212.68 L 2323.33,1214.06 L 2335.86,1218.13 L 2347.26,1224.71 L 2357.05,1233.52 L 2364.79,1244.18 L 2370.15,1256.21 L 2372.88,1269.09 L 2372.88,1282.26 L 2370.15,1295.14 L 2364.79,1307.17 L 2357.05,1317.82 L 2347.26,1326.63 L 2335.86,1333.22 L 2323.33,1337.29 L 2310.24,1338.66 L 2247.24,1338.66 L 2234.15,1337.29 L 2221.62,1333.22 L 2210.22,1326.63 L 2200.43,1317.82 L 2192.69,1307.17 L 2187.34,1295.14 L 2184.6,1282.26 L 2184.6,1269.09 L 2187.34,1256.21 L 2192.69,1244.18 L 2200.43,1233.52 L 2210.22,1224.71 L 2221.62,1218.13 L 2234.15,1214.06 L 2247.24,1212.68 z " style="fill-opacity:1.000000;fill:rgb(77,61,52);stroke:rgb(0,0,0);stroke-width:2"/></g>
<g fill-rule="evenodd"><path d="M 1647.24,1012.68 L 1710.24,1012.68 L 1723.33,1014.06 L 1735.86,1018.13 L 1747.26,1024.71 L 1757.05,1033.52 L 1764.79,1044.18 L 1770.15,1056.21 L 1772.88,1069.09 L 1772.88,1082.26 L 1770.15,1095.14 L 1764.79,1107.17 L 1757.05,1117.82 L 1747.26,1126.63 L 1735.86,1133.22 L 1723.33,1137.29 L 1710.24,1138.66 L 1647.24,1138.66 L 1634.15,1137.29 L 1621.62,1133.22 L 1610.22,1126.63 L 1600.43,1117.82 L 1592.69,1107.17 L 1587.34,1095.14 L 1584.6,1082.26 L 1584.6,1069.09 L 1587.34,1056.21 L 1592.69,1044.18 L 1600.43,1033.52 L 1610.22,1024.71 L 1621.62,1018.13 L 1634.15,1014.06 L 1647.24,1012.68 z " style="fill-opacity:1.000000;fill:rgb(188,95,78);stroke:rgb(0,0,0);stroke-width:2"/></g>
<g fill-rule="evenodd"><path d="M 2184.25,1538.66 L 2184.25,1412.68 L 2373.23,1412.68 L 2373.23,1538.66 L 2184.25,1538.66 z " style="fill-opacity:1.000000;fill:rgb(119,250,203);stroke:rgb(0,0,0);stroke-width:2"/></g>
<g fill-rule="evenodd"><path d="M 4015.75,1170.16 L 4015.75,981.183 L 4141.73,981.183 L 4141.73,1170.16 L 4015.75,1170.16 z " style="fill-opacity:1.000000;fill:rgb(108,5,172);stroke:rgb(0,0,0);stroke-width:2"/></g>
<g fill-rule="evenodd"><path d="M 3615.75,1707.17 L 3615.75,1644.18 L 3617.12,1631.08 L 3621.19,1618.55 L 3627.78,1607.15 L 3636.59,1597.36 L 3647.24,1589.62 L 3659.27,1584.27 L 3672.16,1581.53 L 3685.32,1581.53 L 3698.21,1584.27 L 3710.24,1589.62 L 3720.89,1597.36 L 3729.7,1607.15 L 3736.29,1618.55 L 3740.36,1631.08 L 3741.73,1644.18 L 3741.73,1707.17 L 3740.36,1720.26 L 3736.29,1732.79 L 3729.7,1744.19 L 3720.89,1753.98 L 3710.24,1761.72 L 3698.21,1767.08 L 3685.32,1769.81 L 3672.16,1769.81 L 3659.27,1767.08 L 3647.24,1761.72 L 3636.59,1753.98 L 3627.78,1744.19 L 3621.19,1732.79 L 3617.12,1720.26 L 3615.75,1707.17 z " style="fill-opacity:1.000000;fill:rgb(134,33,43);stroke:rgb(0,0,0);stroke-width:2"/></g>
<g fill-rule="evenodd"><path d="M 3815.75,1107.17 L 3815.75,1044.18 L 3817.12,1031.08 L 3821.19,1018.55 L 3827.78,1007.15 L 3836.59,997.363 L 3847.24,989.622 L 3859.27,984.266 L 3872.16,981.528 L 3885.32,981.528 L 3898.21,984.266 L 3910.24,989.622 L 3920.89,997.363 L 3929.7,1007.15 L 3936.29,1018.55 L 3940.36,1031.08 L 3941.73,1044.18 L 3941.73,1107.17 L 3940.36,1120.26 L 3936.29,1132.79 L 3929.7,1144.19 L 3920.89,1153.98 L 3910.24,1161.72 L 3898.21,1167.08 L 3885.32,1169.81 L 3872.16,1169.81 L 3859.27,1167.08 L 3847.24,1161.72 L 3836.59,1153.98 L 3827.78,1144.19 L 3821.19,1132.79 L 3817.12,1120.26 L 3815.75,1107.17 z " style="fill-opacity:1.000000;fill:rgb(170,26,85);stroke:rgb(0,0,0);stroke-width:2"/></g>
<g fill-rule="evenodd"><path d="M 3815.75,1707.17 L 3815.75,1644.18 L 3817.12,1631.08 L 3821.19,1618.55 L 3827.78,1607.15 L 3836.59,1597.36 L 3847.24,1589.62 L 3859.27,1584.27 L 3872.16,1581.53 L 3885.32,1581.53 L 3898.21,1584.27 L 3910.24,1589.62 L 3920.89,1597.36 L 3929.7,1607.15 L 3936.29,1618.55 L 3940.36,1631.08 L 3941.73,1644.18 L 3941.73,1707.17 L 3940.36,1720.26 L 3936.29,1732.79 L 3929.7,1744.19 L 3920.89,1753.98 L 3910.24,1761.72 L 3898.21,1767.08 L 3885.32,1769.81 L 3872.16,1769.81 L 3859.27,1767.08 L 3847.24,1761.72 L 3836.59,1753.98 L 3827.78,1744.19 L 3821.19,1732.79 L 3817.12,1720.26 L 3815.75,1707.17 z " style="fill-opacity:1.000000;fill:rgb(162,190,112);stroke:rgb(0,0,0);stroke-width:2"/></g>
<g fill-rule="evenodd"><path d="M 3615.75,1107.17 L 3615.75,1044.18 L 3617.12,1031.08 L 3621.19,1018.55 L 3627.78,1007.15 L 3636.59,997.363 L 3647.24,989.622 L 3659.27,984.266 L 3672.16,981.528 L 3685.32,981.528 L 3698.21,984.266 L 3710.24,989.622 L 3720.89,997.363 L 3729.7,1007.15 L 3736.29,1018.55 L 3740.36,1031.08 L 3741.73,1044.18 L 3741.73,1107.17 L 3740.36,1120.26 L 3736.29,1132.79 L 3729.7,1144.19 L 3720.89,1153.98 L 3710.24,1161.72 L 3698.21,1167.08 L 3685.32,1169.81 L 3672.16,1169.81 L 3659.27,1167.08 L 3647.24,1161.72 L 3636.59,1153.98 L 3627.78,1144.19 L 3621.19,1132.79 L 3617.12,1120.26 L 3615.75,1107.17 z " style="fill-opacity:1.000000;fill:rgb(181,115,59);stroke:rgb(0,0,0);stroke-width:2"/></g>
<g fill-rule="evenodd"><path d="M 4015.75,1707.17 L 4015.75,1644.18 L 4017.12,1631.08 L 4021.19,1618.55 L 4027.78,1607.15 L 4036.59,1597.36 L 4047.24,1589.62 L 4059.27,1584.27 L 4072.16,1581.53 L 4085.32,1581.53 L 4098.21,1584.27 L 4110.24,1589.62 L 4120.89,1597.36 L 4129.7,1607.15 L 4136.29,1618.55 L 4140.36,1631.08 L 4141.73,1644.18 L 4141.73,1707.17 L 4140.36,1720.26 L 4136.29,1732.79 L 4129.7,1744.19 L 4120.89,1753.98 L 4110.24,1761.72 L 4098.21,1767.08 L 4085.32,1769.81 L 4072.16,1769.81 L 4059.27,1767.08 L 4047.24,1761.72 L 4036.59,1753.98 L 4027.78,1744.19 L 4021.19,1732.79 L 4017.12,1720.26 L 4015.75,1707.17 z " style="fill-opacity:1.000000;fill:rgb(4,92,211);stroke:rgb(0,0,0);stroke-width:2"/></g>
<g fill-rule="evenodd"><path d="M 2.27374e-13,2075.67 L 1.72066,2059.3 L 6.80744,2043.64 L 15.038,2029.39 L 26.0527,2017.16 L 39.3701,2007.48 L 54.4081,2000.78 L 70.5096,1997.36 L 86.9707,1997.36 L 103.072,2000.78 L 118.11,2007.48 L 131.428,2017.16 L 142.442,2029.39 L 150.673,2043.64 L 155.76,2059.3 L 157.48,2075.67 L 155.76,2092.04 L 150.673,2107.7 L 142.442,2121.95 L 131.428,2134.19 L 118.11,2143.86 L 103.072,2150.56 L 86.9707,2153.98 L 70.5096,2153.98 L 54.4081,2150.56 L 39.3701,2143.86 L 26.0527,2134.19 L 15.038,2121.95 L 6.80744,2107.7 L 1.72066,2092.04 L 2.27374e-13,2075.67 z " style="fill-opacity:1.000000;fill:rgb(54,148,179);stroke:rgb(0,0,0);stroke-width:2"/></g>
<g fill-rule="evenodd"><path d="M 957.48,2075.67 L 955.76,2092.04 L 950.673,2107.7 L 942.442,2121.95 L 931.428,2134.19 L 918.11,2143.86 L 903.072,2150.56 L 886.971,2153.98 L 870.51,2153.98 L 854.408,2150.56 L 839.37,2143.86 L 826.053,2134.19 L 815.038,2121.95 L 806.807,2107.7 L 801.721,2092.04 L 800,2075.67 L 801.721,2059.3 L 806.807,2043.64 L 815.038,2029.39 L 826.053,2017.16 L 839.37,2007.48 L 854.408,2000.78 L 870.51,1997.36 L 886.971,1997.36 L 903.072,2000.78 L 918.11,2007.48 L 931.428,2017.16 L 942.442,2029.39 L 950.673,2043.64 L 955.76,2059.3 L 957.48,2075.67 z " style="fill-opacity:1.000000;fill:rgb(175,226,240);stroke:rgb(0,0,0);stroke-width:2"/></g>
<g fill-rule="evenodd"><path d="M 6070.47,675.278 L 6070.47,375.278 L 6370.47,375.278 L 6370.47,675.278 L 6070.47,675.278 z " style="fill-opacity:1.000000;fill:rgb(228,158,79);stroke:rgb(0,0,0);stroke-width:2"/></g>
<g fill-rule="evenodd"><path d="M 6078.35,2446.93 L 6078.35,2146.93 L 6378.35,2146.93 L 6378.35,2446.93 L 6078.35,2446.93 z " style="fill-opacity:1.000000;fill:rgb(50,21,73);stroke:rgb(0,0,0);stroke-width:2"/></g>
<g fill-rule="evenodd"><path d="M 9771.26,2439.06 L 9771.26,2139.06 L 10071.3,2139.06 L 10071.3,2439.06 L 9771.26,2439.06 z " style="fill-opacity:1.000000;fill:rgb(253,130,78);stroke:rgb(0,0,0);stroke-width:2"/></g>
<g fill-rule="evenodd"><path d="M 9771.26,683.152 L 9771.26,383.152 L 10071.3,383.152 L 10071.3,683.152 L 9771.26,683.152 z " style="fill-opacity:1.000000;fill:rgb(169,8,112);stroke:rgb(0,0,0);stroke-width:2"/></g>
<g fill-rule="evenodd"><path d="M 1340.74,691.671 L 1340.74,571.671 L 1342.05,559.197 L 1345.93,547.267 L 1352.2,536.404 L 1360.59,527.083 L 1370.74,519.71 L 1382.2,514.608 L 1394.47,512 L 1407.01,512 L 1419.28,514.608 L 1430.74,519.71 L 1440.89,527.083 L 1449.28,536.404 L 1455.55,547.267 L 1459.43,559.197 L 1460.74,571.671 L 1460.74,691.671 L 1459.43,704.146 L 1455.55,716.076 L 1449.28,726.938 L 1440.89,736.26 L 1430.74,743.633 L 1419.28,748.735 L 1407.01,751.343 L 1394.47,751.343 L 1382.2,748.735 L 1370.74,743.633 L 1360.59,736.26 L 1352.2,726.938 L 1345.93,716.076 L 1342.05,704.146 L 1340.74,691.671 z " style="fill-opacity:1.000000;fill:rgb(212,178,138);stroke:rgb(0,0,0);stroke-width:2"/></g>
<g fill-rule="evenodd"><path d="M 1696.74,691.671 L 1696.74,571.671 L 1698.05,559.197 L 1701.93,547.267 L 1708.2,536.404 L 1716.59,527.083 L 1726.74,519.71 L 1738.2,514.608 L 1750.47,512 L 1763.01,512 L 1775.28,514.608 L 1786.74,519.71 L 1796.89,527.083 L 1805.28,536.404 L 1811.55,547.267 L 1815.43,559.197 L 1816.74,571.671 L 1816.74,691.671 L 1815.43,704.146 L 1811.55,716.076 L 1805.28,726.938 L 1796.89,736.26 L 1786.74,743.633 L 1775.28,748.735 L 1763.01,751.343 L 1750.47,751.343 L 1738.2,748.735 L 1726.74,743.633 L 1716.59,736.26 L 1708.2,726.938 L 1701.93,716.076 L 1698.05,704.146 L 1696.74,691.671 z " style="fill-opacity:1.000000;fill:rgb(41,84,72);stroke:rgb(0,0,0);stroke-width:2"/></g>
<g fill-rule="evenodd"><path d="M 1394.47,1.25056e-12 L 1407.01,1.25056e-12 L 1419.28,2.60792 L 1430.74,7.70979 L 1440.89,15.0826 L 1449.28,24.4042 L 1455.55,35.2671 L 1459.43,47.1966 L 1460.74,59.6713 L 1460.74,179.671 L 1459.43,192.146 L 1455.55,204.076 L 1449.28,214.938 L 1440.89,224.26 L 1430.74,231.633 L 1419.28,236.735 L 1407.01,239.343 L 1394.47,239.343 L 1382.2,236.735 L 1370.74,231.633 L 1360.59,224.26 L 1352.2,214.938 L 1345.93,204.076 L 1342.05,192.146 L 1340.74,179.671 L 1340.74,59.6713 L 1342.05,47.1966 L 1345.93,35.2671 L 1352.2,24.4042 L 1360.59,15.0826 L 1370.74,7.70979 L 1382.2,2.60792 L 1394.47,1.25056e-12 z " style="fill-opacity:1.000000;fill:rgb(154,10,188);stroke:rgb(0,0,0);stroke-width:2"/></g>
<g fill-rule="evenodd"><path d="M 1750.47,1.25056e-12 L 1763.01,1.25056e-12 L 1775.28,2.60792 L 1786.74,7.70979 L 1796.89,15.0826 L 1805.28,24.4042 L 1811.55,35.2671 L 1815.43,47.1966 L 1816.74,59.6713 L 1816.74,179.671 L 1815.43,192.146 L 1811.55,204.076 L 1805.28,214.938 L 1796.89,224.26 L 1786.74,231.633 L 1775.28,236.735 L 1763.01,239.343 L 1750.47,239.343 L 1738.2,236.735 L 1726.74,231.633 L 1716.59,224.26 L 1708.2,214.938 L 1701.93,204.076 L 1698.05,192.146 L 1696.74,179.671 L 1696.74,59.6713 L 1698.05,47.1966 L 1701.93,35.2671 L 1708.2,24.4042 L 1716.59,15.0826 L 1726.74,7.70979 L 1738.2,2.60792 L 1750.47,1.25056e-12 z " style="fill-opacity:1.000000;fill:rgb(213,14,24);stroke:rgb(0,0,0);stroke-width:2"/></g>
<g fill-rule="evenodd"><path d="M 10529.4,8868.3 L 10529.4,8883.04 L 10526.3,8897.46 L 10520.3,8910.92 L 10511.6,8922.85 L 10500.7,8932.71 L 10487.9,8940.08 L 10473.9,8944.63 L 10459.2,8946.17 L 10318.2,8946.17 L 10303.6,8944.63 L 10289.6,8940.08 L 10276.8,8932.71 L 10265.8,8922.85 L 10257.2,8910.92 L 10251.2,8897.46 L 10248.1,8883.04 L 10248.1,8868.3 L 10251.2,8853.89 L 10257.2,8840.42 L 10265.8,8828.5 L 10276.8,8818.64 L 10289.6,8811.27 L 10303.6,8806.71 L 10318.2,8805.17 L 10459.2,8805.17 L 10473.9,8806.71 L 10487.9,8811.27 L 10500.7,8818.64 L 10511.6,8828.5 L 10520.3,8840.42 L 10526.3,8853.89 L 10529.4,8868.3 z " style="fill-opacity:1.000000;fill:rgb(168,68,172);stroke:rgb(0,0,0);stroke-width:2"/></g>
<g fill-rule="evenodd"><path d="M 10529.4,8468.3 L 10529.4,8483.04 L 10526.3,8497.46 L 10520.3,8510.92 L 10511.6,8522.85 L 10500.7,8532.71 L 10487.9,8540.08 L 10473.9,8544.63 L 10459.2,8546.17 L 10318.2,8546.17 L 10303.6,8544.63 L 10289.6,8540.08 L 10276.8,8532.71 L 10265.8,8522.85 L 10257.2,8510.92 L 10251.2,8497.46 L 10248.1,8483.04 L 10248.1,8468.3 L 10251.2,8453.89 L 10257.2,8440.42 L 10265.8,8428.5 L 10276.8,8418.64 L 10289.6,8411.27 L 10303.6,8406.71 L 10318.2,8405.17 L 10459.2,8405.17 L 10473.9,8406.71 L 10487.9,8411.27 L 10500.7,8418.64 L 10511.6,8428.5 L 10520.3,8440.42 L 10526.3,8453.89 L 10529.4,8468.3 z " style="fill-opacity:1.000000;fill:rgb(91,243,142);stroke:rgb(0,0,0);stroke-width:2"/></g>
<g fill-rule="evenodd"><path d="M 9952.76,4201.66 L 9952.76,3949.69 L 10204.7,3949.69 L 10204.7,4201.66 L 9952.76,4201.66 z " style="fill-opacity:1.000000;fill:rgb(76,215,45);stroke:rgb(0,0,0);stroke-width:2"/></g>
<g fill-rule="evenodd"><path d="M 10204.7,2875.67 L 10202,2901.86 L 10193.8,2926.91 L 10180.7,2949.72 L 10163,2969.3 L 10141.7,2984.78 L 10117.7,2995.49 L 10091.9,3000.97 L 10065.6,3000.97 L 10039.8,2995.49 L 10015.7,2984.78 L 9994.44,2969.3 L 9976.82,2949.72 L 9963.65,2926.91 L 9955.51,2901.86 L 9952.76,2875.67 L 9955.51,2849.48 L 9963.65,2824.43 L 9976.82,2801.62 L 9994.44,2782.05 L 10015.7,2766.57 L 10039.8,2755.85 L 10065.6,2750.38 L 10091.9,2750.38 L 10117.7,2755.85 L 10141.7,2766.57 L 10163,2782.05 L 10180.7,2801.62 L 10193.8,2824.43 L 10202,2849.48 L 10204.7,2875.67 z " style="fill-opacity:1.000000;fill:rgb(155,9,66);stroke:rgb(0,0,0);stroke-width:2"/></g>
<g fill-rule="evenodd"><path d="M 10204.7,5675.67 L 10202,5701.86 L 10193.8,5726.91 L 10180.7,5749.72 L 10163,5769.3 L 10141.7,5784.78 L 10117.7,5795.49 L 10091.9,5800.97 L 10065.6,5800.97 L 10039.8,5795.49 L 10015.7,5784.78 L 9994.44,5769.3 L 9976.82,5749.72 L 9963.65,5726.91 L 9955.51,5701.86 L 9952.76,5675.67 L 9955.51,5649.48 L 9963.65,5624.43 L 9976.82,5601.62 L 9994.44,5582.05 L 10015.7,5566.57 L 10039.8,5555.85 L 10065.6,5550.38 L 10091.9,5550.38 L 10117.7,5555.85 L 10141.7,5566.57 L 10163,5582.05 L 10180.7,5601.62 L 10193.8,5624.43 L 10202,5649.48 L 10204.7,5675.67 z " style="fill-opacity:1.000000;fill:rgb(229,6,196);stroke:rgb(0,0,0);stroke-width:2"/></g>
<g fill-rule="evenodd"><path d="M 9952.76,4601.66 L 9952.76,4349.69 L 10204.7,4349.69 L 10204.7,4601.66 L 9952.76,4601.66 z " style="fill-opacity:1.000000;fill:rgb(51,175,205);stroke:rgb(0,0,0);stroke-width:2"/></g>
<g fill-rule="evenodd"><path d="M 3708.24,296.171 L 3708.24,155.171 L 3709.78,140.514 L 3714.34,126.496 L 3721.7,113.732 L 3731.57,102.78 L 3743.49,94.1165 L 3756.95,88.1218 L 3771.37,85.0575 L 3786.11,85.0575 L 3800.53,88.1218 L 3813.99,94.1165 L 3825.91,102.78 L 3835.78,113.732 L 3843.15,126.496 L 3847.7,140.514 L 3849.24,155.171 L 3849.24,296.171 L 3847.7,310.829 L 3843.15,324.846 L 3835.78,337.61 L 3825.91,348.563 L 3813.99,357.226 L 3800.53,363.221 L 3786.11,366.285 L 3771.37,366.285 L 3756.95,363.221 L 3743.49,357.226 L 3731.57,348.563 L 3721.7,337.61 L 3714.34,324.846 L 3709.78,310.829 L 3708.24,296.171 z " style="fill-opacity:1.000000;fill:rgb(163,132,127);stroke:rgb(0,0,0);stroke-width:2"/></g>
<g fill-rule="evenodd"><path d="M 4108.24,296.171 L 4108.24,155.171 L 4109.78,140.514 L 4114.34,126.496 L 4121.7,113.732 L 4131.57,102.78 L 4143.49,94.1165 L 4156.95,88.1218 L 4171.37,85.0575 L 4186.11,85.0575 L 4200.53,88.1218 L 4213.99,94.1165 L 4225.91,102.78 L 4235.78,113.732 L 4243.15,126.496 L 4247.7,140.514 L 4249.24,155.171 L 4249.24,296.171 L 4247.7,310.829 L 4243.15,324.846 L 4235.78,337.61 L 4225.91,348.563 L 4213.99,357.226 L 4200.53,363.221 L 4186.11,366.285 L 4171.37,366.285 L 4156.95,363.221 L 4143.49,357.226 L 4131.57,348.563 L 4121.7,337.61 L 4114.34,324.846 L 4109.78,310.829 L 4108.24,296.171 z " style="fill-opacity:1.000000;fill:rgb(45,173,212);stroke:rgb(0,0,0);stroke-width:2"/></g>
<g fill-rule="evenodd"><path d="M 370.24,1005.17 L 511.24,1005.17 L 525.898,1006.71 L 539.915,1011.27 L 552.679,1018.64 L 563.632,1028.5 L 572.295,1040.42 L 578.29,1053.89 L 581.354,1068.3 L 581.354,1083.04 L 578.29,1097.46 L 572.295,1110.92 L 563.632,1122.85 L 552.679,1132.71 L 539.915,1140.08 L 525.898,1144.63 L 511.24,1146.17 L 370.24,1146.17 L 355.582,1144.63 L 341.565,1140.08 L 328.801,1132.71 L 317.848,1122.85 L 309.185,1110.92 L 303.191,1097.46 L 300.126,1083.04 L 300.126,1068.3 L 303.191,1053.89 L 309.185,1040.42 L 317.848,1028.5 L 328.801,1018.64 L 341.565,1011.27 L 355.582,1006.71 L 370.24,1005.17 z " style="fill-opacity:1.000000;fill:rgb(118,71,222);stroke:rgb(0,0,0);stroke-width:2"/></g>
<g fill-rule="evenodd"><path d="M 370.24,1405.17 L 511.24,1405.17 L 525.898,1406.71 L 539.915,1411.27 L 552.679,1418.64 L 563.632,1428.5 L 572.295,1440.42 L 578.29,1453.89 L 581.354,1468.3 L 581.354,1483.04 L 578.29,1497.46 L 572.295,1510.92 L 563.632,1522.85 L 552.679,1532.71 L 539.915,1540.08 L 525.898,1544.63 L 511.24,1546.17 L 370.24,1546.17 L 355.582,1544.63 L 341.565,1540.08 L 328.801,1532.71 L 317.848,1522.85 L 309.185,1510.92 L 303.191,1497.46 L 300.126,1483.04 L 300.126,1468.3 L 303.191,1453.89 L 309.185,1440.42 L 317.848,1428.5 L 328.801,1418.64 L 341.565,1411.27 L 355.582,1406.71 L 370.24,1405.17 z " style="fill-opacity:1.000000;fill:rgb(50,28,236);stroke:rgb(0,0,0);stroke-width:2"/></g>
<g fill-rule="evenodd"><path d="M 5508.24,296.171 L 5508.24,155.171 L 5509.78,140.514 L 5514.34,126.496 L 5521.7,113.732 L 5531.57,102.78 L 5543.49,94.1165 L 5556.95,88.1218 L 5571.37,85.0575 L 5586.11,85.0575 L 5600.53,88.1218 L 5613.99,94.1165 L 5625.91,102.78 L 5635.78,113.732 L 5643.15,126.496 L 5647.7,140.514 L 5649.24,155.171 L 5649.24,296.171 L 5647.7,310.829 L 5643.15,324.846 L 5635.78,337.61 L 5625.91,348.563 L 5613.99,357.226 L 5600.53,363.221 L 5586.11,366.285 L 5571.37,366.285 L 5556.95,363.221 L 5543.49,357.226 L 5531.57,348.563 L 5521.7,337.61 L 5514.34,324.846 L 5509.78,310.829 L 5508.24,296.171 z " style="fill-opacity:1.000000;fill:rgb(74,196,48);stroke:rgb(0,0,0);stroke-width:2"/></g>
<g fill-rule="evenodd"><path d="M 5108.24,296.171 L 5108.24,155.171 L 5109.78,140.514 L 5114.34,126.496 L 5121.7,113.732 L 5131.57,102.78 L 5143.49,94.1165 L 5156.95,88.1218 L 5171.37,85.0575 L 5186.11,85.0575 L 5200.53,88.1218 L 5213.99,94.1165 L 5225.91,102.78 L 5235.78,113.732 L 5243.15,126.496 L 5247.7,140.514 L 5249.24,155.171 L 5249.24,296.171 L 5247.7,310.829 L 5243.15,324.846 L 5235.78,337.61 L 5225.91,348.563 L 5213.99,357.226 L 5200.53,363.221 L 5186.11,366.285 L 5171.37,366.285 L 5156.95,363.221 L 5143.49,357.226 L 5131.57,348.563 L 5121.7,337.61 L 5114.34,324.846 L 5109.78,310.829 L 5108.24,296.171 z " style="fill-opacity:1.000000;fill:rgb(246,32,35);stroke:rgb(0,0,0);stroke-width:2"/></g>
<g fill-rule="evenodd"><path d="M 2558.74,175.671 L 2555.46,206.858 L 2545.77,236.682 L 2530.09,263.839 L 2509.11,287.143 L 2483.74,305.575 L 2455.09,318.33 L 2424.42,324.85 L 2393.06,324.85 L 2362.39,318.33 L 2333.74,305.575 L 2308.37,287.143 L 2287.39,263.839 L 2271.71,236.682 L 2262.02,206.858 L 2258.74,175.671 L 2262.02,144.485 L 2271.71,114.661 L 2287.39,87.5035 L 2308.37,64.1996 L 2333.74,45.7675 L 2362.39,33.0128 L 2393.06,26.493 L 2424.42,26.493 L 2455.09,33.0128 L 2483.74,45.7675 L 2509.11,64.1996 L 2530.09,87.5035 L 2545.77,114.661 L 2555.46,144.485 L 2558.74,175.671 z " style="fill-opacity:1.000000;fill:rgb(133,108,251);stroke:rgb(0,0,0);stroke-width:2"/></g>
<g fill-rule="evenodd"><path d="M 2928.74,175.671 L 2925.46,206.858 L 2915.77,236.682 L 2900.09,263.839 L 2879.11,287.143 L 2853.74,305.575 L 2825.09,318.33 L 2794.42,324.85 L 2763.06,324.85 L 2732.39,318.33 L 2703.74,305.575 L 2678.37,287.143 L 2657.39,263.839 L 2641.71,236.682 L 2632.02,206.858 L 2628.74,175.671 L 2632.02,144.485 L 2641.71,114.661 L 2657.39,87.5035 L 2678.37,64.1996 L 2703.74,45.7675 L 2732.39,33.0128 L 2763.06,26.493 L 2794.42,26.493 L 2825.09,33.0128 L 2853.74,45.7675 L 2879.11,64.1996 L 2900.09,87.5035 L 2915.77,114.661 L 2925.46,144.485 L 2928.74,175.671 z " style="fill-opacity:1.000000;fill:rgb(178,7,4);stroke:rgb(0,0,0);stroke-width:2"/></g>
<g fill-rule="evenodd"><path d="M 3298.74,175.671 L 3295.46,206.858 L 3285.77,236.682 L 3270.09,263.839 L 3249.11,287.143 L 3223.74,305.575 L 3195.09,318.33 L 3164.42,324.85 L 3133.06,324.85 L 3102.39,318.33 L 3073.74,305.575 L 3048.37,287.143 L 3027.39,263.839 L 3011.71,236.682 L 3002.02,206.858 L 2998.74,175.671 L 3002.02,144.485 L 3011.71,114.661 L 3027.39,87.5035 L 3048.37,64.1996 L 3073.74,45.7675 L 3102.39,33.0128 L 3133.06,26.493 L 3164.42,26.493 L 3195.09,33.0128 L 3223.74,45.7675 L 3249.11,64.1996 L 3270.09,87.5035 L 3285.77,114.661 L 3295.46,144.485 L 3298.74,175.671 z " style="fill-opacity:1.000000;fill:rgb(244,236,11);stroke:rgb(0,0,0);stroke-width:2"/></g>
<g fill-rule="evenodd"><path d="M 1511.81,3542.6 L 1511.81,3408.74 L 1645.67,3408.74 L 1645.67,3542.6 L 1511.81,3542.6 z " style="fill-opacity:1.000000;fill:rgb(185,32,186);stroke:rgb(0,0,0);stroke-width:2"/></g>
<g fill-rule="evenodd"><path d="M 2111.81,3542.6 L 2111.81,3408.74 L 2245.67,3408.74 L 2245.67,3542.6 L 2111.81,3542.6 z " style="fill-opacity:1.000000;fill:rgb(134,195,62);stroke:rgb(0,0,0);stroke-width:2"/></g>
<g fill-rule="evenodd"><path d="M 6116.46,4802.96 L 6195.2,4802.96 L 6207.48,4804.25 L 6219.22,4808.07 L 6229.91,4814.24 L 6239.08,4822.5 L 6246.34,4832.49 L 6251.36,4843.77 L 6253.93,4855.84 L 6253.93,4868.19 L 6251.36,4880.27 L 6246.34,4891.55 L 6239.08,4901.53 L 6229.91,4909.79 L 6219.22,4915.97 L 6207.48,4919.78 L 6195.2,4921.07 L 6116.46,4921.07 L 6104.18,4919.78 L 6092.44,4915.97 L 6081.74,4909.79 L 6072.57,4901.53 L 6065.31,4891.55 L 6060.29,4880.27 L 6057.73,4868.19 L 6057.73,4855.84 L 6060.29,4843.77 L 6065.31,4832.49 L 6072.57,4822.5 L 6081.74,4814.24 L 6092.44,4808.07 L 6104.18,4804.25 L 6116.46,4802.96 z " style="fill-opacity:1.000000;fill:rgb(5,241,236);stroke:rgb(0,0,0);stroke-width:2"/></g>
<g fill-rule="evenodd"><path d="M 6116.46,4602.96 L 6195.2,4602.96 L 6207.48,4604.25 L 6219.22,4608.07 L 6229.91,4614.24 L 6239.08,4622.5 L 6246.34,4632.49 L 6251.36,4643.77 L 6253.93,4655.84 L 6253.93,4668.19 L 6251.36,4680.27 L 6246.34,4691.55 L 6239.08,4701.53 L 6229.91,4709.79 L 6219.22,4715.97 L 6207.48,4719.78 L 6195.2,4721.07 L 6116.46,4721.07 L 6104.18,4719.78 L 6092.44,4715.97 L 6081.74,4709.79 L 6072.57,4701.53 L 6065.31,4691.55 L 6060.29,4680.27 L 6057.73,4668.19 L 6057.73,4655.84 L 6060.29,4643.77 L 6065.31,4632.49 L 6072.57,4622.5 L 6081.74,4614.24 L 6092.44,4608.07 L 6104.18,4604.25 L 6116.46,4602.96 z " style="fill-opacity:1.000000;fill:rgb(217,103,51);stroke:rgb(0,0,0);stroke-width:2"/></g>
<g fill-rule="evenodd"><path d="M 6116.46,4402.96 L 6195.2,4402.96 L 6207.48,4404.25 L 6219.22,4408.07 L 6229.91,4414.24 L 6239.08,4422.5 L 6246.34,4432.49 L 6251.36,4443.77 L 6253.93,4455.84 L 6253.93,4468.19 L 6251.36,4480.27 L 6246.34,4491.55 L 6239.08,4501.53 L 6229.91,4509.79 L 6219.22,4515.97 L 6207.48,4519.78 L 6195.2,4521.07 L 6116.46,4521.07 L 6104.18,4519.78 L 6092.44,4515.97 L 6081.74,4509.79 L 6072.57,4501.53 L 6065.31,4491.55 L 6060.29,4480.27 L 6057.73,4468.19 L 6057.73,4455.84 L 6060.29,4443.77 L 6065.31,4432.49 L 6072.57,4422.5 L 6081.74,4414.24 L 6092.44,4408.07 L 6104.18,4404.25 L 6116.46,4402.96 z " style="fill-opacity:1.000000;fill:rgb(183,153,80);stroke:rgb(0,0,0);stroke-width:2"/></g>
<g fill-rule="evenodd"><path d="M 6116.46,4202.96 L 6195.2,4202.96 L 6207.48,4204.25 L 6219.22,4208.07 L 6229.91,4214.24 L 6239.08,4222.5 L 6246.34,4232.49 L 6251.36,4243.77 L 6253.93,4255.84 L 6253.93,4268.19 L 6251.36,4280.27 L 6246.34,4291.55 L 6239.08,4301.53 L 6229.91,4309.79 L 6219.22,4315.97 L 6207.48,4319.78 L 6195.2,4321.07 L 6116.46,4321.07 L 6104.18,4319.78 L 6092.44,4315.97 L 6081.74,4309.79 L 6072.57,4301.53 L 6065.31,4291.55 L 6060.29,4280.27 L 6057.73,4268.19 L 6057.73,4255.84 L 6060.29,4243.77 L 6065.31,4232.49 L 6072.57,4222.5 L 6081.74,4214.24 L 6092.44,4208.07 L 6104.18,4204.25 L 6116.46,4202.96 z " style="fill-opacity:1.000000;fill:rgb(163,227,20);stroke:rgb(0,0,0);stroke-width:2"/></g>
<g fill-rule="evenodd"><path d="M 6116.46,4002.96 L 6195.2,4002.96 L 6207.48,4004.25 L 6219.22,4008.07 L 6229.91,4014.24 L 6239.08,4022.5 L 6246.34,4032.49 L 6251.36,4043.77 L 6253.93,4055.84 L 6253.93,4068.19 L 6251.36,4080.27 L 6246.34,4091.55 L 6239.08,4101.53 L 6229.91,4109.79 L 6219.22,4115.97 L 6207.48,4119.78 L 6195.2,4121.07 L 6116.46,4121.07 L 6104.18,4119.78 L 6092.44,4115.97 L 6081.74,4109.79 L 6072.57,4101.53 L 6065.31,4091.55 L 6060.29,4080.27 L 6057.73,4068.19 L 6057.73,4055.84 L 6060.29,4043.77 L 6065.31,4032.49 L 6072.57,4022.5 L 6081.74,4014.24 L 6092.44,4008.07 L 6104.18,4004.25 L 6116.46,4002.96 z " style="fill-opacity:1.000000;fill:rgb(211,217,52);stroke:rgb(0,0,0);stroke-width:2"/></g>
<g fill-rule="evenodd"><path d="M 6116.46,3802.96 L 6195.2,3802.96 L 6207.48,3804.25 L 6219.22,3808.07 L 6229.91,3814.24 L 6239.08,3822.5 L 6246.34,3832.49 L 6251.36,3843.77 L 6253.93,3855.84 L 6253.93,3868.19 L 6251.36,3880.27 L 6246.34,3891.55 L 6239.08,3901.53 L 6229.91,3909.79 L 6219.22,3915.97 L 6207.48,3919.78 L 6195.2,3921.07 L 6116.46,3921.07 L 6104.18,3919.78 L 6092.44,3915.97 L 6081.74,3909.79 L 6072.57,3901.53 L 6065.31,3891.55 L 6060.29,3880.27 L 6057.73,3868.19 L 6057.73,3855.84 L 6060.29,3843.77 L 6065.31,3832.49 L 6072.57,3822.5 L 6081.74,3814.24 L 6092.44,3808.07 L 6104.18,3804.25 L 6116.46,3802.96 z " style="fill-opacity:1.000000;fill:rgb(247,94,160);stroke:rgb(0,0,0);stroke-width:2"/></g>
<g fill-rule="evenodd"><path d="M 6116.46,3602.96 L 6195.2,3602.96 L 6207.48,3604.25 L 6219.22,3608.07 L 6229.91,3614.24 L 6239.08,3622.5 L 6246.34,3632.49 L 6251.36,3643.77 L 6253.93,3655.84 L 6253.93,3668.19 L 6251.36,3680.27 L 6246.34,3691.55 L 6239.08,3701.53 L 6229.91,3709.79 L 6219.22,3715.97 L 6207.48,3719.78 L 6195.2,3721.07 L 6116.46,3721.07 L 6104.18,3719.78 L 6092.44,3715.97 L 6081.74,3709.79 L 6072.57,3701.53 L 6065.31,3691.55 L 6060.29,3680.27 L 6057.73,3668.19 L 6057.73,3655.84 L 6060.29,3643.77 L 6065.31,3632.49 L 6072.57,3622.5 L 6081.74,3614.24 L 6092.44,3608.07 L 6104.18,3604.25 L 6116.46,3602.96 z " style="fill-opacity:1.000000;fill:rgb(242,16,168);stroke:rgb(0,0,0);stroke-width:2"/></g>
<g fill-rule="evenodd"><path d="M 6116.46,3402.96 L 6195.2,3402.96 L 6207.48,3404.25 L 6219.22,3408.07 L 6229.91,3414.24 L 6239.08,3422.5 L 6246.34,3432.49 L 6251.36,3443.77 L 6253.93,3455.84 L 6253.93,3468.19 L 6251.36,3480.27 L 6246.34,3491.55 L 6239.08,3501.53 L 6229.91,3509.79 L 6219.22,3515.97 L 6207.48,3519.78 L 6195.2,3521.07 L 6116.46,3521.07 L 6104.18,3519.78 L 6092.44,3515.97 L 6081.74,3509.79 L 6072.57,3501.53 L 6065.31,3491.55 L 6060.29,3480.27 L 6057.73,3468.19 L 6057.73,3455.84 L 6060.29,3443.77 L 6065.31,3432.49 L 6072.57,3422.5 L 6081.74,3414.24 L 6092.44,3408.07 L 6104.18,3404.25 L 6116.46,3402.96 z " style="fill-opacity:1.000000;fill:rgb(246,5,148);stroke:rgb(0,0,0);stroke-width:2"/></g>
<g fill-rule="evenodd"><path d="M 8785.75,4602.96 L 8864.49,4602.96 L 8876.77,4604.25 L 8888.51,4608.07 L 8899.2,4614.24 L 8908.37,4622.5 L 8915.63,4632.49 L 8920.65,4643.77 L 8923.22,4655.84 L 8923.22,4668.19 L 8920.65,4680.27 L 8915.63,4691.55 L 8908.37,4701.53 L 8899.2,4709.79 L 8888.51,4715.97 L 8876.77,4719.78 L 8864.49,4721.07 L 8785.75,4721.07 L 8773.47,4719.78 L 8761.73,4715.97 L 8751.04,4709.79 L 8741.86,4701.53 L 8734.6,4691.55 L 8729.58,4680.27 L 8727.02,4668.19 L 8727.02,4655.84 L 8729.58,4643.77 L 8734.6,4632.49 L 8741.86,4622.5 L 8751.04,4614.24 L 8761.73,4608.07 L 8773.47,4604.25 L 8785.75,4602.96 z " style="fill-opacity:1.000000;fill:rgb(1,190,180);stroke:rgb(0,0,0);stroke-width:2"/></g>
<g fill-rule="evenodd"><path d="M 8785.75,4402.96 L 8864.49,4402.96 L 8876.77,4404.25 L 8888.51,4408.07 L 8899.2,4414.24 L 8908.37,4422.5 L 8915.63,4432.49 L 8920.65,4443.77 L 8923.22,4455.84 L 8923.22,4468.19 L 8920.65,4480.27 L 8915.63,4491.55 L 8908.37,4501.53 L 8899.2,4509.79 L 8888.51,4515.97 L 8876.77,4519.78 L 8864.49,4521.07 L 8785.75,4521.07 L 8773.47,4519.78 L 8761.73,4515.97 L 8751.04,4509.79 L 8741.86,4501.53 L 8734.6,4491.55 L 8729.58,4480.27 L 8727.02,4468.19 L 8727.02,4455.84 L 8729.58,4443.77 L 8734.6,4432.49 L 8741.86,4422.5 L 8751.04,4414.24 L 8761.73,4408.07 L 8773.47,4404.25 L 8785.75,4402.96 z " style="fill-opacity:1.000000;fill:rgb(188,68,120);stroke:rgb(0,0,0);stroke-width:2"/></g>
<g fill-rule="evenodd"><path d="M 8785.75,4202.96 L 8864.49,4202.96 L 8876.77,4204.25 L 8888.51,4208.07 L 8899.2,4214.24 L 8908.37,4222.5 L 8915.63,4232.49 L 8920.65,4243.77 L 8923.22,4255.84 L 8923.22,4268.19 L 8920.65,4280.27 L 8915.63,4291.55 L 8908.37,4301.53 L 8899.2,4309.79 L 8888.51,4315.97 L 8876.77,4319.78 L 8864.49,4321.07 L 8785.75,4321.07 L 8773.47,4319.78 L 8761.73,4315.97 L 8751.04,4309.79 L 8741.86,4301.53 L 8734.6,4291.55 L 8729.58,4280.27 L 8727.02,4268.19 L 8727.02,4255.84 L 8729.58,4243.77 L 8734.6,4232.49 L 8741.86,4222.5 L 8751.04,4214.24 L 8761.73,4208.07 L 8773.47,4204.25 L 8785.75,4202.96 z " style="fill-opacity:1.000000;fill:rgb(250,73,105);stroke:rgb(0,0,0);stroke-width:2"/></g>
<g fill-rule="evenodd"><path d="M 8785.75,4002.96 L 8864.49,4002.96 L 8876.77,4004.25 L 8888.51,4008.07 L 8899.2,4014.24 L 8908.37,4022.5 L 8915.63,4032.49 L 8920.65,4043.77 L 8923.22,4055.84 L 8923.22,4068.19 L 8920.65,4080.27 L 8915.63,4091.55 L 8908.37,4101.53 L 8899.2,4109.79 L 8888.51,4115.97 L 8876.77,4119.78 L 8864.49,4121.07 L 8785.75,4121.07 L 8773.47,4119.78 L 8761.73,4115.97 L 8751.04,4109.79 L 8741.86,4101.53 L 8734.6,4091.55 L 8729.58,4080.27 L 8727.02,4068.19 L 8727.02,4055.84 L 8729.58,4043.77 L 8734.6,4032.49 L 8741.86,4022.5 L 8751.04,4014.24 L 8761.73,4008.07 L 8773.47,4004.25 L 8785.75,4002.96 z " style="fill-opacity:1.000000;fill:rgb(230,35,208);stroke:rgb(0,0,0);stroke-width:2"/></g>
<g fill-rule="evenodd"><path d="M 8785.75,3802.96 L 8864.49,3802.96 L 8876.77,3804.25 L 8888.51,3808.07 L 8899.2,3814.24 L 8908.37,3822.5 L 8915.63,3832.49 L 8920.65,3843.77 L 8923.22,3855.84 L 8923.22,3868.19 L 8920.65,3880.27 L 8915.63,3891.55 L 8908.37,3901.53 L 8899.2,3909.79 L 8888.51,3915.97 L 8876.77,3919.78 L 8864.49,3921.07 L 8785.75,3921.07 L 8773.47,3919.78 L 8761.73,3915.97 L 8751.04,3909.79 L 8741.86,3901.53 L 8734.6,3891.55 L 8729.58,3880.27 L 8727.02,3868.19 L 8727.02,3855.84 L 8729.58,3843.77 L 8734.6,3832.49 L 8741.86,3822.5 L 8751.04,3814.24 L 8761.73,3808.07 L 8773.47,3804.25 L 8785.75,3802.96 z " style="fill-opacity:1.000000;fill:rgb(26,218,105);stroke:rgb(0,0,0);stroke-width:2"/></g>
<g fill-rule="evenodd"><path d="M 8785.75,3602.96 L 8864.49,3602.96 L 8876.77,3604.25 L 8888.51,3608.07 L 8899.2,3614.24 L 8908.37,3622.5 L 8915.63,3632.49 L 8920.65,3643.77 L 8923.22,3655.84 L 8923.22,3668.19 L 8920.65,3680.27 L 8915.63,3691.55 L 8908.37,3701.53 L 8899.2,3709.79 L 8888.51,3715.97 L 8876.77,3719.78 L 8864.49,3721.07 L 8785.75,3721.07 L 8773.47,3719.78 L 8761.73,3715.97 L 8751.04,3709.79 L 8741.86,3701.53 L 8734.6,3691.55 L 8729.58,3680.27 L 8727.02,3668.19 L 8727.02,3655.84 L 8729.58,3643.77 L 8734.6,3632.49 L 8741.86,3622.5 L 8751.04,3614.24 L 8761.73,3608.07 L 8773.47,3604.25 L 8785.75,3602.96 z " style="fill-opacity:1.000000;fill:rgb(106,126,76);stroke:rgb(0,0,0);stroke-width:2"/></g>
<g fill-rule="evenodd"><path d="M 5657.48,9175.67 L 5655.76,9192.04 L 5650.67,9207.7 L 5642.44,9221.95 L 5631.43,9234.19 L 5618.11,9243.86 L 5603.07,9250.56 L 5586.97,9253.98 L 5570.51,9253.98 L 5554.41,9250.56 L 5539.37,9243.86 L 5526.05,9234.19 L 5515.04,9221.95 L 5506.81,9207.7 L 5501.72,9192.04 L 5500,9175.67 L 5501.72,9159.3 L 5506.81,9143.64 L 5515.04,9129.39 L 5526.05,9117.16 L 5539.37,9107.48 L 5554.41,9100.78 L 5570.51,9097.36 L 5586.97,9097.36 L 5603.07,9100.78 L 5618.11,9107.48 L 5631.43,9117.16 L 5642.44,9129.39 L 5650.67,9143.64 L 5655.76,9159.3 L 5657.48,9175.67 z " style="fill-opacity:1.000000;fill:rgb(126,81,37);stroke:rgb(0,0,0);stroke-width:2"/></g>
<g fill-rule="evenodd"><path d="M 6100,9254.41 L 6100,9096.93 L 6257.48,9096.93 L 6257.48,9254.41 L 6100,9254.41 z " style="fill-opacity:1.000000;fill:rgb(179,72,132);stroke:rgb(0,0,0);stroke-width:2"/></g>
<g fill-rule="evenodd"><path d="M 6500,7854.41 L 6500,7696.93 L 6657.48,7696.93 L 6657.48,7854.41 L 6500,7854.41 z " style="fill-opacity:1.000000;fill:rgb(83,58,148);stroke:rgb(0,0,0);stroke-width:2"/></g>
<g fill-rule="evenodd"><path d="M 6657.48,8375.67 L 6655.76,8392.04 L 6650.67,8407.7 L 6642.44,8421.95 L 6631.43,8434.19 L 6618.11,8443.86 L 6603.07,8450.56 L 6586.97,8453.98 L 6570.51,8453.98 L 6554.41,8450.56 L 6539.37,8443.86 L 6526.05,8434.19 L 6515.04,8421.95 L 6506.81,8407.7 L 6501.72,8392.04 L 6500,8375.67 L 6501.72,8359.3 L 6506.81,8343.64 L 6515.04,8329.39 L 6526.05,8317.16 L 6539.37,8307.48 L 6554.41,8300.78 L 6570.51,8297.36 L 6586.97,8297.36 L 6603.07,8300.78 L 6618.11,8307.48 L 6631.43,8317.16 L 6642.44,8329.39 L 6650.67,8343.64 L 6655.76,8359.3 L 6657.48,8375.67 z " style="fill-opacity:1.000000;fill:rgb(251,49,153);stroke:rgb(0,0,0);stroke-width:2"/></g>
<g fill-rule="evenodd"><path d="M 7997.56,7673.7 L 7994.98,7698.26 L 7987.35,7721.74 L 7975,7743.13 L 7958.48,7761.48 L 7938.5,7775.99 L 7915.95,7786.03 L 7891.79,7791.17 L 7867.1,7791.17 L 7842.95,7786.03 L 7820.39,7775.99 L 7800.42,7761.48 L 7783.9,7743.13 L 7771.55,7721.74 L 7763.92,7698.26 L 7761.34,7673.7 L 7763.92,7649.15 L 7771.55,7625.66 L 7783.9,7604.28 L 7800.42,7585.93 L 7820.39,7571.42 L 7842.95,7561.37 L 7867.1,7556.24 L 7891.79,7556.24 L 7915.95,7561.37 L 7938.5,7571.42 L 7958.48,7585.93 L 7975,7604.28 L 7987.35,7625.66 L 7994.98,7649.15 L 7997.56,7673.7 z " style="fill-opacity:1.000000;fill:rgb(144,50,87);stroke:rgb(0,0,0);stroke-width:2"/></g>
<g fill-rule="evenodd"><path d="M 7336.14,7673.7 L 7333.56,7698.26 L 7325.93,7721.74 L 7313.58,7743.13 L 7297.06,7761.48 L 7277.09,7775.99 L 7254.53,7786.03 L 7230.38,7791.17 L 7205.69,7791.17 L 7181.53,7786.03 L 7158.98,7775.99 L 7139,7761.48 L 7122.48,7743.13 L 7110.13,7721.74 L 7102.5,7698.26 L 7099.92,7673.7 L 7102.5,7649.15 L 7110.13,7625.66 L 7122.48,7604.28 L 7139,7585.93 L 7158.98,7571.42 L 7181.53,7561.37 L 7205.69,7556.24 L 7230.38,7556.24 L 7254.53,7561.37 L 7277.09,7571.42 L 7297.06,7585.93 L 7313.58,7604.28 L 7325.93,7625.66 L 7333.56,7649.15 L 7336.14,7673.7 z " style="fill-opacity:1.000000;fill:rgb(68,238,155);stroke:rgb(0,0,0);stroke-width:2"/></g>
<g fill-rule="evenodd"><path d="M 2057.48,7975.67 L 2055.76,7992.04 L 2050.67,8007.7 L 2042.44,8021.95 L 2031.43,8034.19 L 2018.11,8043.86 L 2003.07,8050.56 L 1986.97,8053.98 L 1970.51,8053.98 L 1954.41,8050.56 L 1939.37,8043.86 L 1926.05,8034.19 L 1915.04,8021.95 L 1906.81,8007.7 L 1901.72,7992.04 L 1900,7975.67 L 1901.72,7959.3 L 1906.81,7943.64 L 1915.04,7929.39 L 1926.05,7917.16 L 1939.37,7907.48 L 1954.41,7900.78 L 1970.51,7897.36 L 1986.97,7897.36 L 2003.07,7900.78 L 2018.11,7907.48 L 2031.43,7917.16 L 2042.44,7929.39 L 2050.67,7943.64 L 2055.76,7959.3 L 2057.48,7975.67 z " style="fill-opacity:1.000000;fill:rgb(188,233,229);stroke:rgb(0,0,0);stroke-width:2"/></g>
<g fill-rule="evenodd"><path d="M 1057.48,7975.67 L 1055.76,7992.04 L 1050.67,8007.7 L 1042.44,8021.95 L 1031.43,8034.19 L 1018.11,8043.86 L 1003.07,8050.56 L 986.971,8053.98 L 970.51,8053.98 L 954.408,8050.56 L 939.37,8043.86 L 926.053,8034.19 L 915.038,8021.95 L 906.807,8007.7 L 901.721,7992.04 L 900,7975.67 L 901.721,7959.3 L 906.807,7943.64 L 915.038,7929.39 L 926.053,7917.16 L 939.37,7907.48 L 954.408,7900.78 L 970.51,7897.36 L 986.971,7897.36 L 1003.07,7900.78 L 1018.11,7907.48 L 1031.43,7917.16 L 1042.44,7929.39 L 1050.67,7943.64 L 1055.76,7959.3 L 1057.48,7975.67 z " style="fill-opacity:1.000000;fill:rgb(37,207,8);stroke:rgb(0,0,0);stroke-width:2"/></g>
<g fill-rule="evenodd"><path d="M 3372.77,7726.38 L 3372.77,7568.9 L 3530.25,7568.9 L 3530.25,7726.38 L 3372.77,7726.38 z " style="fill-opacity:1.000000;fill:rgb(245,233,226);stroke:rgb(0,0,0);stroke-width:2"/></g>
<g fill-rule="evenodd"><path d="M 2930.25,7647.64 L 2928.53,7664.01 L 2923.44,7679.67 L 2915.21,7693.92 L 2904.2,7706.16 L 2890.88,7715.83 L 2875.84,7722.53 L 2859.74,7725.95 L 2843.28,7725.95 L 2827.18,7722.53 L 2812.14,7715.83 L 2798.82,7706.16 L 2787.81,7693.92 L 2779.58,7679.67 L 2774.49,7664.01 L 2772.77,7647.64 L 2774.49,7631.27 L 2779.58,7615.61 L 2787.81,7601.36 L 2798.82,7589.12 L 2812.14,7579.45 L 2827.18,7572.75 L 2843.28,7569.33 L 2859.74,7569.33 L 2875.84,7572.75 L 2890.88,7579.45 L 2904.2,7589.12 L 2915.21,7601.36 L 2923.44,7615.61 L 2928.53,7631.27 L 2930.25,7647.64 z " style="fill-opacity:1.000000;fill:rgb(94,83,96);stroke:rgb(0,0,0);stroke-width:2"/></g>
<g fill-rule="evenodd"><path d="M 202,6460.41 L 202,6302.93 L 359.48,6302.93 L 359.48,6460.41 L 202,6460.41 z " style="fill-opacity:1.000000;fill:rgb(170,210,178);stroke:rgb(0,0,0);stroke-width:2"/></g>
<g fill-rule="evenodd"><path d="M 159.48,6381.67 L 157.76,6398.04 L 152.673,6413.7 L 144.442,6427.95 L 133.428,6440.19 L 120.11,6449.86 L 105.072,6456.56 L 88.9707,6459.98 L 72.5096,6459.98 L 56.4081,6456.56 L 41.3701,6449.86 L 28.0527,6440.19 L 17.038,6427.95 L 8.80744,6413.7 L 3.72066,6398.04 L 2,6381.67 L 3.72066,6365.3 L 8.80744,6349.64 L 17.038,6335.39 L 28.0527,6323.16 L 41.3701,6313.48 L 56.4081,6306.78 L 72.5096,6303.36 L 88.9707,6303.36 L 105.072,6306.78 L 120.11,6313.48 L 133.428,6323.16 L 144.442,6335.39 L 152.673,6349.64 L 157.76,6365.3 L 159.48,6381.67 z " style="fill-opacity:1.000000;fill:rgb(208,133,250);stroke:rgb(0,0,0);stroke-width:2"/></g>
<g fill-rule="evenodd"><path d="M 2516.25,7979.69 L 2514.53,7996.06 L 2509.44,8011.71 L 2501.21,8025.97 L 2490.2,8038.2 L 2476.88,8047.88 L 2461.84,8054.57 L 2445.74,8058 L 2429.28,8058 L 2413.18,8054.57 L 2398.14,8047.88 L 2384.82,8038.2 L 2373.81,8025.97 L 2365.58,8011.71 L 2360.49,7996.06 L 2358.77,7979.69 L 2360.49,7963.32 L 2365.58,7947.66 L 2373.81,7933.4 L 2384.82,7921.17 L 2398.14,7911.5 L 2413.18,7904.8 L 2429.28,7901.38 L 2445.74,7901.38 L 2461.84,7904.8 L 2476.88,7911.5 L 2490.2,7921.17 L 2501.21,7933.4 L 2509.44,7947.66 L 2514.53,7963.32 L 2516.25,7979.69 z " style="fill-opacity:1.000000;fill:rgb(84,216,53);stroke:rgb(0,0,0);stroke-width:2"/></g>
<g fill-rule="evenodd"><path d="M 2516.25,8767.09 L 2514.53,8783.46 L 2509.44,8799.12 L 2501.21,8813.37 L 2490.2,8825.6 L 2476.88,8835.28 L 2461.84,8841.97 L 2445.74,8845.4 L 2429.28,8845.4 L 2413.18,8841.97 L 2398.14,8835.28 L 2384.82,8825.6 L 2373.81,8813.37 L 2365.58,8799.12 L 2360.49,8783.46 L 2358.77,8767.09 L 2360.49,8750.72 L 2365.58,8735.06 L 2373.81,8720.81 L 2384.82,8708.57 L 2398.14,8698.9 L 2413.18,8692.2 L 2429.28,8688.78 L 2445.74,8688.78 L 2461.84,8692.2 L 2476.88,8698.9 L 2490.2,8708.57 L 2501.21,8720.81 L 2509.44,8735.06 L 2514.53,8750.72 L 2516.25,8767.09 z " style="fill-opacity:1.000000;fill:rgb(232,212,102);stroke:rgb(0,0,0);stroke-width:2"/></g>
<g fill-rule="evenodd"><path d="M 3957.48,7688.27 L 3955.76,7704.64 L 3950.67,7720.3 L 3942.44,7734.55 L 3931.43,7746.79 L 3918.11,7756.46 L 3903.07,7763.16 L 3886.97,7766.58 L 3870.51,7766.58 L 3854.41,7763.16 L 3839.37,7756.46 L 3826.05,7746.79 L 3815.04,7734.55 L 3806.81,7720.3 L 3801.72,7704.64 L 3800,7688.27 L 3801.72,7671.9 L 3806.81,7656.24 L 3815.04,7641.99 L 3826.05,7629.75 L 3839.37,7620.08 L 3854.41,7613.38 L 3870.51,7609.96 L 3886.97,7609.96 L 3903.07,7613.38 L 3918.11,7620.08 L 3931.43,7629.75 L 3942.44,7641.99 L 3950.67,7656.24 L 3955.76,7671.9 L 3957.48,7688.27 z " style="fill-opacity:1.000000;fill:rgb(130,100,152);stroke:rgb(0,0,0);stroke-width:2"/></g>
<g fill-rule="evenodd"><path d="M 3957.48,8475.67 L 3955.76,8492.04 L 3950.67,8507.7 L 3942.44,8521.95 L 3931.43,8534.19 L 3918.11,8543.86 L 3903.07,8550.56 L 3886.97,8553.98 L 3870.51,8553.98 L 3854.41,8550.56 L 3839.37,8543.86 L 3826.05,8534.19 L 3815.04,8521.95 L 3806.81,8507.7 L 3801.72,8492.04 L 3800,8475.67 L 3801.72,8459.3 L 3806.81,8443.64 L 3815.04,8429.39 L 3826.05,8417.16 L 3839.37,8407.48 L 3854.41,8400.78 L 3870.51,8397.36 L 3886.97,8397.36 L 3903.07,8400.78 L 3918.11,8407.48 L 3931.43,8417.16 L 3942.44,8429.39 L 3950.67,8443.64 L 3955.76,8459.3 L 3957.48,8475.67 z " style="fill-opacity:1.000000;fill:rgb(217,168,135);stroke:rgb(0,0,0);stroke-width:2"/></g>
<g fill-rule="evenodd"><path d="M 800,9354.41 L 800,9196.93 L 957.48,9196.93 L 957.48,9354.41 L 800,9354.41 z " style="fill-opacity:1.000000;fill:rgb(117,101,112);stroke:rgb(0,0,0);stroke-width:2"/></g>
<g fill-rule="evenodd"><path d="M 957.48,9475.67 L 955.76,9492.04 L 950.673,9507.7 L 942.442,9521.95 L 931.428,9534.19 L 918.11,9543.86 L 903.072,9550.56 L 886.971,9553.98 L 870.51,9553.98 L 854.408,9550.56 L 839.37,9543.86 L 826.053,9534.19 L 815.038,9521.95 L 806.807,9507.7 L 801.721,9492.04 L 800,9475.67 L 801.721,9459.3 L 806.807,9443.64 L 815.038,9429.39 L 826.053,9417.16 L 839.37,9407.48 L 854.408,9400.78 L 870.51,9397.36 L 886.971,9397.36 L 903.072,9400.78 L 918.11,9407.48 L 931.428,9417.16 L 942.442,9429.39 L 950.673,9443.64 L 955.76,9459.3 L 957.48,9475.67 z " style="fill-opacity:1.000000;fill:rgb(90,138,63);stroke:rgb(0,0,0);stroke-width:2"/></g>
<g fill-rule="evenodd"><path d="M 957.48,9675.67 L 955.76,9692.04 L 950.673,9707.7 L 942.442,9721.95 L 931.428,9734.19 L 918.11,9743.86 L 903.072,9750.56 L 886.971,9753.98 L 870.51,9753.98 L 854.408,9750.56 L 839.37,9743.86 L 826.053,9734.19 L 815.038,9721.95 L 806.807,9707.7 L 801.721,9692.04 L 800,9675.67 L 801.721,9659.3 L 806.807,9643.64 L 815.038,9629.39 L 826.053,9617.16 L 839.37,9607.48 L 854.408,9600.78 L 870.51,9597.36 L 886.971,9597.36 L 903.072,9600.78 L 918.11,9607.48 L 931.428,9617.16 L 942.442,9629.39 L 950.673,9643.64 L 955.76,9659.3 L 957.48,9675.67 z " style="fill-opacity:1.000000;fill:rgb(98,128,41);stroke:rgb(0,0,0);stroke-width:2"/></g>
<g fill-rule="evenodd"><path d="M 357.48,9275.67 L 355.76,9292.04 L 350.673,9307.7 L 342.442,9321.95 L 331.428,9334.19 L 318.11,9343.86 L 303.072,9350.56 L 286.971,9353.98 L 270.51,9353.98 L 254.408,9350.56 L 239.37,9343.86 L 226.053,9334.19 L 215.038,9321.95 L 206.807,9307.7 L 201.721,9292.04 L 200,9275.67 L 201.721,9259.3 L 206.807,9243.64 L 215.038,9229.39 L 226.053,9217.16 L 239.37,9207.48 L 254.408,9200.78 L 270.51,9197.36 L 286.971,9197.36 L 303.072,9200.78 L 318.11,9207.48 L 331.428,9217.16 L 342.442,9229.39 L 350.673,9243.64 L 355.76,9259.3 L 357.48,9275.67 z " style="fill-opacity:1.000000;fill:rgb(68,222,124);stroke:rgb(0,0,0);stroke-width:2"/></g>
<g fill-rule="evenodd"><path d="M 357.48,9475.67 L 355.76,9492.04 L 350.673,9507.7 L 342.442,9521.95 L 331.428,9534.19 L 318.11,9543.86 L 303.072,9550.56 L 286.971,9553.98 L 270.51,9553.98 L 254.408,9550.56 L 239.37,9543.86 L 226.053,9534.19 L 215.038,9521.95 L 206.807,9507.7 L 201.721,9492.04 L 200,9475.67 L 201.721,9459.3 L 206.807,9443.64 L 215.038,9429.39 L 226.053,9417.16 L 239.37,9407.48 L 254.408,9400.78 L 270.51,9397.36 L 286.971,9397.36 L 303.072,9400.78 L 318.11,9407.48 L 331.428,9417.16 L 342.442,9429.39 L 350.673,9443.64 L 355.76,9459.3 L 357.48,9475.67 z " style="fill-opacity:1.000000;fill:rgb(165,137,78);stroke:rgb(0,0,0);stroke-width:2"/></g>
<g fill-rule="evenodd"><path d="M 357.48,9675.67 L 355.76,9692.04 L 350.673,9707.7 L 342.442,9721.95 L 331.428,9734.19 L 318.11,9743.86 L 303.072,9750.56 L 286.971,9753.98 L 270.51,9753.98 L 254.408,9750.56 L 239.37,9743.86 L 226.053,9734.19 L 215.038,9721.95 L 206.807,9707.7 L 201.721,9692.04 L 200,9675.67 L 201.721,9659.3 L 206.807,9643.64 L 215.038,9629.39 L 226.053,9617.16 L 239.37,9607.48 L 254.408,9600.78 L 270.51,9597.36 L 286.971,9597.36 L 303.072,9600.78 L 318.11,9607.48 L 331.428,9617.16 L 342.442,9629.39 L 350.673,9643.64 L 355.76,9659.3 L 357.48,9675.67 z " style="fill-opacity:1.000000;fill:rgb(87,89,211);stroke:rgb(0,0,0);stroke-width:2"/></g>
<g fill-rule="evenodd"><path d="M 7475.12,9724.25 L 7475.12,9551.03 L 7648.35,9551.03 L 7648.35,9724.25 L 7475.12,9724.25 z " style="fill-opacity:1.000000;fill:rgb(81,173,172);stroke:rgb(0,0,0);stroke-width:2"/></g>
<g fill-rule="evenodd"><path d="M 7448.35,9637.64 L 7446.45,9655.65 L 7440.86,9672.87 L 7431.8,9688.55 L 7419.69,9702.01 L 7405.04,9712.65 L 7388.5,9720.01 L 7370.79,9723.78 L 7352.68,9723.78 L 7334.97,9720.01 L 7318.43,9712.65 L 7303.78,9702.01 L 7291.66,9688.55 L 7282.61,9672.87 L 7277.01,9655.65 L 7275.12,9637.64 L 7277.01,9619.63 L 7282.61,9602.41 L 7291.66,9586.73 L 7303.78,9573.27 L 7318.43,9562.63 L 7334.97,9555.26 L 7352.68,9551.5 L 7370.79,9551.5 L 7388.5,9555.26 L 7405.04,9562.63 L 7419.69,9573.27 L 7431.8,9586.73 L 7440.86,9602.41 L 7446.45,9619.63 L 7448.35,9637.64 z " style="fill-opacity:1.000000;fill:rgb(134,149,128);stroke:rgb(0,0,0);stroke-width:2"/></g>
<g fill-rule="evenodd"><path d="M 7248.35,9637.64 L 7246.45,9655.65 L 7240.86,9672.87 L 7231.8,9688.55 L 7219.69,9702.01 L 7205.04,9712.65 L 7188.5,9720.01 L 7170.79,9723.78 L 7152.68,9723.78 L 7134.97,9720.01 L 7118.43,9712.65 L 7103.78,9702.01 L 7091.66,9688.55 L 7082.61,9672.87 L 7077.01,9655.65 L 7075.12,9637.64 L 7077.01,9619.63 L 7082.61,9602.41 L 7091.66,9586.73 L 7103.78,9573.27 L 7118.43,9562.63 L 7134.97,9555.26 L 7152.68,9551.5 L 7170.79,9551.5 L 7188.5,9555.26 L 7205.04,9562.63 L 7219.69,9573.27 L 7231.8,9586.73 L 7240.86,9602.41 L 7246.45,9619.63 L 7248.35,9637.64 z " style="fill-opacity:1.000000;fill:rgb(236,23,228);stroke:rgb(0,0,0);stroke-width:2"/></g>
<g fill-rule="evenodd"><path d="M 4855.35,9637.64 L 4853.46,9655.65 L 4847.87,9672.87 L 4838.81,9688.55 L 4826.7,9702.01 L 4812.05,9712.65 L 4795.51,9720.01 L 4777.79,9723.78 L 4759.69,9723.78 L 4741.97,9720.01 L 4725.43,9712.65 L 4710.78,9702.01 L 4698.67,9688.55 L 4689.61,9672.87 L 4684.02,9655.65 L 4682.13,9637.64 L 4684.02,9619.63 L 4689.61,9602.41 L 4698.67,9586.73 L 4710.78,9573.27 L 4725.43,9562.63 L 4741.97,9555.26 L 4759.69,9551.5 L 4777.79,9551.5 L 4795.51,9555.26 L 4812.05,9562.63 L 4826.7,9573.27 L 4838.81,9586.73 L 4847.87,9602.41 L 4853.46,9619.63 L 4855.35,9637.64 z " style="fill-opacity:1.000000;fill:rgb(133,241,140);stroke:rgb(0,0,0);stroke-width:2"/></g>
<g fill-rule="evenodd"><path d="M 5055.35,9637.64 L 5053.46,9655.65 L 5047.87,9672.87 L 5038.81,9688.55 L 5026.7,9702.01 L 5012.05,9712.65 L 4995.51,9720.01 L 4977.79,9723.78 L 4959.69,9723.78 L 4941.97,9720.01 L 4925.43,9712.65 L 4910.78,9702.01 L 4898.67,9688.55 L 4889.61,9672.87 L 4884.02,9655.65 L 4882.13,9637.64 L 4884.02,9619.63 L 4889.61,9602.41 L 4898.67,9586.73 L 4910.78,9573.27 L 4925.43,9562.63 L 4941.97,9555.26 L 4959.69,9551.5 L 4977.79,9551.5 L 4995.51,9555.26 L 5012.05,9562.63 L 5026.7,9573.27 L 5038.81,9586.73 L 5047.87,9602.41 L 5053.46,9619.63 L 5055.35,9637.64 z " style="fill-opacity:1.000000;fill:rgb(12,102,241);stroke:rgb(0,0,0);stroke-width:2"/></g>
<g fill-rule="evenodd"><path d="M 5082.13,9724.25 L 5082.13,9551.03 L 5255.35,9551.03 L 5255.35,9724.25 L 5082.13,9724.25 z " style="fill-opacity:1.000000;fill:rgb(124,192,124);stroke:rgb(0,0,0);stroke-width:2"/></g>
<g fill-rule="evenodd"><path d="M 2682.13,9724.25 L 2682.13,9551.03 L 2855.35,9551.03 L 2855.35,9724.25 L 2682.13,9724.25 z " style="fill-opacity:1.000000;fill:rgb(187,34,252);stroke:rgb(0,0,0);stroke-width:2"/></g>
<g fill-rule="evenodd"><path d="M 2655.35,9637.64 L 2653.46,9655.65 L 2647.87,9672.87 L 2638.81,9688.55 L 2626.7,9702.01 L 2612.05,9712.65 L 2595.51,9720.01 L 2577.79,9723.78 L 2559.69,9723.78 L 2541.97,9720.01 L 2525.43,9712.65 L 2510.78,9702.01 L 2498.67,9688.55 L 2489.61,9672.87 L 2484.02,9655.65 L 2482.13,9637.64 L 2484.02,9619.63 L 2489.61,9602.41 L 2498.67,9586.73 L 2510.78,9573.27 L 2525.43,9562.63 L 2541.97,9555.26 L 2559.69,9551.5 L 2577.79,9551.5 L 2595.51,9555.26 L 2612.05,9562.63 L 2626.7,9573.27 L 2638.81,9586.73 L 2647.87,9602.41 L 2653.46,9619.63 L 2655.35,9637.64 z " style="fill-opacity:1.000000;fill:rgb(228,102,218);stroke:rgb(0,0,0);stroke-width:2"/></g>
<g fill-rule="evenodd"><path d="M 2455.35,9637.64 L 2453.46,9655.65 L 2447.87,9672.87 L 2438.81,9688.55 L 2426.7,9702.01 L 2412.05,9712.65 L 2395.51,9720.01 L 2377.79,9723.78 L 2359.69,9723.78 L 2341.97,9720.01 L 2325.43,9712.65 L 2310.78,9702.01 L 2298.67,9688.55 L 2289.61,9672.87 L 2284.02,9655.65 L 2282.13,9637.64 L 2284.02,9619.63 L 2289.61,9602.41 L 2298.67,9586.73 L 2310.78,9573.27 L 2325.43,9562.63 L 2341.97,9555.26 L 2359.69,9551.5 L 2377.79,9551.5 L 2395.51,9555.26 L 2412.05,9562.63 L 2426.7,9573.27 L 2438.81,9586.73 L 2447.87,9602.41 L 2453.46,9619.63 L 2455.35,9637.64 z " style="fill-opacity:1.000000;fill:rgb(97,11,99);stroke:rgb(0,0,0);stroke-width:2"/></g>
<g fill-rule="evenodd"><path d="M 6657.48,7475.67 L 6655.76,7492.04 L 6650.67,7507.7 L 6642.44,7521.95 L 6631.43,7534.19 L 6618.11,7543.86 L 6603.07,7550.56 L 6586.97,7553.98 L 6570.51,7553.98 L 6554.41,7550.56 L 6539.37,7543.86 L 6526.05,7534.19 L 6515.04,7521.95 L 6506.81,7507.7 L 6501.72,7492.04 L 6500,7475.67 L 6501.72,7459.3 L 6506.81,7443.64 L 6515.04,7429.39 L 6526.05,7417.16 L 6539.37,7407.48 L 6554.41,7400.78 L 6570.51,7397.36 L 6586.97,7397.36 L 6603.07,7400.78 L 6618.11,7407.48 L 6631.43,7417.16 L 6642.44,7429.39 L 6650.67,7443.64 L 6655.76,7459.3 L 6657.48,7475.67 z " style="fill-opacity:1.000000;fill:rgb(175,98,188);stroke:rgb(0,0,0);stroke-width:2"/></g>
<g fill-rule="evenodd"><path d="M 6657.48,6885.12 L 6655.76,6901.49 L 6650.67,6917.15 L 6642.44,6931.4 L 6631.43,6943.64 L 6618.11,6953.31 L 6603.07,6960.01 L 6586.97,6963.43 L 6570.51,6963.43 L 6554.41,6960.01 L 6539.37,6953.31 L 6526.05,6943.64 L 6515.04,6931.4 L 6506.81,6917.15 L 6501.72,6901.49 L 6500,6885.12 L 6501.72,6868.75 L 6506.81,6853.09 L 6515.04,6838.84 L 6526.05,6826.6 L 6539.37,6816.93 L 6554.41,6810.23 L 6570.51,6806.81 L 6586.97,6806.81 L 6603.07,6810.23 L 6618.11,6816.93 L 6631.43,6826.6 L 6642.44,6838.84 L 6650.67,6853.09 L 6655.76,6868.75 L 6657.48,6885.12 z " style="fill-opacity:1.000000;fill:rgb(131,180,105);stroke:rgb(0,0,0);stroke-width:2"/></g>
</svg>
