<?xml version="1.0" standalone="no"?>
<!DOCTYPE svg PUBLIC "-//W3C//DTD SVG 1.1//EN"
"http://www.w3.org/Graphics/SVG/1.1/DTD/svg11.dtd">
<svg width="567.496" height="567.496" viewBox="0 0 11822.8 11822.8" version="1.1"
xmlns="http://www.w3.org/2000/svg"
xmlns:xlink="http://www.w3.org/1999/xlink">
<g fill-rule="evenodd"><path d="M 4585.12,7499.82 L 4585.12,7421.08 L 4586.41,7408.8 L 4590.22,7397.06 L 4596.4,7386.36 L 4604.66,7377.19 L 4614.65,7369.93 L 4625.92,7364.91 L 4638,7362.34 L 4650.35,7362.34 L 4662.42,7364.91 L 4673.7,7369.93 L 4683.69,7377.19 L 4691.95,7386.36 L 4698.12,7397.06 L 4701.94,7408.8 L 4703.23,7421.08 L 4703.23,7499.82 L 4701.94,7512.09 L 4698.12,7523.84 L 4691.95,7534.53 L 4683.69,7543.7 L 4673.7,7550.96 L 4662.42,7555.98 L 4650.35,7558.55 L 4638,7558.55 L 4625.92,7555.98 L 4614.65,7550.96 L 4604.66,7543.7 L 4596.4,7534.53 L 4590.22,7523.84 L 4586.41,7512.09 L 4585.12,7499.82 z " style="fill-opacity:1.000000;fill:rgb(103,198,105);stroke:rgb(0,0,0);stroke-width:2"/></g>
<g fill-rule="evenodd"><path d="M 4385.12,7499.82 L 4385.12,7421.08 L 4386.41,7408.8 L 4390.22,7397.06 L 4396.4,7386.36 L 4404.66,7377.19 L 4414.65,7369.93 L 4425.92,7364.91 L 4438,7362.34 L 4450.35,7362.34 L 4462.42,7364.91 L 4473.7,7369.93 L 4483.69,7377.19 L 4491.95,7386.36 L 4498.12,7397.06 L 4501.94,7408.8 L 4503.23,7421.08 L 4503.23,7499.82 L 4501.94,7512.09 L 4498.12,7523.84 L 4491.95,7534.53 L 4483.69,7543.7 L 4473.7,7550.96 L 4462.42,7555.98 L 4450.35,7558.55 L 4438,7558.55 L 4425.92,7555.98 L 4414.65,7550.96 L 4404.66,7543.7 L 4396.4,7534.53 L 4390.22,7523.84 L 4386.41,7512.09 L 4385.12,7499.82 z " style="fill-opacity:1.000000;fill:rgb(115,81,255);stroke:rgb(0,0,0);stroke-width:2"/></g>
<g fill-rule="evenodd"><path d="M 3865.43,3699.82 L 3865.43,3621.08 L 3866.72,3608.8 L 3870.54,3597.06 L 3876.71,3586.36 L 3884.97,3577.19 L 3894.96,3569.93 L 3906.24,3564.91 L 3918.32,3562.34 L 3930.66,3562.34 L 3942.74,3564.91 L 3954.02,3569.93 L 3964,3577.19 L 3972.26,3586.36 L 3978.44,3597.06 L 3982.25,3608.8 L 3983.54,3621.08 L 3983.54,3699.82 L 3982.25,3712.09 L 3978.44,3723.84 L 3972.26,3734.53 L 3964,3743.7 L 3954.02,3750.96 L 3942.74,3755.98 L 3930.66,3758.55 L 3918.32,3758.55 L 3906.24,3755.98 L 3894.96,3750.96 L 3884.97,3743.7 L 3876.71,3734.53 L 3870.54,3723.84 L 3866.72,3712.09 L 3865.43,3699.82 z " style="fill-opacity:1.000000;fill:rgb(74,236,41);stroke:rgb(0,0,0);stroke-width:2"/></g>
<g fill-rule="evenodd"><path d="M 1465.43,7499.82 L 1465.43,7421.08 L 1466.72,7408.8 L 1470.54,7397.06 L 1476.71,7386.36 L 1484.97,7377.19 L 1494.96,7369.93 L 1506.24,7364.91 L 1518.32,7362.34 L 1530.66,7362.34 L 1542.74,7364.91 L 1554.02,7369.93 L 1564,7377.19 L 1572.26,7386.36 L 1578.44,7397.06 L 1582.25,7408.8 L 1583.54,7421.08 L 1583.54,7499.82 L 1582.25,7512.09 L 1578.44,7523.84 L 1572.26,7534.53 L 1564,7543.7 L 1554.02,7550.96 L 1542.74,7555.98 L 1530.66,7558.55 L 1518.32,7558.55 L 1506.24,7555.98 L 1494.96,7550.96 L 1484.97,7543.7 L 1476.71,7534.53 L 1470.54,7523.84 L 1466.72,7512.09 L 1465.43,7499.82 z " style="fill-opacity:1.000000;fill:rgb(205,186,171);stroke:rgb(0,0,0);stroke-width:2"/></g>
<g fill-rule="evenodd"><path d="M 3665.43,3699.82 L 3665.43,3621.08 L 3666.72,3608.8 L 3670.54,3597.06 L 3676.71,3586.36 L 3684.97,3577.19 L 3694.96,3569.93 L 3706.24,3564.91 L 3718.32,3562.34 L 3730.66,3562.34 L 3742.74,3564.91 L 3754.02,3569.93 L 3764,3577.19 L 3772.26,3586.36 L 3778.44,3597.06 L 3782.25,3608.8 L 3783.54,3621.08 L 3783.54,3699.82 L 3782.25,3712.09 L 3778.44,3723.84 L 3772.26,3734.53 L 3764,3743.7 L 3754.02,3750.96 L 3742.74,3755.98 L 3730.66,3758.55 L 3718.32,3758.55 L 3706.24,3755.98 L 3694.96,3750.96 L 3684.97,3743.7 L 3676.71,3734.53 L 3670.54,3723.84 L 3666.72,3712.09 L 3665.43,3699.82 z " style="fill-opacity:1.000000;fill:rgb(242,251,227);stroke:rgb(0,0,0);stroke-width:2"/></g>
<g fill-rule="evenodd"><path d="M 1665.43,7499.82 L 1665.43,7421.08 L 1666.72,7408.8 L 1670.54,7397.06 L 1676.71,7386.36 L 1684.97,7377.19 L 1694.96,7369.93 L 1706.24,7364.91 L 1718.32,7362.34 L 1730.66,7362.34 L 1742.74,7364.91 L 1754.02,7369.93 L 1764,7377.19 L 1772.26,7386.36 L 1778.44,7397.06 L 1782.25,7408.8 L 1783.54,7421.08 L 1783.54,7499.82 L 1782.25,7512.09 L 1778.44,7523.84 L 1772.26,7534.53 L 1764,7543.7 L 1754.02,7550.96 L 1742.74,7555.98 L 1730.66,7558.55 L 1718.32,7558.55 L 1706.24,7555.98 L 1694.96,7550.96 L 1684.97,7543.7 L 1676.71,7534.53 L 1670.54,7523.84 L 1666.72,7512.09 L 1665.43,7499.82 z " style="fill-opacity:1.000000;fill:rgb(70,124,194);stroke:rgb(0,0,0);stroke-width:2"/></g>
<g fill-rule="evenodd"><path d="M 3465.43,3699.82 L 3465.43,3621.08 L 3466.72,3608.8 L 3470.54,3597.06 L 3476.71,3586.36 L 3484.97,3577.19 L 3494.96,3569.93 L 3506.24,3564.91 L 3518.32,3562.34 L 3530.66,3562.34 L 3542.74,3564.91 L 3554.02,3569.93 L 3564,3577.19 L 3572.26,3586.36 L 3578.44,3597.06 L 3582.25,3608.8 L 3583.54,3621.08 L 3583.54,3699.82 L 3582.25,3712.09 L 3578.44,3723.84 L 3572.26,3734.53 L 3564,3743.7 L 3554.02,3750.96 L 3542.74,3755.98 L 3530.66,3758.55 L 3518.32,3758.55 L 3506.24,3755.98 L 3494.96,3750.96 L 3484.97,3743.7 L 3476.71,3734.53 L 3470.54,3723.84 L 3466.72,3712.09 L 3465.43,3699.82 z " style="fill-opacity:1.000000;fill:rgb(84,248,27);stroke:rgb(0,0,0);stroke-width:2"/></g>
<g fill-rule="evenodd"><path d="M 1865.43,7499.82 L 1865.43,7421.08 L 1866.72,7408.8 L 1870.54,7397.06 L 1876.71,7386.36 L 1884.97,7377.19 L 1894.96,7369.93 L 1906.24,7364.91 L 1918.32,7362.34 L 1930.66,7362.34 L 1942.74,7364.91 L 1954.02,7369.93 L 1964,7377.19 L 1972.26,7386.36 L 1978.44,7397.06 L 1982.25,7408.8 L 1983.54,7421.08 L 1983.54,7499.82 L 1982.25,7512.09 L 1978.44,7523.84 L 1972.26,7534.53 L 1964,7543.7 L 1954.02,7550.96 L 1942.74,7555.98 L 1930.66,7558.55 L 1918.32,7558.55 L 1906.24,7555.98 L 1894.96,7550.96 L 1884.97,7543.7 L 1876.71,7534.53 L 1870.54,7523.84 L 1866.72,7512.09 L 1865.43,7499.82 z " style="fill-opacity:1.000000;fill:rgb(232,231,141);stroke:rgb(0,0,0);stroke-width:2"/></g>
<g fill-rule="evenodd"><path d="M 3265.43,3699.82 L 3265.43,3621.08 L 3266.72,3608.8 L 3270.54,3597.06 L 3276.71,3586.36 L 3284.97,3577.19 L 3294.96,3569.93 L 3306.24,3564.91 L 3318.32,3562.34 L 3330.66,3562.34 L 3342.74,3564.91 L 3354.02,3569.93 L 3364,3577.19 L 3372.26,3586.36 L 3378.44,3597.06 L 3382.25,3608.8 L 3383.54,3621.08 L 3383.54,3699.82 L 3382.25,3712.09 L 3378.44,3723.84 L 3372.26,3734.53 L 3364,3743.7 L 3354.02,3750.96 L 3342.74,3755.98 L 3330.66,3758.55 L 3318.32,3758.55 L 3306.24,3755.98 L 3294.96,3750.96 L 3284.97,3743.7 L 3276.71,3734.53 L 3270.54,3723.84 L 3266.72,3712.09 L 3265.43,3699.82 z " style="fill-opacity:1.000000;fill:rgb(118,90,46);stroke:rgb(0,0,0);stroke-width:2"/></g>
<g fill-rule="evenodd"><path d="M 2065.43,7499.82 L 2065.43,7421.08 L 2066.72,7408.8 L 2070.54,7397.06 L 2076.71,7386.36 L 2084.97,7377.19 L 2094.96,7369.93 L 2106.24,7364.91 L 2118.32,7362.34 L 2130.66,7362.34 L 2142.74,7364.91 L 2154.02,7369.93 L 2164,7377.19 L 2172.26,7386.36 L 2178.44,7397.06 L 2182.25,7408.8 L 2183.54,7421.08 L 2183.54,7499.82 L 2182.25,7512.09 L 2178.44,7523.84 L 2172.26,7534.53 L 2164,7543.7 L 2154.02,7550.96 L 2142.74,7555.98 L 2130.66,7558.55 L 2118.32,7558.55 L 2106.24,7555.98 L 2094.96,7550.96 L 2084.97,7543.7 L 2076.71,7534.53 L 2070.54,7523.84 L 2066.72,7512.09 L 2065.43,7499.82 z " style="fill-opacity:1.000000;fill:rgb(99,51,159);stroke:rgb(0,0,0);stroke-width:2"/></g>
<g fill-rule="evenodd"><path d="M 3065.43,3699.82 L 3065.43,3621.08 L 3066.72,3608.8 L 3070.54,3597.06 L 3076.71,3586.36 L 3084.97,3577.19 L 3094.96,3569.93 L 3106.24,3564.91 L 3118.32,3562.34 L 3130.66,3562.34 L 3142.74,3564.91 L 3154.02,3569.93 L 3164,3577.19 L 3172.26,3586.36 L 3178.44,3597.06 L 3182.25,3608.8 L 3183.54,3621.08 L 3183.54,3699.82 L 3182.25,3712.09 L 3178.44,3723.84 L 3172.26,3734.53 L 3164,3743.7 L 3154.02,3750.96 L 3142.74,3755.98 L 3130.66,3758.55 L 3118.32,3758.55 L 3106.24,3755.98 L 3094.96,3750.96 L 3084.97,3743.7 L 3076.71,3734.53 L 3070.54,3723.84 L 3066.72,3712.09 L 3065.43,3699.82 z " style="fill-opacity:1.000000;fill:rgb(201,154,102);stroke:rgb(0,0,0);stroke-width:2"/></g>
<g fill-rule="evenodd"><path d="M 2265.43,7499.82 L 2265.43,7421.08 L 2266.72,7408.8 L 2270.54,7397.06 L 2276.71,7386.36 L 2284.97,7377.19 L 2294.96,7369.93 L 2306.24,7364.91 L 2318.32,7362.34 L 2330.66,7362.34 L 2342.74,7364.91 L 2354.02,7369.93 L 2364,7377.19 L 2372.26,7386.36 L 2378.44,7397.06 L 2382.25,7408.8 L 2383.54,7421.08 L 2383.54,7499.82 L 2382.25,7512.09 L 2378.44,7523.84 L 2372.26,7534.53 L 2364,7543.7 L 2354.02,7550.96 L 2342.74,7555.98 L 2330.66,7558.55 L 2318.32,7558.55 L 2306.24,7555.98 L 2294.96,7550.96 L 2284.97,7543.7 L 2276.71,7534.53 L 2270.54,7523.84 L 2266.72,7512.09 L 2265.43,7499.82 z " style="fill-opacity:1.000000;fill:rgb(50,13,183);stroke:rgb(0,0,0);stroke-width:2"/></g>
<g fill-rule="evenodd"><path d="M 2865.43,3699.82 L 2865.43,3621.08 L 2866.72,3608.8 L 2870.54,3597.06 L 2876.71,3586.36 L 2884.97,3577.19 L 2894.96,3569.93 L 2906.24,3564.91 L 2918.32,3562.34 L 2930.66,3562.34 L 2942.74,3564.91 L 2954.02,3569.93 L 2964,3577.19 L 2972.26,3586.36 L 2978.44,3597.06 L 2982.25,3608.8 L 2983.54,3621.08 L 2983.54,3699.82 L 2982.25,3712.09 L 2978.44,3723.84 L 2972.26,3734.53 L 2964,3743.7 L 2954.02,3750.96 L 2942.74,3755.98 L 2930.66,3758.55 L 2918.32,3758.55 L 2906.24,3755.98 L 2894.96,3750.96 L 2884.97,3743.7 L 2876.71,3734.53 L 2870.54,3723.84 L 2866.72,3712.09 L 2865.43,3699.82 z " style="fill-opacity:1.000000;fill:rgb(49,88,163);stroke:rgb(0,0,0);stroke-width:2"/></g>
<g fill-rule="evenodd"><path d="M 2465.43,7499.82 L 2465.43,7421.08 L 2466.72,7408.8 L 2470.54,7397.06 L 2476.71,7386.36 L 2484.97,7377.19 L 2494.96,7369.93 L 2506.24,7364.91 L 2518.32,7362.34 L 2530.66,7362.34 L 2542.74,7364.91 L 2554.02,7369.93 L 2564,7377.19 L 2572.26,7386.36 L 2578.44,7397.06 L 2582.25,7408.8 L 2583.54,7421.08 L 2583.54,7499.82 L 2582.25,7512.09 L 2578.44,7523.84 L 2572.26,7534.53 L 2564,7543.7 L 2554.02,7550.96 L 2542.74,7555.98 L 2530.66,7558.55 L 2518.32,7558.55 L 2506.24,7555.98 L 2494.96,7550.96 L 2484.97,7543.7 L 2476.71,7534.53 L 2470.54,7523.84 L 2466.72,7512.09 L 2465.43,7499.82 z " style="fill-opacity:1.000000;fill:rgb(90,37,93);stroke:rgb(0,0,0);stroke-width:2"/></g>
<g fill-rule="evenodd"><path d="M 2665.43,3699.82 L 2665.43,3621.08 L 2666.72,3608.8 L 2670.54,3597.06 L 2676.71,3586.36 L 2684.97,3577.19 L 2694.96,3569.93 L 2706.24,3564.91 L 2718.32,3562.34 L 2730.66,3562.34 L 2742.74,3564.91 L 2754.02,3569.93 L 2764,3577.19 L 2772.26,3586.36 L 2778.44,3597.06 L 2782.25,3608.8 L 2783.54,3621.08 L 2783.54,3699.82 L 2782.25,3712.09 L 2778.44,3723.84 L 2772.26,3734.53 L 2764,3743.7 L 2754.02,3750.96 L 2742.74,3755.98 L 2730.66,3758.55 L 2718.32,3758.55 L 2706.24,3755.98 L 2694.96,3750.96 L 2684.97,3743.7 L 2676.71,3734.53 L 2670.54,3723.84 L 2666.72,3712.09 L 2665.43,3699.82 z " style="fill-opacity:1.000000;fill:rgb(5,23,88);stroke:rgb(0,0,0);stroke-width:2"/></g>
<g fill-rule="evenodd"><path d="M 2785.12,7499.82 L 2785.12,7421.08 L 2786.41,7408.8 L 2790.22,7397.06 L 2796.4,7386.36 L 2804.66,7377.19 L 2814.65,7369.93 L 2825.92,7364.91 L 2838,7362.34 L 2850.35,7362.34 L 2862.42,7364.91 L 2873.7,7369.93 L 2883.69,7377.19 L 2891.95,7386.36 L 2898.12,7397.06 L 2901.94,7408.8 L 2903.23,7421.08 L 2903.23,7499.82 L 2901.94,7512.09 L 2898.12,7523.84 L 2891.95,7534.53 L 2883.69,7543.7 L 2873.7,7550.96 L 2862.42,7555.98 L 2850.35,7558.55 L 2838,7558.55 L 2825.92,7555.98 L 2814.65,7550.96 L 2804.66,7543.7 L 2796.4,7534.53 L 2790.22,7523.84 L 2786.41,7512.09 L 2785.12,7499.82 z " style="fill-opacity:1.000000;fill:rgb(233,94,212);stroke:rgb(0,0,0);stroke-width:2"/></g>
<g fill-rule="evenodd"><path d="M 2465.43,3699.82 L 2465.43,3621.08 L 2466.72,3608.8 L 2470.54,3597.06 L 2476.71,3586.36 L 2484.97,3577.19 L 2494.96,3569.93 L 2506.24,3564.91 L 2518.32,3562.34 L 2530.66,3562.34 L 2542.74,3564.91 L 2554.02,3569.93 L 2564,3577.19 L 2572.26,3586.36 L 2578.44,3597.06 L 2582.25,3608.8 L 2583.54,3621.08 L 2583.54,3699.82 L 2582.25,3712.09 L 2578.44,3723.84 L 2572.26,3734.53 L 2564,3743.7 L 2554.02,3750.96 L 2542.74,3755.98 L 2530.66,3758.55 L 2518.32,3758.55 L 2506.24,3755.98 L 2494.96,3750.96 L 2484.97,3743.7 L 2476.71,3734.53 L 2470.54,3723.84 L 2466.72,3712.09 L 2465.43,3699.82 z " style="fill-opacity:1.000000;fill:rgb(171,178,205);stroke:rgb(0,0,0);stroke-width:2"/></g>
<g fill-rule="evenodd"><path d="M 2985.12,7499.82 L 2985.12,7421.08 L 2986.41,7408.8 L 2990.22,7397.06 L 2996.4,7386.36 L 3004.66,7377.19 L 3014.65,7369.93 L 3025.92,7364.91 L 3038,7362.34 L 3050.35,7362.34 L 3062.42,7364.91 L 3073.7,7369.93 L 3083.69,7377.19 L 3091.95,7386.36 L 3098.12,7397.06 L 3101.94,7408.8 L 3103.23,7421.08 L 3103.23,7499.82 L 3101.94,7512.09 L 3098.12,7523.84 L 3091.95,7534.53 L 3083.69,7543.7 L 3073.7,7550.96 L 3062.42,7555.98 L 3050.35,7558.55 L 3038,7558.55 L 3025.92,7555.98 L 3014.65,7550.96 L 3004.66,7543.7 L 2996.4,7534.53 L 2990.22,7523.84 L 2986.41,7512.09 L 2985.12,7499.82 z " style="fill-opacity:1.000000;fill:rgb(198,155,180);stroke:rgb(0,0,0);stroke-width:2"/></g>
<g fill-rule="evenodd"><path d="M 2065.43,3699.82 L 2065.43,3621.08 L 2066.72,3608.8 L 2070.54,3597.06 L 2076.71,3586.36 L 2084.97,3577.19 L 2094.96,3569.93 L 2106.24,3564.91 L 2118.32,3562.34 L 2130.66,3562.34 L 2142.74,3564.91 L 2154.02,3569.93 L 2164,3577.19 L 2172.26,3586.36 L 2178.44,3597.06 L 2182.25,3608.8 L 2183.54,3621.08 L 2183.54,3699.82 L 2182.25,3712.09 L 2178.44,3723.84 L 2172.26,3734.53 L 2164,3743.7 L 2154.02,3750.96 L 2142.74,3755.98 L 2130.66,3758.55 L 2118.32,3758.55 L 2106.24,3755.98 L 2094.96,3750.96 L 2084.97,3743.7 L 2076.71,3734.53 L 2070.54,3723.84 L 2066.72,3712.09 L 2065.43,3699.82 z " style="fill-opacity:1.000000;fill:rgb(84,17,14);stroke:rgb(0,0,0);stroke-width:2"/></g>
<g fill-rule="evenodd"><path d="M 3185.12,7499.82 L 3185.12,7421.08 L 3186.41,7408.8 L 3190.22,7397.06 L 3196.4,7386.36 L 3204.66,7377.19 L 3214.65,7369.93 L 3225.92,7364.91 L 3238,7362.34 L 3250.35,7362.34 L 3262.42,7364.91 L 3273.7,7369.93 L 3283.69,7377.19 L 3291.95,7386.36 L 3298.12,7397.06 L 3301.94,7408.8 L 3303.23,7421.08 L 3303.23,7499.82 L 3301.94,7512.09 L 3298.12,7523.84 L 3291.95,7534.53 L 3283.69,7543.7 L 3273.7,7550.96 L 3262.42,7555.98 L 3250.35,7558.55 L 3238,7558.55 L 3225.92,7555.98 L 3214.65,7550.96 L 3204.66,7543.7 L 3196.4,7534.53 L 3190.22,7523.84 L 3186.41,7512.09 L 3185.12,7499.82 z " style="fill-opacity:1.000000;fill:rgb(130,116,65);stroke:rgb(0,0,0);stroke-width:2"/></g>
<g fill-rule="evenodd"><path d="M 1865.43,3699.82 L 1865.43,3621.08 L 1866.72,3608.8 L 1870.54,3597.06 L 1876.71,3586.36 L 1884.97,3577.19 L 1894.96,3569.93 L 1906.24,3564.91 L 1918.32,3562.34 L 1930.66,3562.34 L 1942.74,3564.91 L 1954.02,3569.93 L 1964,3577.19 L 1972.26,3586.36 L 1978.44,3597.06 L 1982.25,3608.8 L 1983.54,3621.08 L 1983.54,3699.82 L 1982.25,3712.09 L 1978.44,3723.84 L 1972.26,3734.53 L 1964,3743.7 L 1954.02,3750.96 L 1942.74,3755.98 L 1930.66,3758.55 L 1918.32,3758.55 L 1906.24,3755.98 L 1894.96,3750.96 L 1884.97,3743.7 L 1876.71,3734.53 L 1870.54,3723.84 L 1866.72,3712.09 L 1865.43,3699.82 z " style="fill-opacity:1.000000;fill:rgb(33,61,220);stroke:rgb(0,0,0);stroke-width:2"/></g>
<g fill-rule="evenodd"><path d="M 3385.12,7499.82 L 3385.12,7421.08 L 3386.41,7408.8 L 3390.22,7397.06 L 3396.4,7386.36 L 3404.66,7377.19 L 3414.65,7369.93 L 3425.92,7364.91 L 3438,7362.34 L 3450.35,7362.34 L 3462.42,7364.91 L 3473.7,7369.93 L 3483.69,7377.19 L 3491.95,7386.36 L 3498.12,7397.06 L 3501.94,7408.8 L 3503.23,7421.08 L 3503.23,7499.82 L 3501.94,7512.09 L 3498.12,7523.84 L 3491.95,7534.53 L 3483.69,7543.7 L 3473.7,7550.96 L 3462.42,7555.98 L 3450.35,7558.55 L 3438,7558.55 L 3425.92,7555.98 L 3414.65,7550.96 L 3404.66,7543.7 L 3396.4,7534.53 L 3390.22,7523.84 L 3386.41,7512.09 L 3385.12,7499.82 z " style="fill-opacity:1.000000;fill:rgb(135,112,233);stroke:rgb(0,0,0);stroke-width:2"/></g>
<g fill-rule="evenodd"><path d="M 1665.43,3699.82 L 1665.43,3621.08 L 1666.72,3608.8 L 1670.54,3597.06 L 1676.71,3586.36 L 1684.97,3577.19 L 1694.96,3569.93 L 1706.24,3564.91 L 1718.32,3562.34 L 1730.66,3562.34 L 1742.74,3564.91 L 1754.02,3569.93 L 1764,3577.19 L 1772.26,3586.36 L 1778.44,3597.06 L 1782.25,3608.8 L 1783.54,3621.08 L 1783.54,3699.82 L 1782.25,3712.09 L 1778.44,3723.84 L 1772.26,3734.53 L 1764,3743.7 L 1754.02,3750.96 L 1742.74,3755.98 L 1730.66,3758.55 L 1718.32,3758.55 L 1706.24,3755.98 L 1694.96,3750.96 L 1684.97,3743.7 L 1676.71,3734.53 L 1670.54,3723.84 L 1666.72,3712.09 L 1665.43,3699.82 z " style="fill-opacity:1.000000;fill:rgb(62,161,65);stroke:rgb(0,0,0);stroke-width:2"/></g>
<g fill-rule="evenodd"><path d="M 3585.12,7499.82 L 3585.12,7421.08 L 3586.41,7408.8 L 3590.22,7397.06 L 3596.4,7386.36 L 3604.66,7377.19 L 3614.65,7369.93 L 3625.92,7364.91 L 3638,7362.34 L 3650.35,7362.34 L 3662.42,7364.91 L 3673.7,7369.93 L 3683.69,7377.19 L 3691.95,7386.36 L 3698.12,7397.06 L 3701.94,7408.8 L 3703.23,7421.08 L 3703.23,7499.82 L 3701.94,7512.09 L 3698.12,7523.84 L 3691.95,7534.53 L 3683.69,7543.7 L 3673.7,7550.96 L 3662.42,7555.98 L 3650.35,7558.55 L 3638,7558.55 L 3625.92,7555.98 L 3614.65,7550.96 L 3604.66,7543.7 L 3596.4,7534.53 L 3590.22,7523.84 L 3586.41,7512.09 L 3585.12,7499.82 z " style="fill-opacity:1.000000;fill:rgb(225,252,103);stroke:rgb(0,0,0);stroke-width:2"/></g>
<g fill-rule="evenodd"><path d="M 1465.43,3699.82 L 1465.43,3621.08 L 1466.72,3608.8 L 1470.54,3597.06 L 1476.71,3586.36 L 1484.97,3577.19 L 1494.96,3569.93 L 1506.24,3564.91 L 1518.32,3562.34 L 1530.66,3562.34 L 1542.74,3564.91 L 1554.02,3569.93 L 1564,3577.19 L 1572.26,3586.36 L 1578.44,3597.06 L 1582.25,3608.8 L 1583.54,3621.08 L 1583.54,3699.82 L 1582.25,3712.09 L 1578.44,3723.84 L 1572.26,3734.53 L 1564,3743.7 L 1554.02,3750.96 L 1542.74,3755.98 L 1530.66,3758.55 L 1518.32,3758.55 L 1506.24,3755.98 L 1494.96,3750.96 L 1484.97,3743.7 L 1476.71,3734.53 L 1470.54,3723.84 L 1466.72,3712.09 L 1465.43,3699.82 z " style="fill-opacity:1.000000;fill:rgb(62,1,126);stroke:rgb(0,0,0);stroke-width:2"/></g>
<g fill-rule="evenodd"><path d="M 3785.12,7499.82 L 3785.12,7421.08 L 3786.41,7408.8 L 3790.22,7397.06 L 3796.4,7386.36 L 3804.66,7377.19 L 3814.65,7369.93 L 3825.92,7364.91 L 3838,7362.34 L 3850.35,7362.34 L 3862.42,7364.91 L 3873.7,7369.93 L 3883.69,7377.19 L 3891.95,7386.36 L 3898.12,7397.06 L 3901.94,7408.8 L 3903.23,7421.08 L 3903.23,7499.82 L 3901.94,7512.09 L 3898.12,7523.84 L 3891.95,7534.53 L 3883.69,7543.7 L 3873.7,7550.96 L 3862.42,7555.98 L 3850.35,7558.55 L 3838,7558.55 L 3825.92,7555.98 L 3814.65,7550.96 L 3804.66,7543.7 L 3796.4,7534.53 L 3790.22,7523.84 L 3786.41,7512.09 L 3785.12,7499.82 z " style="fill-opacity:1.000000;fill:rgb(151,234,220);stroke:rgb(0,0,0);stroke-width:2"/></g>
<g fill-rule="evenodd"><path d="M 1265.43,3699.82 L 1265.43,3621.08 L 1266.72,3608.8 L 1270.54,3597.06 L 1276.71,3586.36 L 1284.97,3577.19 L 1294.96,3569.93 L 1306.24,3564.91 L 1318.32,3562.34 L 1330.66,3562.34 L 1342.74,3564.91 L 1354.02,3569.93 L 1364,3577.19 L 1372.26,3586.36 L 1378.44,3597.06 L 1382.25,3608.8 L 1383.54,3621.08 L 1383.54,3699.82 L 1382.25,3712.09 L 1378.44,3723.84 L 1372.26,3734.53 L 1364,3743.7 L 1354.02,3750.96 L 1342.74,3755.98 L 1330.66,3758.55 L 1318.32,3758.55 L 1306.24,3755.98 L 1294.96,3750.96 L 1284.97,3743.7 L 1276.71,3734.53 L 1270.54,3723.84 L 1266.72,3712.09 L 1265.43,3699.82 z " style="fill-opacity:1.000000;fill:rgb(107,150,143);stroke:rgb(0,0,0);stroke-width:2"/></g>
<g fill-rule="evenodd"><path d="M 3985.12,7499.82 L 3985.12,7421.08 L 3986.41,7408.8 L 3990.22,7397.06 L 3996.4,7386.36 L 4004.66,7377.19 L 4014.65,7369.93 L 4025.92,7364.91 L 4038,7362.34 L 4050.35,7362.34 L 4062.42,7364.91 L 4073.7,7369.93 L 4083.69,7377.19 L 4091.95,7386.36 L 4098.12,7397.06 L 4101.94,7408.8 L 4103.23,7421.08 L 4103.23,7499.82 L 4101.94,7512.09 L 4098.12,7523.84 L 4091.95,7534.53 L 4083.69,7543.7 L 4073.7,7550.96 L 4062.42,7555.98 L 4050.35,7558.55 L 4038,7558.55 L 4025.92,7555.98 L 4014.65,7550.96 L 4004.66,7543.7 L 3996.4,7534.53 L 3990.22,7523.84 L 3986.41,7512.09 L 3985.12,7499.82 z " style="fill-opacity:1.000000;fill:rgb(56,92,42);stroke:rgb(0,0,0);stroke-width:2"/></g>
<g fill-rule="evenodd"><path d="M 1065.43,3699.82 L 1065.43,3621.08 L 1066.72,3608.8 L 1070.54,3597.06 L 1076.71,3586.36 L 1084.97,3577.19 L 1094.96,3569.93 L 1106.24,3564.91 L 1118.32,3562.34 L 1130.66,3562.34 L 1142.74,3564.91 L 1154.02,3569.93 L 1164,3577.19 L 1172.26,3586.36 L 1178.44,3597.06 L 1182.25,3608.8 L 1183.54,3621.08 L 1183.54,3699.82 L 1182.25,3712.09 L 1178.44,3723.84 L 1172.26,3734.53 L 1164,3743.7 L 1154.02,3750.96 L 1142.74,3755.98 L 1130.66,3758.55 L 1118.32,3758.55 L 1106.24,3755.98 L 1094.96,3750.96 L 1084.97,3743.7 L 1076.71,3734.53 L 1070.54,3723.84 L 1066.72,3712.09 L 1065.43,3699.82 z " style="fill-opacity:1.000000;fill:rgb(236,176,59);stroke:rgb(0,0,0);stroke-width:2"/></g>
<g fill-rule="evenodd"><path d="M 4185.12,7499.82 L 4185.12,7421.08 L 4186.41,7408.8 L 4190.22,7397.06 L 4196.4,7386.36 L 4204.66,7377.19 L 4214.65,7369.93 L 4225.92,7364.91 L 4238,7362.34 L 4250.35,7362.34 L 4262.42,7364.91 L 4273.7,7369.93 L 4283.69,7377.19 L 4291.95,7386.36 L 4298.12,7397.06 L 4301.94,7408.8 L 4303.23,7421.08 L 4303.23,7499.82 L 4301.94,7512.09 L 4298.12,7523.84 L 4291.95,7534.53 L 4283.69,7543.7 L 4273.7,7550.96 L 4262.42,7555.98 L 4250.35,7558.55 L 4238,7558.55 L 4225.92,7555.98 L 4214.65,7550.96 L 4204.66,7543.7 L 4196.4,7534.53 L 4190.22,7523.84 L 4186.41,7512.09 L 4185.12,7499.82 z " style="fill-opacity:1.000000;fill:rgb(251,50,175);stroke:rgb(0,0,0);stroke-width:2"/></g>
<g fill-rule="evenodd"><path d="M 1065.43,7499.82 L 1065.43,7421.08 L 1066.72,7408.8 L 1070.54,7397.06 L 1076.71,7386.36 L 1084.97,7377.19 L 1094.96,7369.93 L 1106.24,7364.91 L 1118.32,7362.34 L 1130.66,7362.34 L 1142.74,7364.91 L 1154.02,7369.93 L 1164,7377.19 L 1172.26,7386.36 L 1178.44,7397.06 L 1182.25,7408.8 L 1183.54,7421.08 L 1183.54,7499.82 L 1182.25,7512.09 L 1178.44,7523.84 L 1172.26,7534.53 L 1164,7543.7 L 1154.02,7550.96 L 1142.74,7555.98 L 1130.66,7558.55 L 1118.32,7558.55 L 1106.24,7555.98 L 1094.96,7550.96 L 1084.97,7543.7 L 1076.71,7534.53 L 1070.54,7523.84 L 1066.72,7512.09 L 1065.43,7499.82 z " style="fill-opacity:1.000000;fill:rgb(60,84,236);stroke:rgb(0,0,0);stroke-width:2"/></g>
<g fill-rule="evenodd"><path d="M 1265.43,7499.82 L 1265.43,7421.08 L 1266.72,7408.8 L 1270.54,7397.06 L 1276.71,7386.36 L 1284.97,7377.19 L 1294.96,7369.93 L 1306.24,7364.91 L 1318.32,7362.34 L 1330.66,7362.34 L 1342.74,7364.91 L 1354.02,7369.93 L 1364,7377.19 L 1372.26,7386.36 L 1378.44,7397.06 L 1382.25,7408.8 L 1383.54,7421.08 L 1383.54,7499.82 L 1382.25,7512.09 L 1378.44,7523.84 L 1372.26,7534.53 L 1364,7543.7 L 1354.02,7550.96 L 1342.74,7555.98 L 1330.66,7558.55 L 1318.32,7558.55 L 1306.24,7555.98 L 1294.96,7550.96 L 1284.97,7543.7 L 1276.71,7534.53 L 1270.54,7523.84 L 1266.72,7512.09 L 1265.43,7499.82 z " style="fill-opacity:1.000000;fill:rgb(24,219,92);stroke:rgb(0,0,0);stroke-width:2"/></g>
<g fill-rule="evenodd"><path d="M 9824.02,7796.46 L 9821.43,7821.01 L 9813.8,7844.5 L 9801.46,7865.88 L 9784.94,7884.23 L 9764.96,7898.74 L 9742.4,7908.79 L 9718.25,7913.92 L 9693.56,7913.92 L 9669.41,7908.79 L 9646.85,7898.74 L 9626.87,7884.23 L 9610.35,7865.88 L 9598.01,7844.5 L 9590.38,7821.01 L 9587.8,7796.46 L 9590.38,7771.9 L 9598.01,7748.42 L 9610.35,7727.03 L 9626.87,7708.68 L 9646.85,7694.17 L 9669.41,7684.13 L 9693.56,7678.99 L 9718.25,7678.99 L 9742.4,7684.13 L 9764.96,7694.17 L 9784.94,7708.68 L 9801.46,7727.03 L 9813.8,7748.42 L 9821.43,7771.9 L 9824.02,7796.46 z " style="fill-opacity:1.000000;fill:rgb(2,26,254);stroke:rgb(0,0,0);stroke-width:2"/></g>
<g fill-rule="evenodd"><path d="M 9824.02,7205.91 L 9821.43,7230.46 L 9813.8,7253.95 L 9801.46,7275.33 L 9784.94,7293.68 L 9764.96,7308.19 L 9742.4,7318.24 L 9718.25,7323.37 L 9693.56,7323.37 L 9669.41,7318.24 L 9646.85,7308.19 L 9626.87,7293.68 L 9610.35,7275.33 L 9598.01,7253.95 L 9590.38,7230.46 L 9587.8,7205.91 L 9590.38,7181.35 L 9598.01,7157.87 L 9610.35,7136.48 L 9626.87,7118.13 L 9646.85,7103.62 L 9669.41,7093.58 L 9693.56,7088.44 L 9718.25,7088.44 L 9742.4,7093.58 L 9764.96,7103.62 L 9784.94,7118.13 L 9801.46,7136.48 L 9813.8,7157.87 L 9821.43,7181.35 L 9824.02,7205.91 z " style="fill-opacity:1.000000;fill:rgb(67,251,250);stroke:rgb(0,0,0);stroke-width:2"/></g>
<g fill-rule="evenodd"><path d="M 8779.92,6431.89 L 8779.92,6179.92 L 9031.89,6179.92 L 9031.89,6431.89 L 8779.92,6431.89 z " style="fill-opacity:1.000000;fill:rgb(170,58,251);stroke:rgb(0,0,0);stroke-width:2"/></g>
<g fill-rule="evenodd"><path d="M 7831.89,6305.91 L 7829.14,6332.1 L 7821,6357.15 L 7807.83,6379.96 L 7790.21,6399.53 L 7768.9,6415.01 L 7744.84,6425.72 L 7719.07,6431.2 L 7692.74,6431.2 L 7666.97,6425.72 L 7642.91,6415.01 L 7621.61,6399.53 L 7603.98,6379.96 L 7590.81,6357.15 L 7582.67,6332.1 L 7579.92,6305.91 L 7582.67,6279.71 L 7590.81,6254.66 L 7603.98,6231.85 L 7621.61,6212.28 L 7642.91,6196.8 L 7666.97,6186.09 L 7692.74,6180.61 L 7719.07,6180.61 L 7744.84,6186.09 L 7768.9,6196.8 L 7790.21,6212.28 L 7807.83,6231.85 L 7821,6254.66 L 7829.14,6279.71 L 7831.89,6305.91 z " style="fill-opacity:1.000000;fill:rgb(41,209,230);stroke:rgb(0,0,0);stroke-width:2"/></g>
<g fill-rule="evenodd"><path d="M 4310.08,11354.3 L 4310.08,11053.9 L 4610.55,11053.9 L 4610.55,11354.3 L 4310.08,11354.3 z " style="fill-opacity:1.000000;fill:rgb(5,60,124);stroke:rgb(0,0,0);stroke-width:2"/></g>
<g fill-rule="evenodd"><path d="M 6230.08,11354.3 L 6230.08,11053.9 L 6530.55,11053.9 L 6530.55,11354.3 L 6230.08,11354.3 z " style="fill-opacity:1.000000;fill:rgb(148,117,216);stroke:rgb(0,0,0);stroke-width:2"/></g>
<g fill-rule="evenodd"><path d="M 3867.87,11354.3 L 3867.87,11053.9 L 4168.35,11053.9 L 4168.35,11354.3 L 3867.87,11354.3 z " style="fill-opacity:1.000000;fill:rgb(190,97,137);stroke:rgb(0,0,0);stroke-width:2"/></g>
<g fill-rule="evenodd"><path d="M 1947.87,11354.3 L 1947.87,11053.9 L 2248.35,11053.9 L 2248.35,11354.3 L 1947.87,11354.3 z " style="fill-opacity:1.000000;fill:rgb(249,92,187);stroke:rgb(0,0,0);stroke-width:2"/></g>
<g fill-rule="evenodd"><path d="M 8592.28,11354.3 L 8592.28,11053.9 L 8892.76,11053.9 L 8892.76,11354.3 L 8592.28,11354.3 z " style="fill-opacity:1.000000;fill:rgb(168,153,15);stroke:rgb(0,0,0);stroke-width:2"/></g>
<g fill-rule="evenodd"><path d="M 6672.28,11354.3 L 6672.28,11053.9 L 6972.76,11053.9 L 6972.76,11354.3 L 6672.28,11354.3 z " style="fill-opacity:1.000000;fill:rgb(149,177,235);stroke:rgb(0,0,0);stroke-width:2"/></g>
<g fill-rule="evenodd"><path d="M 8284.65,9605.91 L 8282.93,9622.28 L 8277.84,9637.93 L 8269.61,9652.19 L 8258.59,9664.42 L 8245.28,9674.1 L 8230.24,9680.79 L 8214.14,9684.21 L 8197.67,9684.21 L 8181.57,9680.79 L 8166.54,9674.1 L 8153.22,9664.42 L 8142.2,9652.19 L 8133.97,9637.93 L 8128.89,9622.28 L 8127.17,9605.91 L 8128.89,9589.53 L 8133.97,9573.88 L 8142.2,9559.62 L 8153.22,9547.39 L 8166.54,9537.71 L 8181.57,9531.02 L 8197.67,9527.6 L 8214.14,9527.6 L 8230.24,9531.02 L 8245.28,9537.71 L 8258.59,9547.39 L 8269.61,9559.62 L 8277.84,9573.88 L 8282.93,9589.53 L 8284.65,9605.91 z " style="fill-opacity:1.000000;fill:rgb(241,179,5);stroke:rgb(0,0,0);stroke-width:2"/></g>
<g fill-rule="evenodd"><path d="M 7484.65,9605.91 L 7482.93,9622.28 L 7477.84,9637.93 L 7469.61,9652.19 L 7458.59,9664.42 L 7445.28,9674.1 L 7430.24,9680.79 L 7414.14,9684.21 L 7397.67,9684.21 L 7381.57,9680.79 L 7366.54,9674.1 L 7353.22,9664.42 L 7342.2,9652.19 L 7333.97,9637.93 L 7328.89,9622.28 L 7327.17,9605.91 L 7328.89,9589.53 L 7333.97,9573.88 L 7342.2,9559.62 L 7353.22,9547.39 L 7366.54,9537.71 L 7381.57,9531.02 L 7397.67,9527.6 L 7414.14,9527.6 L 7430.24,9531.02 L 7445.28,9537.71 L 7458.59,9547.39 L 7469.61,9559.62 L 7477.84,9573.88 L 7482.93,9589.53 L 7484.65,9605.91 z " style="fill-opacity:1.000000;fill:rgb(239,247,0);stroke:rgb(0,0,0);stroke-width:2"/></g>
<g fill-rule="evenodd"><path d="M 5384.65,5005.91 L 5382.93,5022.28 L 5377.84,5037.93 L 5369.61,5052.19 L 5358.59,5064.42 L 5345.28,5074.1 L 5330.24,5080.79 L 5314.14,5084.21 L 5297.67,5084.21 L 5281.57,5080.79 L 5266.54,5074.1 L 5253.22,5064.42 L 5242.2,5052.19 L 5233.97,5037.93 L 5228.89,5022.28 L 5227.17,5005.91 L 5228.89,4989.53 L 5233.97,4973.88 L 5242.2,4959.62 L 5253.22,4947.39 L 5266.54,4937.71 L 5281.57,4931.02 L 5297.67,4927.6 L 5314.14,4927.6 L 5330.24,4931.02 L 5345.28,4937.71 L 5358.59,4947.39 L 5369.61,4959.62 L 5377.84,4973.88 L 5382.93,4989.53 L 5384.65,5005.91 z " style="fill-opacity:1.000000;fill:rgb(233,161,58);stroke:rgb(0,0,0);stroke-width:2"/></g>
<g fill-rule="evenodd"><path d="M 5384.65,4205.91 L 5382.93,4222.28 L 5377.84,4237.93 L 5369.61,4252.19 L 5358.59,4264.42 L 5345.28,4274.1 L 5330.24,4280.79 L 5314.14,4284.21 L 5297.67,4284.21 L 5281.57,4280.79 L 5266.54,4274.1 L 5253.22,4264.42 L 5242.2,4252.19 L 5233.97,4237.93 L 5228.89,4222.28 L 5227.17,4205.91 L 5228.89,4189.53 L 5233.97,4173.88 L 5242.2,4159.62 L 5253.22,4147.39 L 5266.54,4137.71 L 5281.57,4131.02 L 5297.67,4127.6 L 5314.14,4127.6 L 5330.24,4131.02 L 5345.28,4137.71 L 5358.59,4147.39 L 5369.61,4159.62 L 5377.84,4173.88 L 5382.93,4189.53 L 5384.65,4205.91 z " style="fill-opacity:1.000000;fill:rgb(229,202,11);stroke:rgb(0,0,0);stroke-width:2"/></g>
<g fill-rule="evenodd"><path d="M 5984.65,4005.91 L 5982.93,4022.28 L 5977.84,4037.93 L 5969.61,4052.19 L 5958.59,4064.42 L 5945.28,4074.1 L 5930.24,4080.79 L 5914.14,4084.21 L 5897.67,4084.21 L 5881.57,4080.79 L 5866.54,4074.1 L 5853.22,4064.42 L 5842.2,4052.19 L 5833.97,4037.93 L 5828.89,4022.28 L 5827.17,4005.91 L 5828.89,3989.53 L 5833.97,3973.88 L 5842.2,3959.62 L 5853.22,3947.39 L 5866.54,3937.71 L 5881.57,3931.02 L 5897.67,3927.6 L 5914.14,3927.6 L 5930.24,3931.02 L 5945.28,3937.71 L 5958.59,3947.39 L 5969.61,3959.62 L 5977.84,3973.88 L 5982.93,3989.53 L 5984.65,4005.91 z " style="fill-opacity:1.000000;fill:rgb(203,208,72);stroke:rgb(0,0,0);stroke-width:2"/></g>
<g fill-rule="evenodd"><path d="M 5984.65,4805.91 L 5982.93,4822.28 L 5977.84,4837.93 L 5969.61,4852.19 L 5958.59,4864.42 L 5945.28,4874.1 L 5930.24,4880.79 L 5914.14,4884.21 L 5897.67,4884.21 L 5881.57,4880.79 L 5866.54,4874.1 L 5853.22,4864.42 L 5842.2,4852.19 L 5833.97,4837.93 L 5828.89,4822.28 L 5827.17,4805.91 L 5828.89,4789.53 L 5833.97,4773.88 L 5842.2,4759.62 L 5853.22,4747.39 L 5866.54,4737.71 L 5881.57,4731.02 L 5897.67,4727.6 L 5914.14,4727.6 L 5930.24,4731.02 L 5945.28,4737.71 L 5958.59,4747.39 L 5969.61,4759.62 L 5977.84,4773.88 L 5982.93,4789.53 L 5984.65,4805.91 z " style="fill-opacity:1.000000;fill:rgb(71,100,189);stroke:rgb(0,0,0);stroke-width:2"/></g>
<g fill-rule="evenodd"><path d="M 8189.45,7015.91 L 8187.73,7032.28 L 8182.64,7047.93 L 8174.41,7062.19 L 8163.4,7074.42 L 8150.08,7084.1 L 8135.04,7090.79 L 8118.94,7094.21 L 8102.48,7094.21 L 8086.38,7090.79 L 8071.34,7084.1 L 8058.02,7074.42 L 8047.01,7062.19 L 8038.78,7047.93 L 8033.69,7032.28 L 8031.97,7015.91 L 8033.69,6999.53 L 8038.78,6983.88 L 8047.01,6969.62 L 8058.02,6957.39 L 8071.34,6947.71 L 8086.38,6941.02 L 8102.48,6937.6 L 8118.94,6937.6 L 8135.04,6941.02 L 8150.08,6947.71 L 8163.4,6957.39 L 8174.41,6969.62 L 8182.64,6983.88 L 8187.73,6999.53 L 8189.45,7015.91 z " style="fill-opacity:1.000000;fill:rgb(31,35,30);stroke:rgb(0,0,0);stroke-width:2"/></g>
<g fill-rule="evenodd"><path d="M 7389.45,7015.91 L 7387.73,7032.28 L 7382.64,7047.93 L 7374.41,7062.19 L 7363.4,7074.42 L 7350.08,7084.1 L 7335.04,7090.79 L 7318.94,7094.21 L 7302.48,7094.21 L 7286.38,7090.79 L 7271.34,7084.1 L 7258.02,7074.42 L 7247.01,7062.19 L 7238.78,7047.93 L 7233.69,7032.28 L 7231.97,7015.91 L 7233.69,6999.53 L 7238.78,6983.88 L 7247.01,6969.62 L 7258.02,6957.39 L 7271.34,6947.71 L 7286.38,6941.02 L 7302.48,6937.6 L 7318.94,6937.6 L 7335.04,6941.02 L 7350.08,6947.71 L 7363.4,6957.39 L 7374.41,6969.62 L 7382.64,6983.88 L 7387.73,6999.53 L 7389.45,7015.91 z " style="fill-opacity:1.000000;fill:rgb(168,28,123);stroke:rgb(0,0,0);stroke-width:2"/></g>
<g fill-rule="evenodd"><path d="M 3171.29,8644.49 L 3171.29,8518.5 L 3360.27,8518.5 L 3360.27,8644.49 L 3171.29,8644.49 z " style="fill-opacity:1.000000;fill:rgb(100,197,20);stroke:rgb(0,0,0);stroke-width:2"/></g>
<g fill-rule="evenodd"><path d="M 3834.28,9118.5 L 3897.28,9118.5 L 3910.37,9119.88 L 3922.9,9123.95 L 3934.3,9130.53 L 3944.09,9139.35 L 3951.83,9150 L 3957.18,9162.03 L 3959.92,9174.91 L 3959.92,9188.08 L 3957.18,9200.96 L 3951.83,9212.99 L 3944.09,9223.65 L 3934.3,9232.46 L 3922.9,9239.04 L 3910.37,9243.11 L 3897.28,9244.49 L 3834.28,9244.49 L 3821.19,9243.11 L 3808.66,9239.04 L 3797.26,9232.46 L 3787.47,9223.65 L 3779.73,9212.99 L 3774.37,9200.96 L 3771.64,9188.08 L 3771.64,9174.91 L 3774.37,9162.03 L 3779.73,9150 L 3787.47,9139.35 L 3797.26,9130.53 L 3808.66,9123.95 L 3821.19,9119.88 L 3834.28,9118.5 z " style="fill-opacity:1.000000;fill:rgb(115,90,197);stroke:rgb(0,0,0);stroke-width:2"/></g>
<g fill-rule="evenodd"><path d="M 3234.28,8718.5 L 3297.28,8718.5 L 3310.37,8719.88 L 3322.9,8723.95 L 3334.3,8730.53 L 3344.09,8739.35 L 3351.83,8750 L 3357.18,8762.03 L 3359.92,8774.91 L 3359.92,8788.08 L 3357.18,8800.96 L 3351.83,8812.99 L 3344.09,8823.65 L 3334.3,8832.46 L 3322.9,8839.04 L 3310.37,8843.11 L 3297.28,8844.49 L 3234.28,8844.49 L 3221.19,8843.11 L 3208.66,8839.04 L 3197.26,8832.46 L 3187.47,8823.65 L 3179.73,8812.99 L 3174.37,8800.96 L 3171.64,8788.08 L 3171.64,8774.91 L 3174.37,8762.03 L 3179.73,8750 L 3187.47,8739.35 L 3197.26,8730.53 L 3208.66,8723.95 L 3221.19,8719.88 L 3234.28,8718.5 z " style="fill-opacity:1.000000;fill:rgb(94,75,121);stroke:rgb(0,0,0);stroke-width:2"/></g>
<g fill-rule="evenodd"><path d="M 3834.28,8918.5 L 3897.28,8918.5 L 3910.37,8919.88 L 3922.9,8923.95 L 3934.3,8930.53 L 3944.09,8939.35 L 3951.83,8950 L 3957.18,8962.03 L 3959.92,8974.91 L 3959.92,8988.08 L 3957.18,9000.96 L 3951.83,9012.99 L 3944.09,9023.65 L 3934.3,9032.46 L 3922.9,9039.04 L 3910.37,9043.11 L 3897.28,9044.49 L 3834.28,9044.49 L 3821.19,9043.11 L 3808.66,9039.04 L 3797.26,9032.46 L 3787.47,9023.65 L 3779.73,9012.99 L 3774.37,9000.96 L 3771.64,8988.08 L 3771.64,8974.91 L 3774.37,8962.03 L 3779.73,8950 L 3787.47,8939.35 L 3797.26,8930.53 L 3808.66,8923.95 L 3821.19,8919.88 L 3834.28,8918.5 z " style="fill-opacity:1.000000;fill:rgb(99,59,112);stroke:rgb(0,0,0);stroke-width:2"/></g>
<g fill-rule="evenodd"><path d="M 3234.28,8918.5 L 3297.28,8918.5 L 3310.37,8919.88 L 3322.9,8923.95 L 3334.3,8930.53 L 3344.09,8939.35 L 3351.83,8950 L 3357.18,8962.03 L 3359.92,8974.91 L 3359.92,8988.08 L 3357.18,9000.96 L 3351.83,9012.99 L 3344.09,9023.65 L 3334.3,9032.46 L 3322.9,9039.04 L 3310.37,9043.11 L 3297.28,9044.49 L 3234.28,9044.49 L 3221.19,9043.11 L 3208.66,9039.04 L 3197.26,9032.46 L 3187.47,9023.65 L 3179.73,9012.99 L 3174.37,9000.96 L 3171.64,8988.08 L 3171.64,8974.91 L 3174.37,8962.03 L 3179.73,8950 L 3187.47,8939.35 L 3197.26,8930.53 L 3208.66,8923.95 L 3221.19,8919.88 L 3234.28,8918.5 z " style="fill-opacity:1.000000;fill:rgb(100,36,17);stroke:rgb(0,0,0);stroke-width:2"/></g>
<g fill-rule="evenodd"><path d="M 3834.28,8718.5 L 3897.28,8718.5 L 3910.37,8719.88 L 3922.9,8723.95 L 3934.3,8730.53 L 3944.09,8739.35 L 3951.83,8750 L 3957.18,8762.03 L 3959.92,8774.91 L 3959.92,8788.08 L 3957.18,8800.96 L 3951.83,8812.99 L 3944.09,8823.65 L 3934.3,8832.46 L 3922.9,8839.04 L 3910.37,8843.11 L 3897.28,8844.49 L 3834.28,8844.49 L 3821.19,8843.11 L 3808.66,8839.04 L 3797.26,8832.46 L 3787.47,8823.65 L 3779.73,8812.99 L 3774.37,8800.96 L 3771.64,8788.08 L 3771.64,8774.91 L 3774.37,8762.03 L 3779.73,8750 L 3787.47,8739.35 L 3797.26,8730.53 L 3808.66,8723.95 L 3821.19,8719.88 L 3834.28,8718.5 z " style="fill-opacity:1.000000;fill:rgb(158,9,220);stroke:rgb(0,0,0);stroke-width:2"/></g>
<g fill-rule="evenodd"><path d="M 3234.28,9118.5 L 3297.28,9118.5 L 3310.37,9119.88 L 3322.9,9123.95 L 3334.3,9130.53 L 3344.09,9139.35 L 3351.83,9150 L 3357.18,9162.03 L 3359.92,9174.91 L 3359.92,9188.08 L 3357.18,9200.96 L 3351.83,9212.99 L 3344.09,9223.65 L 3334.3,9232.46 L 3322.9,9239.04 L 3310.37,9243.11 L 3297.28,9244.49 L 3234.28,9244.49 L 3221.19,9243.11 L 3208.66,9239.04 L 3197.26,9232.46 L 3187.47,9223.65 L 3179.73,9212.99 L 3174.37,9200.96 L 3171.64,9188.08 L 3171.64,9174.91 L 3174.37,9162.03 L 3179.73,9150 L 3187.47,9139.35 L 3197.26,9130.53 L 3208.66,9123.95 L 3221.19,9119.88 L 3234.28,9118.5 z " style="fill-opacity:1.000000;fill:rgb(170,212,172);stroke:rgb(0,0,0);stroke-width:2"/></g>
<g fill-rule="evenodd"><path d="M 3834.28,8518.5 L 3897.28,8518.5 L 3910.37,8519.88 L 3922.9,8523.95 L 3934.3,8530.53 L 3944.09,8539.35 L 3951.83,8550 L 3957.18,8562.03 L 3959.92,8574.91 L 3959.92,8588.08 L 3957.18,8600.96 L 3951.83,8612.99 L 3944.09,8623.65 L 3934.3,8632.46 L 3922.9,8639.04 L 3910.37,8643.11 L 3897.28,8644.49 L 3834.28,8644.49 L 3821.19,8643.11 L 3808.66,8639.04 L 3797.26,8632.46 L 3787.47,8623.65 L 3779.73,8612.99 L 3774.37,8600.96 L 3771.64,8588.08 L 3771.64,8574.91 L 3774.37,8562.03 L 3779.73,8550 L 3787.47,8539.35 L 3797.26,8530.53 L 3808.66,8523.95 L 3821.19,8519.88 L 3834.28,8518.5 z " style="fill-opacity:1.000000;fill:rgb(242,27,16);stroke:rgb(0,0,0);stroke-width:2"/></g>
<g fill-rule="evenodd"><path d="M 9984.65,6205.91 L 9982.93,6222.28 L 9977.84,6237.93 L 9969.61,6252.19 L 9958.59,6264.42 L 9945.28,6274.1 L 9930.24,6280.79 L 9914.14,6284.21 L 9897.67,6284.21 L 9881.57,6280.79 L 9866.54,6274.1 L 9853.22,6264.42 L 9842.2,6252.19 L 9833.97,6237.93 L 9828.89,6222.28 L 9827.17,6205.91 L 9828.89,6189.53 L 9833.97,6173.88 L 9842.2,6159.62 L 9853.22,6147.39 L 9866.54,6137.71 L 9881.57,6131.02 L 9897.67,6127.6 L 9914.14,6127.6 L 9930.24,6131.02 L 9945.28,6137.71 L 9958.59,6147.39 L 9969.61,6159.62 L 9977.84,6173.88 L 9982.93,6189.53 L 9984.65,6205.91 z " style="fill-opacity:1.000000;fill:rgb(175,59,51);stroke:rgb(0,0,0);stroke-width:2"/></g>
<g fill-rule="evenodd"><path d="M 9984.65,5005.91 L 9982.93,5022.28 L 9977.84,5037.93 L 9969.61,5052.19 L 9958.59,5064.42 L 9945.28,5074.1 L 9930.24,5080.79 L 9914.14,5084.21 L 9897.67,5084.21 L 9881.57,5080.79 L 9866.54,5074.1 L 9853.22,5064.42 L 9842.2,5052.19 L 9833.97,5037.93 L 9828.89,5022.28 L 9827.17,5005.91 L 9828.89,4989.53 L 9833.97,4973.88 L 9842.2,4959.62 L 9853.22,4947.39 L 9866.54,4937.71 L 9881.57,4931.02 L 9897.67,4927.6 L 9914.14,4927.6 L 9930.24,4931.02 L 9945.28,4937.71 L 9958.59,4947.39 L 9969.61,4959.62 L 9977.84,4973.88 L 9982.93,4989.53 L 9984.65,5005.91 z " style="fill-opacity:1.000000;fill:rgb(205,227,80);stroke:rgb(0,0,0);stroke-width:2"/></g>
<g fill-rule="evenodd"><path d="M 9984.65,3505.91 L 9982.93,3522.28 L 9977.84,3537.93 L 9969.61,3552.19 L 9958.59,3564.42 L 9945.28,3574.1 L 9930.24,3580.79 L 9914.14,3584.21 L 9897.67,3584.21 L 9881.57,3580.79 L 9866.54,3574.1 L 9853.22,3564.42 L 9842.2,3552.19 L 9833.97,3537.93 L 9828.89,3522.28 L 9827.17,3505.91 L 9828.89,3489.53 L 9833.97,3473.88 L 9842.2,3459.62 L 9853.22,3447.39 L 9866.54,3437.71 L 9881.57,3431.02 L 9897.67,3427.6 L 9914.14,3427.6 L 9930.24,3431.02 L 9945.28,3437.71 L 9958.59,3447.39 L 9969.61,3459.62 L 9977.84,3473.88 L 9982.93,3489.53 L 9984.65,3505.91 z " style="fill-opacity:1.000000;fill:rgb(72,71,21);stroke:rgb(0,0,0);stroke-width:2"/></g>
<g fill-rule="evenodd"><path d="M 9984.65,4705.91 L 9982.93,4722.28 L 9977.84,4737.93 L 9969.61,4752.19 L 9958.59,4764.42 L 9945.28,4774.1 L 9930.24,4780.79 L 9914.14,4784.21 L 9897.67,4784.21 L 9881.57,4780.79 L 9866.54,4774.1 L 9853.22,4764.42 L 9842.2,4752.19 L 9833.97,4737.93 L 9828.89,4722.28 L 9827.17,4705.91 L 9828.89,4689.53 L 9833.97,4673.88 L 9842.2,4659.62 L 9853.22,4647.39 L 9866.54,4637.71 L 9881.57,4631.02 L 9897.67,4627.6 L 9914.14,4627.6 L 9930.24,4631.02 L 9945.28,4637.71 L 9958.59,4647.39 L 9969.61,4659.62 L 9977.84,4673.88 L 9982.93,4689.53 L 9984.65,4705.91 z " style="fill-opacity:1.000000;fill:rgb(92,187,111);stroke:rgb(0,0,0);stroke-width:2"/></g>
<g fill-rule="evenodd"><path d="M 1884.65,6905.91 L 1882.93,6922.28 L 1877.84,6937.93 L 1869.61,6952.19 L 1858.59,6964.42 L 1845.28,6974.1 L 1830.24,6980.79 L 1814.14,6984.21 L 1797.67,6984.21 L 1781.57,6980.79 L 1766.54,6974.1 L 1753.22,6964.42 L 1742.2,6952.19 L 1733.97,6937.93 L 1728.89,6922.28 L 1727.17,6905.91 L 1728.89,6889.53 L 1733.97,6873.88 L 1742.2,6859.62 L 1753.22,6847.39 L 1766.54,6837.71 L 1781.57,6831.02 L 1797.67,6827.6 L 1814.14,6827.6 L 1830.24,6831.02 L 1845.28,6837.71 L 1858.59,6847.39 L 1869.61,6859.62 L 1877.84,6873.88 L 1882.93,6889.53 L 1884.65,6905.91 z " style="fill-opacity:1.000000;fill:rgb(34,25,186);stroke:rgb(0,0,0);stroke-width:2"/></g>
<g fill-rule="evenodd"><path d="M 2684.65,6905.91 L 2682.93,6922.28 L 2677.84,6937.93 L 2669.61,6952.19 L 2658.59,6964.42 L 2645.28,6974.1 L 2630.24,6980.79 L 2614.14,6984.21 L 2597.67,6984.21 L 2581.57,6980.79 L 2566.54,6974.1 L 2553.22,6964.42 L 2542.2,6952.19 L 2533.97,6937.93 L 2528.89,6922.28 L 2527.17,6905.91 L 2528.89,6889.53 L 2533.97,6873.88 L 2542.2,6859.62 L 2553.22,6847.39 L 2566.54,6837.71 L 2581.57,6831.02 L 2597.67,6827.6 L 2614.14,6827.6 L 2630.24,6831.02 L 2645.28,6837.71 L 2658.59,6847.39 L 2669.61,6859.62 L 2677.84,6873.88 L 2682.93,6889.53 L 2684.65,6905.91 z " style="fill-opacity:1.000000;fill:rgb(155,125,245);stroke:rgb(0,0,0);stroke-width:2"/></g>
<g fill-rule="evenodd"><path d="M 8400.63,3281.91 L 8398.91,3298.28 L 8393.82,3313.93 L 8385.59,3328.19 L 8374.58,3340.42 L 8361.26,3350.1 L 8346.22,3356.79 L 8330.12,3360.21 L 8313.66,3360.21 L 8297.56,3356.79 L 8282.52,3350.1 L 8269.2,3340.42 L 8258.19,3328.19 L 8249.96,3313.93 L 8244.87,3298.28 L 8243.15,3281.91 L 8244.87,3265.53 L 8249.96,3249.88 L 8258.19,3235.62 L 8269.2,3223.39 L 8282.52,3213.71 L 8297.56,3207.02 L 8313.66,3203.6 L 8330.12,3203.6 L 8346.22,3207.02 L 8361.26,3213.71 L 8374.58,3223.39 L 8385.59,3235.62 L 8393.82,3249.88 L 8398.91,3265.53 L 8400.63,3281.91 z " style="fill-opacity:1.000000;fill:rgb(11,225,26);stroke:rgb(0,0,0);stroke-width:2"/></g>
<g fill-rule="evenodd"><path d="M 9200.63,3281.91 L 9198.91,3298.28 L 9193.82,3313.93 L 9185.59,3328.19 L 9174.58,3340.42 L 9161.26,3350.1 L 9146.22,3356.79 L 9130.12,3360.21 L 9113.66,3360.21 L 9097.56,3356.79 L 9082.52,3350.1 L 9069.2,3340.42 L 9058.19,3328.19 L 9049.96,3313.93 L 9044.87,3298.28 L 9043.15,3281.91 L 9044.87,3265.53 L 9049.96,3249.88 L 9058.19,3235.62 L 9069.2,3223.39 L 9082.52,3213.71 L 9097.56,3207.02 L 9113.66,3203.6 L 9130.12,3203.6 L 9146.22,3207.02 L 9161.26,3213.71 L 9174.58,3223.39 L 9185.59,3235.62 L 9193.82,3249.88 L 9198.91,3265.53 L 9200.63,3281.91 z " style="fill-opacity:1.000000;fill:rgb(28,127,35);stroke:rgb(0,0,0);stroke-width:2"/></g>
<g fill-rule="evenodd"><path d="M 1784.65,3005.91 L 1782.93,3022.28 L 1777.84,3037.93 L 1769.61,3052.19 L 1758.59,3064.42 L 1745.28,3074.1 L 1730.24,3080.79 L 1714.14,3084.21 L 1697.67,3084.21 L 1681.57,3080.79 L 1666.54,3074.1 L 1653.22,3064.42 L 1642.2,3052.19 L 1633.97,3037.93 L 1628.89,3022.28 L 1627.17,3005.91 L 1628.89,2989.53 L 1633.97,2973.88 L 1642.2,2959.62 L 1653.22,2947.39 L 1666.54,2937.71 L 1681.57,2931.02 L 1697.67,2927.6 L 1714.14,2927.6 L 1730.24,2931.02 L 1745.28,2937.71 L 1758.59,2947.39 L 1769.61,2959.62 L 1777.84,2973.88 L 1782.93,2989.53 L 1784.65,3005.91 z " style="fill-opacity:1.000000;fill:rgb(248,41,248);stroke:rgb(0,0,0);stroke-width:2"/></g>
<g fill-rule="evenodd"><path d="M 984.646,3005.91 L 982.925,3022.28 L 977.838,3037.93 L 969.608,3052.19 L 958.593,3064.42 L 945.276,3074.1 L 930.238,3080.79 L 914.136,3084.21 L 897.675,3084.21 L 881.573,3080.79 L 866.535,3074.1 L 853.218,3064.42 L 842.203,3052.19 L 833.973,3037.93 L 828.886,3022.28 L 827.165,3005.91 L 828.886,2989.53 L 833.973,2973.88 L 842.203,2959.62 L 853.218,2947.39 L 866.535,2937.71 L 881.573,2931.02 L 897.675,2927.6 L 914.136,2927.6 L 930.238,2931.02 L 945.276,2937.71 L 958.593,2947.39 L 969.608,2959.62 L 977.838,2973.88 L 982.925,2989.53 L 984.646,3005.91 z " style="fill-opacity:1.000000;fill:rgb(164,27,19);stroke:rgb(0,0,0);stroke-width:2"/></g>
<g fill-rule="evenodd"><path d="M 2074.41,1942.91 L 2137.4,1942.91 L 2150.5,1944.29 L 2163.02,1948.36 L 2174.43,1954.94 L 2184.21,1963.76 L 2191.95,1974.41 L 2197.31,1986.44 L 2200.05,1999.32 L 2200.05,2012.49 L 2197.31,2025.37 L 2191.95,2037.4 L 2184.21,2048.06 L 2174.43,2056.87 L 2163.02,2063.45 L 2150.5,2067.52 L 2137.4,2068.9 L 2074.41,2068.9 L 2061.31,2067.52 L 2048.79,2063.45 L 2037.38,2056.87 L 2027.6,2048.06 L 2019.86,2037.4 L 2014.5,2025.37 L 2011.76,2012.49 L 2011.76,1999.32 L 2014.5,1986.44 L 2019.86,1974.41 L 2027.6,1963.76 L 2037.38,1954.94 L 2048.79,1948.36 L 2061.31,1944.29 L 2074.41,1942.91 z " style="fill-opacity:1.000000;fill:rgb(181,202,78);stroke:rgb(0,0,0);stroke-width:2"/></g>
<g fill-rule="evenodd"><path d="M 2674.41,1542.91 L 2737.4,1542.91 L 2750.5,1544.29 L 2763.02,1548.36 L 2774.43,1554.94 L 2784.21,1563.76 L 2791.95,1574.41 L 2797.31,1586.44 L 2800.05,1599.32 L 2800.05,1612.49 L 2797.31,1625.37 L 2791.95,1637.4 L 2784.21,1648.06 L 2774.43,1656.87 L 2763.02,1663.45 L 2750.5,1667.52 L 2737.4,1668.9 L 2674.41,1668.9 L 2661.31,1667.52 L 2648.79,1663.45 L 2637.38,1656.87 L 2627.6,1648.06 L 2619.86,1637.4 L 2614.5,1625.37 L 2611.76,1612.49 L 2611.76,1599.32 L 2614.5,1586.44 L 2619.86,1574.41 L 2627.6,1563.76 L 2637.38,1554.94 L 2648.79,1548.36 L 2661.31,1544.29 L 2674.41,1542.91 z " style="fill-opacity:1.000000;fill:rgb(232,152,50);stroke:rgb(0,0,0);stroke-width:2"/></g>
<g fill-rule="evenodd"><path d="M 2074.41,1742.91 L 2137.4,1742.91 L 2150.5,1744.29 L 2163.02,1748.36 L 2174.43,1754.94 L 2184.21,1763.76 L 2191.95,1774.41 L 2197.31,1786.44 L 2200.05,1799.32 L 2200.05,1812.49 L 2197.31,1825.37 L 2191.95,1837.4 L 2184.21,1848.06 L 2174.43,1856.87 L 2163.02,1863.45 L 2150.5,1867.52 L 2137.4,1868.9 L 2074.41,1868.9 L 2061.31,1867.52 L 2048.79,1863.45 L 2037.38,1856.87 L 2027.6,1848.06 L 2019.86,1837.4 L 2014.5,1825.37 L 2011.76,1812.49 L 2011.76,1799.32 L 2014.5,1786.44 L 2019.86,1774.41 L 2027.6,1763.76 L 2037.38,1754.94 L 2048.79,1748.36 L 2061.31,1744.29 L 2074.41,1742.91 z " style="fill-opacity:1.000000;fill:rgb(56,224,121);stroke:rgb(0,0,0);stroke-width:2"/></g>
<g fill-rule="evenodd"><path d="M 2674.41,1742.91 L 2737.4,1742.91 L 2750.5,1744.29 L 2763.02,1748.36 L 2774.43,1754.94 L 2784.21,1763.76 L 2791.95,1774.41 L 2797.31,1786.44 L 2800.05,1799.32 L 2800.05,1812.49 L 2797.31,1825.37 L 2791.95,1837.4 L 2784.21,1848.06 L 2774.43,1856.87 L 2763.02,1863.45 L 2750.5,1867.52 L 2737.4,1868.9 L 2674.41,1868.9 L 2661.31,1867.52 L 2648.79,1863.45 L 2637.38,1856.87 L 2627.6,1848.06 L 2619.86,1837.4 L 2614.5,1825.37 L 2611.76,1812.49 L 2611.76,1799.32 L 2614.5,1786.44 L 2619.86,1774.41 L 2627.6,1763.76 L 2637.38,1754.94 L 2648.79,1748.36 L 2661.31,1744.29 L 2674.41,1742.91 z " style="fill-opacity:1.000000;fill:rgb(77,61,52);stroke:rgb(0,0,0);stroke-width:2"/></g>
<g fill-rule="evenodd"><path d="M 2074.41,1542.91 L 2137.4,1542.91 L 2150.5,1544.29 L 2163.02,1548.36 L 2174.43,1554.94 L 2184.21,1563.76 L 2191.95,1574.41 L 2197.31,1586.44 L 2200.05,1599.32 L 2200.05,1612.49 L 2197.31,1625.37 L 2191.95,1637.4 L 2184.21,1648.06 L 2174.43,1656.87 L 2163.02,1663.45 L 2150.5,1667.52 L 2137.4,1668.9 L 2074.41,1668.9 L 2061.31,1667.52 L 2048.79,1663.45 L 2037.38,1656.87 L 2027.6,1648.06 L 2019.86,1637.4 L 2014.5,1625.37 L 2011.76,1612.49 L 2011.76,1599.32 L 2014.5,1586.44 L 2019.86,1574.41 L 2027.6,1563.76 L 2037.38,1554.94 L 2048.79,1548.36 L 2061.31,1544.29 L 2074.41,1542.91 z " style="fill-opacity:1.000000;fill:rgb(188,95,78);stroke:rgb(0,0,0);stroke-width:2"/></g>
<g fill-rule="evenodd"><path d="M 2611.42,2068.9 L 2611.42,1942.91 L 2800.39,1942.91 L 2800.39,2068.9 L 2611.42,2068.9 z " style="fill-opacity:1.000000;fill:rgb(119,250,203);stroke:rgb(0,0,0);stroke-width:2"/></g>
<g fill-rule="evenodd"><path d="M 4442.91,1700.39 L 4442.91,1511.42 L 4568.9,1511.42 L 4568.9,1700.39 L 4442.91,1700.39 z " style="fill-opacity:1.000000;fill:rgb(108,5,172);stroke:rgb(0,0,0);stroke-width:2"/></g>
<g fill-rule="evenodd"><path d="M 4042.91,2237.4 L 4042.91,2174.41 L 4044.29,2161.31 L 4048.36,2148.79 L 4054.94,2137.38 L 4063.76,2127.6 L 4074.41,2119.86 L 4086.44,2114.5 L 4099.32,2111.76 L 4112.49,2111.76 L 4125.37,2114.5 L 4137.4,2119.86 L 4148.06,2127.6 L 4156.87,2137.38 L 4163.45,2148.79 L 4167.52,2161.31 L 4168.9,2174.41 L 4168.9,2237.4 L 4167.52,2250.5 L 4163.45,2263.02 L 4156.87,2274.43 L 4148.06,2284.21 L 4137.4,2291.95 L 4125.37,2297.31 L 4112.49,2300.05 L 4099.32,2300.05 L 4086.44,2297.31 L 4074.41,2291.95 L 4063.76,2284.21 L 4054.94,2274.43 L 4048.36,2263.02 L 4044.29,2250.5 L 4042.91,2237.4 z " style="fill-opacity:1.000000;fill:rgb(134,33,43);stroke:rgb(0,0,0);stroke-width:2"/></g>
<g fill-rule="evenodd"><path d="M 4242.91,1637.4 L 4242.91,1574.41 L 4244.29,1561.31 L 4248.36,1548.79 L 4254.94,1537.38 L 4263.76,1527.6 L 4274.41,1519.86 L 4286.44,1514.5 L 4299.32,1511.76 L 4312.49,1511.76 L 4325.37,1514.5 L 4337.4,1519.86 L 4348.06,1527.6 L 4356.87,1537.38 L 4363.45,1548.79 L 4367.52,1561.31 L 4368.9,1574.41 L 4368.9,1637.4 L 4367.52,1650.5 L 4363.45,1663.02 L 4356.87,1674.43 L 4348.06,1684.21 L 4337.4,1691.95 L 4325.37,1697.31 L 4312.49,1700.05 L 4299.32,1700.05 L 4286.44,1697.31 L 4274.41,1691.95 L 4263.76,1684.21 L 4254.94,1674.43 L 4248.36,1663.02 L 4244.29,1650.5 L 4242.91,1637.4 z " style="fill-opacity:1.000000;fill:rgb(170,26,85);stroke:rgb(0,0,0);stroke-width:2"/></g>
<g fill-rule="evenodd"><path d="M 4242.91,2237.4 L 4242.91,2174.41 L 4244.29,2161.31 L 4248.36,2148.79 L 4254.94,2137.38 L 4263.76,2127.6 L 4274.41,2119.86 L 4286.44,2114.5 L 4299.32,2111.76 L 4312.49,2111.76 L 4325.37,2114.5 L 4337.4,2119.86 L 4348.06,2127.6 L 4356.87,2137.38 L 4363.45,2148.79 L 4367.52,2161.31 L 4368.9,2174.41 L 4368.9,2237.4 L 4367.52,2250.5 L 4363.45,2263.02 L 4356.87,2274.43 L 4348.06,2284.21 L 4337.4,2291.95 L 4325.37,2297.31 L 4312.49,2300.05 L 4299.32,2300.05 L 4286.44,2297.31 L 4274.41,2291.95 L 4263.76,2284.21 L 4254.94,2274.43 L 4248.36,2263.02 L 4244.29,2250.5 L 4242.91,2237.4 z " style="fill-opacity:1.000000;fill:rgb(162,190,112);stroke:rgb(0,0,0);stroke-width:2"/></g>
<g fill-rule="evenodd"><path d="M 4042.91,1637.4 L 4042.91,1574.41 L 4044.29,1561.31 L 4048.36,1548.79 L 4054.94,1537.38 L 4063.76,1527.6 L 4074.41,1519.86 L 4086.44,1514.5 L 4099.32,1511.76 L 4112.49,1511.76 L 4125.37,1514.5 L 4137.4,1519.86 L 4148.06,1527.6 L 4156.87,1537.38 L 4163.45,1548.79 L 4167.52,1561.31 L 4168.9,1574.41 L 4168.9,1637.4 L 4167.52,1650.5 L 4163.45,1663.02 L 4156.87,1674.43 L 4148.06,1684.21 L 4137.4,1691.95 L 4125.37,1697.31 L 4112.49,1700.05 L 4099.32,1700.05 L 4086.44,1697.31 L 4074.41,1691.95 L 4063.76,1684.21 L 4054.94,1674.43 L 4048.36,1663.02 L 4044.29,1650.5 L 4042.91,1637.4 z " style="fill-opacity:1.000000;fill:rgb(181,115,59);stroke:rgb(0,0,0);stroke-width:2"/></g>
<g fill-rule="evenodd"><path d="M 4442.91,2237.4 L 4442.91,2174.41 L 4444.29,2161.31 L 4448.36,2148.79 L 4454.94,2137.38 L 4463.76,2127.6 L 4474.41,2119.86 L 4486.44,2114.5 L 4499.32,2111.76 L 4512.49,2111.76 L 4525.37,2114.5 L 4537.4,2119.86 L 4548.06,2127.6 L 4556.87,2137.38 L 4563.45,2148.79 L 4567.52,2161.31 L 4568.9,2174.41 L 4568.9,2237.4 L 4567.52,2250.5 L 4563.45,2263.02 L 4556.87,2274.43 L 4548.06,2284.21 L 4537.4,2291.95 L 4525.37,2297.31 L 4512.49,2300.05 L 4499.32,2300.05 L 4486.44,2297.31 L 4474.41,2291.95 L 4463.76,2284.21 L 4454.94,2274.43 L 4448.36,2263.02 L 4444.29,2250.5 L 4442.91,2237.4 z " style="fill-opacity:1.000000;fill:rgb(4,92,211);stroke:rgb(0,0,0);stroke-width:2"/></g>
<g fill-rule="evenodd"><path d="M 584.646,2605.91 L 582.925,2622.28 L 577.838,2637.93 L 569.608,2652.19 L 558.593,2664.42 L 545.276,2674.1 L 530.238,2680.79 L 514.136,2684.21 L 497.675,2684.21 L 481.573,2680.79 L 466.535,2674.1 L 453.218,2664.42 L 442.203,2652.19 L 433.973,2637.93 L 428.886,2622.28 L 427.165,2605.91 L 428.886,2589.53 L 433.973,2573.88 L 442.203,2559.62 L 453.218,2547.39 L 466.535,2537.71 L 481.573,2531.02 L 497.675,2527.6 L 514.136,2527.6 L 530.238,2531.02 L 545.276,2537.71 L 558.593,2547.39 L 569.608,2559.62 L 577.838,2573.88 L 582.925,2589.53 L 584.646,2605.91 z " style="fill-opacity:1.000000;fill:rgb(54,148,179);stroke:rgb(0,0,0);stroke-width:2"/></g>
<g fill-rule="evenodd"><path d="M 1384.65,2605.91 L 1382.93,2622.28 L 1377.84,2637.93 L 1369.61,2652.19 L 1358.59,2664.42 L 1345.28,2674.1 L 1330.24,2680.79 L 1314.14,2684.21 L 1297.67,2684.21 L 1281.57,2680.79 L 1266.54,2674.1 L 1253.22,2664.42 L 1242.2,2652.19 L 1233.97,2637.93 L 1228.89,2622.28 L 1227.17,2605.91 L 1228.89,2589.53 L 1233.97,2573.88 L 1242.2,2559.62 L 1253.22,2547.39 L 1266.54,2537.71 L 1281.57,2531.02 L 1297.67,2527.6 L 1314.14,2527.6 L 1330.24,2531.02 L 1345.28,2537.71 L 1358.59,2547.39 L 1369.61,2559.62 L 1377.84,2573.88 L 1382.93,2589.53 L 1384.65,2605.91 z " style="fill-opacity:1.000000;fill:rgb(175,226,240);stroke:rgb(0,0,0);stroke-width:2"/></g>
<g fill-rule="evenodd"><path d="M 6497.64,1205.51 L 6497.64,905.512 L 6797.64,905.512 L 6797.64,1205.51 L 6497.64,1205.51 z " style="fill-opacity:1.000000;fill:rgb(228,158,79);stroke:rgb(0,0,0);stroke-width:2"/></g>
<g fill-rule="evenodd"><path d="M 6505.51,2977.17 L 6505.51,2677.17 L 6805.51,2677.17 L 6805.51,2977.17 L 6505.51,2977.17 z " style="fill-opacity:1.000000;fill:rgb(50,21,73);stroke:rgb(0,0,0);stroke-width:2"/></g>
<g fill-rule="evenodd"><path d="M 10198.4,2969.29 L 10198.4,2669.29 L 10498.4,2669.29 L 10498.4,2969.29 L 10198.4,2969.29 z " style="fill-opacity:1.000000;fill:rgb(253,130,78);stroke:rgb(0,0,0);stroke-width:2"/></g>
<g fill-rule="evenodd"><path d="M 10198.4,1213.39 L 10198.4,913.386 L 10498.4,913.386 L 10498.4,1213.39 L 10198.4,1213.39 z " style="fill-opacity:1.000000;fill:rgb(169,8,112);stroke:rgb(0,0,0);stroke-width:2"/></g>
<g fill-rule="evenodd"><path d="M 1767.91,1221.91 L 1767.91,1101.91 L 1769.22,1089.43 L 1773.09,1077.5 L 1779.36,1066.64 L 1787.76,1057.32 L 1797.91,1049.94 L 1809.36,1044.84 L 1821.63,1042.23 L 1834.18,1042.23 L 1846.45,1044.84 L 1857.91,1049.94 L 1868.05,1057.32 L 1876.45,1066.64 L 1882.72,1077.5 L 1886.59,1089.43 L 1887.91,1101.91 L 1887.91,1221.91 L 1886.59,1234.38 L 1882.72,1246.31 L 1876.45,1257.17 L 1868.05,1266.49 L 1857.91,1273.87 L 1846.45,1278.97 L 1834.18,1281.58 L 1821.63,1281.58 L 1809.36,1278.97 L 1797.91,1273.87 L 1787.76,1266.49 L 1779.36,1257.17 L 1773.09,1246.31 L 1769.22,1234.38 L 1767.91,1221.91 z " style="fill-opacity:1.000000;fill:rgb(212,178,138);stroke:rgb(0,0,0);stroke-width:2"/></g>
<g fill-rule="evenodd"><path d="M 2123.91,1221.91 L 2123.91,1101.91 L 2125.22,1089.43 L 2129.09,1077.5 L 2135.36,1066.64 L 2143.76,1057.32 L 2153.91,1049.94 L 2165.36,1044.84 L 2177.63,1042.23 L 2190.18,1042.23 L 2202.45,1044.84 L 2213.91,1049.94 L 2224.05,1057.32 L 2232.45,1066.64 L 2238.72,1077.5 L 2242.59,1089.43 L 2243.91,1101.91 L 2243.91,1221.91 L 2242.59,1234.38 L 2238.72,1246.31 L 2232.45,1257.17 L 2224.05,1266.49 L 2213.91,1273.87 L 2202.45,1278.97 L 2190.18,1281.58 L 2177.63,1281.58 L 2165.36,1278.97 L 2153.91,1273.87 L 2143.76,1266.49 L 2135.36,1257.17 L 2129.09,1246.31 L 2125.22,1234.38 L 2123.91,1221.91 z " style="fill-opacity:1.000000;fill:rgb(41,84,72);stroke:rgb(0,0,0);stroke-width:2"/></g>
<g fill-rule="evenodd"><path d="M 1767.91,709.906 L 1767.91,589.906 L 1769.22,577.431 L 1773.09,565.501 L 1779.36,554.638 L 1787.76,545.317 L 1797.91,537.944 L 1809.36,532.842 L 1821.63,530.234 L 1834.18,530.234 L 1846.45,532.842 L 1857.91,537.944 L 1868.05,545.317 L 1876.45,554.638 L 1882.72,565.501 L 1886.59,577.431 L 1887.91,589.906 L 1887.91,709.906 L 1886.59,722.38 L 1882.72,734.31 L 1876.45,745.173 L 1868.05,754.494 L 1857.91,761.867 L 1846.45,766.969 L 1834.18,769.577 L 1821.63,769.577 L 1809.36,766.969 L 1797.91,761.867 L 1787.76,754.494 L 1779.36,745.173 L 1773.09,734.31 L 1769.22,722.38 L 1767.91,709.906 z " style="fill-opacity:1.000000;fill:rgb(154,10,188);stroke:rgb(0,0,0);stroke-width:2"/></g>
<g fill-rule="evenodd"><path d="M 2123.91,709.906 L 2123.91,589.906 L 2125.22,577.431 L 2129.09,565.501 L 2135.36,554.638 L 2143.76,545.317 L 2153.91,537.944 L 2165.36,532.842 L 2177.63,530.234 L 2190.18,530.234 L 2202.45,532.842 L 2213.91,537.944 L 2224.05,545.317 L 2232.45,554.638 L 2238.72,565.501 L 2242.59,577.431 L 2243.91,589.906 L 2243.91,709.906 L 2242.59,722.38 L 2238.72,734.31 L 2232.45,745.173 L 2224.05,754.494 L 2213.91,761.867 L 2202.45,766.969 L 2190.18,769.577 L 2177.63,769.577 L 2165.36,766.969 L 2153.91,761.867 L 2143.76,754.494 L 2135.36,745.173 L 2129.09,734.31 L 2125.22,722.38 L 2123.91,709.906 z " style="fill-opacity:1.000000;fill:rgb(213,14,24);stroke:rgb(0,0,0);stroke-width:2"/></g>
<g fill-rule="evenodd"><path d="M 10745.4,9335.41 L 10886.4,9335.41 L 10901.1,9336.95 L 10915.1,9341.5 L 10927.8,9348.87 L 10938.8,9358.73 L 10947.5,9370.66 L 10953.5,9384.12 L 10956.5,9398.54 L 10956.5,9413.27 L 10953.5,9427.69 L 10947.5,9441.16 L 10938.8,9453.08 L 10927.8,9462.94 L 10915.1,9470.31 L 10901.1,9474.86 L 10886.4,9476.41 L 10745.4,9476.41 L 10730.7,9474.86 L 10716.7,9470.31 L 10704,9462.94 L 10693,9453.08 L 10684.4,9441.16 L 10678.4,9427.69 L 10675.3,9413.27 L 10675.3,9398.54 L 10678.4,9384.12 L 10684.4,9370.66 L 10693,9358.73 L 10704,9348.87 L 10716.7,9341.5 L 10730.7,9336.95 L 10745.4,9335.41 z " style="fill-opacity:1.000000;fill:rgb(168,68,172);stroke:rgb(0,0,0);stroke-width:2"/></g>
<g fill-rule="evenodd"><path d="M 10745.4,8935.41 L 10886.4,8935.41 L 10901.1,8936.95 L 10915.1,8941.5 L 10927.8,8948.87 L 10938.8,8958.73 L 10947.5,8970.66 L 10953.5,8984.12 L 10956.5,8998.54 L 10956.5,9013.27 L 10953.5,9027.69 L 10947.5,9041.16 L 10938.8,9053.08 L 10927.8,9062.94 L 10915.1,9070.31 L 10901.1,9074.86 L 10886.4,9076.41 L 10745.4,9076.41 L 10730.7,9074.86 L 10716.7,9070.31 L 10704,9062.94 L 10693,9053.08 L 10684.4,9041.16 L 10678.4,9027.69 L 10675.3,9013.27 L 10675.3,8998.54 L 10678.4,8984.12 L 10684.4,8970.66 L 10693,8958.73 L 10704,8948.87 L 10716.7,8941.5 L 10730.7,8936.95 L 10745.4,8935.41 z " style="fill-opacity:1.000000;fill:rgb(91,243,142);stroke:rgb(0,0,0);stroke-width:2"/></g>
<g fill-rule="evenodd"><path d="M 10379.9,4731.89 L 10379.9,4479.92 L 10631.9,4479.92 L 10631.9,4731.89 L 10379.9,4731.89 z " style="fill-opacity:1.000000;fill:rgb(76,215,45);stroke:rgb(0,0,0);stroke-width:2"/></g>
<g fill-rule="evenodd"><path d="M 10631.9,3405.91 L 10629.1,3432.1 L 10621,3457.15 L 10607.8,3479.96 L 10590.2,3499.53 L 10568.9,3515.01 L 10544.8,3525.72 L 10519.1,3531.2 L 10492.7,3531.2 L 10467,3525.72 L 10442.9,3515.01 L 10421.6,3499.53 L 10404,3479.96 L 10390.8,3457.15 L 10382.7,3432.1 L 10379.9,3405.91 L 10382.7,3379.71 L 10390.8,3354.66 L 10404,3331.85 L 10421.6,3312.28 L 10442.9,3296.8 L 10467,3286.09 L 10492.7,3280.61 L 10519.1,3280.61 L 10544.8,3286.09 L 10568.9,3296.8 L 10590.2,3312.28 L 10607.8,3331.85 L 10621,3354.66 L 10629.1,3379.71 L 10631.9,3405.91 z " style="fill-opacity:1.000000;fill:rgb(155,9,66);stroke:rgb(0,0,0);stroke-width:2"/></g>
<g fill-rule="evenodd"><path d="M 10631.9,6205.91 L 10629.1,6232.1 L 10621,6257.15 L 10607.8,6279.96 L 10590.2,6299.53 L 10568.9,6315.01 L 10544.8,6325.72 L 10519.1,6331.2 L 10492.7,6331.2 L 10467,6325.72 L 10442.9,6315.01 L 10421.6,6299.53 L 10404,6279.96 L 10390.8,6257.15 L 10382.7,6232.1 L 10379.9,6205.91 L 10382.7,6179.71 L 10390.8,6154.66 L 10404,6131.85 L 10421.6,6112.28 L 10442.9,6096.8 L 10467,6086.09 L 10492.7,6080.61 L 10519.1,6080.61 L 10544.8,6086.09 L 10568.9,6096.8 L 10590.2,6112.28 L 10607.8,6131.85 L 10621,6154.66 L 10629.1,6179.71 L 10631.9,6205.91 z " style="fill-opacity:1.000000;fill:rgb(229,6,196);stroke:rgb(0,0,0);stroke-width:2"/></g>
<g fill-rule="evenodd"><path d="M 10379.9,5131.89 L 10379.9,4879.92 L 10631.9,4879.92 L 10631.9,5131.89 L 10379.9,5131.89 z " style="fill-opacity:1.000000;fill:rgb(51,175,205);stroke:rgb(0,0,0);stroke-width:2"/></g>
<g fill-rule="evenodd"><path d="M 4135.41,826.406 L 4135.41,685.406 L 4136.95,670.748 L 4141.5,656.731 L 4148.87,643.967 L 4158.73,633.014 L 4170.66,624.351 L 4184.12,618.356 L 4198.54,615.292 L 4213.27,615.292 L 4227.69,618.356 L 4241.16,624.351 L 4253.08,633.014 L 4262.94,643.967 L 4270.31,656.731 L 4274.86,670.748 L 4276.41,685.406 L 4276.41,826.406 L 4274.86,841.063 L 4270.31,855.08 L 4262.94,867.844 L 4253.08,878.797 L 4241.16,887.46 L 4227.69,893.455 L 4213.27,896.519 L 4198.54,896.519 L 4184.12,893.455 L 4170.66,887.46 L 4158.73,878.797 L 4148.87,867.844 L 4141.5,855.08 L 4136.95,841.063 L 4135.41,826.406 z " style="fill-opacity:1.000000;fill:rgb(163,132,127);stroke:rgb(0,0,0);stroke-width:2"/></g>
<g fill-rule="evenodd"><path d="M 4535.41,826.406 L 4535.41,685.406 L 4536.95,670.748 L 4541.5,656.731 L 4548.87,643.967 L 4558.73,633.014 L 4570.66,624.351 L 4584.12,618.356 L 4598.54,615.292 L 4613.27,615.292 L 4627.69,618.356 L 4641.16,624.351 L 4653.08,633.014 L 4662.94,643.967 L 4670.31,656.731 L 4674.86,670.748 L 4676.41,685.406 L 4676.41,826.406 L 4674.86,841.063 L 4670.31,855.08 L 4662.94,867.844 L 4653.08,878.797 L 4641.16,887.46 L 4627.69,893.455 L 4613.27,896.519 L 4598.54,896.519 L 4584.12,893.455 L 4570.66,887.46 L 4558.73,878.797 L 4548.87,867.844 L 4541.5,855.08 L 4536.95,841.063 L 4535.41,826.406 z " style="fill-opacity:1.000000;fill:rgb(45,173,212);stroke:rgb(0,0,0);stroke-width:2"/></g>
<g fill-rule="evenodd"><path d="M 797.406,1535.41 L 938.406,1535.41 L 953.063,1536.95 L 967.08,1541.5 L 979.844,1548.87 L 990.797,1558.73 L 999.46,1570.66 L 1005.45,1584.12 L 1008.52,1598.54 L 1008.52,1613.27 L 1005.45,1627.69 L 999.46,1641.16 L 990.797,1653.08 L 979.844,1662.94 L 967.08,1670.31 L 953.063,1674.86 L 938.406,1676.41 L 797.406,1676.41 L 782.748,1674.86 L 768.731,1670.31 L 755.967,1662.94 L 745.014,1653.08 L 736.351,1641.16 L 730.356,1627.69 L 727.292,1613.27 L 727.292,1598.54 L 730.356,1584.12 L 736.351,1570.66 L 745.014,1558.73 L 755.967,1548.87 L 768.731,1541.5 L 782.748,1536.95 L 797.406,1535.41 z " style="fill-opacity:1.000000;fill:rgb(118,71,222);stroke:rgb(0,0,0);stroke-width:2"/></g>
<g fill-rule="evenodd"><path d="M 797.406,1935.41 L 938.406,1935.41 L 953.063,1936.95 L 967.08,1941.5 L 979.844,1948.87 L 990.797,1958.73 L 999.46,1970.66 L 1005.45,1984.12 L 1008.52,1998.54 L 1008.52,2013.27 L 1005.45,2027.69 L 999.46,2041.16 L 990.797,2053.08 L 979.844,2062.94 L 967.08,2070.31 L 953.063,2074.86 L 938.406,2076.41 L 797.406,2076.41 L 782.748,2074.86 L 768.731,2070.31 L 755.967,2062.94 L 745.014,2053.08 L 736.351,2041.16 L 730.356,2027.69 L 727.292,2013.27 L 727.292,1998.54 L 730.356,1984.12 L 736.351,1970.66 L 745.014,1958.73 L 755.967,1948.87 L 768.731,1941.5 L 782.748,1936.95 L 797.406,1935.41 z " style="fill-opacity:1.000000;fill:rgb(50,28,236);stroke:rgb(0,0,0);stroke-width:2"/></g>
<g fill-rule="evenodd"><path d="M 5935.41,826.406 L 5935.41,685.406 L 5936.95,670.748 L 5941.5,656.731 L 5948.87,643.967 L 5958.73,633.014 L 5970.66,624.351 L 5984.12,618.356 L 5998.54,615.292 L 6013.27,615.292 L 6027.69,618.356 L 6041.16,624.351 L 6053.08,633.014 L 6062.94,643.967 L 6070.31,656.731 L 6074.86,670.748 L 6076.41,685.406 L 6076.41,826.406 L 6074.86,841.063 L 6070.31,855.08 L 6062.94,867.844 L 6053.08,878.797 L 6041.16,887.46 L 6027.69,893.455 L 6013.27,896.519 L 5998.54,896.519 L 5984.12,893.455 L 5970.66,887.46 L 5958.73,878.797 L 5948.87,867.844 L 5941.5,855.08 L 5936.95,841.063 L 5935.41,826.406 z " style="fill-opacity:1.000000;fill:rgb(74,196,48);stroke:rgb(0,0,0);stroke-width:2"/></g>
<g fill-rule="evenodd"><path d="M 5535.41,826.406 L 5535.41,685.406 L 5536.95,670.748 L 5541.5,656.731 L 5548.87,643.967 L 5558.73,633.014 L 5570.66,624.351 L 5584.12,618.356 L 5598.54,615.292 L 5613.27,615.292 L 5627.69,618.356 L 5641.16,624.351 L 5653.08,633.014 L 5662.94,643.967 L 5670.31,656.731 L 5674.86,670.748 L 5676.41,685.406 L 5676.41,826.406 L 5674.86,841.063 L 5670.31,855.08 L 5662.94,867.844 L 5653.08,878.797 L 5641.16,887.46 L 5627.69,893.455 L 5613.27,896.519 L 5598.54,896.519 L 5584.12,893.455 L 5570.66,887.46 L 5558.73,878.797 L 5548.87,867.844 L 5541.5,855.08 L 5536.95,841.063 L 5535.41,826.406 z " style="fill-opacity:1.000000;fill:rgb(246,32,35);stroke:rgb(0,0,0);stroke-width:2"/></g>
<g fill-rule="evenodd"><path d="M 2985.91,705.906 L 2982.63,737.092 L 2972.94,766.916 L 2957.26,794.073 L 2936.28,817.377 L 2910.91,835.809 L 2882.26,848.564 L 2851.58,855.084 L 2820.23,855.084 L 2789.55,848.564 L 2760.91,835.809 L 2735.54,817.377 L 2714.55,794.073 L 2698.87,766.916 L 2689.18,737.092 L 2685.91,705.906 L 2689.18,674.719 L 2698.87,644.895 L 2714.55,617.738 L 2735.54,594.434 L 2760.91,576.002 L 2789.55,563.247 L 2820.23,556.727 L 2851.58,556.727 L 2882.26,563.247 L 2910.91,576.002 L 2936.28,594.434 L 2957.26,617.738 L 2972.94,644.895 L 2982.63,674.719 L 2985.91,705.906 z " style="fill-opacity:1.000000;fill:rgb(133,108,251);stroke:rgb(0,0,0);stroke-width:2"/></g>
<g fill-rule="evenodd"><path d="M 3355.91,705.906 L 3352.63,737.092 L 3342.94,766.916 L 3327.26,794.073 L 3306.28,817.377 L 3280.91,835.809 L 3252.26,848.564 L 3221.58,855.084 L 3190.23,855.084 L 3159.55,848.564 L 3130.91,835.809 L 3105.54,817.377 L 3084.55,794.073 L 3068.87,766.916 L 3059.18,737.092 L 3055.91,705.906 L 3059.18,674.719 L 3068.87,644.895 L 3084.55,617.738 L 3105.54,594.434 L 3130.91,576.002 L 3159.55,563.247 L 3190.23,556.727 L 3221.58,556.727 L 3252.26,563.247 L 3280.91,576.002 L 3306.28,594.434 L 3327.26,617.738 L 3342.94,644.895 L 3352.63,674.719 L 3355.91,705.906 z " style="fill-opacity:1.000000;fill:rgb(178,7,4);stroke:rgb(0,0,0);stroke-width:2"/></g>
<g fill-rule="evenodd"><path d="M 3725.91,705.906 L 3722.63,737.092 L 3712.94,766.916 L 3697.26,794.073 L 3676.28,817.377 L 3650.91,835.809 L 3622.26,848.564 L 3591.58,855.084 L 3560.23,855.084 L 3529.55,848.564 L 3500.91,835.809 L 3475.54,817.377 L 3454.55,794.073 L 3438.87,766.916 L 3429.18,737.092 L 3425.91,705.906 L 3429.18,674.719 L 3438.87,644.895 L 3454.55,617.738 L 3475.54,594.434 L 3500.91,576.002 L 3529.55,563.247 L 3560.23,556.727 L 3591.58,556.727 L 3622.26,563.247 L 3650.91,576.002 L 3676.28,594.434 L 3697.26,617.738 L 3712.94,644.895 L 3722.63,674.719 L 3725.91,705.906 z " style="fill-opacity:1.000000;fill:rgb(244,236,11);stroke:rgb(0,0,0);stroke-width:2"/></g>
<g fill-rule="evenodd"><path d="M 1938.98,4072.83 L 1938.98,3938.98 L 2072.83,3938.98 L 2072.83,4072.83 L 1938.98,4072.83 z " style="fill-opacity:1.000000;fill:rgb(185,32,186);stroke:rgb(0,0,0);stroke-width:2"/></g>
<g fill-rule="evenodd"><path d="M 2538.98,4072.83 L 2538.98,3938.98 L 2672.83,3938.98 L 2672.83,4072.83 L 2538.98,4072.83 z " style="fill-opacity:1.000000;fill:rgb(134,195,62);stroke:rgb(0,0,0);stroke-width:2"/></g>
<g fill-rule="evenodd"><path d="M 6543.62,5333.2 L 6622.36,5333.2 L 6634.64,5334.49 L 6646.38,5338.3 L 6657.07,5344.48 L 6666.25,5352.74 L 6673.51,5362.72 L 6678.53,5374 L 6681.09,5386.08 L 6681.09,5398.42 L 6678.53,5410.5 L 6673.51,5421.78 L 6666.25,5431.77 L 6657.07,5440.03 L 6646.38,5446.2 L 6634.64,5450.02 L 6622.36,5451.31 L 6543.62,5451.31 L 6531.34,5450.02 L 6519.6,5446.2 L 6508.91,5440.03 L 6499.74,5431.77 L 6492.48,5421.78 L 6487.46,5410.5 L 6484.89,5398.42 L 6484.89,5386.08 L 6487.46,5374 L 6492.48,5362.72 L 6499.74,5352.74 L 6508.91,5344.48 L 6519.6,5338.3 L 6531.34,5334.49 L 6543.62,5333.2 z " style="fill-opacity:1.000000;fill:rgb(5,241,236);stroke:rgb(0,0,0);stroke-width:2"/></g>
<g fill-rule="evenodd"><path d="M 6543.62,5133.2 L 6622.36,5133.2 L 6634.64,5134.49 L 6646.38,5138.3 L 6657.07,5144.48 L 6666.25,5152.74 L 6673.51,5162.72 L 6678.53,5174 L 6681.09,5186.08 L 6681.09,5198.42 L 6678.53,5210.5 L 6673.51,5221.78 L 6666.25,5231.77 L 6657.07,5240.03 L 6646.38,5246.2 L 6634.64,5250.02 L 6622.36,5251.31 L 6543.62,5251.31 L 6531.34,5250.02 L 6519.6,5246.2 L 6508.91,5240.03 L 6499.74,5231.77 L 6492.48,5221.78 L 6487.46,5210.5 L 6484.89,5198.42 L 6484.89,5186.08 L 6487.46,5174 L 6492.48,5162.72 L 6499.74,5152.74 L 6508.91,5144.48 L 6519.6,5138.3 L 6531.34,5134.49 L 6543.62,5133.2 z " style="fill-opacity:1.000000;fill:rgb(217,103,51);stroke:rgb(0,0,0);stroke-width:2"/></g>
<g fill-rule="evenodd"><path d="M 6543.62,4933.2 L 6622.36,4933.2 L 6634.64,4934.49 L 6646.38,4938.3 L 6657.07,4944.48 L 6666.25,4952.74 L 6673.51,4962.72 L 6678.53,4974 L 6681.09,4986.08 L 6681.09,4998.42 L 6678.53,5010.5 L 6673.51,5021.78 L 6666.25,5031.77 L 6657.07,5040.03 L 6646.38,5046.2 L 6634.64,5050.02 L 6622.36,5051.31 L 6543.62,5051.31 L 6531.34,5050.02 L 6519.6,5046.2 L 6508.91,5040.03 L 6499.74,5031.77 L 6492.48,5021.78 L 6487.46,5010.5 L 6484.89,4998.42 L 6484.89,4986.08 L 6487.46,4974 L 6492.48,4962.72 L 6499.74,4952.74 L 6508.91,4944.48 L 6519.6,4938.3 L 6531.34,4934.49 L 6543.62,4933.2 z " style="fill-opacity:1.000000;fill:rgb(183,153,80);stroke:rgb(0,0,0);stroke-width:2"/></g>
<g fill-rule="evenodd"><path d="M 6543.62,4733.2 L 6622.36,4733.2 L 6634.64,4734.49 L 6646.38,4738.3 L 6657.07,4744.48 L 6666.25,4752.74 L 6673.51,4762.72 L 6678.53,4774 L 6681.09,4786.08 L 6681.09,4798.42 L 6678.53,4810.5 L 6673.51,4821.78 L 6666.25,4831.77 L 6657.07,4840.03 L 6646.38,4846.2 L 6634.64,4850.02 L 6622.36,4851.31 L 6543.62,4851.31 L 6531.34,4850.02 L 6519.6,4846.2 L 6508.91,4840.03 L 6499.74,4831.77 L 6492.48,4821.78 L 6487.46,4810.5 L 6484.89,4798.42 L 6484.89,4786.08 L 6487.46,4774 L 6492.48,4762.72 L 6499.74,4752.74 L 6508.91,4744.48 L 6519.6,4738.3 L 6531.34,4734.49 L 6543.62,4733.2 z " style="fill-opacity:1.000000;fill:rgb(163,227,20);stroke:rgb(0,0,0);stroke-width:2"/></g>
<g fill-rule="evenodd"><path d="M 6543.62,4533.2 L 6622.36,4533.2 L 6634.64,4534.49 L 6646.38,4538.3 L 6657.07,4544.48 L 6666.25,4552.74 L 6673.51,4562.72 L 6678.53,4574 L 6681.09,4586.08 L 6681.09,4598.42 L 6678.53,4610.5 L 6673.51,4621.78 L 6666.25,4631.77 L 6657.07,4640.03 L 6646.38,4646.2 L 6634.64,4650.02 L 6622.36,4651.31 L 6543.62,4651.31 L 6531.34,4650.02 L 6519.6,4646.2 L 6508.91,4640.03 L 6499.74,4631.77 L 6492.48,4621.78 L 6487.46,4610.5 L 6484.89,4598.42 L 6484.89,4586.08 L 6487.46,4574 L 6492.48,4562.72 L 6499.74,4552.74 L 6508.91,4544.48 L 6519.6,4538.3 L 6531.34,4534.49 L 6543.62,4533.2 z " style="fill-opacity:1.000000;fill:rgb(211,217,52);stroke:rgb(0,0,0);stroke-width:2"/></g>
<g fill-rule="evenodd"><path d="M 6543.62,4333.2 L 6622.36,4333.2 L 6634.64,4334.49 L 6646.38,4338.3 L 6657.07,4344.48 L 6666.25,4352.74 L 6673.51,4362.72 L 6678.53,4374 L 6681.09,4386.08 L 6681.09,4398.42 L 6678.53,4410.5 L 6673.51,4421.78 L 6666.25,4431.77 L 6657.07,4440.03 L 6646.38,4446.2 L 6634.64,4450.02 L 6622.36,4451.31 L 6543.62,4451.31 L 6531.34,4450.02 L 6519.6,4446.2 L 6508.91,4440.03 L 6499.74,4431.77 L 6492.48,4421.78 L 6487.46,4410.5 L 6484.89,4398.42 L 6484.89,4386.08 L 6487.46,4374 L 6492.48,4362.72 L 6499.74,4352.74 L 6508.91,4344.48 L 6519.6,4338.3 L 6531.34,4334.49 L 6543.62,4333.2 z " style="fill-opacity:1.000000;fill:rgb(247,94,160);stroke:rgb(0,0,0);stroke-width:2"/></g>
<g fill-rule="evenodd"><path d="M 6543.62,4133.2 L 6622.36,4133.2 L 6634.64,4134.49 L 6646.38,4138.3 L 6657.07,4144.48 L 6666.25,4152.74 L 6673.51,4162.72 L 6678.53,4174 L 6681.09,4186.08 L 6681.09,4198.42 L 6678.53,4210.5 L 6673.51,4221.78 L 6666.25,4231.77 L 6657.07,4240.03 L 6646.38,4246.2 L 6634.64,4250.02 L 6622.36,4251.31 L 6543.62,4251.31 L 6531.34,4250.02 L 6519.6,4246.2 L 6508.91,4240.03 L 6499.74,4231.77 L 6492.48,4221.78 L 6487.46,4210.5 L 6484.89,4198.42 L 6484.89,4186.08 L 6487.46,4174 L 6492.48,4162.72 L 6499.74,4152.74 L 6508.91,4144.48 L 6519.6,4138.3 L 6531.34,4134.49 L 6543.62,4133.2 z " style="fill-opacity:1.000000;fill:rgb(242,16,168);stroke:rgb(0,0,0);stroke-width:2"/></g>
<g fill-rule="evenodd"><path d="M 6543.62,3933.2 L 6622.36,3933.2 L 6634.64,3934.49 L 6646.38,3938.3 L 6657.07,3944.48 L 6666.25,3952.74 L 6673.51,3962.72 L 6678.53,3974 L 6681.09,3986.08 L 6681.09,3998.42 L 6678.53,4010.5 L 6673.51,4021.78 L 6666.25,4031.77 L 6657.07,4040.03 L 6646.38,4046.2 L 6634.64,4050.02 L 6622.36,4051.31 L 6543.62,4051.31 L 6531.34,4050.02 L 6519.6,4046.2 L 6508.91,4040.03 L 6499.74,4031.77 L 6492.48,4021.78 L 6487.46,4010.5 L 6484.89,3998.42 L 6484.89,3986.08 L 6487.46,3974 L 6492.48,3962.72 L 6499.74,3952.74 L 6508.91,3944.48 L 6519.6,3938.3 L 6531.34,3934.49 L 6543.62,3933.2 z " style="fill-opacity:1.000000;fill:rgb(246,5,148);stroke:rgb(0,0,0);stroke-width:2"/></g>
<g fill-rule="evenodd"><path d="M 9212.91,5133.2 L 9291.65,5133.2 L 9303.93,5134.49 L 9315.67,5138.3 L 9326.37,5144.48 L 9335.54,5152.74 L 9342.8,5162.72 L 9347.82,5174 L 9350.39,5186.08 L 9350.39,5198.42 L 9347.82,5210.5 L 9342.8,5221.78 L 9335.54,5231.77 L 9326.37,5240.03 L 9315.67,5246.2 L 9303.93,5250.02 L 9291.65,5251.31 L 9212.91,5251.31 L 9200.64,5250.02 L 9188.89,5246.2 L 9178.2,5240.03 L 9169.03,5231.77 L 9161.77,5221.78 L 9156.75,5210.5 L 9154.18,5198.42 L 9154.18,5186.08 L 9156.75,5174 L 9161.77,5162.72 L 9169.03,5152.74 L 9178.2,5144.48 L 9188.89,5138.3 L 9200.64,5134.49 L 9212.91,5133.2 z " style="fill-opacity:1.000000;fill:rgb(1,190,180);stroke:rgb(0,0,0);stroke-width:2"/></g>
<g fill-rule="evenodd"><path d="M 9212.91,4933.2 L 9291.65,4933.2 L 9303.93,4934.49 L 9315.67,4938.3 L 9326.37,4944.48 L 9335.54,4952.74 L 9342.8,4962.72 L 9347.82,4974 L 9350.39,4986.08 L 9350.39,4998.42 L 9347.82,5010.5 L 9342.8,5021.78 L 9335.54,5031.77 L 9326.37,5040.03 L 9315.67,5046.2 L 9303.93,5050.02 L 9291.65,5051.31 L 9212.91,5051.31 L 9200.64,5050.02 L 9188.89,5046.2 L 9178.2,5040.03 L 9169.03,5031.77 L 9161.77,5021.78 L 9156.75,5010.5 L 9154.18,4998.42 L 9154.18,4986.08 L 9156.75,4974 L 9161.77,4962.72 L 9169.03,4952.74 L 9178.2,4944.48 L 9188.89,4938.3 L 9200.64,4934.49 L 9212.91,4933.2 z " style="fill-opacity:1.000000;fill:rgb(188,68,120);stroke:rgb(0,0,0);stroke-width:2"/></g>
<g fill-rule="evenodd"><path d="M 9212.91,4733.2 L 9291.65,4733.2 L 9303.93,4734.49 L 9315.67,4738.3 L 9326.37,4744.48 L 9335.54,4752.74 L 9342.8,4762.72 L 9347.82,4774 L 9350.39,4786.08 L 9350.39,4798.42 L 9347.82,4810.5 L 9342.8,4821.78 L 9335.54,4831.77 L 9326.37,4840.03 L 9315.67,4846.2 L 9303.93,4850.02 L 9291.65,4851.31 L 9212.91,4851.31 L 9200.64,4850.02 L 9188.89,4846.2 L 9178.2,4840.03 L 9169.03,4831.77 L 9161.77,4821.78 L 9156.75,4810.5 L 9154.18,4798.42 L 9154.18,4786.08 L 9156.75,4774 L 9161.77,4762.72 L 9169.03,4752.74 L 9178.2,4744.48 L 9188.89,4738.3 L 9200.64,4734.49 L 9212.91,4733.2 z " style="fill-opacity:1.000000;fill:rgb(250,73,105);stroke:rgb(0,0,0);stroke-width:2"/></g>
<g fill-rule="evenodd"><path d="M 9212.91,4533.2 L 9291.65,4533.2 L 9303.93,4534.49 L 9315.67,4538.3 L 9326.37,4544.48 L 9335.54,4552.74 L 9342.8,4562.72 L 9347.82,4574 L 9350.39,4586.08 L 9350.39,4598.42 L 9347.82,4610.5 L 9342.8,4621.78 L 9335.54,4631.77 L 9326.37,4640.03 L 9315.67,4646.2 L 9303.93,4650.02 L 9291.65,4651.31 L 9212.91,4651.31 L 9200.64,4650.02 L 9188.89,4646.2 L 9178.2,4640.03 L 9169.03,4631.77 L 9161.77,4621.78 L 9156.75,4610.5 L 9154.18,4598.42 L 9154.18,4586.08 L 9156.75,4574 L 9161.77,4562.72 L 9169.03,4552.74 L 9178.2,4544.48 L 9188.89,4538.3 L 9200.64,4534.49 L 9212.91,4533.2 z " style="fill-opacity:1.000000;fill:rgb(230,35,208);stroke:rgb(0,0,0);stroke-width:2"/></g>
<g fill-rule="evenodd"><path d="M 9212.91,4333.2 L 9291.65,4333.2 L 9303.93,4334.49 L 9315.67,4338.3 L 9326.37,4344.48 L 9335.54,4352.74 L 9342.8,4362.72 L 9347.82,4374 L 9350.39,4386.08 L 9350.39,4398.42 L 9347.82,4410.5 L 9342.8,4421.78 L 9335.54,4431.77 L 9326.37,4440.03 L 9315.67,4446.2 L 9303.93,4450.02 L 9291.65,4451.31 L 9212.91,4451.31 L 9200.64,4450.02 L 9188.89,4446.2 L 9178.2,4440.03 L 9169.03,4431.77 L 9161.77,4421.78 L 9156.75,4410.5 L 9154.18,4398.42 L 9154.18,4386.08 L 9156.75,4374 L 9161.77,4362.72 L 9169.03,4352.74 L 9178.2,4344.48 L 9188.89,4338.3 L 9200.64,4334.49 L 9212.91,4333.2 z " style="fill-opacity:1.000000;fill:rgb(26,218,105);stroke:rgb(0,0,0);stroke-width:2"/></g>
<g fill-rule="evenodd"><path d="M 9212.91,4133.2 L 9291.65,4133.2 L 9303.93,4134.49 L 9315.67,4138.3 L 9326.37,4144.48 L 9335.54,4152.74 L 9342.8,4162.72 L 9347.82,4174 L 9350.39,4186.08 L 9350.39,4198.42 L 9347.82,4210.5 L 9342.8,4221.78 L 9335.54,4231.77 L 9326.37,4240.03 L 9315.67,4246.2 L 9303.93,4250.02 L 9291.65,4251.31 L 9212.91,4251.31 L 9200.64,4250.02 L 9188.89,4246.2 L 9178.2,4240.03 L 9169.03,4231.77 L 9161.77,4221.78 L 9156.75,4210.5 L 9154.18,4198.42 L 9154.18,4186.08 L 9156.75,4174 L 9161.77,4162.72 L 9169.03,4152.74 L 9178.2,4144.48 L 9188.89,4138.3 L 9200.64,4134.49 L 9212.91,4133.2 z " style="fill-opacity:1.000000;fill:rgb(106,126,76);stroke:rgb(0,0,0);stroke-width:2"/></g>
<g fill-rule="evenodd"><path d="M 6084.65,9705.91 L 6082.93,9722.28 L 6077.84,9737.93 L 6069.61,9752.19 L 6058.59,9764.42 L 6045.28,9774.1 L 6030.24,9780.79 L 6014.14,9784.21 L 5997.67,9784.21 L 5981.57,9780.79 L 5966.54,9774.1 L 5953.22,9764.42 L 5942.2,9752.19 L 5933.97,9737.93 L 5928.89,9722.28 L 5927.17,9705.91 L 5928.89,9689.53 L 5933.97,9673.88 L 5942.2,9659.62 L 5953.22,9647.39 L 5966.54,9637.71 L 5981.57,9631.02 L 5997.67,9627.6 L 6014.14,9627.6 L 6030.24,9631.02 L 6045.28,9637.71 L 6058.59,9647.39 L 6069.61,9659.62 L 6077.84,9673.88 L 6082.93,9689.53 L 6084.65,9705.91 z " style="fill-opacity:1.000000;fill:rgb(126,81,37);stroke:rgb(0,0,0);stroke-width:2"/></g>
<g fill-rule="evenodd"><path d="M 6527.17,9784.65 L 6527.17,9627.17 L 6684.65,9627.17 L 6684.65,9784.65 L 6527.17,9784.65 z " style="fill-opacity:1.000000;fill:rgb(179,72,132);stroke:rgb(0,0,0);stroke-width:2"/></g>
<g fill-rule="evenodd"><path d="M 6927.17,8384.65 L 6927.17,8227.17 L 7084.65,8227.17 L 7084.65,8384.65 L 6927.17,8384.65 z " style="fill-opacity:1.000000;fill:rgb(83,58,148);stroke:rgb(0,0,0);stroke-width:2"/></g>
<g fill-rule="evenodd"><path d="M 7084.65,8905.91 L 7082.93,8922.28 L 7077.84,8937.93 L 7069.61,8952.19 L 7058.59,8964.42 L 7045.28,8974.1 L 7030.24,8980.79 L 7014.14,8984.21 L 6997.67,8984.21 L 6981.57,8980.79 L 6966.54,8974.1 L 6953.22,8964.42 L 6942.2,8952.19 L 6933.97,8937.93 L 6928.89,8922.28 L 6927.17,8905.91 L 6928.89,8889.53 L 6933.97,8873.88 L 6942.2,8859.62 L 6953.22,8847.39 L 6966.54,8837.71 L 6981.57,8831.02 L 6997.67,8827.6 L 7014.14,8827.6 L 7030.24,8831.02 L 7045.28,8837.71 L 7058.59,8847.39 L 7069.61,8859.62 L 7077.84,8873.88 L 7082.93,8889.53 L 7084.65,8905.91 z " style="fill-opacity:1.000000;fill:rgb(251,49,153);stroke:rgb(0,0,0);stroke-width:2"/></g>
<g fill-rule="evenodd"><path d="M 8424.72,8203.94 L 8422.14,8228.49 L 8414.51,8251.98 L 8402.17,8273.36 L 8385.65,8291.71 L 8365.67,8306.22 L 8343.11,8316.27 L 8318.96,8321.4 L 8294.27,8321.4 L 8270.12,8316.27 L 8247.56,8306.22 L 8227.58,8291.71 L 8211.06,8273.36 L 8198.72,8251.98 L 8191.08,8228.49 L 8188.5,8203.94 L 8191.08,8179.38 L 8198.72,8155.9 L 8211.06,8134.51 L 8227.58,8116.16 L 8247.56,8101.65 L 8270.12,8091.61 L 8294.27,8086.47 L 8318.96,8086.47 L 8343.11,8091.61 L 8365.67,8101.65 L 8385.65,8116.16 L 8402.17,8134.51 L 8414.51,8155.9 L 8422.14,8179.38 L 8424.72,8203.94 z " style="fill-opacity:1.000000;fill:rgb(144,50,87);stroke:rgb(0,0,0);stroke-width:2"/></g>
<g fill-rule="evenodd"><path d="M 7763.31,8203.94 L 7760.73,8228.49 L 7753.1,8251.98 L 7740.75,8273.36 L 7724.23,8291.71 L 7704.25,8306.22 L 7681.69,8316.27 L 7657.54,8321.4 L 7632.85,8321.4 L 7608.7,8316.27 L 7586.14,8306.22 L 7566.17,8291.71 L 7549.64,8273.36 L 7537.3,8251.98 L 7529.67,8228.49 L 7527.09,8203.94 L 7529.67,8179.38 L 7537.3,8155.9 L 7549.64,8134.51 L 7566.17,8116.16 L 7586.14,8101.65 L 7608.7,8091.61 L 7632.85,8086.47 L 7657.54,8086.47 L 7681.69,8091.61 L 7704.25,8101.65 L 7724.23,8116.16 L 7740.75,8134.51 L 7753.1,8155.9 L 7760.73,8179.38 L 7763.31,8203.94 z " style="fill-opacity:1.000000;fill:rgb(68,238,155);stroke:rgb(0,0,0);stroke-width:2"/></g>
<g fill-rule="evenodd"><path d="M 2484.65,8505.91 L 2482.93,8522.28 L 2477.84,8537.93 L 2469.61,8552.19 L 2458.59,8564.42 L 2445.28,8574.1 L 2430.24,8580.79 L 2414.14,8584.21 L 2397.67,8584.21 L 2381.57,8580.79 L 2366.54,8574.1 L 2353.22,8564.42 L 2342.2,8552.19 L 2333.97,8537.93 L 2328.89,8522.28 L 2327.17,8505.91 L 2328.89,8489.53 L 2333.97,8473.88 L 2342.2,8459.62 L 2353.22,8447.39 L 2366.54,8437.71 L 2381.57,8431.02 L 2397.67,8427.6 L 2414.14,8427.6 L 2430.24,8431.02 L 2445.28,8437.71 L 2458.59,8447.39 L 2469.61,8459.62 L 2477.84,8473.88 L 2482.93,8489.53 L 2484.65,8505.91 z " style="fill-opacity:1.000000;fill:rgb(188,233,229);stroke:rgb(0,0,0);stroke-width:2"/></g>
<g fill-rule="evenodd"><path d="M 1484.65,8505.91 L 1482.93,8522.28 L 1477.84,8537.93 L 1469.61,8552.19 L 1458.59,8564.42 L 1445.28,8574.1 L 1430.24,8580.79 L 1414.14,8584.21 L 1397.67,8584.21 L 1381.57,8580.79 L 1366.54,8574.1 L 1353.22,8564.42 L 1342.2,8552.19 L 1333.97,8537.93 L 1328.89,8522.28 L 1327.17,8505.91 L 1328.89,8489.53 L 1333.97,8473.88 L 1342.2,8459.62 L 1353.22,8447.39 L 1366.54,8437.71 L 1381.57,8431.02 L 1397.67,8427.6 L 1414.14,8427.6 L 1430.24,8431.02 L 1445.28,8437.71 L 1458.59,8447.39 L 1469.61,8459.62 L 1477.84,8473.88 L 1482.93,8489.53 L 1484.65,8505.91 z " style="fill-opacity:1.000000;fill:rgb(37,207,8);stroke:rgb(0,0,0);stroke-width:2"/></g>
<g fill-rule="evenodd"><path d="M 3799.94,8256.61 L 3799.94,8099.13 L 3957.42,8099.13 L 3957.42,8256.61 L 3799.94,8256.61 z " style="fill-opacity:1.000000;fill:rgb(245,233,226);stroke:rgb(0,0,0);stroke-width:2"/></g>
<g fill-rule="evenodd"><path d="M 3357.42,8177.87 L 3355.7,8194.25 L 3350.61,8209.9 L 3342.38,8224.16 L 3331.36,8236.39 L 3318.05,8246.06 L 3303.01,8252.76 L 3286.91,8256.18 L 3270.45,8256.18 L 3254.35,8252.76 L 3239.31,8246.06 L 3225.99,8236.39 L 3214.98,8224.16 L 3206.74,8209.9 L 3201.66,8194.25 L 3199.94,8177.87 L 3201.66,8161.5 L 3206.74,8145.85 L 3214.98,8131.59 L 3225.99,8119.36 L 3239.31,8109.68 L 3254.35,8102.99 L 3270.45,8099.57 L 3286.91,8099.57 L 3303.01,8102.99 L 3318.05,8109.68 L 3331.36,8119.36 L 3342.38,8131.59 L 3350.61,8145.85 L 3355.7,8161.5 L 3357.42,8177.87 z " style="fill-opacity:1.000000;fill:rgb(94,83,96);stroke:rgb(0,0,0);stroke-width:2"/></g>
<g fill-rule="evenodd"><path d="M 629.165,6990.65 L 629.165,6833.17 L 786.646,6833.17 L 786.646,6990.65 L 629.165,6990.65 z " style="fill-opacity:1.000000;fill:rgb(170,210,178);stroke:rgb(0,0,0);stroke-width:2"/></g>
<g fill-rule="evenodd"><path d="M 586.646,6911.91 L 584.925,6928.28 L 579.838,6943.93 L 571.608,6958.19 L 560.593,6970.42 L 547.276,6980.1 L 532.238,6986.79 L 516.136,6990.21 L 499.675,6990.21 L 483.573,6986.79 L 468.535,6980.1 L 455.218,6970.42 L 444.203,6958.19 L 435.973,6943.93 L 430.886,6928.28 L 429.165,6911.91 L 430.886,6895.53 L 435.973,6879.88 L 444.203,6865.62 L 455.218,6853.39 L 468.535,6843.71 L 483.573,6837.02 L 499.675,6833.6 L 516.136,6833.6 L 532.238,6837.02 L 547.276,6843.71 L 560.593,6853.39 L 571.608,6865.62 L 579.838,6879.88 L 584.925,6895.53 L 586.646,6911.91 z " style="fill-opacity:1.000000;fill:rgb(208,133,250);stroke:rgb(0,0,0);stroke-width:2"/></g>
<g fill-rule="evenodd"><path d="M 2943.42,8509.92 L 2941.7,8526.29 L 2936.61,8541.95 L 2928.38,8556.2 L 2917.36,8568.44 L 2904.05,8578.11 L 2889.01,8584.81 L 2872.91,8588.23 L 2856.45,8588.23 L 2840.35,8584.81 L 2825.31,8578.11 L 2811.99,8568.44 L 2800.98,8556.2 L 2792.74,8541.95 L 2787.66,8526.29 L 2785.94,8509.92 L 2787.66,8493.55 L 2792.74,8477.89 L 2800.98,8463.64 L 2811.99,8451.41 L 2825.31,8441.73 L 2840.35,8435.03 L 2856.45,8431.61 L 2872.91,8431.61 L 2889.01,8435.03 L 2904.05,8441.73 L 2917.36,8451.41 L 2928.38,8463.64 L 2936.61,8477.89 L 2941.7,8493.55 L 2943.42,8509.92 z " style="fill-opacity:1.000000;fill:rgb(84,216,53);stroke:rgb(0,0,0);stroke-width:2"/></g>
<g fill-rule="evenodd"><path d="M 2943.42,9297.32 L 2941.7,9313.69 L 2936.61,9329.35 L 2928.38,9343.61 L 2917.36,9355.84 L 2904.05,9365.51 L 2889.01,9372.21 L 2872.91,9375.63 L 2856.45,9375.63 L 2840.35,9372.21 L 2825.31,9365.51 L 2811.99,9355.84 L 2800.98,9343.61 L 2792.74,9329.35 L 2787.66,9313.69 L 2785.94,9297.32 L 2787.66,9280.95 L 2792.74,9265.3 L 2800.98,9251.04 L 2811.99,9238.81 L 2825.31,9229.13 L 2840.35,9222.44 L 2856.45,9219.01 L 2872.91,9219.01 L 2889.01,9222.44 L 2904.05,9229.13 L 2917.36,9238.81 L 2928.38,9251.04 L 2936.61,9265.3 L 2941.7,9280.95 L 2943.42,9297.32 z " style="fill-opacity:1.000000;fill:rgb(232,212,102);stroke:rgb(0,0,0);stroke-width:2"/></g>
<g fill-rule="evenodd"><path d="M 4384.65,8218.5 L 4382.93,8234.87 L 4377.84,8250.53 L 4369.61,8264.79 L 4358.59,8277.02 L 4345.28,8286.69 L 4330.24,8293.39 L 4314.14,8296.81 L 4297.67,8296.81 L 4281.57,8293.39 L 4266.54,8286.69 L 4253.22,8277.02 L 4242.2,8264.79 L 4233.97,8250.53 L 4228.89,8234.87 L 4227.17,8218.5 L 4228.89,8202.13 L 4233.97,8186.48 L 4242.2,8172.22 L 4253.22,8159.99 L 4266.54,8150.31 L 4281.57,8143.62 L 4297.67,8140.2 L 4314.14,8140.2 L 4330.24,8143.62 L 4345.28,8150.31 L 4358.59,8159.99 L 4369.61,8172.22 L 4377.84,8186.48 L 4382.93,8202.13 L 4384.65,8218.5 z " style="fill-opacity:1.000000;fill:rgb(130,100,152);stroke:rgb(0,0,0);stroke-width:2"/></g>
<g fill-rule="evenodd"><path d="M 4384.65,9005.91 L 4382.93,9022.28 L 4377.84,9037.93 L 4369.61,9052.19 L 4358.59,9064.42 L 4345.28,9074.1 L 4330.24,9080.79 L 4314.14,9084.21 L 4297.67,9084.21 L 4281.57,9080.79 L 4266.54,9074.1 L 4253.22,9064.42 L 4242.2,9052.19 L 4233.97,9037.93 L 4228.89,9022.28 L 4227.17,9005.91 L 4228.89,8989.53 L 4233.97,8973.88 L 4242.2,8959.62 L 4253.22,8947.39 L 4266.54,8937.71 L 4281.57,8931.02 L 4297.67,8927.6 L 4314.14,8927.6 L 4330.24,8931.02 L 4345.28,8937.71 L 4358.59,8947.39 L 4369.61,8959.62 L 4377.84,8973.88 L 4382.93,8989.53 L 4384.65,9005.91 z " style="fill-opacity:1.000000;fill:rgb(217,168,135);stroke:rgb(0,0,0);stroke-width:2"/></g>
<g fill-rule="evenodd"><path d="M 1227.17,9884.65 L 1227.17,9727.17 L 1384.65,9727.17 L 1384.65,9884.65 L 1227.17,9884.65 z " style="fill-opacity:1.000000;fill:rgb(117,101,112);stroke:rgb(0,0,0);stroke-width:2"/></g>
<g fill-rule="evenodd"><path d="M 1384.65,10005.9 L 1382.93,10022.3 L 1377.84,10037.9 L 1369.61,10052.2 L 1358.59,10064.4 L 1345.28,10074.1 L 1330.24,10080.8 L 1314.14,10084.2 L 1297.67,10084.2 L 1281.57,10080.8 L 1266.54,10074.1 L 1253.22,10064.4 L 1242.2,10052.2 L 1233.97,10037.9 L 1228.89,10022.3 L 1227.17,10005.9 L 1228.89,9989.53 L 1233.97,9973.88 L 1242.2,9959.62 L 1253.22,9947.39 L 1266.54,9937.71 L 1281.57,9931.02 L 1297.67,9927.6 L 1314.14,9927.6 L 1330.24,9931.02 L 1345.28,9937.71 L 1358.59,9947.39 L 1369.61,9959.62 L 1377.84,9973.88 L 1382.93,9989.53 L 1384.65,10005.9 z " style="fill-opacity:1.000000;fill:rgb(90,138,63);stroke:rgb(0,0,0);stroke-width:2"/></g>
<g fill-rule="evenodd"><path d="M 1384.65,10205.9 L 1382.93,10222.3 L 1377.84,10237.9 L 1369.61,10252.2 L 1358.59,10264.4 L 1345.28,10274.1 L 1330.24,10280.8 L 1314.14,10284.2 L 1297.67,10284.2 L 1281.57,10280.8 L 1266.54,10274.1 L 1253.22,10264.4 L 1242.2,10252.2 L 1233.97,10237.9 L 1228.89,10222.3 L 1227.17,10205.9 L 1228.89,10189.5 L 1233.97,10173.9 L 1242.2,10159.6 L 1253.22,10147.4 L 1266.54,10137.7 L 1281.57,10131 L 1297.67,10127.6 L 1314.14,10127.6 L 1330.24,10131 L 1345.28,10137.7 L 1358.59,10147.4 L 1369.61,10159.6 L 1377.84,10173.9 L 1382.93,10189.5 L 1384.65,10205.9 z " style="fill-opacity:1.000000;fill:rgb(98,128,41);stroke:rgb(0,0,0);stroke-width:2"/></g>
<g fill-rule="evenodd"><path d="M 784.646,9805.91 L 782.925,9822.28 L 777.838,9837.93 L 769.608,9852.19 L 758.593,9864.42 L 745.276,9874.1 L 730.238,9880.79 L 714.136,9884.21 L 697.675,9884.21 L 681.573,9880.79 L 666.535,9874.1 L 653.218,9864.42 L 642.203,9852.19 L 633.973,9837.93 L 628.886,9822.28 L 627.165,9805.91 L 628.886,9789.53 L 633.973,9773.88 L 642.203,9759.62 L 653.218,9747.39 L 666.535,9737.71 L 681.573,9731.02 L 697.675,9727.6 L 714.136,9727.6 L 730.238,9731.02 L 745.276,9737.71 L 758.593,9747.39 L 769.608,9759.62 L 777.838,9773.88 L 782.925,9789.53 L 784.646,9805.91 z " style="fill-opacity:1.000000;fill:rgb(68,222,124);stroke:rgb(0,0,0);stroke-width:2"/></g>
<g fill-rule="evenodd"><path d="M 784.646,10005.9 L 782.925,10022.3 L 777.838,10037.9 L 769.608,10052.2 L 758.593,10064.4 L 745.276,10074.1 L 730.238,10080.8 L 714.136,10084.2 L 697.675,10084.2 L 681.573,10080.8 L 666.535,10074.1 L 653.218,10064.4 L 642.203,10052.2 L 633.973,10037.9 L 628.886,10022.3 L 627.165,10005.9 L 628.886,9989.53 L 633.973,9973.88 L 642.203,9959.62 L 653.218,9947.39 L 666.535,9937.71 L 681.573,9931.02 L 697.675,9927.6 L 714.136,9927.6 L 730.238,9931.02 L 745.276,9937.71 L 758.593,9947.39 L 769.608,9959.62 L 777.838,9973.88 L 782.925,9989.53 L 784.646,10005.9 z " style="fill-opacity:1.000000;fill:rgb(165,137,78);stroke:rgb(0,0,0);stroke-width:2"/></g>
<g fill-rule="evenodd"><path d="M 784.646,10205.9 L 782.925,10222.3 L 777.838,10237.9 L 769.608,10252.2 L 758.593,10264.4 L 745.276,10274.1 L 730.238,10280.8 L 714.136,10284.2 L 697.675,10284.2 L 681.573,10280.8 L 666.535,10274.1 L 653.218,10264.4 L 642.203,10252.2 L 633.973,10237.9 L 628.886,10222.3 L 627.165,10205.9 L 628.886,10189.5 L 633.973,10173.9 L 642.203,10159.6 L 653.218,10147.4 L 666.535,10137.7 L 681.573,10131 L 697.675,10127.6 L 714.136,10127.6 L 730.238,10131 L 745.276,10137.7 L 758.593,10147.4 L 769.608,10159.6 L 777.838,10173.9 L 782.925,10189.5 L 784.646,10205.9 z " style="fill-opacity:1.000000;fill:rgb(87,89,211);stroke:rgb(0,0,0);stroke-width:2"/></g>
<g fill-rule="evenodd"><path d="M 7902.28,10254.5 L 7902.28,10081.3 L 8075.51,10081.3 L 8075.51,10254.5 L 7902.28,10254.5 z " style="fill-opacity:1.000000;fill:rgb(81,173,172);stroke:rgb(0,0,0);stroke-width:2"/></g>
<g fill-rule="evenodd"><path d="M 7875.51,10167.9 L 7873.62,10185.9 L 7868.02,10203.1 L 7858.97,10218.8 L 7846.85,10232.2 L 7832.2,10242.9 L 7815.66,10250.2 L 7797.95,10254 L 7779.84,10254 L 7762.13,10250.2 L 7745.59,10242.9 L 7730.94,10232.2 L 7718.83,10218.8 L 7709.77,10203.1 L 7704.18,10185.9 L 7702.28,10167.9 L 7704.18,10149.9 L 7709.77,10132.6 L 7718.83,10117 L 7730.94,10103.5 L 7745.59,10092.9 L 7762.13,10085.5 L 7779.84,10081.7 L 7797.95,10081.7 L 7815.66,10085.5 L 7832.2,10092.9 L 7846.85,10103.5 L 7858.97,10117 L 7868.02,10132.6 L 7873.62,10149.9 L 7875.51,10167.9 z " style="fill-opacity:1.000000;fill:rgb(134,149,128);stroke:rgb(0,0,0);stroke-width:2"/></g>
<g fill-rule="evenodd"><path d="M 7675.51,10167.9 L 7673.62,10185.9 L 7668.02,10203.1 L 7658.97,10218.8 L 7646.85,10232.2 L 7632.2,10242.9 L 7615.66,10250.2 L 7597.95,10254 L 7579.84,10254 L 7562.13,10250.2 L 7545.59,10242.9 L 7530.94,10232.2 L 7518.83,10218.8 L 7509.77,10203.1 L 7504.18,10185.9 L 7502.28,10167.9 L 7504.18,10149.9 L 7509.77,10132.6 L 7518.83,10117 L 7530.94,10103.5 L 7545.59,10092.9 L 7562.13,10085.5 L 7579.84,10081.7 L 7597.95,10081.7 L 7615.66,10085.5 L 7632.2,10092.9 L 7646.85,10103.5 L 7658.97,10117 L 7668.02,10132.6 L 7673.62,10149.9 L 7675.51,10167.9 z " style="fill-opacity:1.000000;fill:rgb(236,23,228);stroke:rgb(0,0,0);stroke-width:2"/></g>
<g fill-rule="evenodd"><path d="M 5282.52,10167.9 L 5280.63,10185.9 L 5275.03,10203.1 L 5265.98,10218.8 L 5253.86,10232.2 L 5239.21,10242.9 L 5222.67,10250.2 L 5204.96,10254 L 5186.85,10254 L 5169.14,10250.2 L 5152.6,10242.9 L 5137.95,10232.2 L 5125.83,10218.8 L 5116.78,10203.1 L 5111.18,10185.9 L 5109.29,10167.9 L 5111.18,10149.9 L 5116.78,10132.6 L 5125.83,10117 L 5137.95,10103.5 L 5152.6,10092.9 L 5169.14,10085.5 L 5186.85,10081.7 L 5204.96,10081.7 L 5222.67,10085.5 L 5239.21,10092.9 L 5253.86,10103.5 L 5265.98,10117 L 5275.03,10132.6 L 5280.63,10149.9 L 5282.52,10167.9 z " style="fill-opacity:1.000000;fill:rgb(133,241,140);stroke:rgb(0,0,0);stroke-width:2"/></g>
<g fill-rule="evenodd"><path d="M 5482.52,10167.9 L 5480.63,10185.9 L 5475.03,10203.1 L 5465.98,10218.8 L 5453.86,10232.2 L 5439.21,10242.9 L 5422.67,10250.2 L 5404.96,10254 L 5386.85,10254 L 5369.14,10250.2 L 5352.6,10242.9 L 5337.95,10232.2 L 5325.83,10218.8 L 5316.78,10203.1 L 5311.18,10185.9 L 5309.29,10167.9 L 5311.18,10149.9 L 5316.78,10132.6 L 5325.83,10117 L 5337.95,10103.5 L 5352.6,10092.9 L 5369.14,10085.5 L 5386.85,10081.7 L 5404.96,10081.7 L 5422.67,10085.5 L 5439.21,10092.9 L 5453.86,10103.5 L 5465.98,10117 L 5475.03,10132.6 L 5480.63,10149.9 L 5482.52,10167.9 z " style="fill-opacity:1.000000;fill:rgb(12,102,241);stroke:rgb(0,0,0);stroke-width:2"/></g>
<g fill-rule="evenodd"><path d="M 5509.29,10254.5 L 5509.29,10081.3 L 5682.52,10081.3 L 5682.52,10254.5 L 5509.29,10254.5 z " style="fill-opacity:1.000000;fill:rgb(124,192,124);stroke:rgb(0,0,0);stroke-width:2"/></g>
<g fill-rule="evenodd"><path d="M 3109.29,10254.5 L 3109.29,10081.3 L 3282.52,10081.3 L 3282.52,10254.5 L 3109.29,10254.5 z " style="fill-opacity:1.000000;fill:rgb(187,34,252);stroke:rgb(0,0,0);stroke-width:2"/></g>
<g fill-rule="evenodd"><path d="M 3082.52,10167.9 L 3080.63,10185.9 L 3075.03,10203.1 L 3065.98,10218.8 L 3053.86,10232.2 L 3039.21,10242.9 L 3022.67,10250.2 L 3004.96,10254 L 2986.85,10254 L 2969.14,10250.2 L 2952.6,10242.9 L 2937.95,10232.2 L 2925.83,10218.8 L 2916.78,10203.1 L 2911.18,10185.9 L 2909.29,10167.9 L 2911.18,10149.9 L 2916.78,10132.6 L 2925.83,10117 L 2937.95,10103.5 L 2952.6,10092.9 L 2969.14,10085.5 L 2986.85,10081.7 L 3004.96,10081.7 L 3022.67,10085.5 L 3039.21,10092.9 L 3053.86,10103.5 L 3065.98,10117 L 3075.03,10132.6 L 3080.63,10149.9 L 3082.52,10167.9 z " style="fill-opacity:1.000000;fill:rgb(228,102,218);stroke:rgb(0,0,0);stroke-width:2"/></g>
<g fill-rule="evenodd"><path d="M 2882.52,10167.9 L 2880.63,10185.9 L 2875.03,10203.1 L 2865.98,10218.8 L 2853.86,10232.2 L 2839.21,10242.9 L 2822.67,10250.2 L 2804.96,10254 L 2786.85,10254 L 2769.14,10250.2 L 2752.6,10242.9 L 2737.95,10232.2 L 2725.83,10218.8 L 2716.78,10203.1 L 2711.18,10185.9 L 2709.29,10167.9 L 2711.18,10149.9 L 2716.78,10132.6 L 2725.83,10117 L 2737.95,10103.5 L 2752.6,10092.9 L 2769.14,10085.5 L 2786.85,10081.7 L 2804.96,10081.7 L 2822.67,10085.5 L 2839.21,10092.9 L 2853.86,10103.5 L 2865.98,10117 L 2875.03,10132.6 L 2880.63,10149.9 L 2882.52,10167.9 z " style="fill-opacity:1.000000;fill:rgb(97,11,99);stroke:rgb(0,0,0);stroke-width:2"/></g>
<g fill-rule="evenodd"><path d="M 7084.65,8005.91 L 7082.93,8022.28 L 7077.84,8037.93 L 7069.61,8052.19 L 7058.59,8064.42 L 7045.28,8074.1 L 7030.24,8080.79 L 7014.14,8084.21 L 6997.67,8084.21 L 6981.57,8080.79 L 6966.54,8074.1 L 6953.22,8064.42 L 6942.2,8052.19 L 6933.97,8037.93 L 6928.89,8022.28 L 6927.17,8005.91 L 6928.89,7989.53 L 6933.97,7973.88 L 6942.2,7959.62 L 6953.22,7947.39 L 6966.54,7937.71 L 6981.57,7931.02 L 6997.67,7927.6 L 7014.14,7927.6 L 7030.24,7931.02 L 7045.28,7937.71 L 7058.59,7947.39 L 7069.61,7959.62 L 7077.84,7973.88 L 7082.93,7989.53 L 7084.65,8005.91 z " style="fill-opacity:1.000000;fill:rgb(175,98,188);stroke:rgb(0,0,0);stroke-width:2"/></g>
<g fill-rule="evenodd"><path d="M 7084.65,7415.35 L 7082.93,7431.73 L 7077.84,7447.38 L 7069.61,7461.64 L 7058.59,7473.87 L 7045.28,7483.55 L 7030.24,7490.24 L 7014.14,7493.66 L 6997.67,7493.66 L 6981.57,7490.24 L 6966.54,7483.55 L 6953.22,7473.87 L 6942.2,7461.64 L 6933.97,7447.38 L 6928.89,7431.73 L 6927.17,7415.35 L 6928.89,7398.98 L 6933.97,7383.33 L 6942.2,7369.07 L 6953.22,7356.84 L 6966.54,7347.16 L 6981.57,7340.47 L 6997.67,7337.05 L 7014.14,7337.05 L 7030.24,7340.47 L 7045.28,7347.16 L 7058.59,7356.84 L 7069.61,7369.07 L 7077.84,7383.33 L 7082.93,7398.98 L 7084.65,7415.35 z " style="fill-opacity:1.000000;fill:rgb(131,180,105);stroke:rgb(0,0,0);stroke-width:2"/></g>
</svg>
