M48
;DRILL file {KiCad 5.0.2-bee76a0~70~ubuntu18.04.1} date Sun 30 Dec 2018 11:51:42 PM CST
;FORMAT={-:-/ absolute / inch / decimal}
FMAT,2
INCH,TZ
T1C0.0315
T2C0.0394
T3C0.0400
T4C0.0433
T5C0.0470
T6C0.0630
T7C0.0787
T8C0.1102
T9C0.1260
%
G90
G05
T1
X1.4294Y-4.252
X1.4294Y-4.6457
X0.25Y-1.3
X0.65Y-1.3
X1.05Y-0.8
X1.05Y-0.9
X1.05Y-1.
X1.35Y-0.8
X1.35Y-0.9
X1.35Y-1.
X4.158Y-1.638
X4.558Y-1.638
X4.95Y-2.5
X4.95Y-3.1
X0.9Y-3.45
X1.3Y-3.45
X1.6364Y-4.086
X1.9364Y-4.086
X0.251Y-3.453
X0.5593Y-1.8273
X0.5593Y-3.7273
X0.6593Y-1.8273
X0.6593Y-3.7273
X0.7593Y-1.8273
X0.7593Y-3.7273
X0.8593Y-1.8273
X0.8593Y-3.7273
X0.9593Y-1.8273
X0.9593Y-3.7273
X1.0593Y-1.8273
X1.0593Y-3.7273
X1.1593Y-3.7273
X1.2593Y-1.8273
X1.2593Y-3.7273
X1.3593Y-1.8273
X1.4191Y-3.7273
X1.4593Y-1.8273
X1.5191Y-3.7273
X1.5593Y-1.8273
X1.6191Y-3.7273
X1.6593Y-1.8273
X1.7191Y-3.7273
X1.7593Y-1.8273
X1.8191Y-3.7273
X1.8593Y-1.8273
X1.9191Y-3.7273
X1.9593Y-1.8273
X2.0191Y-3.7273
X2.1191Y-3.7273
X2.2191Y-3.7273
X2.3191Y-3.7273
X3.5Y-3.7047
X3.5Y-4.
X0.35Y-4.9
X0.35Y-5.
X0.35Y-5.1
X3.5Y-4.15
X3.5Y-4.45
X0.45Y-1.5
X0.85Y-1.5
X2.65Y-2.1
X2.65Y-2.5
X1.6299Y-4.2878
X1.6299Y-4.3878
X1.6299Y-4.4878
X1.6299Y-4.5878
X1.9299Y-4.2878
X1.9299Y-4.3878
X1.9299Y-4.4878
X1.9299Y-4.5878
X0.65Y-4.9
X0.65Y-5.
X0.65Y-5.1
X4.95Y-1.75
X4.95Y-2.35
X2.95Y-2.
X2.95Y-2.4
X2.15Y-4.1063
X2.15Y-4.5
X3.2885Y-1.9932
X3.2885Y-2.0932
X3.2885Y-2.1932
X3.2885Y-2.2932
X3.2885Y-2.3932
X3.2885Y-2.4932
X3.2885Y-2.5932
X3.2885Y-2.6932
X4.6232Y-2.0932
X4.6232Y-2.1932
X4.6232Y-2.2932
X4.6232Y-2.3932
X4.6232Y-2.4932
X4.6232Y-2.5932
X3.Y-4.85
X3.3Y-4.85
X3.7Y-4.8
X4.1Y-4.8
X2.05Y-0.8
X2.05Y-1.1
X2.15Y-0.8
X2.15Y-1.1
X2.25Y-0.8
X2.25Y-1.1
X3.6524Y-3.505
X4.0524Y-3.505
T2
X2.595Y-5.081
X2.695Y-5.081
X2.795Y-5.081
X3.7915Y-5.081
X3.8915Y-5.081
X3.9915Y-5.081
X0.7Y-4.25
X1.2Y-4.25
X1.3Y-2.
X0.351Y-3.453
X1.Y-2.
X4.85Y-3.6
X4.85Y-3.8953
X1.395Y-5.081
X1.495Y-5.081
X1.595Y-5.081
T3
X0.911Y-0.322
X0.911Y-0.578
X1.089Y-0.322
X1.089Y-0.578
X1.415Y-0.35
X1.6Y-0.35
X1.785Y-0.35
T4
X3.8196Y-4.099
X4.1504Y-4.099
T5
X2.1Y-0.375
X2.3Y-0.375
X2.8Y-0.375
X3.Y-0.375
X0.431Y-0.8
X0.431Y-1.
X5.405Y-4.5
X5.405Y-4.7
T6
X5.25Y-2.5
X5.25Y-3.1
X3.85Y-3.15
X4.45Y-3.15
X5.25Y-1.7
X5.25Y-2.3
T7
X3.3209Y-0.5248
X3.3248Y-1.4106
X5.1713Y-0.5287
X5.1713Y-1.4067
T8
X2.2272Y-5.5991
X3.1872Y-5.5991
X1.0461Y-5.5991
X2.0061Y-5.5991
X3.4083Y-5.5991
X4.3683Y-5.5991
T9
X0.3937Y-0.3937
X5.5118Y-5.5118
X0.4593Y-2.0273
X0.4593Y-3.1273
X2.4593Y-3.7273
X2.5093Y-1.8273
X5.5118Y-0.3937
X0.3937Y-5.5118
T0
M30
