G04 #@! TF.GenerationSoftware,KiCad,Pcbnew,5.0.2-bee76a0~70~ubuntu18.04.1*
G04 #@! TF.CreationDate,2018-12-30T23:51:28-06:00*
G04 #@! TF.ProjectId,MPPT,4d505054-2e6b-4696-9361-645f70636258,rev?*
G04 #@! TF.SameCoordinates,Original*
G04 #@! TF.FileFunction,Copper,L2,Bot*
G04 #@! TF.FilePolarity,Positive*
%FSLAX46Y46*%
G04 Gerber Fmt 4.6, Leading zero omitted, Abs format (unit mm)*
G04 Created by KiCad (PCBNEW 5.0.2-bee76a0~70~ubuntu18.04.1) date Sun 30 Dec 2018 11:51:28 PM CST*
%MOMM*%
%LPD*%
G01*
G04 APERTURE LIST*
G04 #@! TA.AperFunction,ComponentPad*
%ADD10O,1.500000X2.500000*%
G04 #@! TD*
G04 #@! TA.AperFunction,ComponentPad*
%ADD11C,3.000000*%
G04 #@! TD*
G04 #@! TA.AperFunction,ComponentPad*
%ADD12R,3.200000X3.200000*%
G04 #@! TD*
G04 #@! TA.AperFunction,ComponentPad*
%ADD13O,3.200000X3.200000*%
G04 #@! TD*
G04 #@! TA.AperFunction,ComponentPad*
%ADD14R,3.816000X3.816000*%
G04 #@! TD*
G04 #@! TA.AperFunction,ComponentPad*
%ADD15C,2.000000*%
G04 #@! TD*
G04 #@! TA.AperFunction,ComponentPad*
%ADD16R,2.400000X1.600000*%
G04 #@! TD*
G04 #@! TA.AperFunction,ComponentPad*
%ADD17O,2.400000X1.600000*%
G04 #@! TD*
G04 #@! TA.AperFunction,ComponentPad*
%ADD18R,1.600000X2.400000*%
G04 #@! TD*
G04 #@! TA.AperFunction,ComponentPad*
%ADD19O,1.600000X2.400000*%
G04 #@! TD*
G04 #@! TA.AperFunction,ComponentPad*
%ADD20R,3.810000X3.810000*%
G04 #@! TD*
G04 #@! TA.AperFunction,ComponentPad*
%ADD21O,1.524000X3.048000*%
G04 #@! TD*
G04 #@! TA.AperFunction,ComponentPad*
%ADD22O,3.581400X1.790700*%
G04 #@! TD*
G04 #@! TA.AperFunction,ComponentPad*
%ADD23O,1.790700X3.581400*%
G04 #@! TD*
G04 #@! TA.AperFunction,ComponentPad*
%ADD24C,3.810000*%
G04 #@! TD*
G04 #@! TA.AperFunction,ComponentPad*
%ADD25R,1.700000X1.700000*%
G04 #@! TD*
G04 #@! TA.AperFunction,ComponentPad*
%ADD26O,2.500000X1.500000*%
G04 #@! TD*
G04 #@! TA.AperFunction,ComponentPad*
%ADD27O,2.000000X2.000000*%
G04 #@! TD*
G04 #@! TA.AperFunction,ComponentPad*
%ADD28R,2.000000X2.000000*%
G04 #@! TD*
G04 #@! TA.AperFunction,ComponentPad*
%ADD29R,2.200000X2.200000*%
G04 #@! TD*
G04 #@! TA.AperFunction,ComponentPad*
%ADD30C,2.200000*%
G04 #@! TD*
G04 #@! TA.AperFunction,Conductor*
%ADD31C,0.500000*%
G04 #@! TD*
G04 APERTURE END LIST*
D10*
G04 #@! TO.P,A1,32*
G04 #@! TO.N,Net-(A1-Pad32)*
X58905999Y-94672669D03*
G04 #@! TO.P,A1,31*
G04 #@! TO.N,Net-(A1-Pad31)*
X56365999Y-94672669D03*
G04 #@! TO.P,A1,1*
G04 #@! TO.N,Net-(A1-Pad1)*
X49765999Y-46412669D03*
G04 #@! TO.P,A1,17*
G04 #@! TO.N,Net-(A1-Pad17)*
X19285999Y-94672669D03*
G04 #@! TO.P,A1,2*
G04 #@! TO.N,Net-(A1-Pad2)*
X47225999Y-46412669D03*
G04 #@! TO.P,A1,18*
G04 #@! TO.N,Net-(A1-Pad18)*
X21825999Y-94672669D03*
G04 #@! TO.P,A1,3*
G04 #@! TO.N,Net-(A1-Pad3)*
X44685999Y-46412669D03*
G04 #@! TO.P,A1,19*
G04 #@! TO.N,Net-(A1-Pad19)*
X24365999Y-94672669D03*
G04 #@! TO.P,A1,4*
G04 #@! TO.N,Net-(A1-Pad4)*
X42145999Y-46412669D03*
G04 #@! TO.P,A1,20*
G04 #@! TO.N,Net-(A1-Pad20)*
X26905999Y-94672669D03*
G04 #@! TO.P,A1,5*
G04 #@! TO.N,Net-(A1-Pad5)*
X39605999Y-46412669D03*
G04 #@! TO.P,A1,21*
G04 #@! TO.N,Net-(A1-Pad21)*
X29445999Y-94672669D03*
G04 #@! TO.P,A1,6*
G04 #@! TO.N,Net-(A1-Pad6)*
X37065999Y-46412669D03*
G04 #@! TO.P,A1,22*
G04 #@! TO.N,Net-(A1-Pad22)*
X31985999Y-94672669D03*
G04 #@! TO.P,A1,7*
G04 #@! TO.N,Net-(A1-Pad7)*
X34525999Y-46412669D03*
G04 #@! TO.P,A1,23*
G04 #@! TO.N,Net-(A1-Pad23)*
X36045999Y-94672669D03*
G04 #@! TO.P,A1,8*
G04 #@! TO.N,+5V*
X31985999Y-46412669D03*
G04 #@! TO.P,A1,24*
G04 #@! TO.N,Net-(A1-Pad24)*
X38585999Y-94672669D03*
G04 #@! TO.P,A1,9*
G04 #@! TO.N,Net-(A1-Pad9)*
X26905999Y-46412669D03*
G04 #@! TO.P,A1,25*
G04 #@! TO.N,Net-(A1-Pad25)*
X41125999Y-94672669D03*
G04 #@! TO.P,A1,10*
G04 #@! TO.N,Net-(A1-Pad10)*
X24365999Y-46412669D03*
G04 #@! TO.P,A1,26*
G04 #@! TO.N,Net-(A1-Pad26)*
X43665999Y-94672669D03*
G04 #@! TO.P,A1,11*
G04 #@! TO.N,Net-(A1-Pad11)*
X21825999Y-46412669D03*
G04 #@! TO.P,A1,27*
G04 #@! TO.N,Net-(A1-Pad27)*
X46205999Y-94672669D03*
G04 #@! TO.P,A1,12*
G04 #@! TO.N,Net-(A1-Pad12)*
X19285999Y-46412669D03*
G04 #@! TO.P,A1,28*
G04 #@! TO.N,Net-(A1-Pad28)*
X48745999Y-94672669D03*
G04 #@! TO.P,A1,13*
G04 #@! TO.N,Net-(A1-Pad13)*
X16745999Y-46412669D03*
G04 #@! TO.P,A1,29*
G04 #@! TO.N,GND*
X51285999Y-94672669D03*
G04 #@! TO.P,A1,14*
G04 #@! TO.N,Net-(A1-Pad14)*
X14205999Y-46412669D03*
G04 #@! TO.P,A1,30*
G04 #@! TO.N,Net-(A1-Pad30)*
X53825999Y-94672669D03*
G04 #@! TO.P,A1,15*
G04 #@! TO.N,Net-(A1-Pad15)*
X14205999Y-94672669D03*
G04 #@! TO.P,A1,16*
G04 #@! TO.N,Net-(A1-Pad16)*
X16745999Y-94672669D03*
G04 #@! TD*
D11*
G04 #@! TO.P,C5,2*
G04 #@! TO.N,GND*
X123190000Y-98940000D03*
G04 #@! TO.P,C5,1*
G04 #@! TO.N,Net-(C5-Pad1)*
X123190000Y-91440000D03*
G04 #@! TD*
D12*
G04 #@! TO.P,D4,1*
G04 #@! TO.N,Net-(D4-Pad1)*
X113030000Y-80010000D03*
D13*
G04 #@! TO.P,D4,2*
G04 #@! TO.N,Net-(C5-Pad1)*
X97790000Y-80010000D03*
G04 #@! TD*
D14*
G04 #@! TO.P,HS1,P$1*
G04 #@! TO.N,N/C*
X56571000Y-142217000D03*
G04 #@! TO.P,HS1,P$2*
X80955000Y-142217000D03*
G04 #@! TD*
G04 #@! TO.P,HS2,P$2*
G04 #@! TO.N,N/C*
X50955000Y-142217000D03*
G04 #@! TO.P,HS2,P$1*
X26571000Y-142217000D03*
G04 #@! TD*
G04 #@! TO.P,HS3,P$2*
G04 #@! TO.N,N/C*
X110955000Y-142217000D03*
G04 #@! TO.P,HS3,P$1*
X86571000Y-142217000D03*
G04 #@! TD*
D15*
G04 #@! TO.P,R1,2*
G04 #@! TO.N,Net-(D2-Pad1)*
X104140000Y-121920000D03*
G04 #@! TO.P,R1,1*
G04 #@! TO.N,Net-(C1-Pad1)*
X93980000Y-121920000D03*
G04 #@! TD*
G04 #@! TO.P,R2,1*
G04 #@! TO.N,Net-(A1-Pad14)*
X67310000Y-63500000D03*
G04 #@! TO.P,R2,2*
G04 #@! TO.N,+5V*
X67310000Y-53340000D03*
G04 #@! TD*
G04 #@! TO.P,R3,2*
G04 #@! TO.N,+5V*
X74930000Y-50800000D03*
G04 #@! TO.P,R3,1*
G04 #@! TO.N,Net-(A1-Pad13)*
X74930000Y-60960000D03*
G04 #@! TD*
G04 #@! TO.P,R4,1*
G04 #@! TO.N,Net-(C5-Pad1)*
X102931000Y-89027000D03*
G04 #@! TO.P,R4,2*
G04 #@! TO.N,Net-(C4-Pad2)*
X92771000Y-89027000D03*
G04 #@! TD*
D16*
G04 #@! TO.P,U1,1*
G04 #@! TO.N,Net-(C1-Pad1)*
X41400400Y-108910000D03*
D17*
G04 #@! TO.P,U1,5*
G04 #@! TO.N,Net-(Q3-Pad1)*
X49020400Y-116530000D03*
G04 #@! TO.P,U1,2*
G04 #@! TO.N,Net-(A1-Pad19)*
X41400400Y-111450000D03*
G04 #@! TO.P,U1,6*
G04 #@! TO.N,Net-(C3-Pad1)*
X49020400Y-113990000D03*
G04 #@! TO.P,U1,3*
G04 #@! TO.N,Net-(A1-Pad18)*
X41400400Y-113990000D03*
G04 #@! TO.P,U1,7*
G04 #@! TO.N,Net-(D2-Pad2)*
X49020400Y-111450000D03*
G04 #@! TO.P,U1,4*
G04 #@! TO.N,GND*
X41400400Y-116530000D03*
G04 #@! TO.P,U1,8*
G04 #@! TO.N,Net-(C3-Pad2)*
X49020400Y-108910000D03*
G04 #@! TD*
D15*
G04 #@! TO.P,R6,1*
G04 #@! TO.N,Net-(C1-Pad1)*
X125730000Y-78740000D03*
G04 #@! TO.P,R6,2*
G04 #@! TO.N,Net-(R6-Pad2)*
X125730000Y-63500000D03*
G04 #@! TD*
G04 #@! TO.P,R7,2*
G04 #@! TO.N,Net-(IC1-Pad4)*
X125730000Y-44450000D03*
G04 #@! TO.P,R7,1*
G04 #@! TO.N,Net-(D4-Pad1)*
X125730000Y-59690000D03*
G04 #@! TD*
G04 #@! TO.P,R8,2*
G04 #@! TO.N,Net-(J4-Pad1)*
X22860000Y-87630000D03*
G04 #@! TO.P,R8,1*
G04 #@! TO.N,Net-(A1-Pad27)*
X33020000Y-87630000D03*
G04 #@! TD*
G04 #@! TO.P,R9,1*
G04 #@! TO.N,GND*
X105613000Y-41605200D03*
G04 #@! TO.P,R9,2*
G04 #@! TO.N,Net-(IC1-Pad4)*
X115773000Y-41605200D03*
G04 #@! TD*
G04 #@! TO.P,R10,2*
G04 #@! TO.N,Net-(IC2-Pad1)*
X21590000Y-38100000D03*
G04 #@! TO.P,R10,1*
G04 #@! TO.N,Net-(A1-Pad21)*
X11430000Y-38100000D03*
G04 #@! TD*
D17*
G04 #@! TO.P,IC1,6*
G04 #@! TO.N,Net-(IC1-Pad6)*
X26670000Y-25400000D03*
G04 #@! TO.P,IC1,3*
G04 #@! TO.N,Net-(IC1-Pad3)*
X34290000Y-20320000D03*
G04 #@! TO.P,IC1,5*
G04 #@! TO.N,Net-(IC1-Pad5)*
X26670000Y-22860000D03*
G04 #@! TO.P,IC1,2*
G04 #@! TO.N,GND*
X34290000Y-22860000D03*
G04 #@! TO.P,IC1,4*
G04 #@! TO.N,Net-(IC1-Pad4)*
X26670000Y-20320000D03*
D16*
G04 #@! TO.P,IC1,1*
G04 #@! TO.N,Net-(IC1-Pad1)*
X34290000Y-25400000D03*
G04 #@! TD*
D18*
G04 #@! TO.P,IC2,1*
G04 #@! TO.N,Net-(IC2-Pad1)*
X57150000Y-20320000D03*
D19*
G04 #@! TO.P,IC2,4*
G04 #@! TO.N,Net-(IC2-Pad4)*
X52070000Y-27940000D03*
G04 #@! TO.P,IC2,2*
G04 #@! TO.N,GND*
X54610000Y-20320000D03*
G04 #@! TO.P,IC2,5*
G04 #@! TO.N,Net-(IC2-Pad5)*
X54610000Y-27940000D03*
G04 #@! TO.P,IC2,3*
G04 #@! TO.N,Net-(IC2-Pad3)*
X52070000Y-20320000D03*
G04 #@! TO.P,IC2,6*
G04 #@! TO.N,+5V*
X57150000Y-27940000D03*
G04 #@! TD*
D15*
G04 #@! TO.P,R5,1*
G04 #@! TO.N,Net-(A1-Pad20)*
X6350000Y-33020000D03*
G04 #@! TO.P,R5,2*
G04 #@! TO.N,Net-(IC1-Pad1)*
X16510000Y-33020000D03*
G04 #@! TD*
D20*
G04 #@! TO.P,U2,GND_OUT*
G04 #@! TO.N,GND*
X84350000Y-13330000D03*
G04 #@! TO.P,U2,OUT*
G04 #@! TO.N,+5V*
X84450000Y-35830000D03*
G04 #@! TO.P,U2,IN*
G04 #@! TO.N,Net-(D6-Pad1)*
X131350000Y-35730000D03*
G04 #@! TO.P,U2,GND_IN*
G04 #@! TO.N,GND*
X131350000Y-13430000D03*
G04 #@! TD*
D21*
G04 #@! TO.P,S1,1*
G04 #@! TO.N,Net-(S1-Pad1)*
X23139400Y-14681200D03*
G04 #@! TO.P,S1,3*
G04 #@! TO.N,Net-(S1-Pad3)*
X27660600Y-14681200D03*
G04 #@! TO.P,S1,2*
G04 #@! TO.N,Net-(IC1-Pad4)*
X23139400Y-8178800D03*
G04 #@! TO.P,S1,4*
G04 #@! TO.N,Net-(IC1-Pad6)*
X27660600Y-8178800D03*
G04 #@! TD*
D22*
G04 #@! TO.P,U3,2*
G04 #@! TO.N,Net-(R6-Pad2)*
X137287000Y-119380000D03*
G04 #@! TO.P,U3,1*
G04 #@! TO.N,GND*
X137287000Y-114300000D03*
G04 #@! TD*
D12*
G04 #@! TO.P,D6,1*
G04 #@! TO.N,Net-(D6-Pad1)*
X133350000Y-58420000D03*
D13*
G04 #@! TO.P,D6,2*
G04 #@! TO.N,Net-(D4-Pad1)*
X133350000Y-43180000D03*
G04 #@! TD*
G04 #@! TO.P,D7,2*
G04 #@! TO.N,Net-(C1-Pad1)*
X133350000Y-78740000D03*
D12*
G04 #@! TO.P,D7,1*
G04 #@! TO.N,Net-(D6-Pad1)*
X133350000Y-63500000D03*
G04 #@! TD*
D23*
G04 #@! TO.P,U4,1*
G04 #@! TO.N,GND*
X53340000Y-9525000D03*
G04 #@! TO.P,U4,2*
G04 #@! TO.N,Net-(SW1-Pad2)*
X58420000Y-9525000D03*
G04 #@! TD*
D22*
G04 #@! TO.P,U5,2*
G04 #@! TO.N,Net-(IC1-Pad4)*
X10947400Y-20320000D03*
G04 #@! TO.P,U5,1*
G04 #@! TO.N,GND*
X10947400Y-25400000D03*
G04 #@! TD*
D23*
G04 #@! TO.P,U6,2*
G04 #@! TO.N,Net-(IC2-Pad4)*
X76200000Y-9525000D03*
G04 #@! TO.P,U6,1*
G04 #@! TO.N,GND*
X71120000Y-9525000D03*
G04 #@! TD*
D24*
G04 #@! TO.P,SW1,1*
G04 #@! TO.N,Net-(IC1-Pad6)*
X35941000Y-8890000D03*
G04 #@! TO.P,SW1,2*
G04 #@! TO.N,Net-(SW1-Pad2)*
X40640000Y-8890000D03*
G04 #@! TO.P,SW1,3*
G04 #@! TO.N,Net-(SW1-Pad3)*
X45339000Y-8890000D03*
G04 #@! TD*
D25*
G04 #@! TO.P,J1,1*
G04 #@! TO.N,Net-(A1-Pad9)*
X25400000Y-50800000D03*
G04 #@! TD*
G04 #@! TO.P,J2,1*
G04 #@! TO.N,+5V*
X33020000Y-50800000D03*
G04 #@! TD*
D26*
G04 #@! TO.P,X2,1*
G04 #@! TO.N,+5V*
X83529000Y-68406600D03*
G04 #@! TO.P,X2,2*
G04 #@! TO.N,GND*
X83529000Y-65866600D03*
G04 #@! TO.P,X2,3*
G04 #@! TO.N,Net-(A1-Pad14)*
X83529000Y-63326600D03*
G04 #@! TO.P,X2,4*
G04 #@! TO.N,Net-(A1-Pad13)*
X83529000Y-60786600D03*
G04 #@! TO.P,X2,5*
G04 #@! TO.N,Net-(X2-Pad5)*
X83529000Y-58246600D03*
G04 #@! TO.P,X2,6*
G04 #@! TO.N,Net-(X2-Pad6)*
X83529000Y-55706600D03*
G04 #@! TO.P,X2,7*
G04 #@! TO.N,Net-(X2-Pad7)*
X83529000Y-53166600D03*
G04 #@! TO.P,X2,8*
G04 #@! TO.N,Net-(X2-Pad8)*
X83529000Y-50626600D03*
G04 #@! TO.P,X2,9*
G04 #@! TO.N,Net-(C1-Pad1)*
X117429000Y-65866600D03*
G04 #@! TO.P,X2,10*
G04 #@! TO.N,Net-(R6-Pad2)*
X117429000Y-63326600D03*
G04 #@! TO.P,X2,11*
G04 #@! TO.N,Net-(D4-Pad1)*
X117429000Y-60786600D03*
G04 #@! TO.P,X2,12*
G04 #@! TO.N,Net-(IC1-Pad4)*
X117429000Y-58246600D03*
G04 #@! TO.P,X2,13*
G04 #@! TO.N,Net-(X2-Pad13)*
X117429000Y-55706600D03*
G04 #@! TO.P,X2,14*
G04 #@! TO.N,Net-(X2-Pad14)*
X117429000Y-53166600D03*
G04 #@! TD*
D27*
G04 #@! TO.P,D2,2*
G04 #@! TO.N,Net-(D2-Pad2)*
X76200000Y-123190000D03*
D28*
G04 #@! TO.P,D2,1*
G04 #@! TO.N,Net-(D2-Pad1)*
X83820000Y-123190000D03*
G04 #@! TD*
G04 #@! TO.P,D3,1*
G04 #@! TO.N,Net-(C3-Pad1)*
X88900000Y-105410000D03*
D27*
G04 #@! TO.P,D3,2*
G04 #@! TO.N,GND*
X88900000Y-113030000D03*
G04 #@! TD*
D11*
G04 #@! TO.P,L1,1*
G04 #@! TO.N,Net-(C5-Pad1)*
X105419000Y-104115000D03*
G04 #@! TO.P,L1,2*
G04 #@! TO.N,Net-(C3-Pad1)*
X97019000Y-104115000D03*
G04 #@! TD*
D15*
G04 #@! TO.P,C1,1*
G04 #@! TO.N,Net-(C1-Pad1)*
X30480000Y-107950000D03*
G04 #@! TO.P,C1,2*
G04 #@! TO.N,GND*
X17780000Y-107950000D03*
G04 #@! TD*
D28*
G04 #@! TO.P,D1,1*
G04 #@! TO.N,Net-(C3-Pad2)*
X49184200Y-103784000D03*
D27*
G04 #@! TO.P,D1,2*
G04 #@! TO.N,Net-(C1-Pad1)*
X41564200Y-103784000D03*
G04 #@! TD*
D28*
G04 #@! TO.P,J4,1*
G04 #@! TO.N,Net-(J4-Pad1)*
X8915400Y-87706200D03*
D15*
G04 #@! TO.P,J4,2*
G04 #@! TO.N,GND*
X6375400Y-87706200D03*
G04 #@! TD*
G04 #@! TO.P,C2,1*
G04 #@! TO.N,Net-(C1-Pad1)*
X36306400Y-108001000D03*
G04 #@! TO.P,C2,2*
G04 #@! TO.N,GND*
X36306400Y-118001000D03*
G04 #@! TD*
G04 #@! TO.P,C3,2*
G04 #@! TO.N,Net-(C3-Pad2)*
X54610000Y-104300000D03*
G04 #@! TO.P,C3,1*
G04 #@! TO.N,Net-(C3-Pad1)*
X54610000Y-114300000D03*
G04 #@! TD*
D28*
G04 #@! TO.P,J3,1*
G04 #@! TO.N,Net-(J3-Pad1)*
X16510000Y-124460000D03*
D15*
G04 #@! TO.P,J3,2*
G04 #@! TO.N,Net-(J3-Pad2)*
X16510000Y-127000000D03*
G04 #@! TO.P,J3,3*
G04 #@! TO.N,GND*
X16510000Y-129540000D03*
G04 #@! TD*
G04 #@! TO.P,RV1,1*
G04 #@! TO.N,Net-(J3-Pad1)*
X8890000Y-124460000D03*
G04 #@! TO.P,RV1,2*
G04 #@! TO.N,Net-(J3-Pad2)*
X8890000Y-127000000D03*
G04 #@! TO.P,RV1,3*
G04 #@! TO.N,GND*
X8890000Y-129540000D03*
G04 #@! TD*
D29*
G04 #@! TO.P,Q1,1*
G04 #@! TO.N,Net-(D2-Pad1)*
X101384000Y-129057000D03*
D30*
G04 #@! TO.P,Q1,2*
G04 #@! TO.N,Net-(Q1-Pad2)*
X98844000Y-129057000D03*
G04 #@! TO.P,Q1,3*
G04 #@! TO.N,Net-(C1-Pad1)*
X96304000Y-129057000D03*
G04 #@! TD*
G04 #@! TO.P,Q2,3*
G04 #@! TO.N,Net-(C3-Pad1)*
X65913000Y-129057000D03*
G04 #@! TO.P,Q2,2*
G04 #@! TO.N,Net-(Q1-Pad2)*
X68453000Y-129057000D03*
D29*
G04 #@! TO.P,Q2,1*
G04 #@! TO.N,Net-(D2-Pad2)*
X70993000Y-129057000D03*
G04 #@! TD*
G04 #@! TO.P,Q3,1*
G04 #@! TO.N,Net-(Q3-Pad1)*
X40513000Y-129057000D03*
D30*
G04 #@! TO.P,Q3,2*
G04 #@! TO.N,Net-(C3-Pad1)*
X37973000Y-129057000D03*
G04 #@! TO.P,Q3,3*
G04 #@! TO.N,GND*
X35433000Y-129057000D03*
G04 #@! TD*
D15*
G04 #@! TO.P,C4,1*
G04 #@! TO.N,Net-(C3-Pad1)*
X88900000Y-101600000D03*
G04 #@! TO.P,C4,2*
G04 #@! TO.N,Net-(C4-Pad2)*
X88900000Y-94100000D03*
G04 #@! TD*
D31*
G04 #@! TO.N,Net-(C1-Pad1)*
X93980000Y-124940300D02*
X93980000Y-121920000D01*
X96304000Y-129057000D02*
X93980000Y-126733000D01*
X93980000Y-126733000D02*
X93980000Y-124940300D01*
X93980000Y-124940300D02*
X82495300Y-124940300D01*
X82495300Y-124940300D02*
X82069700Y-124514700D01*
X82069700Y-124514700D02*
X82069700Y-117354500D01*
X82069700Y-117354500D02*
X89873000Y-109551200D01*
X89873000Y-109551200D02*
X96121100Y-109551200D01*
X96121100Y-109551200D02*
X99307100Y-106365200D01*
X99307100Y-106365200D02*
X99326800Y-106384900D01*
X99326800Y-106384900D02*
X111476200Y-106384900D01*
X111476200Y-106384900D02*
X125730000Y-92131100D01*
X125730000Y-92131100D02*
X125730000Y-78740000D01*
X43314500Y-103784000D02*
X47286300Y-99812200D01*
X47286300Y-99812200D02*
X95899000Y-99812200D01*
X95899000Y-99812200D02*
X99307100Y-103220300D01*
X99307100Y-103220300D02*
X99307100Y-106365200D01*
X41564200Y-103784000D02*
X43314500Y-103784000D01*
X125730000Y-78740000D02*
X130999700Y-78740000D01*
X41564200Y-103784000D02*
X41564200Y-105534300D01*
X133350000Y-78740000D02*
X130999700Y-78740000D01*
X38819300Y-108279200D02*
X39450100Y-108910000D01*
X36306400Y-108001000D02*
X38541100Y-108001000D01*
X38541100Y-108001000D02*
X38819300Y-108279200D01*
X38819300Y-108279200D02*
X41564200Y-105534300D01*
X117429000Y-65866600D02*
X119429300Y-65866600D01*
X119429300Y-65866600D02*
X119429300Y-72439300D01*
X119429300Y-72439300D02*
X125730000Y-78740000D01*
X41400400Y-108910000D02*
X39450100Y-108910000D01*
X30480000Y-107950000D02*
X30531000Y-108001000D01*
X30531000Y-108001000D02*
X36306400Y-108001000D01*
G04 #@! TO.N,GND*
X36306400Y-118001000D02*
X37979100Y-118001000D01*
X37979100Y-118001000D02*
X39450100Y-116530000D01*
X35433000Y-127789600D02*
X35433000Y-118874400D01*
X35433000Y-118874400D02*
X36306400Y-118001000D01*
X41400400Y-116530000D02*
X39450100Y-116530000D01*
X81528700Y-69908100D02*
X74050300Y-69908100D01*
X74050300Y-69908100D02*
X51286000Y-92672400D01*
X105613000Y-41605200D02*
X105613000Y-49751500D01*
X105613000Y-49751500D02*
X85456400Y-69908100D01*
X85456400Y-69908100D02*
X81528700Y-69908100D01*
X81528700Y-69908100D02*
X81528700Y-65866600D01*
X51286000Y-94672700D02*
X51286000Y-92672400D01*
X105613000Y-35920600D02*
X105613000Y-41605200D01*
X83529000Y-65866600D02*
X81528700Y-65866600D01*
X54610000Y-13336100D02*
X53340000Y-12066100D01*
X54610000Y-20320000D02*
X54610000Y-13336100D01*
X54610000Y-13336100D02*
X65663200Y-13336100D01*
X65663200Y-13336100D02*
X69474300Y-9525000D01*
X71120000Y-9525000D02*
X69474300Y-9525000D01*
X84350000Y-13330000D02*
X81694700Y-13330000D01*
X71120000Y-9525000D02*
X72765700Y-9525000D01*
X72765700Y-9525000D02*
X75356800Y-6933900D01*
X75356800Y-6933900D02*
X76898800Y-6933900D01*
X76898800Y-6933900D02*
X81694700Y-11729800D01*
X81694700Y-11729800D02*
X81694700Y-13330000D01*
X53340000Y-9525000D02*
X53340000Y-12066100D01*
X54610000Y-20647400D02*
X54610000Y-20320000D01*
X54610000Y-20647400D02*
X54610000Y-22270300D01*
X17780000Y-107950000D02*
X6375400Y-96545400D01*
X6375400Y-96545400D02*
X6375400Y-87706200D01*
X17780000Y-107950000D02*
X18260400Y-108430400D01*
X18260400Y-108430400D02*
X18260400Y-127789600D01*
X16510000Y-129540000D02*
X8890000Y-129540000D01*
X18260400Y-127789600D02*
X16510000Y-129540000D01*
X84350000Y-13330000D02*
X84350000Y-15985300D01*
X84350000Y-15985300D02*
X85677700Y-15985300D01*
X85677700Y-15985300D02*
X105613000Y-35920600D01*
X104576900Y-117553100D02*
X123190000Y-98940000D01*
X88900000Y-113030000D02*
X100053800Y-113030000D01*
X100053800Y-113030000D02*
X104576900Y-117553100D01*
X35433000Y-129057000D02*
X35433000Y-129133900D01*
X35433000Y-129133900D02*
X38283600Y-131984500D01*
X38283600Y-131984500D02*
X101754100Y-131984500D01*
X101754100Y-131984500D02*
X105930600Y-127808000D01*
X105930600Y-127808000D02*
X105930600Y-118906800D01*
X105930600Y-118906800D02*
X104576900Y-117553100D01*
X35433000Y-127789600D02*
X35433000Y-129057000D01*
X131350000Y-13430000D02*
X128694700Y-13430000D01*
X128694700Y-13430000D02*
X106204100Y-35920600D01*
X106204100Y-35920600D02*
X105613000Y-35920600D01*
X18260400Y-127789600D02*
X35433000Y-127789600D01*
X6375400Y-87706200D02*
X4547200Y-85878000D01*
X4547200Y-85878000D02*
X4547200Y-32296600D01*
X4547200Y-32296600D02*
X9798100Y-27045700D01*
X9798100Y-27045700D02*
X10947400Y-27045700D01*
X34290000Y-22860000D02*
X36240300Y-22860000D01*
X54610000Y-22270300D02*
X36830000Y-22270300D01*
X36830000Y-22270300D02*
X36240300Y-22860000D01*
X10947400Y-27045700D02*
X27616900Y-27045700D01*
X27616900Y-27045700D02*
X31802600Y-22860000D01*
X31802600Y-22860000D02*
X34290000Y-22860000D01*
X137287000Y-112654300D02*
X136904300Y-112654300D01*
X136904300Y-112654300D02*
X123190000Y-98940000D01*
X137287000Y-114300000D02*
X137287000Y-112654300D01*
X10947400Y-25400000D02*
X10947400Y-27045700D01*
G04 #@! TO.N,Net-(C3-Pad1)*
X88900000Y-102008100D02*
X88900000Y-101600000D01*
X88900000Y-105410000D02*
X88900000Y-102008100D01*
X88900000Y-102008100D02*
X47899000Y-102008100D01*
X47899000Y-102008100D02*
X47070100Y-102837000D01*
X47070100Y-102837000D02*
X47070100Y-113990000D01*
X49020400Y-113990000D02*
X47070100Y-113990000D01*
X47070100Y-113990000D02*
X37973000Y-123087100D01*
X37973000Y-123087100D02*
X37973000Y-129057000D01*
X49347900Y-113990000D02*
X49020400Y-113990000D01*
X49347900Y-113990000D02*
X50970700Y-113990000D01*
X54610000Y-114300000D02*
X65913000Y-125603000D01*
X65913000Y-125603000D02*
X65913000Y-129057000D01*
X88900000Y-105410000D02*
X90650300Y-105410000D01*
X97019000Y-104115000D02*
X91945300Y-104115000D01*
X91945300Y-104115000D02*
X90650300Y-105410000D01*
X54610000Y-114300000D02*
X51280700Y-114300000D01*
X51280700Y-114300000D02*
X50970700Y-113990000D01*
G04 #@! TO.N,Net-(C3-Pad2)*
X51450500Y-104300000D02*
X50934500Y-103784000D01*
X54610000Y-104300000D02*
X51450500Y-104300000D01*
X51450500Y-104300000D02*
X51450500Y-108430200D01*
X51450500Y-108430200D02*
X50970700Y-108910000D01*
X49020400Y-108910000D02*
X50970700Y-108910000D01*
X49184200Y-103784000D02*
X50934500Y-103784000D01*
G04 #@! TO.N,Net-(C4-Pad2)*
X88900000Y-94100000D02*
X92771000Y-90229000D01*
X92771000Y-90229000D02*
X92771000Y-89027000D01*
G04 #@! TO.N,Net-(C5-Pad1)*
X102931000Y-89027000D02*
X102931000Y-87501300D01*
X102931000Y-87501300D02*
X97790000Y-82360300D01*
X105419000Y-91515000D02*
X102931000Y-89027000D01*
X97790000Y-80010000D02*
X97790000Y-82360300D01*
X105419000Y-104115000D02*
X105419000Y-91515000D01*
X105419000Y-91515000D02*
X123115000Y-91515000D01*
X123115000Y-91515000D02*
X123190000Y-91440000D01*
G04 #@! TO.N,Net-(D2-Pad2)*
X70993000Y-127206700D02*
X55236300Y-111450000D01*
X55236300Y-111450000D02*
X49020400Y-111450000D01*
X70993000Y-127206700D02*
X74449700Y-123750000D01*
X74449700Y-123750000D02*
X74449700Y-123190000D01*
X76200000Y-123190000D02*
X74449700Y-123190000D01*
X70993000Y-129057000D02*
X70993000Y-127206700D01*
G04 #@! TO.N,Net-(D2-Pad1)*
X101384000Y-124676000D02*
X101384000Y-127206700D01*
X104140000Y-121920000D02*
X101384000Y-124676000D01*
X101384000Y-124676000D02*
X96851200Y-120143200D01*
X96851200Y-120143200D02*
X88617100Y-120143200D01*
X88617100Y-120143200D02*
X85570300Y-123190000D01*
X83820000Y-123190000D02*
X85570300Y-123190000D01*
X101384000Y-129057000D02*
X101384000Y-127206700D01*
G04 #@! TO.N,Net-(D4-Pad1)*
X113030000Y-80010000D02*
X113030000Y-77659700D01*
X117429000Y-60786600D02*
X115428700Y-60786600D01*
X115428700Y-60786600D02*
X115428700Y-75261000D01*
X115428700Y-75261000D02*
X113030000Y-77659700D01*
X125730000Y-59690000D02*
X124633400Y-60786600D01*
X124633400Y-60786600D02*
X117429000Y-60786600D01*
X125730000Y-59690000D02*
X125730000Y-53150300D01*
X125730000Y-53150300D02*
X133350000Y-45530300D01*
X133350000Y-43180000D02*
X133350000Y-45530300D01*
G04 #@! TO.N,+5V*
X83529000Y-68406600D02*
X85529300Y-68406600D01*
X85529300Y-68406600D02*
X85529300Y-49936200D01*
X85529300Y-49936200D02*
X84719300Y-49126200D01*
X84719300Y-49126200D02*
X84450000Y-49126200D01*
X74930000Y-50800000D02*
X76603800Y-49126200D01*
X76603800Y-49126200D02*
X84450000Y-49126200D01*
X74930000Y-50800000D02*
X69850000Y-50800000D01*
X84450000Y-49126200D02*
X84450000Y-38485300D01*
X84450000Y-35830000D02*
X84450000Y-38485300D01*
X56227300Y-35548900D02*
X47363800Y-44412400D01*
X47363800Y-44412400D02*
X31986000Y-44412400D01*
X57150000Y-29890300D02*
X57150000Y-34626200D01*
X57150000Y-34626200D02*
X56227300Y-35548900D01*
X56227300Y-35548900D02*
X69850000Y-49171700D01*
X69850000Y-49171700D02*
X69850000Y-50800000D01*
X69850000Y-50800000D02*
X67310000Y-53340000D01*
X31986000Y-46412700D02*
X31986000Y-44412400D01*
X31986000Y-46412700D02*
X31986000Y-48413000D01*
X33020000Y-50800000D02*
X33020000Y-49199700D01*
X31986000Y-48413000D02*
X32233300Y-48413000D01*
X32233300Y-48413000D02*
X33020000Y-49199700D01*
X57150000Y-27940000D02*
X57150000Y-29890300D01*
G04 #@! TO.N,Net-(Q1-Pad2)*
X68453000Y-129057000D02*
X68453000Y-129849800D01*
X68453000Y-129849800D02*
X69516400Y-130913200D01*
X69516400Y-130913200D02*
X97065100Y-130913200D01*
X97065100Y-130913200D02*
X98844000Y-129134300D01*
X98844000Y-129134300D02*
X98844000Y-129057000D01*
G04 #@! TO.N,Net-(Q3-Pad1)*
X49020400Y-116530000D02*
X47070100Y-116530000D01*
X40513000Y-129057000D02*
X40513000Y-127206700D01*
X40513000Y-127206700D02*
X47070100Y-120649600D01*
X47070100Y-120649600D02*
X47070100Y-116530000D01*
G04 #@! TO.N,Net-(R6-Pad2)*
X137287000Y-119380000D02*
X137287000Y-117734300D01*
X125730000Y-63500000D02*
X139862600Y-77632600D01*
X139862600Y-77632600D02*
X139862600Y-115158700D01*
X139862600Y-115158700D02*
X137287000Y-117734300D01*
X117429000Y-63326600D02*
X125556600Y-63326600D01*
X125556600Y-63326600D02*
X125730000Y-63500000D01*
G04 #@! TO.N,Net-(IC1-Pad4)*
X121768100Y-47600300D02*
X115773000Y-41605200D01*
X125730000Y-44450000D02*
X122579700Y-47600300D01*
X122579700Y-47600300D02*
X121768100Y-47600300D01*
X119429300Y-58246600D02*
X119429300Y-49939100D01*
X119429300Y-49939100D02*
X121768100Y-47600300D01*
X117429000Y-58246600D02*
X119429300Y-58246600D01*
X125730000Y-44450000D02*
X125730000Y-28608100D01*
X125730000Y-28608100D02*
X134005400Y-20332700D01*
X134005400Y-20332700D02*
X134005400Y-11214200D01*
X134005400Y-11214200D02*
X127976100Y-5184900D01*
X127976100Y-5184900D02*
X23859000Y-5184900D01*
X23859000Y-5184900D02*
X23139400Y-5904500D01*
X23139400Y-8178800D02*
X23139400Y-5904500D01*
X23139400Y-9315900D02*
X23139400Y-8178800D01*
X23139400Y-9315900D02*
X23139400Y-10453100D01*
X24719700Y-20320000D02*
X10947400Y-20320000D01*
X26670000Y-20320000D02*
X24719700Y-20320000D01*
X23139400Y-10453100D02*
X24719700Y-12033400D01*
X24719700Y-12033400D02*
X24719700Y-20320000D01*
G04 #@! TO.N,Net-(IC2-Pad1)*
X57150000Y-20320000D02*
X57150000Y-22270300D01*
X57150000Y-22270300D02*
X55559900Y-23860400D01*
X55559900Y-23860400D02*
X48120700Y-23860400D01*
X48120700Y-23860400D02*
X33881100Y-38100000D01*
X33881100Y-38100000D02*
X21590000Y-38100000D01*
G04 #@! TO.N,Net-(D6-Pad1)*
X131350000Y-35730000D02*
X131350000Y-38385300D01*
X133350000Y-58420000D02*
X133350000Y-56069700D01*
X133350000Y-56069700D02*
X135716400Y-53703300D01*
X135716400Y-53703300D02*
X135716400Y-42170900D01*
X135716400Y-42170900D02*
X131930800Y-38385300D01*
X131930800Y-38385300D02*
X131350000Y-38385300D01*
X133350000Y-63500000D02*
X133350000Y-58420000D01*
G04 #@! TO.N,Net-(IC1-Pad1)*
X34290000Y-25400000D02*
X32339700Y-25400000D01*
X32339700Y-25400000D02*
X24719700Y-33020000D01*
X24719700Y-33020000D02*
X16510000Y-33020000D01*
G04 #@! TO.N,Net-(IC1-Pad6)*
X29230600Y-10453100D02*
X27660600Y-10453100D01*
X35941000Y-8890000D02*
X34377900Y-10453100D01*
X34377900Y-10453100D02*
X29230600Y-10453100D01*
X29230600Y-10453100D02*
X29230600Y-22978800D01*
X29230600Y-22978800D02*
X26809400Y-25400000D01*
X26809400Y-25400000D02*
X26670000Y-25400000D01*
X27660600Y-8178800D02*
X27660600Y-10453100D01*
G04 #@! TO.N,Net-(IC2-Pad4)*
X52070000Y-27940000D02*
X52070000Y-25989700D01*
X76200000Y-9525000D02*
X74554300Y-9525000D01*
X74554300Y-9525000D02*
X58089600Y-25989700D01*
X58089600Y-25989700D02*
X52070000Y-25989700D01*
G04 #@! TO.N,Net-(SW1-Pad2)*
X58420000Y-9525000D02*
X56774300Y-9525000D01*
X40640000Y-8890000D02*
X43299200Y-6230800D01*
X43299200Y-6230800D02*
X53480100Y-6230800D01*
X53480100Y-6230800D02*
X56774300Y-9525000D01*
G04 #@! TO.N,Net-(A1-Pad18)*
X21826000Y-94672700D02*
X21826000Y-103245800D01*
X21826000Y-103245800D02*
X32570200Y-113990000D01*
X32570200Y-113990000D02*
X41400400Y-113990000D01*
G04 #@! TO.N,Net-(A1-Pad19)*
X41400400Y-111450000D02*
X39450100Y-111450000D01*
X39450100Y-111450000D02*
X31444900Y-111450000D01*
X31444900Y-111450000D02*
X24366000Y-104371100D01*
X24366000Y-104371100D02*
X24366000Y-94672700D01*
G04 #@! TO.N,Net-(A1-Pad20)*
X6350000Y-33020000D02*
X6350000Y-64072600D01*
X6350000Y-64072600D02*
X26906000Y-84628600D01*
X26906000Y-84628600D02*
X26906000Y-94672700D01*
G04 #@! TO.N,Net-(A1-Pad21)*
X11430000Y-38100000D02*
X11430000Y-47051700D01*
X11430000Y-47051700D02*
X29446000Y-65067700D01*
X29446000Y-65067700D02*
X29446000Y-94672700D01*
G04 #@! TO.N,Net-(A1-Pad9)*
X26906000Y-46412700D02*
X26906000Y-48413000D01*
X25400000Y-50800000D02*
X25400000Y-49199700D01*
X25400000Y-49199700D02*
X26186700Y-48413000D01*
X26186700Y-48413000D02*
X26906000Y-48413000D01*
G04 #@! TO.N,Net-(A1-Pad27)*
X46206000Y-94672700D02*
X46206000Y-92672400D01*
X33020000Y-87630000D02*
X41163600Y-87630000D01*
X41163600Y-87630000D02*
X46206000Y-92672400D01*
G04 #@! TO.N,Net-(A1-Pad13)*
X74930000Y-60873300D02*
X29206300Y-60873300D01*
X29206300Y-60873300D02*
X16746000Y-48413000D01*
X83529000Y-60786600D02*
X75016700Y-60786600D01*
X75016700Y-60786600D02*
X74930000Y-60873300D01*
X74930000Y-60873300D02*
X74930000Y-60960000D01*
X16746000Y-46412700D02*
X16746000Y-48413000D01*
G04 #@! TO.N,Net-(A1-Pad14)*
X67310000Y-63413300D02*
X29206300Y-63413300D01*
X29206300Y-63413300D02*
X14206000Y-48413000D01*
X83529000Y-63326600D02*
X67396700Y-63326600D01*
X67396700Y-63326600D02*
X67310000Y-63413300D01*
X67310000Y-63413300D02*
X67310000Y-63500000D01*
X14206000Y-46412700D02*
X14206000Y-48413000D01*
G04 #@! TO.N,Net-(J3-Pad1)*
X8890000Y-124460000D02*
X16510000Y-124460000D01*
G04 #@! TO.N,Net-(J3-Pad2)*
X8890000Y-127000000D02*
X16510000Y-127000000D01*
G04 #@! TO.N,Net-(J4-Pad1)*
X8915400Y-87706200D02*
X10665700Y-87706200D01*
X10665700Y-87706200D02*
X10741900Y-87630000D01*
X10741900Y-87630000D02*
X22860000Y-87630000D01*
G04 #@! TD*
M02*
